<svg xmlns="http://www.w3.org/2000/svg" xmlns:xlink="http://www.w3.org/1999/xlink" width="715.2" height="888" viewBox="0 0 536.4 666" version="1.2"><defs><symbol overflow="visible" id="c"><path style="stroke:none" d="M8.25 0H6.953c-.75 0-1.594.035-2.531.11-.586.05-.992.077-1.219.077-.805 0-1.46-.187-1.969-.562-.5-.375-.75-.86-.75-1.453 0-.426.11-.754.329-.984.226-.227.593-.415 1.093-.563.477-.125.801-.32.969-.594.164-.27.297-.789.39-1.562.102-.907.192-2.657.266-5.25.082-2.602.125-5.188.125-7.75 0-1.008-.078-1.68-.234-2.016-.156-.332-.527-.601-1.11-.812-.824-.313-1.234-.844-1.234-1.594 0-.582.281-1.04.844-1.375.57-.332 1.367-.5 2.39-.5.333 0 .727.008 1.188.015 1.008.043 1.738.063 2.188.063 1.718 0 3.656-.05 5.812-.156a25.657 25.657 0 0 1 1.703-.047c2.75 0 4.922.312 6.516.937 2.363.938 4.144 2.508 5.343 4.703 1.07 1.95 1.61 4.266 1.61 6.954 0 1.355-.2 2.714-.594 4.078-.398 1.355-.93 2.527-1.594 3.515-1.398 2.012-3.32 3.43-5.765 4.25-1.438.48-2.969.72-4.594.72L13.953.124 12.078.078C10.628.023 9.352 0 8.25 0Zm3.781-19.484v13.906c0 .762.16 1.305.485 1.625.32.312.859.469 1.609.469 3.5 0 5.25-2.66 5.25-7.985 0-2.937-.406-5.21-1.219-6.828-.898-1.789-2.418-2.687-4.562-2.687-.586 0-.992.117-1.219.343-.23.23-.344.618-.344 1.157Zm0 0"/></symbol><symbol overflow="visible" id="d"><path style="stroke:none" d="M10.672-16.656V-6.22c0 .824.07 1.43.219 1.813.156.386.46.742.921 1.062.364.262.61.485.735.672.133.188.203.43.203.719C12.75-.41 10.785.359 6.86.359c-2.106 0-3.778-.168-5.016-.5A2.13 2.13 0 0 1 .828-.766c-.25-.3-.375-.644-.375-1.03 0-.321.063-.571.188-.75.132-.188.472-.477 1.015-.876.364-.27.625-.719.782-1.344.156-.625.234-1.55.234-2.78 0-.395-.027-1.134-.078-2.22a65.983 65.983 0 0 0-.11-1.906c-.074-.488-.414-.863-1.015-1.125-.742-.32-1.11-.8-1.11-1.437 0-.758.485-1.32 1.454-1.688a32.043 32.043 0 0 1 4.312-1.312c1.54-.364 2.727-.547 3.563-.547.656 0 .984.375.984 1.125Zm-3.547-7.875c1.04 0 1.863.195 2.469.578.613.387.922.914.922 1.578 0 .918-.465 1.648-1.391 2.188-1.46.855-3.227 1.28-5.297 1.28-.875 0-1.57-.163-2.078-.5-.7-.437-1.047-1.034-1.047-1.796 0-1.031.735-1.844 2.203-2.438 1.5-.593 2.906-.89 4.219-.89Zm0 0"/></symbol><symbol overflow="visible" id="e"><path style="stroke:none" d="M7.875-17.906c.594 0 1.566.136 2.922.406.281.043.508.063.687.063.207 0 .602-.11 1.188-.329.27-.101.504-.156.703-.156.55 0 1.11.356 1.672 1.063A7.516 7.516 0 0 1 16.157-15c.288.668.437 1.246.437 1.734 0 .48-.172.883-.516 1.204-.336.312-.75.468-1.25.468-.418 0-.793-.097-1.125-.297-.324-.207-.855-.66-1.594-1.359-.761-.738-1.398-1.11-1.906-1.11-.336 0-.625.126-.875.376-.242.242-.36.527-.36.859 0 .594.563 1.148 1.688 1.656 2.031.906 3.582 1.903 4.656 2.985.915.906 1.376 2.023 1.376 3.343 0 1.668-.735 3.059-2.204 4.172C13.223 0 11.688.484 9.875.484 9.406.484 8.551.406 7.312.25 6.157.113 5.505.047 5.36.047c-.156 0-.34.02-.546.062-.344.051-.594.079-.75.079C3.5.188 3.054.039 2.734-.25c-.492-.445-.949-1.145-1.375-2.094C.941-3.3.734-4.117.734-4.797c0-1.101.43-1.656 1.297-1.656.332 0 .64.117.922.344.281.218.875.808 1.781 1.765.489.524.895.883 1.22 1.078.32.2.671.297 1.046.297.383 0 .695-.101.938-.312.238-.207.359-.485.359-.828 0-.54-.461-1.036-1.375-1.485-1.93-.945-3.324-1.922-4.188-2.922A5.23 5.23 0 0 1 1.454-12c0-1.426.437-2.656 1.312-3.688 1.25-1.476 2.953-2.218 5.109-2.218Zm0 0"/></symbol><symbol overflow="visible" id="f"><path style="stroke:none" d="M10.922-17.906c2.133 0 4.02.539 5.656 1.61 1.54 1.01 2.313 2.273 2.313 3.78 0 1.043-.36 1.891-1.078 2.547-.668.606-1.477.906-2.422.906-1 0-1.75-.359-2.25-1.078-.157-.226-.387-.804-.688-1.734-.324-1.008-.937-1.516-1.844-1.516-.668 0-1.226.29-1.671.86-.45.574-.672 1.281-.672 2.125 0 1.437.515 2.715 1.546 3.828.844.898 1.899 1.344 3.172 1.344.594 0 1.094-.047 1.5-.141.407-.102.942-.313 1.61-.625a1.21 1.21 0 0 1 .547-.125c.406 0 .765.195 1.078.578.312.375.468.824.468 1.344 0 .543-.226 1.11-.671 1.703-.438.586-1.016 1.102-1.735 1.547C14.22.004 12.38.484 10.266.484c-2.47 0-4.575-.718-6.313-2.156C1.723-3.492.61-5.812.61-8.625c0-2.707 1.036-4.945 3.11-6.719 1.976-1.707 4.379-2.562 7.203-2.562Zm0 0"/></symbol><symbol overflow="visible" id="g"><path style="stroke:none" d="M9.484-17.813c.739 0 1.196.063 1.375.188.176.125.266.438.266.938 0 .449.145.671.438.671.113 0 .515-.226 1.203-.687.507-.344 1.16-.629 1.953-.86.8-.238 1.523-.359 2.172-.359 1.52 0 2.882.527 4.093 1.578.907.805 1.61 1.82 2.11 3.047.531 1.281.797 2.633.797 4.047 0 3.012-1.024 5.496-3.063 7.453C19.266-.273 17.477.484 15.468.484c-1.011 0-2.058-.242-3.14-.718-.219-.094-.39-.141-.515-.141-.368 0-.547.36-.547 1.078 0 .945.316 1.629.953 2.047.594.395.941.66 1.047.797.113.133.171.363.171.687 0 .727-.402 1.286-1.203 1.672-.804.383-1.933.578-3.39.578-2.606 0-4.883-.523-6.828-1.562-1-.524-1.5-1.172-1.5-1.953 0-.367.07-.64.218-.828.157-.18.454-.371.891-.579C2.238 1.27 2.613.75 2.75 0c.145-.75.254-2.914.328-6.5-.086-2.945-.195-4.602-.328-4.969-.055-.113-.125-.187-.219-.219-.086-.039-.375-.113-.875-.218a1.499 1.499 0 0 1-.937-.516 1.532 1.532 0 0 1-.36-1.015c0-.489.164-.915.5-1.282.332-.363.88-.719 1.641-1.062 2.938-1.332 5.266-2.008 6.984-2.031Zm1.782 6.797L11-6.078c-.012.21-.016.406-.016.594 0 .375.16.68.485.906.32.23.754.344 1.297.344 1.656 0 2.484-1.364 2.484-4.094 0-1.758-.352-3-1.047-3.719-.437-.437-.953-.656-1.547-.656-.855 0-1.32.562-1.39 1.687Zm0 0"/></symbol><symbol overflow="visible" id="h"><path style="stroke:none" d="M10.953-14.25v5.766c0 2.554.035 4.043.11 4.468.082.418.378.735.89.954.445.199.742.382.89.546.145.168.22.407.22.72 0 .398-.141.757-.422 1.077-.282.324-.657.555-1.125.688-.856.258-2.309.39-4.36.39C4.844.36 3.22.188 2.281-.156A2.438 2.438 0 0 1 1.22-.891C.945-1.223.812-1.566.812-1.92c0-.29.07-.516.22-.673.155-.156.484-.336.984-.547.468-.207.754-.765.859-1.671.188-1.563.281-3.782.281-6.657 0-2.926-.086-4.804-.25-5.64-.168-.844-.586-1.47-1.25-1.875-.5-.282-.843-.551-1.031-.813-.188-.258-.281-.578-.281-.953 0-.582.281-1.094.844-1.531.562-.438 1.457-.844 2.687-1.219.832-.25 1.906-.484 3.219-.703 1.32-.227 2.281-.344 2.875-.344.945 0 1.422.586 1.422 1.75 0 .387-.059 1.266-.172 2.64a96.56 96.56 0 0 0-.266 5.907Zm0 0"/></symbol><symbol overflow="visible" id="i"><path style="stroke:none" d="m22.484-11.266.25 6.329c.032.48.11.835.235 1.062.125.219.488.652 1.093 1.297.188.2.282.469.282.812 0 .793-.477 1.344-1.422 1.657-.95.312-2.64.468-5.078.468-1.649 0-2.813-.148-3.5-.437-.711-.29-1.063-.774-1.063-1.453 0-.239.035-.414.11-.532.07-.113.312-.39.718-.828.477-.507.72-2.187.72-5.03 0-1.657-.196-2.88-.579-3.673-.313-.633-.887-.953-1.719-.953-.804 0-1.355.262-1.656.781-.305.512-.453 1.446-.453 2.797v3.563c0 .71.039 1.195.125 1.453.094.262.394.773.906 1.531.125.211.188.453.188.735 0 .71-.493 1.23-1.47 1.562-.98.332-2.51.5-4.593.5-3.336 0-5-.688-5-2.063 0-.289.047-.507.14-.656.102-.156.348-.367.735-.64.313-.227.508-.489.594-.782.082-.289.16-1.015.234-2.171.082-1.364.125-2.797.125-4.297 0-.82-.062-1.36-.187-1.61-.125-.258-.492-.578-1.094-.953-.512-.32-.766-.719-.766-1.187 0-.477.207-.868.625-1.172.426-.313 1.29-.703 2.594-1.172 1.145-.406 2.25-.75 3.313-1.031 1.07-.282 1.804-.422 2.203-.422.363 0 .664.136.906.406.25.262.375.57.375.922 0 .043-.008.195-.016.453-.023.094-.03.18-.03.25 0 .574.237.86.718.86.289 0 .598-.223.922-.672 1.031-1.489 2.531-2.235 4.5-2.235 1.508 0 2.8.399 3.875 1.188.758.562 1.285 1.226 1.578 1.984.3.762.488 1.883.562 3.36Zm0 0"/></symbol><symbol overflow="visible" id="j"><path style="stroke:none" d="M17.297-8.047H8.844c-.375 0-.563.164-.563.485 0 .773.422 1.507 1.266 2.203.851.687 1.765 1.03 2.734 1.03.57 0 1.207-.109 1.906-.327.708-.227 1.286-.504 1.735-.828.406-.282.726-.422.969-.422.312 0 .617.195.922.578.3.375.453.766.453 1.172 0 .867-.543 1.699-1.625 2.5-1.907 1.43-4.106 2.14-6.594 2.14-2.524 0-4.633-.726-6.328-2.187a8.965 8.965 0 0 1-2.047-2.61 9.073 9.073 0 0 1-1.063-4.28c0-2.009.61-3.817 1.829-5.423a9.67 9.67 0 0 1 4.03-3.109c1.22-.52 2.54-.781 3.97-.781 2.28 0 4.218.648 5.812 1.937.8.656 1.445 1.43 1.938 2.313.562 1 .843 1.98.843 2.937 0 .781-.164 1.422-.484 1.922-.324.5-.742.75-1.25.75Zm-7.985-3.36h1.813c.77 0 1.156-.35 1.156-1.062 0-.644-.187-1.172-.562-1.578-.375-.414-.86-.625-1.453-.625-.68 0-1.204.266-1.579.797-.367.492-.546.984-.546 1.484 0 .368.082.621.25.766.175.148.484.219.921.219Zm0 0"/></symbol><symbol overflow="visible" id="k"><path style="stroke:none" d="M7.266-11.031c1.351 0 2.535.351 3.546 1.047a5.67 5.67 0 0 1 1.766 1.968 5.4 5.4 0 0 1 .688 2.625c0 1.606-.735 2.965-2.204 4.079C9.656-.238 8.052.296 6.25.296c-1.762 0-3.188-.5-4.281-1.5C.906-2.18.375-3.453.375-5.016c0-1.738.648-3.16 1.953-4.265 1.352-1.164 3-1.75 4.938-1.75ZM6.39-8.47c-.336 0-.602.121-.797.36-.188.242-.282.558-.282.953 0 .437.083 1.043.25 1.812.165.762.364 1.438.594 2.032.227.605.598.906 1.11.906.656 0 .984-.414.984-1.25 0-.625-.086-1.328-.25-2.11-.168-.789-.367-1.437-.594-1.937-.25-.5-.59-.754-1.015-.766Zm0 0"/></symbol><symbol overflow="visible" id="l"><path style="stroke:none" d="M6.938-8.953h1.375c.226 0 .39.039.484.11.101.062.144.179.125.343l-.078 1.313c-.024.261-.063.43-.125.5-.063.074-.211.109-.438.109a3.72 3.72 0 0 1-.375-.031h-.328c-.312 0-.527.105-.64.312-.106.2-.157.578-.157 1.14 0 .774.082 1.423.25 1.954.07.23.172.402.297.515.125.106.328.2.61.282.656.187.984.543.984 1.062 0 .555-.383.953-1.14 1.203-.75.239-1.993.36-3.72.36C1.5.219.22-.29.22-1.313c0-.25.05-.43.156-.546.113-.114.348-.25.703-.407.395-.175.633-.504.719-.984.125-.727.187-1.504.187-2.328 0-.363-.07-.617-.203-.766-.125-.144-.36-.21-.703-.203-.398 0-.652-.02-.766-.062-.105-.04-.152-.141-.14-.297l.078-1.39c.02-.227.063-.368.125-.423.063-.062.234-.097.516-.11.28-.007.421-.14.421-.39 0-.101-.105-.344-.312-.719-.336-.613-.5-1.222-.5-1.828 0-.906.305-1.64.922-2.203.906-.832 2.207-1.25 3.906-1.25 1.395 0 2.508.328 3.344.985.644.511.969 1.093.969 1.75 0 .48-.164.886-.485 1.218-.312.325-.71.485-1.187.485-.532 0-1.04-.18-1.516-.547-.125-.094-.406-.383-.844-.875-.312-.344-.632-.516-.953-.516a.694.694 0 0 0-.531.235.72.72 0 0 0-.219.53c0 .587.551 1.212 1.656 1.876.344.21.57.371.688.484.125.117.234.281.328.5.05.094.172.14.36.14Zm0 0"/></symbol><symbol overflow="visible" id="Q"><path style="stroke:none" d="M8.875-15.406c1.07 0 2.11.234 3.11.703.476.219.804.328.984.328.133 0 .351-.031.656-.094a1.51 1.51 0 0 1 .313-.031c.382 0 .722.18 1.015.531.695.856 1.047 1.918 1.047 3.188 0 .886-.305 1.539-.906 1.953-.336.219-.711.328-1.125.328-.375 0-.684-.078-.922-.234-.23-.164-.453-.457-.672-.875-.324-.57-.586-.985-.781-1.235a3.605 3.605 0 0 0-.735-.703c-.71-.5-1.453-.75-2.234-.75-.762 0-1.367.277-1.813.828-.449.543-.671 1.278-.671 2.203 0 1.262.32 2.422.968 3.485.864 1.406 2.11 2.11 3.735 2.11a5.44 5.44 0 0 0 1.765-.298c.594-.195 1.051-.457 1.375-.781.282-.258.508-.39.688-.39.258 0 .476.12.656.359.188.242.281.527.281.86 0 .429-.132.905-.39 1.437-.262.53-.57.949-.922 1.25-.156.125-.48.242-.969.343-.281.055-.652.188-1.11.407a7.856 7.856 0 0 1-3.405.78C7.57.297 6.342.02 5.124-.53A7.515 7.515 0 0 1 1.75-3.484C.937-4.774.531-6.125.531-7.531c0-1.633.508-3.13 1.531-4.485.883-1.164 2.036-2.062 3.454-2.687a8.372 8.372 0 0 1 3.359-.703Zm0 0"/></symbol><symbol overflow="visible" id="R"><path style="stroke:none" d="m6.578-14.563-.156 4.641c-.012.555.16.828.516.828.175 0 .347-.117.515-.36.719-1.038 1.676-1.562 2.875-1.562 1.164 0 2.098.36 2.797 1.079.3.312.516.687.64 1.124.133.43.212 1.047.235 1.86l.094 4c.008.344.054.601.14.765.082.157.282.36.594.61.207.168.313.371.313.61 0 .792-1.204 1.187-3.61 1.187-2.136 0-3.203-.367-3.203-1.11 0-.125.016-.218.047-.28.04-.071.172-.255.39-.548.313-.406.47-1.414.47-3.031 0-.988-.094-1.707-.282-2.156-.242-.614-.672-.922-1.297-.922-.449 0-.781.168-1 .5-.156.23-.234.672-.234 1.328v2.125c.05.95.094 1.484.125 1.61.039.124.21.355.516.687.144.156.218.34.218.547 0 .836-1.086 1.25-3.25 1.25C1.488.219.22-.211.22-1.078c0-.195.039-.348.125-.453.082-.102.281-.27.594-.5.28-.196.472-.727.578-1.594.113-.875.171-2.32.171-4.344 0-1.593-.046-2.691-.14-3.297-.031-.226-.09-.394-.172-.5-.074-.113-.215-.226-.422-.343-.46-.227-.687-.5-.687-.813 0-.363.171-.66.515-.89.352-.227 1.02-.477 2-.75 1.32-.364 2.38-.547 3.172-.547.426 0 .633.183.625.546Zm0 0"/></symbol><symbol overflow="visible" id="S"><path style="stroke:none" d="M6.734-11.031c1.282 0 2.368.324 3.266.969.469.355.797.757.984 1.203.188.437.282 1.046.282 1.828l-.016 1.656c0 1.148.082 1.887.25 2.219.07.168.145.273.219.312.082.043.238.086.469.125.238.031.359.188.359.469 0 .355-.149.727-.438 1.11a3.612 3.612 0 0 1-1.093.952A3.425 3.425 0 0 1 9.28.297C8.508.297 7.895.03 7.437-.5c-.148-.188-.289-.281-.421-.281-.149 0-.344.09-.594.265-.73.54-1.563.813-2.5.813-.969 0-1.75-.211-2.344-.625a2.833 2.833 0 0 1-.937-1.063 2.905 2.905 0 0 1-.344-1.375c0-.77.312-1.445.937-2.03.957-.927 2.399-1.395 4.329-1.407.425 0 .69-.04.796-.125.114-.082.172-.281.172-.594 0-.781-.086-1.348-.25-1.703-.156-.352-.418-.531-.781-.531a.967.967 0 0 0-.594.203c-.18.137-.39.383-.64.734-.657.938-1.344 1.406-2.063 1.406-.367 0-.664-.101-.89-.312-.231-.219-.344-.5-.344-.844 0-.351.14-.707.422-1.062.289-.352.68-.664 1.171-.938 1.333-.707 2.723-1.062 4.172-1.062ZM6-4.625c-.324 0-.605.137-.844.406a1.33 1.33 0 0 0-.36.938c0 .355.083.64.25.86.165.218.391.327.673.327.593 0 .89-.492.89-1.484 0-.406-.046-.676-.14-.813-.086-.144-.242-.222-.469-.234Zm0 0"/></symbol><symbol overflow="visible" id="T"><path style="stroke:none" d="M13.844-6.938 14-3.046c.008.305.05.527.125.672.082.137.313.402.688.797.113.117.171.281.171.5 0 .48-.293.82-.875 1.016-.586.187-1.625.28-3.125.28-1.023 0-1.742-.09-2.156-.265-.437-.187-.656-.484-.656-.89a.67.67 0 0 1 .062-.329c.051-.07.204-.242.454-.515.289-.313.437-1.344.437-3.094 0-1.02-.121-1.773-.36-2.266-.187-.382-.542-.578-1.062-.578-.492 0-.828.164-1.016.485-.18.312-.265.886-.265 1.718v2.188c0 .437.023.742.078.906.05.156.234.465.547.922a.87.87 0 0 1 .125.453c0 .438-.305.762-.906.969C5.66.129 4.71.234 3.422.234 1.379.234.359-.19.359-1.046c0-.177.032-.306.094-.391.063-.094.207-.227.438-.407.195-.133.32-.289.375-.468.05-.188.097-.633.14-1.344.051-.832.078-1.711.078-2.64 0-.509-.043-.845-.125-1-.074-.157-.293-.349-.656-.579C.38-8.07.22-8.316.22-8.609c0-.29.129-.532.39-.72.258-.187.79-.425 1.594-.718.707-.25 1.39-.457 2.047-.625.656-.176 1.102-.265 1.344-.265.218 0 .406.085.562.25a.767.767 0 0 1 .235.562c0 .023-.008.117-.016.281a.87.87 0 0 0-.016.156c0 .356.145.532.438.532.176 0 .367-.14.578-.422.625-.914 1.547-1.375 2.766-1.375.925 0 1.718.246 2.375.734.468.344.789.75.968 1.219.188.469.305 1.156.36 2.063Zm0 0"/></symbol><symbol overflow="visible" id="U"><path style="stroke:none" d="M13.36-14.219v10.11c0 .574.019.945.062 1.109.05.156.187.313.406.469.258.187.438.351.531.484.094.137.141.309.141.516 0 .586-.594 1.031-1.781 1.343-1.063.27-2.133.407-3.203.407-.243 0-.399-.04-.47-.11-.062-.062-.105-.226-.124-.5-.043-.375-.18-.562-.406-.562-.125 0-.32.11-.579.328-.761.617-1.601.922-2.515.922-1.149 0-2.18-.422-3.094-1.266a6.312 6.312 0 0 1-1.297-1.765C.582-3.598.36-4.473.36-5.36c0-1.04.29-2.04.875-3a5.42 5.42 0 0 1 2.157-2.063c.77-.394 1.53-.594 2.28-.594.852 0 1.618.196 2.298.579a.572.572 0 0 0 .265.078c.227 0 .344-.317.344-.954 0-.269-.062-.472-.187-.609-.125-.144-.356-.27-.688-.375-.469-.144-.703-.406-.703-.781 0-.54.535-.961 1.61-1.266 1.882-.52 3.148-.781 3.796-.781.633 0 .953.305.953.906ZM7.343-8.656c-.48 0-.86.258-1.14.765-.376.68-.563 1.575-.563 2.688 0 1 .18 1.758.546 2.266.258.367.61.546 1.047.546.477 0 .829-.273 1.047-.828.219-.562.328-1.46.328-2.703 0-1.133-.132-1.89-.39-2.266-.2-.289-.492-.445-.875-.468Zm0 0"/></symbol><symbol overflow="visible" id="V"><path style="stroke:none" d="M5.594-10.953c.383 0 .617.058.703.172.082.105.16.46.234 1.062.032.324.145.485.344.485.145 0 .285-.11.422-.329.582-.914 1.351-1.374 2.312-1.374.664 0 1.211.218 1.641.656.207.21.375.484.5.828a2.6 2.6 0 0 1 .203.953c0 .355-.086.715-.25 1.078a2.435 2.435 0 0 1-.625.89c-.469.45-1.047.673-1.734.673-.375 0-.696-.063-.953-.188-.25-.133-.579-.406-.985-.812-.156-.157-.304-.235-.437-.235-.211 0-.344.121-.407.36-.062.23-.093.714-.093 1.453 0 1.117.039 1.875.125 2.281.05.219.125.375.218.469.094.086.29.168.594.25.657.199.985.547.985 1.047 0 .304-.11.57-.329.796-.21.22-.492.368-.843.438-.711.145-1.746.219-3.11.219-1.312 0-2.308-.117-2.984-.344C.52-.332.219-.688.219-1.188c0-.382.222-.726.672-1.03.207-.145.351-.274.437-.391.082-.114.14-.27.172-.47.113-.663.172-1.905.172-3.718 0-.332-.04-.57-.11-.719-.074-.144-.218-.257-.437-.343-.531-.207-.797-.508-.797-.907 0-.351.18-.656.547-.906.363-.258.969-.515 1.813-.765 1.132-.333 2.101-.504 2.906-.516Zm0 0"/></symbol><symbol overflow="visible" id="W"><path style="stroke:none" d="M7.125-15.406c.758 0 1.754.187 2.984.562.145.043.266.063.36.063.07 0 .289-.067.656-.203.125-.04.25-.063.375-.063.5 0 1.02.39 1.563 1.172.55.781.828 1.527.828 2.234 0 .418-.125.766-.375 1.047-.243.281-.54.422-.891.422-.293 0-.531-.055-.719-.172-.187-.113-.594-.46-1.219-1.047-.886-.832-1.757-1.25-2.609-1.25-.418 0-.75.106-1 .313-.242.2-.36.46-.36.781 0 .637.563 1.121 1.688 1.453 1.531.45 2.508.778 2.938.985 1.875.906 2.812 2.25 2.812 4.03 0 1.575-.64 2.856-1.922 3.845C10.922-.211 9.207.296 7.094.296c-.95 0-1.95-.108-3-.327C3.05-.258 2.3-.523 1.844-.828c-.356-.238-.68-.754-.969-1.547a6.875 6.875 0 0 1-.422-2.313c0-.363.07-.64.219-.828a.88.88 0 0 1 .703-.343c.281 0 .547.14.797.421.156.168.523.688 1.11 1.563.269.418.702.762 1.296 1.031a4.352 4.352 0 0 0 1.844.406c.539 0 .976-.097 1.312-.296.344-.207.516-.47.516-.782 0-.289-.137-.546-.406-.765-.262-.219-.688-.414-1.282-.594-1.054-.332-1.859-.633-2.421-.906a7.078 7.078 0 0 1-1.547-1.063C1.438-7.875.859-9.047.859-10.359c0-.645.149-1.274.454-1.891.3-.613.726-1.145 1.28-1.594 1.239-1.039 2.75-1.562 4.532-1.562Zm0 0"/></symbol><symbol overflow="visible" id="X"><path style="stroke:none" d="M10.64-4.953H5.438c-.23 0-.343.101-.343.297 0 .48.258.933.781 1.36.52.417 1.082.624 1.688.624.351 0 .742-.066 1.171-.203.426-.133.782-.3 1.063-.5.25-.176.453-.266.61-.266.187 0 .366.121.546.36.188.23.281.469.281.719 0 .53-.328 1.046-.984 1.546C9.07-.14 7.719.297 6.187.297c-1.554 0-2.851-.445-3.89-1.344a5.584 5.584 0 0 1-1.266-1.61A5.564 5.564 0 0 1 .375-5.28C.375-6.52.75-7.633 1.5-8.625a6.147 6.147 0 0 1 2.484-1.922 6.274 6.274 0 0 1 2.438-.469c1.406 0 2.598.399 3.578 1.188.488.406.89.883 1.203 1.422.344.617.516 1.219.516 1.812 0 .48-.102.875-.297 1.188-.2.304-.461.453-.781.453ZM5.735-7.031h1.11c.476 0 .718-.211.718-.64 0-.407-.117-.735-.343-.985-.23-.25-.532-.375-.907-.375-.406 0-.73.164-.968.484-.219.305-.328.61-.328.922 0 .219.05.375.156.469.101.086.289.125.562.125Zm0 0"/></symbol><symbol overflow="visible" id="Y"><path style="stroke:none" d="m6.828-14.563-.11 3.47v1.53c0 .743.009 1.18.032 1.313.05.305.207.453.469.453.218 0 .554-.14 1.015-.422.457-.289.688-.504.688-.64 0-.082-.086-.227-.25-.438A.75.75 0 0 1 8.5-9.75c0-.79.977-1.188 2.938-1.188 1.019 0 1.82.106 2.406.313.238.074.437.215.594.422.156.2.234.414.234.64 0 .325-.164.555-.485.688-.062.031-.277.078-.64.14-.324.063-.746.266-1.266.61-.511.344-.765.594-.765.75 0 .105.312.59.937 1.453a44.402 44.402 0 0 0 1.735 2.266c.351.418.624.715.812.89.195.168.469.344.813.532.53.293.796.62.796.984 0 .398-.168.703-.5.922-.336.219-.793.328-1.375.328h-3.578c-.46-.008-.812-.176-1.062-.5L8.266-2.86c-.493-.613-.79-.976-.891-1.093-.105-.125-.195-.188-.266-.188-.093 0-.156.07-.187.204-.031.136-.047.386-.047.75 0 .335.035.578.11.734.081.148.253.328.515.547.188.148.281.37.281.672 0 .523-.273.898-.812 1.125-.543.226-1.446.343-2.703.343-1.47 0-2.43-.062-2.875-.187A1.25 1.25 0 0 1 .75-.391a1.157 1.157 0 0 1-.266-.734c0-.27.157-.508.47-.719.257-.176.425-.304.5-.39a.965.965 0 0 0 .187-.422c.164-1.031.242-2.625.234-4.781V-9.86c0-.82-.043-1.348-.125-1.579-.086-.226-.293-.363-.625-.406-.605-.082-.906-.332-.906-.75 0-.281.129-.535.39-.765.27-.227.707-.454 1.313-.672 1.937-.707 3.367-1.063 4.297-1.063.414 0 .617.18.61.531Zm0 0"/></symbol><symbol overflow="visible" id="Z"><path style="stroke:none" d="m13.234-12.078-1.187 1.14c-.438.407-.656.782-.656 1.126 0 .187.046.374.14.562.102.18.297.43.578.75l4.125 4.781c.375.43.63.7.766.813.145.117.36.234.64.36.395.167.676.355.844.562.164.21.25.48.25.812C18.734-.39 18.176 0 17.062 0H12.86c-.28 0-.507-.063-.671-.188-.168-.124-.434-.437-.797-.937-.575-.781-1.336-1.688-2.282-2.719-.406-.437-.695-.722-.859-.86-.168-.132-.324-.202-.469-.202-.43 0-.64.402-.64 1.203 0 .656.14 1.11.421 1.36.051.03.172.109.36.234.394.261.594.586.594.968 0 .493-.325.84-.97 1.047-.648.207-1.741.313-3.28.313-1.368 0-2.36-.078-2.985-.235a1.22 1.22 0 0 1-.64-.406.979.979 0 0 1-.25-.656c0-.395.218-.734.656-1.016.195-.133.336-.281.422-.437.093-.156.176-.422.25-.797.144-.832.218-2.113.218-3.844 0-2.07-.078-3.539-.234-4.406-.062-.352-.148-.602-.25-.75-.094-.156-.273-.305-.531-.453-.418-.239-.625-.567-.625-.985 0-.351.129-.64.39-.859.258-.219.672-.379 1.235-.484.75-.145 1.691-.22 2.828-.22 1.164 0 2.023.11 2.578.329.508.21.766.578.766 1.11 0 .218-.043.39-.125.515-.074.117-.274.305-.594.563-.125.105-.242.355-.344.75-.093.386-.14.765-.14 1.14 0 .625.14.938.421.938.165 0 .329-.07.485-.22.164-.155.488-.523.969-1.108.55-.688.828-1.157.828-1.407 0-.133-.074-.332-.219-.594a1.167 1.167 0 0 1-.14-.515c0-.54.288-.926.874-1.156.594-.227 1.602-.344 3.032-.344 1.132 0 1.976.078 2.53.234.665.18 1 .57 1 1.172 0 .23-.073.45-.218.656a.949.949 0 0 1-.515.391c-.157.055-.512.086-1.063.094-.398 0-.695.047-.89.14-.188.086-.438.274-.75.563Zm0 0"/></symbol><symbol overflow="visible" id="aa"><path style="stroke:none" d="M6.484-10.39v6c0 1.28.422 1.921 1.266 1.921.219 0 .426-.054.625-.172.207-.125.352-.273.438-.453.164-.351.25-1.144.25-2.375 0-1.207-.043-2.031-.126-2.468-.03-.188-.085-.32-.156-.407-.074-.082-.215-.18-.422-.297-.418-.218-.625-.5-.625-.843 0-.457.36-.774 1.079-.954 1.374-.332 2.726-.5 4.062-.5.75 0 1.125.399 1.125 1.188 0 .074-.008.234-.016.484-.011.356-.023.79-.03 1.297v4.875c0 .262.21.492.64.688.363.18.547.437.547.781 0 .668-.79 1.18-2.36 1.531-.93.219-1.824.328-2.687.328-.356 0-.594-.043-.719-.125-.125-.086-.2-.238-.219-.468-.043-.457-.183-.688-.422-.688a.515.515 0 0 0-.25.063c-.074.043-.296.187-.671.437-.75.512-1.555.766-2.407.766-1.418 0-2.418-.406-3-1.219-.492-.688-.734-1.844-.734-3.469 0-.601.004-1.117.016-1.547v-.515c0-.633-.06-1.098-.172-1.39a1.35 1.35 0 0 0-.625-.704C.598-8.77.41-8.883.328-8.969a.587.587 0 0 1-.11-.375c0-.562.427-.937 1.282-1.125a20.31 20.31 0 0 1 4.328-.469c.438 0 .656.184.656.547Zm0 0"/></symbol><symbol overflow="visible" id="ab"><path style="stroke:none" d="M5.781-10.938c.426 0 .64.297.64.891v.188a2.967 2.967 0 0 0-.015.296c0 .399.117.594.36.594.125 0 .316-.16.578-.484a4.088 4.088 0 0 1 1.5-1.078 4.509 4.509 0 0 1 1.86-.406c1.237 0 2.097.449 2.577 1.343.176.336.328.5.453.5.07 0 .258-.144.563-.437.957-.938 2.047-1.406 3.265-1.406.958 0 1.739.261 2.344.78.633.544.953 1.36.953 2.454 0 .242-.011.64-.03 1.203-.013.188-.017.766-.017 1.734 0 .618-.007 1.047-.015 1.297a4.88 4.88 0 0 0-.016.344c0 .469.149.883.453 1.234.176.211.282.352.313.422.039.074.062.168.062.282 0 .949-1.109 1.421-3.328 1.421-.98 0-1.773-.117-2.375-.343-.594-.239-.89-.551-.89-.938a.67.67 0 0 1 .062-.328c.04-.082.18-.29.422-.625.227-.3.344-1.305.344-3.016 0-1-.074-1.695-.219-2.093-.156-.457-.48-.688-.969-.688a.968.968 0 0 0-.64.234A1.062 1.062 0 0 0 13.64-7c-.063.262-.102.969-.11 2.125.02 1.242.055 1.996.11 2.266.062.261.25.625.562 1.093.07.118.11.258.11.422 0 .875-1.149 1.313-3.438 1.313C9.5.219 8.57.113 8.094-.094c-.387-.156-.578-.441-.578-.86 0-.187.02-.316.062-.39.05-.07.219-.238.5-.5.156-.156.258-.3.313-.437.05-.133.086-.383.109-.75.05-.813.078-1.63.078-2.453 0-1.446-.371-2.172-1.11-2.172-.554 0-.882.312-.984.937-.093.574-.14 1.407-.14 2.5 0 .805.015 1.336.047 1.594.039.25.132.512.28.781.177.313.266.57.266.766 0 .48-.34.812-1.015 1a9.29 9.29 0 0 1-2.406.297c-1.137 0-1.97-.09-2.5-.266C.484-.234.219-.52.219-.907c0-.144.035-.269.11-.374.07-.102.233-.266.483-.485.333-.3.524-.718.579-1.25.07-.914.109-1.863.109-2.843 0-.707-.04-1.196-.11-1.47A1.112 1.112 0 0 0 .954-8c-.219-.164-.36-.29-.422-.375a.666.666 0 0 1-.094-.375c0-.488.383-.879 1.157-1.172 1.863-.676 3.258-1.015 4.187-1.015Zm0 0"/></symbol><symbol overflow="visible" id="m"><path style="stroke:none" d="M16.625-28.89c2.02 0 3.973.445 5.86 1.328.882.417 1.5.625 1.843.625.25 0 .649-.063 1.203-.188.176-.04.375-.063.594-.063.719 0 1.348.336 1.89 1 1.32 1.606 1.985 3.594 1.985 5.97 0 1.679-.574 2.902-1.719 3.671a3.64 3.64 0 0 1-2.093.625c-.7 0-1.274-.148-1.72-.453-.437-.313-.866-.852-1.28-1.625-.594-1.094-1.079-1.875-1.454-2.344a7.12 7.12 0 0 0-1.375-1.312c-1.336-.938-2.734-1.407-4.203-1.407-1.43 0-2.558.516-3.39 1.547-.836 1.032-1.25 2.414-1.25 4.141 0 2.375.597 4.555 1.796 6.531 1.633 2.637 3.973 3.953 7.016 3.953 1.113 0 2.219-.18 3.313-.546 1.101-.375 1.96-.86 2.578-1.454.52-.5.945-.75 1.281-.75.477 0 .89.227 1.234.672.352.45.532.992.532 1.625 0 .805-.246 1.703-.735 2.703-.48.993-1.058 1.774-1.734 2.344-.293.23-.899.438-1.813.625-.523.094-1.218.352-2.093.766C20.848.07 18.719.563 16.5.563 14.195.563 11.895.038 9.594-1 6.926-2.195 4.82-4.04 3.28-6.531 1.758-8.945 1-11.477 1-14.125c0-3.063.953-5.86 2.86-8.39 1.656-2.196 3.816-3.88 6.484-5.047 2.031-.883 4.125-1.329 6.281-1.329Zm0 0"/></symbol><symbol overflow="visible" id="n"><path style="stroke:none" d="M13.625-20.672c2.531 0 4.75.656 6.656 1.969 1.364.937 2.461 2.164 3.297 3.672.852 1.574 1.281 3.219 1.281 4.937 0 3-1.375 5.547-4.125 7.64C18.11-.44 15.102.564 11.72.564c-3.305 0-5.98-.942-8.031-2.829C1.694-4.086.703-6.46.703-9.39c0-3.257 1.219-5.925 3.656-8 2.54-2.187 5.63-3.28 9.266-3.28Zm-1.656 4.781c-.617 0-1.106.23-1.469.688-.367.45-.547 1.043-.547 1.781 0 .836.156 1.969.469 3.406.312 1.43.68 2.696 1.11 3.797.425 1.137 1.124 1.703 2.093 1.703 1.227 0 1.844-.78 1.844-2.343 0-1.164-.156-2.489-.469-3.97-.313-1.476-.688-2.679-1.125-3.608-.46-.938-1.094-1.422-1.906-1.454Zm0 0"/></symbol><symbol overflow="visible" id="o"><path style="stroke:none" d="M10.844-20.516c.789 0 1.187.563 1.187 1.688v.36a5.07 5.07 0 0 0-.031.53c0 .75.223 1.125.672 1.125.226 0 .594-.296 1.094-.89.75-.863 1.691-1.547 2.828-2.047a8.45 8.45 0 0 1 3.484-.766c2.3 0 3.906.844 4.813 2.532.343.625.625.937.843.937.157 0 .516-.273 1.078-.828 1.801-1.758 3.844-2.64 6.125-2.64 1.782 0 3.239.495 4.376 1.484 1.187 1.023 1.78 2.554 1.78 4.593 0 .45-.015 1.2-.046 2.25-.031.356-.047 1.438-.047 3.25 0 1.157-.008 1.977-.016 2.454a15.47 15.47 0 0 0-.015.609c0 .887.273 1.664.828 2.328.332.406.535.68.61.813.07.125.109.296.109.515 0 1.774-2.078 2.656-6.235 2.656-1.843 0-3.328-.218-4.453-.656-1.125-.445-1.687-1.031-1.687-1.75 0-.281.035-.488.109-.625.082-.144.348-.531.797-1.156.426-.57.64-2.46.64-5.672 0-1.863-.132-3.16-.39-3.89-.305-.876-.914-1.313-1.828-1.313-.45 0-.852.148-1.203.438-.356.28-.59.636-.703 1.062-.125.5-.196 1.828-.204 3.984.04 2.325.114 3.735.22 4.235.1.492.452 1.18 1.046 2.062.133.211.203.477.203.797 0 1.649-2.148 2.469-6.437 2.469-2.594 0-4.34-.2-5.235-.594-.719-.3-1.078-.836-1.078-1.61 0-.343.04-.581.125-.718.094-.145.406-.469.938-.969.3-.289.492-.562.578-.812.094-.258.16-.727.203-1.407.101-1.519.156-3.05.156-4.593 0-2.707-.695-4.063-2.078-4.063-1.043 0-1.656.578-1.844 1.735-.168 1.093-.25 2.656-.25 4.687 0 1.524.031 2.516.094 2.984.063.47.227.961.5 1.47.332.593.5 1.077.5 1.452 0 .907-.633 1.532-1.89 1.875-1.368.375-2.872.563-4.516.563-2.125 0-3.688-.168-4.688-.5C.914-.422.422-.961.422-1.703c0-.27.062-.504.187-.703.133-.196.438-.5.907-.906.625-.57.984-1.352 1.078-2.344.144-1.719.219-3.492.219-5.328 0-1.313-.07-2.227-.204-2.75A2.193 2.193 0 0 0 1.781-15c-.418-.313-.683-.55-.797-.719-.117-.164-.171-.394-.171-.687 0-.926.722-1.657 2.171-2.188 3.5-1.258 6.118-1.898 7.86-1.922Zm0 0"/></symbol><symbol overflow="visible" id="p"><path style="stroke:none" d="M10.953-20.547c.844 0 1.367.074 1.578.219.207.148.313.508.313 1.078 0 .523.16.781.484.781.145 0 .61-.265 1.39-.797.595-.394 1.348-.726 2.266-1 .926-.27 1.766-.406 2.516-.406 1.75 0 3.316.61 4.703 1.828 1.05.93 1.863 2.094 2.438 3.5.613 1.48.922 3.04.922 4.672 0 3.48-1.18 6.344-3.532 8.594C22.22-.316 20.161.562 17.86.562c-1.18 0-2.39-.277-3.64-.828-.242-.113-.438-.171-.594-.171-.418 0-.625.417-.625 1.25 0 1.093.363 1.878 1.094 2.359.676.457 1.082.765 1.219.922.132.156.203.422.203.797 0 .832-.465 1.472-1.391 1.921-.93.446-2.234.672-3.922.672-3 0-5.625-.601-7.875-1.796C1.172 5.07.594 4.316.594 3.421c0-.418.086-.735.265-.953.176-.211.508-.434 1-.672C2.58 1.473 3.016.875 3.172 0c.164-.875.289-3.375.375-7.5-.094-3.406-.219-5.316-.375-5.734-.055-.133-.133-.223-.235-.266-.105-.04-.449-.117-1.03-.234a1.83 1.83 0 0 1-1.079-.61c-.273-.32-.406-.71-.406-1.172 0-.55.191-1.035.578-1.453.383-.426 1.008-.836 1.875-1.234 3.395-1.54 6.086-2.32 8.078-2.344ZM13-12.719l-.313 5.703c-.011.243-.015.47-.015.688 0 .43.187.777.562 1.047.375.261.868.39 1.485.39 1.906 0 2.86-1.566 2.86-4.703 0-2.039-.403-3.472-1.204-4.297-.492-.507-1.086-.765-1.781-.765-.98 0-1.512.648-1.594 1.937Zm0 0"/></symbol><symbol overflow="visible" id="q"><path style="stroke:none" d="M19.953-9.297h-9.75c-.43 0-.64.188-.64.563 0 .906.484 1.757 1.453 2.546.976.793 2.023 1.188 3.14 1.188.664 0 1.399-.125 2.203-.375.813-.258 1.485-.578 2.016-.953.469-.332.844-.5 1.125-.5.352 0 .703.226 1.047.672.344.437.515.89.515 1.36 0 1-.62 1.964-1.859 2.89-2.2 1.648-4.734 2.468-7.61 2.468-2.905 0-5.34-.843-7.296-2.53a10.342 10.342 0 0 1-2.375-3.016A10.458 10.458 0 0 1 .703-9.906c0-2.32.703-4.41 2.11-6.266a11.198 11.198 0 0 1 4.656-3.594c1.406-.593 2.93-.89 4.578-.89 2.625 0 4.86.746 6.703 2.234a8.98 8.98 0 0 1 2.234 2.656c.645 1.168.97 2.305.97 3.407 0 .898-.188 1.632-.563 2.203-.368.574-.844.86-1.438.86Zm-9.219-3.875h2.11c.875 0 1.312-.406 1.312-1.219 0-.75-.215-1.359-.64-1.828-.43-.468-.985-.703-1.672-.703-.781 0-1.39.305-1.828.906-.418.575-.625 1.153-.625 1.735 0 .406.097.695.296.86.208.167.555.25 1.047.25Zm0 0"/></symbol><symbol overflow="visible" id="r"><path style="stroke:none" d="M13.11-15.219v7c0 .836.203 1.516.609 2.047.406.524.926.781 1.562.781.54 0 1.254-.25 2.14-.75.208-.125.415-.187.626-.187.32 0 .625.203.906.61.281.398.422.827.422 1.296 0 .867-.477 1.688-1.422 2.469-1.96 1.68-4.336 2.516-7.125 2.516-2.219 0-4-.625-5.344-1.875-1.336-1.25-2-2.899-2-4.954v-9.578c0-.312-.043-.504-.125-.578-.074-.082-.265-.125-.578-.125H.641c-.399 0-.649-.062-.766-.187-.113-.133-.172-.446-.172-.938v-.906c.024-.414.184-.723.484-.922l9.5-5.969c.227-.125.52-.187.876-.187h1.671c.344 0 .57.086.688.25.125.156.187.468.187.937v2.797c0 .418.063.688.188.813.133.125.414.187.844.187h3.843c.508 0 .836.094.985.281.156.188.234.586.234 1.188v1.219c0 .668-.101 1.132-.297 1.39-.187.25-.539.375-1.047.375h-3.765c-.387 0-.649.074-.781.219-.137.137-.204.398-.204.781Zm0 0"/></symbol><symbol overflow="visible" id="s"><path style="stroke:none" d="M12.313-19.219v12.047c0 .95.085 1.649.265 2.094.176.437.524.844 1.047 1.219.426.304.71.562.86.78.144.212.218.481.218.813 0 1.793-2.262 2.688-6.781 2.688-2.438 0-4.367-.2-5.781-.594A2.348 2.348 0 0 1 .953-.89a1.773 1.773 0 0 1-.437-1.187c0-.375.07-.66.218-.86.157-.207.547-.539 1.172-1 .426-.32.727-.843.907-1.562.187-.719.28-1.785.28-3.203 0-.457-.03-1.313-.093-2.563-.063-1.25-.11-1.976-.14-2.187-.087-.57-.47-1.008-1.157-1.313C.848-15.14.422-15.69.422-16.422c0-.875.555-1.523 1.672-1.953a39.19 39.19 0 0 1 4.969-1.516c1.769-.414 3.14-.625 4.109-.625.758 0 1.14.434 1.14 1.297Zm-4.094-9.093c1.195 0 2.144.23 2.844.687.707.45 1.062 1.055 1.062 1.813 0 1.062-.531 1.906-1.594 2.53-1.687.981-3.726 1.47-6.11 1.47-1.01 0-1.812-.192-2.405-.579-.805-.5-1.204-1.191-1.204-2.078 0-1.187.848-2.117 2.547-2.797 1.727-.695 3.348-1.047 4.86-1.047Zm0 0"/></symbol><symbol overflow="visible" id="t"><path style="stroke:none" d="M22.484-14.156 17.11-3.72c-.836 1.625-1.543 2.75-2.125 3.375-.574.625-1.195.938-1.859.938-.648 0-1.172-.235-1.578-.703-.844-.938-1.586-2-2.219-3.188l-5.89-11.172c-.313-.613-.622-1.054-.922-1.328-.293-.27-.704-.473-1.235-.61-1.054-.3-1.578-.866-1.578-1.702 0-.844.649-1.457 1.953-1.844 1.301-.383 3.352-.578 6.157-.578 2.351 0 4.085.172 5.203.515 1.113.336 1.671.856 1.671 1.563 0 .5-.265.976-.796 1.422-.336.312-.547.547-.641.703-.094.148-.14.336-.14.562 0 .47.3 1.25.906 2.344.613 1.074 1.18 1.61 1.703 1.61.344 0 .625-.13.844-.391.226-.27.628-.953 1.203-2.047.437-.8.656-1.41.656-1.828 0-.32-.227-.711-.672-1.172-.469-.5-.703-.96-.703-1.39 0-.665.437-1.145 1.312-1.438.875-.29 2.317-.438 4.328-.438 2.82 0 4.235.61 4.235 1.828 0 .711-.508 1.22-1.516 1.532-.793.25-1.328.523-1.61.812-.28.293-.718 1.024-1.312 2.188Zm0 0"/></symbol><symbol overflow="visible" id="u"><path style="stroke:none" d="M5.156-11.719v-13.094c0-1.687-.12-2.757-.36-3.218-.23-.457-.859-.828-1.89-1.11-1.492-.437-2.234-1.18-2.234-2.234 0-.75.312-1.32.937-1.719.633-.406 1.551-.61 2.75-.61.395 0 1.38.028 2.954.079h1.5c2.75-.008 4.359-.023 4.828-.047.476-.031 2.171-.18 5.078-.453.957-.094 1.836-.14 2.64-.14 2.72 0 5.141.554 7.266 1.656 3.695 1.93 5.547 4.984 5.547 9.172 0 3.386-1.297 6.093-3.89 8.125-2.438 1.917-5.391 2.874-8.86 2.874-.875 0-1.953-.062-3.235-.187a35.72 35.72 0 0 0-1.265-.063c-.48 0-.719.274-.719.813v.156l.172 4.078c.031.793.176 1.387.438 1.782.257.386.785.789 1.578 1.203 1.082.586 1.625 1.215 1.625 1.89 0 1.055-.797 1.86-2.391 2.422C16.031.22 13.77.5 10.844.5 4.707.5 1.64-.55 1.64-2.656c0-.5.129-.88.39-1.14.27-.27.895-.657 1.875-1.157.594-.313.942-.75 1.047-1.313.102-.57.172-2.39.203-5.453Zm11.219-16.25v8.453c0 .649.14 1.04.422 1.172.476.23 1.082.344 1.812.344 1.102 0 2.024-.305 2.766-.922C22.457-19.797 23-21.27 23-23.344c0-2.156-.633-3.71-1.89-4.672-.805-.613-1.766-.922-2.891-.922-1.23 0-1.844.325-1.844.97Zm0 0"/></symbol><symbol overflow="visible" id="v"><path style="stroke:none" d="M12.563-24.64c.882 0 1.421.124 1.609.374.187.25.36 1.047.515 2.391.083.73.336 1.094.766 1.094.332 0 .649-.239.953-.719 1.32-2.07 3.055-3.11 5.203-3.11 1.5 0 2.735.493 3.703 1.47.458.48.836 1.1 1.141 1.859.3.75.453 1.476.453 2.172 0 .78-.183 1.586-.547 2.406-.367.812-.84 1.484-1.422 2.015-1.062 1.012-2.367 1.516-3.906 1.516-.843 0-1.554-.144-2.125-.437-.574-.301-1.324-.91-2.25-1.829-.355-.343-.683-.515-.984-.515-.461 0-.762.262-.906.781-.137.524-.204 1.621-.204 3.297 0 2.512.086 4.219.266 5.125.113.5.274.852.485 1.047.207.187.656.383 1.343.578 1.489.45 2.235 1.23 2.235 2.344 0 .68-.243 1.273-.72 1.781-.48.5-1.12.836-1.921 1-1.594.332-3.934.5-7.016.5C6.297.5 4.063.238 2.531-.281 1.176-.738.5-1.54.5-2.687.5-3.551.992-4.32 1.984-5c.489-.313.82-.598 1-.86.188-.257.313-.613.375-1.062.27-1.508.407-4.305.407-8.39 0-.739-.086-1.27-.25-1.594-.168-.32-.5-.582-1-.782-1.18-.468-1.766-1.14-1.766-2.015 0-.8.406-1.488 1.219-2.063.812-.57 2.172-1.14 4.078-1.703 2.55-.758 4.723-1.148 6.516-1.172Zm0 0"/></symbol><symbol overflow="visible" id="w"><path style="stroke:none" d="M16.344-24.813c3.039 0 5.707.79 8 2.36 1.633 1.137 2.953 2.605 3.953 4.406 1.031 1.899 1.547 3.871 1.547 5.922 0 3.605-1.653 6.668-4.953 9.188C21.734-.531 18.125.671 14.063.671c-3.97 0-7.18-1.129-9.626-3.39C2.04-4.907.845-7.759.845-11.282c0-3.906 1.457-7.102 4.375-9.594 3.062-2.625 6.77-3.938 11.125-3.938Zm-1.985 5.75c-.73 0-1.312.274-1.75.813-.437.531-.656 1.246-.656 2.14 0 1 .18 2.36.547 4.079.375 1.719.82 3.242 1.344 4.562.508 1.367 1.344 2.047 2.5 2.047 1.476 0 2.218-.937 2.218-2.812 0-1.395-.187-2.977-.562-4.75-.367-1.782-.813-3.227-1.344-4.344-.554-1.125-1.32-1.703-2.297-1.735Zm0 0"/></symbol><symbol overflow="visible" id="x"><path style="stroke:none" d="M27.406-26.125c.407 0 .766.234 1.078.703.32.469.485 1.024.485 1.656 0 .68-.215 1.45-.64 2.313-.419.867-.93 1.555-1.532 2.062-.375.336-.563.602-.563.797 0 .055.016.25.047.594.051.355.078.672.078.953 0 1.969-.668 3.633-2 4.985-1.187 1.187-2.726 2.117-4.609 2.78-1.887.669-3.96 1-6.219 1-.543 0-1.078-.034-1.61-.109a9.197 9.197 0 0 0-1-.078c-.874 0-1.312.446-1.312 1.328 0 .563.286 1.008.86 1.329.57.324 1.347.484 2.328.484.656 0 1.633-.086 2.937-.266 2.72-.383 4.723-.578 6.016-.578 1.957 0 3.477.324 4.563.969.851.5 1.535 1.2 2.046 2.094.508.898.766 1.859.766 2.89 0 1.676-.617 3.301-1.844 4.875-1.46 1.852-3.61 3.227-6.453 4.125-2.219.696-4.793 1.047-7.719 1.047-3.68 0-6.664-.562-8.953-1.687-1.062-.532-1.914-1.23-2.547-2.094C.984 5.18.672 4.285.672 3.359c0-.648.176-1.246.531-1.796A3.022 3.022 0 0 1 2.563.39c.5-.2.75-.41.75-.641 0-.176-.211-.441-.626-.797C1.363-2.16.704-3.313.704-4.5c0-.8.317-1.625.953-2.469a6.558 6.558 0 0 1 2.375-1.968c.395-.196.594-.395.594-.594 0-.227-.25-.578-.75-1.047-1.71-1.57-2.563-3.414-2.563-5.531 0-1.102.301-2.16.907-3.172.613-1.02 1.457-1.883 2.531-2.594 2.676-1.738 5.64-2.61 8.89-2.61 1.29 0 2.735.169 4.329.5 1.508.294 2.547.438 3.11.438 1.812 0 3.612-.71 5.405-2.14.395-.29.703-.438.922-.438Zm-13.515 5.14c-.836 0-1.508.32-2.016.954-.5.625-.75 1.465-.75 2.515 0 1.793.27 3.23.813 4.313.55 1.074 1.273 1.61 2.171 1.61.883 0 1.582-.333 2.094-1 .508-.677.766-1.583.766-2.72 0-1.769-.274-3.148-.813-4.14-.531-.988-1.289-1.5-2.265-1.531ZM8.469 1.673c-.418 0-.625.238-.625.719 0 .976.531 1.77 1.593 2.375 1.063.601 2.438.906 4.126.906 1.624 0 2.894-.219 3.812-.656.926-.43 1.39-1.032 1.39-1.813 0-.406-.18-.758-.53-1.047-.344-.293-.774-.437-1.282-.437a9.98 9.98 0 0 0-1.156.093c-.93.157-1.965.235-3.11.235-.843 0-1.656-.043-2.437-.125a11.604 11.604 0 0 1-1.422-.203 1.998 1.998 0 0 0-.36-.047Zm0 0"/></symbol><symbol overflow="visible" id="y"><path style="stroke:none" d="M15.156-24.813c2.883 0 5.332.731 7.344 2.188 1.063.781 1.8 1.68 2.219 2.688.426 1 .64 2.382.64 4.14l-.047 3.703c0 2.574.18 4.242.547 5 .176.367.348.602.516.703.164.094.516.184 1.047.266.531.086.797.434.797 1.047 0 .805-.32 1.637-.953 2.5-.637.855-1.465 1.574-2.485 2.156C23.54.305 22.238.672 20.875.672c-1.742 0-3.117-.602-4.125-1.797-.355-.426-.68-.64-.969-.64-.336 0-.777.21-1.328.624C12.797.066 10.914.672 8.813.672c-2.18 0-3.938-.465-5.282-1.39a6.657 6.657 0 0 1-2.094-2.407 6.64 6.64 0 0 1-.765-3.094c0-1.726.695-3.254 2.094-4.578 2.164-2.094 5.414-3.148 9.75-3.172.968 0 1.57-.094 1.812-.281.25-.188.375-.629.375-1.328 0-1.758-.183-3.031-.547-3.813-.367-.789-.96-1.187-1.781-1.187-.5 0-.95.152-1.344.453-.386.293-.87.84-1.453 1.64-1.48 2.106-3.023 3.157-4.625 3.157-.812 0-1.48-.238-2-.719-.512-.488-.765-1.117-.765-1.89 0-.801.316-1.598.953-2.391.644-.8 1.515-1.5 2.609-2.094 3-1.594 6.133-2.39 9.406-2.39Zm-1.672 14.407c-.73 0-1.367.304-1.906.906-.531.594-.797 1.309-.797 2.14 0 .794.188 1.434.563 1.923.383.492.89.734 1.515.734 1.332 0 2-1.117 2-3.36 0-.914-.101-1.53-.296-1.843-.188-.313-.547-.477-1.079-.5Zm0 0"/></symbol><symbol overflow="visible" id="z"><path style="stroke:none" d="M13.016-24.61c.945 0 1.421.672 1.421 2.016v.422a7.257 7.257 0 0 0-.03.64c0 .9.265 1.345.796 1.345.281 0 .723-.352 1.328-1.063.895-1.031 2.02-1.848 3.375-2.453 1.364-.602 2.758-.906 4.188-.906 2.77 0 4.691 1.011 5.765 3.03.414.75.758 1.126 1.032 1.126.175 0 .601-.332 1.28-1 2.165-2.102 4.614-3.156 7.345-3.156 2.144 0 3.894.59 5.25 1.765 1.425 1.23 2.14 3.07 2.14 5.516 0 .531-.015 1.43-.047 2.687-.03.438-.047 1.746-.047 3.922 0 1.387-.011 2.36-.03 2.922-.012.356-.016.606-.016.75 0 1.063.332 1.996 1 2.797.394.48.632.797.718.953.094.156.141.371.141.64 0 2.118-2.496 3.173-7.484 3.173-2.211 0-3.993-.262-5.344-.782-1.356-.53-2.031-1.226-2.031-2.093 0-.332.047-.586.14-.766.094-.176.41-.633.953-1.375.52-.688.782-2.953.782-6.797 0-2.238-.157-3.8-.47-4.687-.366-1.04-1.1-1.563-2.202-1.563a2.25 2.25 0 0 0-1.453.516 2.351 2.351 0 0 0-.828 1.281c-.149.594-.231 2.188-.25 4.781.05 2.781.14 4.477.265 5.078.125.594.54 1.422 1.25 2.485.164.25.25.562.25.937C32.203-.489 29.625.5 24.47.5c-3.106 0-5.2-.234-6.282-.703-.867-.363-1.296-1.008-1.296-1.938 0-.414.05-.707.156-.875.113-.164.488-.546 1.125-1.14.363-.344.598-.664.703-.969.102-.313.18-.875.234-1.688.114-1.832.172-3.675.172-5.53 0-3.25-.828-4.876-2.484-4.876-1.242 0-1.98.7-2.219 2.094-.2 1.305-.297 3.18-.297 5.625 0 1.824.035 3.016.11 3.578.082.563.285 1.152.609 1.766.406.71.61 1.293.61 1.75 0 1.074-.758 1.82-2.266 2.234C11.695.273 9.89.5 7.922.5 5.359.5 3.477.297 2.282-.11 1.093-.515.5-1.16.5-2.046c0-.32.078-.598.234-.828.157-.238.516-.61 1.079-1.11.75-.675 1.18-1.613 1.296-2.812.188-2.05.282-4.18.282-6.39 0-1.57-.086-2.672-.25-3.297a2.668 2.668 0 0 0-1-1.516c-.5-.375-.825-.66-.97-.86-.136-.195-.202-.472-.202-.828 0-1.113.867-1.992 2.61-2.64 4.194-1.508 7.343-2.27 9.437-2.281Zm0 0"/></symbol><symbol overflow="visible" id="A"><path style="stroke:none" d="M14.781-23.078V-8.61c0 1.148.102 1.984.313 2.515.207.532.625 1.024 1.25 1.469.52.367.863.68 1.031.938.176.25.266.574.266.968C17.64-.57 14.926.5 9.5.5 6.582.5 4.27.266 2.562-.203c-.585-.164-1.054-.453-1.406-.86a2.123 2.123 0 0 1-.531-1.421c0-.446.086-.797.266-1.047.187-.25.656-.649 1.406-1.203.508-.375.867-.993 1.078-1.86.219-.863.328-2.148.328-3.86 0-.55-.039-1.577-.11-3.077-.073-1.5-.124-2.375-.155-2.625-.106-.676-.57-1.196-1.391-1.563C1.016-18.164.5-18.829.5-19.703c0-1.05.672-1.832 2.016-2.344a43.815 43.815 0 0 1 5.968-1.812c2.125-.5 3.77-.75 4.938-.75.906 0 1.36.511 1.36 1.53ZM9.86-33.968c1.438 0 2.579.273 3.422.812.852.531 1.281 1.258 1.281 2.172 0 1.28-.64 2.293-1.921 3.03-2.024 1.18-4.47 1.767-7.344 1.767-1.211 0-2.172-.227-2.89-.688-.962-.602-1.438-1.43-1.438-2.484 0-1.426 1.02-2.547 3.062-3.36 2.07-.832 4.016-1.25 5.828-1.25Zm0 0"/></symbol><symbol overflow="visible" id="B"><path style="stroke:none" d="m31.14-15.61.344 8.766c.032.668.13 1.157.297 1.469.176.313.692.918 1.547 1.813.25.273.375.648.375 1.124 0 1.094-.656 1.86-1.969 2.297C30.422.285 28.082.5 24.72.5c-2.293 0-3.914-.2-4.86-.594-.98-.414-1.468-1.086-1.468-2.015 0-.332.047-.579.14-.735.102-.164.438-.55 1-1.156.664-.695 1-3.02 1-6.969 0-2.289-.265-3.984-.797-5.078-.43-.883-1.226-1.328-2.39-1.328-1.117 0-1.883.36-2.297 1.078-.406.711-.61 2-.61 3.875v4.938c0 .98.063 1.652.188 2.015.125.367.535 1.07 1.234 2.11.176.304.266.64.266 1.015 0 .98-.684 1.703-2.047 2.172-1.355.457-3.476.688-6.36.688C3.103.516.798-.438.798-2.344c0-.394.066-.695.203-.906.145-.207.484-.5 1.016-.875.425-.32.695-.688.812-1.094.125-.406.235-1.406.328-3a98.99 98.99 0 0 0 .172-5.937c0-1.145-.09-1.895-.265-2.25-.168-.364-.668-.801-1.5-1.313C.852-18.164.5-18.71.5-19.359c0-.664.285-1.207.86-1.625.581-.426 1.78-.961 3.593-1.61a58.84 58.84 0 0 1 4.594-1.422c1.476-.394 2.492-.593 3.047-.593.5 0 .914.183 1.25.547.344.367.515.796.515 1.296 0 .043-.011.246-.03.61a4.215 4.215 0 0 0-.017.36c0 .792.333 1.187 1 1.187.395 0 .817-.313 1.266-.938 1.426-2.062 3.5-3.094 6.219-3.094 2.094 0 3.883.547 5.375 1.641 1.039.781 1.77 1.7 2.187 2.75.414 1.055.676 2.602.782 4.64Zm0 0"/></symbol><symbol overflow="visible" id="C"><path style="stroke:none" d="M25.844-.484c-.047.078-.047.125-.047.203 0 .125.125.156.25.156L27.766 0c.156 0 .328-.203.359-.25l1.063-1.375c3.671-.297 5.578-1.875 5.578-2.281 0-.094 0-.172-.078-.172-.235 0-.563.328-.688.453-.734.656-2.328 1.172-4.484 1.469.609-1.063 3.297-4.406 8.109-9.875 2.156-2.485 6.313-7.5 14.11-14.14.234-.204.687-.329.687-.735 0-.157-.656-.25-1.094-.25-1.187 0-6.125 1.39-12.281 6.047-4.766 3.625-7.703 6.672-9.453 8.062-1.625-4.64-4.485-7.25-8.39-7.25-2.579 0-5.017 2.844-5.017 7.172 0 2.969 1.594 6.11 4.157 8.313-2.25 2.156-6.563 4.484-10.36 4.484C6.234-.328 4-2.234 4-4.031c0-.375.203-.703.281-.86.25.86.735 1.344 1.594 1.344.734 0 1.266-.687 1.266-1.547 0-.86-.782-1.422-1.844-1.422-1.14 0-1.828.97-1.828 2.516 0 2.078 2.734 4.25 6.562 4.25 3.422 0 7.75-1.875 10.719-4.688 2.969 2.282 6.031 2.407 6.031 2.61 0 .078-.047.11-.078.203Zm3.422-11.454c.125.61.203 1.344.203 2.032 0 2.531-1.5 6.281-2.407 7.578-1.578-.125-4.187-1.172-5.828-2.438Zm-8.438 6.844c-2.281-1.625-3.984-5.015-3.984-8.031 0-3.797 2.64-6.031 4.968-6.031 1.829 0 2.97.281 4.407 1.625 1.343 1.312 2.281 2.937 2.89 4.937ZM30-9.375c0-1.719-.281-2.36-.281-2.984 0-.157 3.265-3.422 9.75-8.391 4.593-3.547 8.953-5.422 11.36-5.625-1.048.781-3.985 2.563-8.438 6.813C34.813-12.36 30.78-6.813 28.656-4.36 29.672-7.094 30-9.047 30-9.375Zm0 0"/></symbol><symbol overflow="visible" id="D"><path style="stroke:none" d="M14.875-21.484v.25c0 1.297 1.719 2.89 3.844 2.89.406 0 .765-.047 1.25-.047 3.14 0 6.937-3.093 6.937-3.375 0-.172-.125-.203-.25-.203-.031 0-1.265.688-3.015 1.907-1.22.859-2.938 1.109-5.016 1.109-1.906 0-3.219-1.188-3.219-2.25 0-3.5 4.86-5.172 8.281-5.172 2.438 0 4.61 1.016 4.61 1.547 0 .578-.5.906-.5 1.39 0 1.172 1.062 2 2.656 2 1.094 0 2.203-.53 3.266-1.187-.907 1.14-4.125 3.297-8.89 9.422-.485.61-.86.484-1.47.562-6.968.782-13.25 3.954-16.062 6.61C6.078-4.938 5.5-4 5.5-2.234 5.5-.813 6.938.28 9.219.28 13.047.281 21-3.875 26.375-12.438c.047-.078.078-.328.36-.359l1.89-.328-1.594 1.922c-.078.078-.078.11-.078.234 0 .078.11.172.203.172.407 0 1.14-.125 1.172-.453.047-.125.985-2 1.516-2.078l2.203-.375c-1.063 1.515-3.594 3.719-6.031 7.5C25.188-4.97 24.5-3.875 24.5-1.875c0 1.266 1.016 2.156 2.406 2.156 4.078 0 8.11-3.906 8.11-4.187 0-.094-.032-.172-.125-.172-.235 0-.532.328-.61.406-2.484 2.203-4.968 3.39-7.25 3.39-.984 0-1.672-.53-1.672-1.343 0-.297.766-2.172 2.485-4.328 3.468-4.281 5.703-7.125 6.922-8.313.172-.171.328-.078.578-.125 10.156-1.953 17.812-7.25 17.812-10.234 0-1.172-.968-2.078-2.234-2.078-3.64 0-8.563 2.89-14.688 8.64-.765.735-1.218 1.141-1.906 1.922-.937 1.016-1.516 1.797-2 1.875L30-13.812c.86-1.47 2.281-2.407 2.281-2.907 0-.125-.078-.234-.203-.234-.156 0-.234.203-.281.234l-2.281 2.657c-.172.203-.282.28-.61.359l-2 .375c.407-.735 1.672-2.453 3.547-5.016 1.016-1.39 2.531-2.734 4.031-4.156 2.61-2.453 4.407-3.297 4.407-3.594 0-.156-.25-.328-.407-.328-.172 0-.203.125-.375.25-3.656 2.735-6.265 4.235-7.609 4.235-.5 0-1.188-.11-1.188-.36 0-.781.36-.86.36-1.75 0-1.187-2.766-2.86-6.313-2.86-3.265 0-8.484 1.876-8.484 5.423Zm20.516 6.562c1.25-1.5 2.812-3.172 4.64-4.937 4.328-4.157 7.907-6.36 10.922-6.36 1.016 0 1.547.453 1.547 1.469 0 1.719-2.313 4.203-7 6.484-4.375 2.125-8.64 3.141-10.11 3.344Zm-11.375 2.61c-.328.609-1.391 1.718-2.782 3.5-4.39 5.671-8.468 8.53-12.312 8.53-1.578 0-2.89-.812-2.89-1.921 0-3.266 6.968-8.516 17.984-10.11Zm0 0"/></symbol><symbol overflow="visible" id="E"><path style="stroke:none" d="M8.078-2.61c-.172.376-.328.938-.328 1.422 0 .938.234 1.391 1.172 1.391 1.437 0 5.672-3.797 5.672-4.11 0-.093 0-.171-.078-.171a.475.475 0 0 0-.329.125C11.579-1.593 9.829-.281 8.892-.281c-.25 0-.5-.172-.5-.406 0-.297.328-.782.53-1.032l5.313-5.703c.032-.078.079-.156.079-.234 0-.094-.126-.172-.204-.172h-1.39a.524.524 0 0 0-.36.172l-.984 1.015c-.125-.859-.453-1.234-1.344-1.234-1.219 0-2.781.5-4.687 1.719C3.062-4.938 2-3.016 1.828-1.422c0 .938.656 1.625 1.438 1.625 1.218 0 2.765-1.266 4.812-2.812Zm1.985-4.765c.656 0 .78.234.78.89 0 1.11-5.75 6.204-7.655 6.204-.532 0-.579-.328-.579-.86 0-.656 5.141-6.234 7.454-6.234Zm0 0"/></symbol><symbol overflow="visible" id="F"><path style="stroke:none" d="M8.844-6.766c-.453 0-.938.485-.938.938 0 .484.328.766.86.766.53 0 1.468-.938 1.468-1.75 0-.766-.453-1.141-1.265-1.141-1.016 0-4.485 1.672-6.031 3.547-.782.984-1.063 1.797-1.063 3.015 0 .907.781 1.641 1.672 1.641 2.36 0 6.937-3.64 6.937-4.156 0-.094-.046-.172-.125-.172-.25 0-.53.328-.609.406C7.297-1.344 4.156-.25 3.547-.25c-.36 0-.813-.234-.813-.563 0-1.312 4.922-6.562 6.313-6.562.406 0 .656.031.656.656 0 .11 0 .235-.125.235-.203 0-.406-.282-.734-.282Zm0 0"/></symbol><symbol overflow="visible" id="G"><path style="stroke:none" d="M1.547-.484c-.078.078-.031.156-.031.234 0 .25.687.125 1.093.172.204 0 .25.078.454.078.203 0 .328-.25.359-.281l8.89-9.985c4.438-1.843 8.516-4.484 11.454-7.062 1.14-1.016 1.922-1.906 1.922-3.094 0-.734-.657-1.344-1.438-1.344-1.703 0-4.719 2.282-8.922 6.516l-4.89 4.938C7.344-8.767 2.609-4.484 2.609-4.157c0 .078.047.156.125.156.454 0 2.032-2.031 6.563-5.094Zm8.64-4.204c1.954-.406 2.813-1.546 3.626-2.484.25-.25.656-.61 1.03-.61.079 0 .235.032.235.126 0 .11-.156.156-.234.234-.125.125-.094.203-.094.375 0 .281.328.484.625.484.406 0 .61-.406.61-.812 0-.578-.5-.781-1.188-.781-.735 0-2.156.578-3.016 1.469C10.11-4.97 10.36-5.016 7.75-4.813c-.125 0-.375.046-.375.25 0 .078.047.156.125.156.688 0 1.469-.157 1.875-.157.203 0 .328.032.328.157 0 .406-.047.531-1.11 1.593-.405.407-.484.985-.484 1.47 0 .562.704 1.218 1.391 1.218 1.828 0 3.063-.969 4.516-2.328.78-.688 1.468-1.25 1.468-1.453 0-.094 0-.172-.078-.172a.504.504 0 0 0-.328.125C12.516-1.625 11.328-.61 9.5-.61c-.203 0-.484-.079-.484-.282 0-.453.609-.78.968-1.109.454-.406.735-.969.735-1.594 0-.531-.235-.812-.531-1.094Zm7.954-11.984c2.687-2.89 5.015-4.61 6.03-4.61.532 0 .985.454.985 1.016 0 1.188-2.61 3.797-7.703 6.813-1.39.86-2.812 1.719-4.375 2.281Zm0 0"/></symbol><symbol overflow="visible" id="H"><path style="stroke:none" d="M4.078-3.39c.25-.282 1.14-.407 2.563-.766C7.906-4.484 10.156-6 10.156-7.094c0-.531-.453-.687-1.031-.687-.844 0-4.156 1.265-6.11 3.343-.937.97-1.343 1.75-1.343 3.22 0 .859.781 1.5 1.75 1.5 2.687 0 7.219-3.704 7.219-4.188 0-.094-.047-.172-.125-.172a.366.366 0 0 0-.282.125c-.656.562-1.64 1.625-3.75 2.656C5.5-.859 4.563-.203 3.422-.203c-.485 0-.969-.203-.969-.656 0-.485.235-.97.563-1.297Zm3.016-2.766c.562-.532 1.797-1.188 2.125-1.188.11 0 .281 0 .281.125 0 1.11-2.25 2.578-4.656 3.016Zm0 0"/></symbol><symbol overflow="visible" id="I"><path style="stroke:none" d="M5.375-4.36C4.078-2.968 3.672-2.03 3.672-1.015c0 .766.562 1.297 1.39 1.297 1.829 0 6.313-3.547 6.313-4.281 0-.484-1.516.906-1.719 1.188C9.125-2.079 6-.329 5.422-.329c-.406 0-.813.203-.813-.36 0-.203.61-1.234 1.672-2.171C8.36-4.61 9.625-6.203 9.625-6.484c0-.079-.047-.157-.125-.235l-.86-.86a.366.366 0 0 0-.28-.124c-.172 0-.704.36-1.922.36-.125 0-.157-.11-.282-.157.563-.156.985-.375.985-.984 0-.407-.454-.813-.938-.813-.531 0-.937.578-.937 1.219 0 .328.03.656.28.734.126.047.204.125.204.25 0 .047-.453.453-.656.61C3.547-5.266 2.562-4.36 2.562-4.156c0 .078.047.156.126.156.25 0 .906-.64 1.671-1.375.532-.453 1.672-1.266 2-1.438 0 0 .891-.125 1.547-.156Zm0 0"/></symbol><symbol overflow="visible" id="J"><path style="stroke:none" d="M18.875-27.063c-.578 0-.86.688-1.188 1.22-.765 1.265-1.875 1.75-1.875 1.952 0 .203.126.25.297.25.407 0 3.657-1.593 3.657-2.53 0-.61-.282-.892-.891-.892Zm0 0"/></symbol><symbol overflow="visible" id="K"><path style="stroke:none" d="M9.25-9.578c0-.172-.078-.328-.281-.328-.078 0-.125.078-.156.125L2.734-4.406c-.078.078-.125.125-.125.25 0 .078 0 .156.079.156.25 0 .578-.328.656-.406l4.156-3.5v.453c0 3.5-3.469 7.25-5.219 7.25-.531 0-1.094-.156-1.094-.531 0-.125.204-.047.329-.047.406 0 .843-.438.843-.89 0-.532-.406-.782-.937-.782-.563 0-.938.625-.938 1.39 0 .735.782 1.344 1.75 1.344 2 0 6.204-2.156 6.204-5.422 0-.734-.407-1.75-.407-2.64 0-.703 1.094-1.672 1.219-1.797Zm0 0"/></symbol><symbol overflow="visible" id="L"><path style="stroke:none" d="M6.406-3.344c.235.078.407.156.64.156 1.063 0 1.673-.312 1.673-1.218 0-.89-.64-1.422-1.672-1.422-.938 0-1.672.656-1.672 1.594C5.375-1.47 8.109.28 13.078.28c2.172 0 5.344-.687 7.75-1.797 3.344-1.5 6.61-4.312 8.89-7.937 2.126-3.39 3.391-5.188 3.548-5.469 1.297-2.328 5.218-5.828 6.515-6.515.203-.094.172.328.172.53 0 .97.281 1.907.281 2.282 0 2.11-3.265 6.031-5.172 6.031-.578 0-.937-.203-.937-.781 0-1.344 2.313-2.938 3.984-3.172 1.266-.203 1.266-.297 1.266-.578 0-.156-.281-.078-.438-.078-2.25.125-5.343 1.75-5.343 4.125 0 .844.89 1.297 2.36 1.297 2.483 0 5.265-2.563 5.265-6.11 0-2.125-.907-3.64-.907-3.922 0-.28.297-.28.532-.406a95.933 95.933 0 0 0 4.328-2.734c.078-.078.031-.156.031-.281 0-.157-.234-.157-.36-.078-1.515.812-2.984 1.75-4.359 2.687-.172.125-.25.281-.453.281-.156 0-.203-.156-.328-.281-2.078-2.656-5.656-4.078-10.312-4.078-10.672 0-18.797 7.875-18.797 12.515 0 3.063 2.453 5.016 7.219 5.016 6 0 12.187-5.906 12.187-9.422 0-1.781-1.5-3.218-3.578-3.218-4.578 0-6.735 2.156-9.672 4.328-1.063.89-.813.89-1.672 2.03-.687.704-1.015 1.345-1.578 2.126 0 .125.078.281.234.281.204 0 .907-.812 1.672-1.953.703-1.063 1.219-1.516 2.156-2.36 2.907-2.703 5.922-3.968 8.329-3.968 2 0 3.453 1.187 3.453 2.25 0 .578 0 .89-.157 1.422-.984 2.86-7.218 7.906-13.046 7.906-2.438 0-4.891-1.75-4.891-4.36 0-4.843 8.313-12.109 18.063-12.109 7.125 0 10.187 3.844 10.187 4.25 0 .203-2 1.297-5.016 4.188C26.172-9.828 23.204-.203 12.844-.203c-3.75 0-6.203-1.094-6.438-3.14Zm0 0"/></symbol><symbol overflow="visible" id="M"><path style="stroke:none" d="M14.516-12.766c.03-.078.078-.109.078-.203 0-.078-.125-.156-.203-.156H13.5c-.828 0-3.672 3.75-9.469 7.547-.843.516-1.5 1.25-1.5 1.422 0 .078.031.156.125.156.36 0 .813-.734 1.703-1.297 2-1.266 3.47-2.531 4.61-3.422L-8.36 8.766a.366.366 0 0 0-.125.28c0 .079.046.126.125.126h1.64c.157 0 .36-.156.438-.25l9.5-9.656C3.703-1.22 4-1.47 4.53-1.922c4.516-3.86 7.407-5.828 8.547-5.828.422 0 .656.125.656.531 0 .578-1.171 1.516-3.375 3.344-.937.781-1.468 1.64-1.468 2.656 0 .813.562 1.469 1.296 1.469 1.954 0 6-3.922 6-4.156 0-.094 0-.172-.046-.172a.504.504 0 0 0-.328.125c-2.61 2.36-4.36 3.703-5.5 3.703-.485 0-.657-.203-.657-.64 0-.5 1.14-1.391 3.266-3.141.984-.782 1.594-1.672 1.594-2.407 0-1.187-.407-1.796-1.391-1.796-1.422 0-3.422 1.515-6.281 3.671Zm0 0"/></symbol><symbol overflow="visible" id="N"><path style="stroke:none" d="M3.828-4.125c-.812.906-1.375 2.094-1.375 2.656 0 1.11.36 1.719 1.172 1.719 2.047 0 6.61-3.844 6.61-4.156 0-.094-.047-.172-.126-.172-.25 0-.53.328-.609.406C7.344-1.75 4.687-.25 3.703-.25c-.281 0-.437-.234-.437-.531 0-.235.406-.766.687-1.094l7.422-7.906h2.688c.124 0 .28-.078.28-.25 0-.156-.155-.235-.28-.235h-2.157l2.735-3.062c.03-.078.03-.125.03-.203 0-.078-.124-.125-.202-.125h-1.297c-.172 0-.375.125-.453.203l-3.016 3.187H7.828c-.125 0-.25.204-.25.282 0 .078.172.203.25.203h1.14c-3.796 3.5-6.405 5.094-6.405 5.625 0 .078.046.156.124.156.25 0 .532-.328.61-.406C4.53-5.5 5.75-6.438 6.89-7.375Zm0 0"/></symbol><symbol overflow="visible" id="O"><path style="stroke:none" d="M11.734-12.797c-.03.031-.03.078-.03.156 0 .079 0 .125.03.172l.782.735c.046.03.078.03.125.03.078 0 .125 0 .156-.03l.656-.782c.047-.046.047-.078.047-.156 0-.094 0-.125-.047-.172l-.61-.61c-.046-.046-.077-.077-.171-.077a.297.297 0 0 0-.203.078ZM2.97-3.828c-.516.531-1.297 1.797-1.297 2.61 0 .937.406 1.5 1.219 1.5 1.718 0 5.875-3.907 5.875-4.188 0-.094-.047-.172-.125-.172a.366.366 0 0 0-.282.125C5.672-1.516 3.797-.203 2.938-.203c-.376 0-.532-.156-.532-.531 0-.157.406-.813.781-1.188l5.297-5.422c.079-.078.079-.156.079-.234 0-.078-.126-.172-.204-.172H6.813a.55.55 0 0 0-.407.172l-2.25 2c-.89.734-1.593 1.25-1.593 1.422 0 .078.046.156.124.156.329 0 .735-.61 1.438-1.016Zm0 0"/></symbol><symbol overflow="visible" id="P"><path style="stroke:none" d="M11.703-2.969c.235.313.531.61 1.016.61 1.062 0 2.484-1.516 2.484-1.72 0-.077-.031-.155-.125-.155a.377.377 0 0 0-.281.109c-.735.656-1.344 1.266-2.156 1.266-.375 0-.454-.282-.454-.563 0-.047.485-.531.735-.734 1.015-.907 2.25-2.563 2.25-3.422 0-.172-.172-.297-.328-.297-.735 0-2.281 1.766-3.188 4.203-.078.25-4.312 3.469-6.312 3.469-.328 0-.61-.156-.61-.531 0-.36.97-1.47 2.516-2.735 1.11-.89 1.766-2 1.766-2.937 0-.844-.422-1.344-1.235-1.344-1.547 0-5.172 3.266-5.172 3.594 0 .078.047.156.125.156.125 0 .204-.031.282-.125C5.422-6.281 7.14-7.25 7.703-7.25c.25 0 .531.031.531.36 0 .28-1.062 1.421-2.609 2.687-1.094.984-1.797 2-1.797 2.984 0 .813.703 1.5 1.547 1.5.938 0 3.547-1.015 6.328-3.25Zm0 0"/></symbol><symbol overflow="visible" id="ac"><path style="stroke:none" d="M20.688-.39c-.032.062-.032.093-.032.156 0 .109.094.14.188.14L22.219 0c.125 0 .265-.156.297-.203l.843-1.11c2.938-.218 4.47-1.5 4.47-1.812 0-.078 0-.14-.063-.14-.203 0-.453.265-.563.359-.578.531-1.86.953-3.578 1.172.484-.844 2.64-3.516 6.484-7.891 1.735-1.984 5.063-6 11.297-11.313.188-.171.547-.265.547-.593 0-.125-.516-.203-.875-.203-.953 0-4.89 1.109-9.828 4.828-3.813 2.906-6.156 5.36-7.563 6.468-1.312-3.718-3.593-5.812-6.718-5.812-2.063 0-4.016 2.281-4.016 5.75 0 2.375 1.266 4.89 3.328 6.656C14.484-2.125 11.031-.266 8-.266c-3.016 0-4.797-1.53-4.797-2.968 0-.297.156-.547.219-.688.203.688.594 1.078 1.281 1.078.578 0 1-.547 1-1.234 0-.688-.61-1.14-1.469-1.14-.906 0-1.468.78-1.468 2.015C2.766-1.531 4.953.203 8.03.203c2.735 0 6.188-1.516 8.578-3.765 2.375 1.828 4.828 1.937 4.828 2.093 0 .063-.03.094-.062.157Zm2.734-9.172c.094.5.172 1.078.172 1.64 0 2.016-1.219 5.016-1.938 6.063-1.265-.094-3.36-.954-4.656-1.954Zm-6.75 5.484c-1.828-1.313-3.203-4.016-3.203-6.422 0-3.047 2.125-4.828 3.984-4.828 1.469 0 2.39.219 3.531 1.297 1.063 1.047 1.828 2.344 2.313 3.953ZM24.016-7.5c0-1.375-.235-1.89-.235-2.39 0-.126 2.61-2.735 7.797-6.72 3.688-2.828 7.188-4.328 9.11-4.5-.86.626-3.204 2.063-6.75 5.454-6.079 5.765-9.313 10.203-11 12.172.812-2.188 1.078-3.766 1.078-4.016Zm0 0"/></symbol><symbol overflow="visible" id="ad"><path style="stroke:none" d="M1.984-.36c-.062.063-.062.126-.062.235 0 .094.062.125.172.125h1.203c.625 0 5.547-5.875 7.89-5.875.297 0 .594.094.594.39 0 .094-.625.782-1.61 1.61-1.265 1.11-2.015 1.75-2.015 2.922 0 .562.453.984 1.016.984 1.531 0 4.719-2.875 4.719-3.156 0-.078-.032-.14-.094-.14a.284.284 0 0 0-.219.093C11.484-1.234 9.891-.359 9.141-.359c-.172 0-.36-.094-.36-.266 0-.36.938-1.234 2.735-2.86.515-.468.812-1.078.812-1.765 0-.625-.36-1.016-1-1.016-1.375 0-2.625 1.079-4.406 2.516.328-.563.64-1.14.64-1.64 0-.485-.312-.907-.75-.907-2.015 0-4.718 2.766-4.718 2.969 0 .062.031.125.094.125.093 0 .156-.031.234-.094 2.015-1.797 3.453-2.61 4.11-2.61.155 0 .39-.03.39.126 0 .437-.172.562-.36.75Zm0 0"/></symbol><symbol overflow="visible" id="ae"><path style="stroke:none" d="M7.078-5.422c-.36 0-.75.39-.75.75 0 .39.266.625.688.625.421 0 1.171-.75 1.171-1.406 0-.61-.359-.906-1.015-.906-.813 0-3.578 1.328-4.828 2.828-.61.797-.844 1.437-.844 2.422 0 .718.625 1.312 1.344 1.312 1.89 0 5.547-2.906 5.547-3.328 0-.078-.032-.14-.11-.14-.187 0-.422.265-.484.328C5.844-1.079 3.328-.204 2.844-.204c-.297 0-.656-.188-.656-.453 0-1.047 3.953-5.25 5.062-5.25.313 0 .516.031.516.515 0 .11 0 .204-.094.204-.172 0-.328-.235-.594-.235Zm0 0"/></symbol><symbol overflow="visible" id="af"><path style="stroke:none" d="M9.39-10.25c-.03.031-.03.078-.03.14 0 .063 0 .094.03.126l.626.593c.03.032.062.032.093.032.063 0 .11 0 .141-.032l.516-.625c.03-.03.03-.062.03-.125 0-.078 0-.109-.03-.14l-.485-.485c-.031-.03-.062-.062-.14-.062a.239.239 0 0 0-.157.062ZM2.376-3.062c-.422.421-1.031 1.437-1.031 2.078 0 .75.312 1.218.968 1.218 1.376 0 4.704-3.14 4.704-3.359 0-.078-.032-.14-.094-.14a.295.295 0 0 0-.234.093C4.53-1.203 3.03-.156 2.343-.156c-.281 0-.422-.14-.422-.438 0-.125.328-.64.625-.937L6.78-5.875c.063-.063.063-.125.063-.188 0-.078-.094-.14-.157-.14H5.454c-.172 0-.266.062-.328.14L3.328-4.468c-.719.594-1.265 1.016-1.265 1.14 0 .063.03.126.093.126.266 0 .578-.485 1.14-.813Zm0 0"/></symbol><symbol overflow="visible" id="ag"><path style="stroke:none" d="M3.266-2.703c.187-.235.906-.328 2.046-.625 1.016-.266 2.813-1.469 2.813-2.344 0-.422-.36-.562-.813-.562-.687 0-3.328 1.015-4.89 2.671-.766.797-1.078 1.407-1.078 2.579 0 .687.61 1.218 1.39 1.218 2.157 0 5.782-2.968 5.782-3.359 0-.078-.032-.14-.094-.14a.295.295 0 0 0-.235.093c-.515.469-1.296 1.313-3 2.125-.78.36-1.53.89-2.453.89-.39 0-.78-.171-.78-.53 0-.391.202-.782.468-1.047Zm2.406-2.219c.469-.422 1.437-.953 1.703-.953.094 0 .234 0 .234.094 0 .89-1.796 2.062-3.734 2.422Zm0 0"/></symbol><symbol overflow="visible" id="ah"><path style="stroke:none" d="M3.063-3.297c-.641.719-1.11 1.672-1.11 2.125 0 .875.297 1.375.953 1.375 1.625 0 5.281-3.078 5.281-3.328 0-.078-.03-.14-.093-.14-.203 0-.422.265-.485.328C5.875-1.407 3.75-.204 2.97-.204c-.235 0-.36-.188-.36-.422 0-.188.329-.61.563-.875l5.937-6.328h2.141c.11 0 .234-.063.234-.203 0-.125-.125-.188-.234-.188H9.531l2.188-2.453c.031-.062.031-.094.031-.156 0-.063-.11-.094-.172-.094h-1.047c-.125 0-.281.094-.36.156L7.767-8.219h-1.5c-.094 0-.204.156-.204.219 0 .078.141.172.204.172h.906c-3.031 2.797-5.11 4.078-5.11 4.5 0 .062.032.125.094.125.188 0 .422-.25.485-.328.984-.875 1.953-1.625 2.875-2.375Zm0 0"/></symbol><symbol overflow="visible" id="ai"><path style="stroke:none" d="M22.578-10.531C19.797-5.703 14.968-.234 8.938-.234c-2.907 0-4.407-.782-4.407-2.22 0-.421.172-.671.328-.874.172.562.391.875.985.875.656 0 1.078-.422 1.078-1.031 0-.532-.563-.922-1.25-.922-.906 0-1.688.812-1.688 1.86 0 1.562 1.594 2.78 4.172 2.78 4.281 0 8.219-1.546 11.36-4.546 1.5-1.391 2.968-3.329 3.78-4.657 1.298-2.187 1.267-2.125 1.923-2.312 7.172-2.188 11.515-5.656 11.515-8.031 0-1.016-.812-1.172-1.984-1.172-2 0-6.89 2.765-9.734 6.625-1.391 1.89-1.891 2.828-2.438 2.859-1.281.078-3 .86-5.031.86-4.531 0-6.688-1.547-6.688-3.829 0-3.515 4.86-7.14 11.235-7.14.812 0 1.234.203 2.047.203.234 0 .656.062.656-.203 0-.125-1.172-.657-3-.657-6.031 0-11.453 3.36-11.453 7.641 0 2.344 2.375 4.375 6.094 4.375 3.078 0 5-.563 6.14-.781Zm2.438-1.188c3.468-5.64 7.703-8.375 9.984-8.375.594 0 1.156.422 1.156.782v.265c0 .125 0 .219-.078.39-.547 1.532-5.078 5.313-11.062 6.938Zm0 0"/></symbol><symbol overflow="visible" id="aj"><path style="stroke:none" d="M5.125-2.672c.188.063.328.125.516.125.859 0 1.343-.265 1.343-.984 0-.703-.53-1.14-1.343-1.14-.75 0-1.329.53-1.329 1.28C4.313-1.17 6.5.234 10.47.234c1.734 0 4.281-.562 6.203-1.437 2.672-1.219 5.281-3.469 7.11-6.36 1.702-2.718 2.702-4.156 2.843-4.375 1.047-1.859 4.172-4.671 5.219-5.218.156-.063.125.25.125.422 0 .78.234 1.53.234 1.828 0 1.687-2.61 4.828-4.14 4.828-.47 0-.75-.172-.75-.625 0-1.078 1.859-2.344 3.187-2.547 1.016-.156 1.016-.219 1.016-.453 0-.125-.235-.063-.36-.063-1.797.094-4.265 1.407-4.265 3.297 0 .688.703 1.047 1.89 1.047 1.985 0 4.203-2.062 4.203-4.906 0-1.688-.718-2.89-.718-3.125 0-.235.234-.235.422-.328a80.631 80.631 0 0 0 3.468-2.188c.063-.062.032-.125.032-.218 0-.141-.204-.141-.297-.079a43.693 43.693 0 0 0-3.5 2.157c-.125.093-.188.234-.36.234-.125 0-.156-.14-.25-.234-1.672-2.125-4.547-3.266-8.265-3.266-8.547 0-15.032 6.297-15.032 10.016 0 2.453 1.954 4.015 5.766 4.015 4.797 0 9.766-4.734 9.766-7.531 0-1.438-1.203-2.578-2.875-2.578-3.657 0-5.375 1.734-7.735 3.453-.844.719-.656.719-1.328 1.64-.562.547-.828 1.079-1.281 1.688 0 .094.062.235.203.235.156 0 .719-.657 1.328-1.563.563-.86.985-1.219 1.735-1.89 2.312-2.157 4.734-3.172 6.656-3.172 1.593 0 2.765.953 2.765 1.796 0 .454 0 .72-.125 1.141-.78 2.281-5.78 6.328-10.437 6.328C10.969-7.797 9-9.203 9-11.28c0-3.89 6.656-9.703 14.453-9.703 5.719 0 8.156 3.078 8.156 3.406 0 .156-1.593 1.031-4.015 3.36C20.937-7.86 18.562-.157 10.28-.157c-3 0-4.969-.89-5.156-2.516Zm0 0"/></symbol><symbol overflow="visible" id="ak"><path style="stroke:none" d="M7.313-3c-.532.719-.985 1.266-.985 2.375 0 .531.422.86.922.86 1.531 0 4.984-3.141 4.984-3.36 0-.078 0-.14-.062-.14a.394.394 0 0 0-.266.093C9.75-1.203 8.281-.156 7.375-.156c-.266 0-.422-.14-.422-.39 0-.329.39-.72.688-1.016l4.109-4.313c.063-.063.063-.125.063-.188 0-.109-.094-.14-.204-.14h-1.296c-.329 0-1.282 1.25-4.282 3.781C4.313-.953 3.063-.156 2.641-.156c-.454 0-.782 0-.782-.469 0-.156.063-.219.157-.328l4.828-4.922c.047-.031.047-.094.047-.156 0-.063-.079-.172-.141-.172H5.547c-.156 0-.297.11-.36.172l-2.968 2.5c-.063.078-.094.11-.094.203 0 .062 0 .125.063.125.187 0 .578-.39.984-.672L2.016-2.609a2.844 2.844 0 0 0-.672 1.796c0 .61.36 1.047 1.031 1.047C3.625.234 5.156-1.109 7.313-3Zm0 0"/></symbol><symbol overflow="visible" id="al"><path style="stroke:none" d="M4.11-4.203c-.813.906-1.376 1.984-1.376 2.937 0 .875.532 1.5 1.313 1.5.625 0 2.406-.859 4.469-2.546.187.453.546.687 1.015.687.875 0 2.078-1.219 2.078-1.5 0-.078-.03-.14-.093-.14-.094 0-.157.03-.235.093-.64.719-1.031 1.156-1.781 1.156-.36 0-.531-.171-.531-.53 0-.095.531-.75 1.203-1.376.5-.39 1.187-1.422 1.187-2.015 0-.157-.109-.297-.265-.297-.953 0-1.985 1.796-2.281 2.812-.297.969-4.016 3.188-4.579 3.188-.453 0-.906-.125-.906-.485 0-.328.36-.984.781-1.469l4.532-5.25a.486.486 0 0 1 .234-.203c7.313-3.156 11.188-7.015 11.188-8.875 0-.578-.422-.875-1.11-.875-.75 0-1.625.485-2.578 1.172-2.516 1.797-4.984 4.016-6.75 5.907L7.109-7.61c-.453.5-1.078.687-1.796 1.312-2.11 1.86-3.297 2.766-3.297 2.969 0 .062.046.125.109.125.297 0 1.078-1 3.422-2.64Zm10.796-9.953C16.703-15.984 18.141-17 19.187-17c.188 0 .36.14.36.328 0 1.672-3.531 5.453-9.922 8.188.75-1.079 1.797-2.125 2.844-3.204Zm0 0"/></symbol><symbol overflow="visible" id="am"><path style="stroke:none" d="M8.453-7.672c7.266-3.219 11.39-7.016 11.39-8.375 0-.594-.53-1.015-1.218-1.015-.813 0-2.672.875-4.563 2.453-3.78 3.125-5.28 5.015-5.39 5.109l-2.89 3C3.39-4.797 2.093-3.484 2.093-3.328c0 .062.031.125.094.125.296 0 .812-.781 2.015-1.563-1.11 1.407-2.016 2.547-2.016 3.594 0 .875.297 1.406 1.016 1.406 1.625 0 5.11-3.14 5.11-3.359 0-.078-.032-.14-.094-.14-.188 0-.422.265-.485.328-2.093 1.89-3.953 2.78-4.562 2.78-.297 0-.406-.202-.406-.468 0-.219.718-1.438 2-2.906Zm4.656-5.187c2.063-2.282 4.438-3.813 5.516-3.813.39 0 .688.203.688.594 0 1.078-4.11 5.015-10.25 7.797Zm0 0"/></symbol><symbol overflow="visible" id="an"><path style="stroke:none" d="M7.406-7.672c0-.125-.062-.25-.234-.25-.063 0-.094.063-.125.094l-4.86 4.297c-.062.078-.093.11-.093.203 0 .062 0 .125.062.125.188 0 .453-.25.516-.328L6-6.328v.36C6-3.173 3.234-.157 1.828-.157c-.422 0-.875-.14-.875-.438 0-.094.156-.031.25-.031.328 0 .688-.36.688-.719 0-.422-.329-.61-.75-.61-.454 0-.75.485-.75 1.11 0 .578.625 1.078 1.406 1.078C3.39.234 6.75-1.5 6.75-4.109c0-.594-.328-1.407-.328-2.125 0-.547.89-1.329.984-1.438Zm0 0"/></symbol><symbol overflow="visible" id="ao"><path style="stroke:none" d="M8.484-2.844c-.687.594-1.109 1.188-1.109 1.969 0 .578.484 1.078 1.016 1.078 1.828 0 5.187-3.11 5.187-3.328 0-.078 0-.14-.078-.14-.188 0-.453.265-.516.328-1.921 1.765-3.75 2.734-4.562 2.734-.203 0-.39-.094-.39-.281 0-.422 1.03-1.22 2.546-2.485.61-.515 1.11-1.406 1.11-1.953 0-.719-.438-1.25-1.079-1.25-1.437 0-3.203 1.469-5.75 3.469l4.563-5.125c1.578-.75 4.156-1.734 7.219-3.75 2.734-1.797 4.109-3.531 4.109-4.375 0-.719-.36-1.016-1.11-1.016-2.187 0-5.906 3.11-11.328 8.844-.968 1.047-2.859 1.89-5.015 3.688-.656.484-1.235.906-1.235 1.109 0 .062.032.125.094.125.328 0 1.922-1.656 4.594-3.25L.984-.36c-.078.062-.03.125-.03.234 0 .063.093.125.155.125h1.204c.359 0 .812-.625 1.64-1.375 3.453-3.188 5.86-4.469 6.547-4.469.297 0 .594.266.594.532 0 .28-.953 1.078-2.61 2.468ZM15-13.438c.5-.5 1.219-1.53 2.75-2.39.781-.453 1.625-.75 1.922-.75.297 0 .656.234.656.469 0 .75-1.437 2.64-4.11 4.328-2.155 1.406-4.437 2.578-6 3.14Zm0 0"/></symbol><symbol overflow="visible" id="ap"><path style="stroke:none" d="M4.313-3.484C3.266-2.375 2.938-1.625 2.938-.813c0 .61.453 1.047 1.109 1.047 1.469 0 5.062-2.843 5.062-3.437 0-.39-1.218.719-1.375.953-.421.594-2.937 1.984-3.39 1.984-.328 0-.657.172-.657-.28 0-.173.485-.985 1.344-1.735 1.657-1.406 2.672-2.672 2.672-2.906 0-.063-.031-.125-.094-.204l-.687-.671c-.078-.079-.14-.11-.234-.11-.125 0-.547.297-1.532.297-.093 0-.125-.094-.234-.125.469-.14.781-.297.781-.781 0-.328-.36-.657-.75-.657-.422 0-.75.454-.75.985 0 .25.031.516.234.578.094.031.157.094.157.203 0 .031-.36.36-.516.484-1.234.985-2.016 1.704-2.016 1.86 0 .062.032.125.094.125.188 0 .719-.516 1.328-1.11.438-.359 1.344-1 1.61-1.14 0 0 .718-.094 1.234-.125Zm0 0"/></symbol><linearGradient id="b" gradientUnits="userSpaceOnUse" x1="0" y1="25.004" x2="0" y2="74.997" gradientTransform="matrix(21.57878 0 0 -13.30692 -811.035 998.35)"><stop offset="0" style="stop-color:#f7980f;stop-opacity:1"/><stop offset=".004" style="stop-color:#f79810;stop-opacity:1"/><stop offset=".008" style="stop-color:#f79911;stop-opacity:1"/><stop offset=".012" style="stop-color:#f89911;stop-opacity:1"/><stop offset=".016" style="stop-color:#f89912;stop-opacity:1"/><stop offset=".02" style="stop-color:#f89a13;stop-opacity:1"/><stop offset=".023" style="stop-color:#f89a13;stop-opacity:1"/><stop offset=".027" style="stop-color:#f89a14;stop-opacity:1"/><stop offset=".031" style="stop-color:#f89b15;stop-opacity:1"/><stop offset=".035" style="stop-color:#f89b15;stop-opacity:1"/><stop offset=".039" style="stop-color:#f89b16;stop-opacity:1"/><stop offset=".043" style="stop-color:#f89c17;stop-opacity:1"/><stop offset=".047" style="stop-color:#f89c18;stop-opacity:1"/><stop offset=".051" style="stop-color:#f89d18;stop-opacity:1"/><stop offset=".055" style="stop-color:#f89d19;stop-opacity:1"/><stop offset=".059" style="stop-color:#f89d1a;stop-opacity:1"/><stop offset=".063" style="stop-color:#f89e1a;stop-opacity:1"/><stop offset=".066" style="stop-color:#f89e1b;stop-opacity:1"/><stop offset=".07" style="stop-color:#f89e1c;stop-opacity:1"/><stop offset=".074" style="stop-color:#f89f1d;stop-opacity:1"/><stop offset=".078" style="stop-color:#f89f1d;stop-opacity:1"/><stop offset=".082" style="stop-color:#f89f1e;stop-opacity:1"/><stop offset=".086" style="stop-color:#f8a01f;stop-opacity:1"/><stop offset=".09" style="stop-color:#f8a01f;stop-opacity:1"/><stop offset=".094" style="stop-color:#f8a020;stop-opacity:1"/><stop offset=".098" style="stop-color:#f8a121;stop-opacity:1"/><stop offset=".102" style="stop-color:#f8a122;stop-opacity:1"/><stop offset=".105" style="stop-color:#f8a122;stop-opacity:1"/><stop offset=".109" style="stop-color:#f8a223;stop-opacity:1"/><stop offset=".113" style="stop-color:#f8a224;stop-opacity:1"/><stop offset=".117" style="stop-color:#f8a225;stop-opacity:1"/><stop offset=".121" style="stop-color:#f8a325;stop-opacity:1"/><stop offset=".125" style="stop-color:#f8a326;stop-opacity:1"/><stop offset=".129" style="stop-color:#f8a327;stop-opacity:1"/><stop offset=".133" style="stop-color:#f8a428;stop-opacity:1"/><stop offset=".137" style="stop-color:#f8a428;stop-opacity:1"/><stop offset=".141" style="stop-color:#f8a529;stop-opacity:1"/><stop offset=".145" style="stop-color:#f8a52a;stop-opacity:1"/><stop offset=".148" style="stop-color:#f9a52b;stop-opacity:1"/><stop offset=".152" style="stop-color:#f9a62b;stop-opacity:1"/><stop offset=".156" style="stop-color:#f9a62c;stop-opacity:1"/><stop offset=".16" style="stop-color:#f9a62d;stop-opacity:1"/><stop offset=".164" style="stop-color:#f9a72e;stop-opacity:1"/><stop offset=".168" style="stop-color:#f9a72f;stop-opacity:1"/><stop offset=".172" style="stop-color:#f9a72f;stop-opacity:1"/><stop offset=".176" style="stop-color:#f9a830;stop-opacity:1"/><stop offset=".18" style="stop-color:#f9a831;stop-opacity:1"/><stop offset=".184" style="stop-color:#f9a832;stop-opacity:1"/><stop offset=".188" style="stop-color:#f9a932;stop-opacity:1"/><stop offset=".191" style="stop-color:#f9a933;stop-opacity:1"/><stop offset=".195" style="stop-color:#f9aa34;stop-opacity:1"/><stop offset=".199" style="stop-color:#f9aa35;stop-opacity:1"/><stop offset=".203" style="stop-color:#f9aa36;stop-opacity:1"/><stop offset=".207" style="stop-color:#f9ab36;stop-opacity:1"/><stop offset=".211" style="stop-color:#f9ab37;stop-opacity:1"/><stop offset=".215" style="stop-color:#f9ab38;stop-opacity:1"/><stop offset=".219" style="stop-color:#f9ac39;stop-opacity:1"/><stop offset=".223" style="stop-color:#f9ac3a;stop-opacity:1"/><stop offset=".227" style="stop-color:#f9ac3a;stop-opacity:1"/><stop offset=".23" style="stop-color:#f9ad3b;stop-opacity:1"/><stop offset=".234" style="stop-color:#f9ad3c;stop-opacity:1"/><stop offset=".238" style="stop-color:#f9ae3d;stop-opacity:1"/><stop offset=".242" style="stop-color:#f9ae3e;stop-opacity:1"/><stop offset=".246" style="stop-color:#f9ae3e;stop-opacity:1"/><stop offset=".25" style="stop-color:#f9af3f;stop-opacity:1"/><stop offset=".254" style="stop-color:#f9af40;stop-opacity:1"/><stop offset=".258" style="stop-color:#f9af41;stop-opacity:1"/><stop offset=".262" style="stop-color:#f9b042;stop-opacity:1"/><stop offset=".266" style="stop-color:#f9b042;stop-opacity:1"/><stop offset=".27" style="stop-color:#f9b043;stop-opacity:1"/><stop offset=".273" style="stop-color:#f9b144;stop-opacity:1"/><stop offset=".277" style="stop-color:#f9b145;stop-opacity:1"/><stop offset=".281" style="stop-color:#f9b246;stop-opacity:1"/><stop offset=".285" style="stop-color:#fab247;stop-opacity:1"/><stop offset=".289" style="stop-color:#fab247;stop-opacity:1"/><stop offset=".293" style="stop-color:#fab348;stop-opacity:1"/><stop offset=".297" style="stop-color:#fab349;stop-opacity:1"/><stop offset=".301" style="stop-color:#fab34a;stop-opacity:1"/><stop offset=".305" style="stop-color:#fab44b;stop-opacity:1"/><stop offset=".309" style="stop-color:#fab44c;stop-opacity:1"/><stop offset=".313" style="stop-color:#fab54c;stop-opacity:1"/><stop offset=".316" style="stop-color:#fab54d;stop-opacity:1"/><stop offset=".32" style="stop-color:#fab54e;stop-opacity:1"/><stop offset=".324" style="stop-color:#fab64f;stop-opacity:1"/><stop offset=".328" style="stop-color:#fab650;stop-opacity:1"/><stop offset=".332" style="stop-color:#fab651;stop-opacity:1"/><stop offset=".336" style="stop-color:#fab752;stop-opacity:1"/><stop offset=".34" style="stop-color:#fab752;stop-opacity:1"/><stop offset=".344" style="stop-color:#fab853;stop-opacity:1"/><stop offset=".348" style="stop-color:#fab854;stop-opacity:1"/><stop offset=".352" style="stop-color:#fab855;stop-opacity:1"/><stop offset=".355" style="stop-color:#fab956;stop-opacity:1"/><stop offset=".359" style="stop-color:#fab957;stop-opacity:1"/><stop offset=".363" style="stop-color:#faba58;stop-opacity:1"/><stop offset=".367" style="stop-color:#faba58;stop-opacity:1"/><stop offset=".371" style="stop-color:#faba59;stop-opacity:1"/><stop offset=".375" style="stop-color:#fabb5a;stop-opacity:1"/><stop offset=".379" style="stop-color:#fabb5b;stop-opacity:1"/><stop offset=".383" style="stop-color:#fabb5c;stop-opacity:1"/><stop offset=".387" style="stop-color:#fabc5d;stop-opacity:1"/><stop offset=".391" style="stop-color:#fabc5e;stop-opacity:1"/><stop offset=".395" style="stop-color:#fabd5f;stop-opacity:1"/><stop offset=".398" style="stop-color:#fabd5f;stop-opacity:1"/><stop offset=".402" style="stop-color:#fabd60;stop-opacity:1"/><stop offset=".406" style="stop-color:#fabe61;stop-opacity:1"/><stop offset=".41" style="stop-color:#fabe62;stop-opacity:1"/><stop offset=".414" style="stop-color:#fabf63;stop-opacity:1"/><stop offset=".418" style="stop-color:#fabf64;stop-opacity:1"/><stop offset=".422" style="stop-color:#fbbf65;stop-opacity:1"/><stop offset=".426" style="stop-color:#fbc066;stop-opacity:1"/><stop offset=".43" style="stop-color:#fbc067;stop-opacity:1"/><stop offset=".434" style="stop-color:#fbc068;stop-opacity:1"/><stop offset=".438" style="stop-color:#fbc168;stop-opacity:1"/><stop offset=".441" style="stop-color:#fbc169;stop-opacity:1"/><stop offset=".445" style="stop-color:#fbc26a;stop-opacity:1"/><stop offset=".449" style="stop-color:#fbc26b;stop-opacity:1"/><stop offset=".453" style="stop-color:#fbc26c;stop-opacity:1"/><stop offset=".457" style="stop-color:#fbc36d;stop-opacity:1"/><stop offset=".461" style="stop-color:#fbc36e;stop-opacity:1"/><stop offset=".465" style="stop-color:#fbc46f;stop-opacity:1"/><stop offset=".469" style="stop-color:#fbc470;stop-opacity:1"/><stop offset=".473" style="stop-color:#fbc471;stop-opacity:1"/><stop offset=".477" style="stop-color:#fbc572;stop-opacity:1"/><stop offset=".48" style="stop-color:#fbc573;stop-opacity:1"/><stop offset=".484" style="stop-color:#fbc673;stop-opacity:1"/><stop offset=".488" style="stop-color:#fbc674;stop-opacity:1"/><stop offset=".492" style="stop-color:#fbc675;stop-opacity:1"/><stop offset=".496" style="stop-color:#fbc776;stop-opacity:1"/><stop offset=".5" style="stop-color:#fbc777;stop-opacity:1"/><stop offset=".504" style="stop-color:#fbc878;stop-opacity:1"/><stop offset=".508" style="stop-color:#fbc879;stop-opacity:1"/><stop offset=".512" style="stop-color:#fbc87a;stop-opacity:1"/><stop offset=".516" style="stop-color:#fbc97b;stop-opacity:1"/><stop offset=".52" style="stop-color:#fbc97c;stop-opacity:1"/><stop offset=".523" style="stop-color:#fbca7d;stop-opacity:1"/><stop offset=".527" style="stop-color:#fbca7e;stop-opacity:1"/><stop offset=".531" style="stop-color:#fbca7f;stop-opacity:1"/><stop offset=".535" style="stop-color:#fbcb80;stop-opacity:1"/><stop offset=".539" style="stop-color:#fbcb81;stop-opacity:1"/><stop offset=".543" style="stop-color:#fbcc82;stop-opacity:1"/><stop offset=".547" style="stop-color:#fbcc83;stop-opacity:1"/><stop offset=".551" style="stop-color:#fbcd84;stop-opacity:1"/><stop offset=".555" style="stop-color:#fccd85;stop-opacity:1"/><stop offset=".559" style="stop-color:#fccd85;stop-opacity:1"/><stop offset=".563" style="stop-color:#fcce86;stop-opacity:1"/><stop offset=".566" style="stop-color:#fcce87;stop-opacity:1"/><stop offset=".57" style="stop-color:#fccf88;stop-opacity:1"/><stop offset=".574" style="stop-color:#fccf89;stop-opacity:1"/><stop offset=".578" style="stop-color:#fccf8a;stop-opacity:1"/><stop offset=".582" style="stop-color:#fcd08b;stop-opacity:1"/><stop offset=".586" style="stop-color:#fcd08c;stop-opacity:1"/><stop offset=".59" style="stop-color:#fcd18d;stop-opacity:1"/><stop offset=".594" style="stop-color:#fcd18e;stop-opacity:1"/><stop offset=".598" style="stop-color:#fcd18f;stop-opacity:1"/><stop offset=".602" style="stop-color:#fcd290;stop-opacity:1"/><stop offset=".605" style="stop-color:#fcd291;stop-opacity:1"/><stop offset=".609" style="stop-color:#fcd392;stop-opacity:1"/><stop offset=".613" style="stop-color:#fcd393;stop-opacity:1"/><stop offset=".617" style="stop-color:#fcd494;stop-opacity:1"/><stop offset=".621" style="stop-color:#fcd495;stop-opacity:1"/><stop offset=".625" style="stop-color:#fcd496;stop-opacity:1"/><stop offset=".629" style="stop-color:#fcd597;stop-opacity:1"/><stop offset=".633" style="stop-color:#fcd598;stop-opacity:1"/><stop offset=".637" style="stop-color:#fcd699;stop-opacity:1"/><stop offset=".641" style="stop-color:#fcd69a;stop-opacity:1"/><stop offset=".645" style="stop-color:#fcd69b;stop-opacity:1"/><stop offset=".648" style="stop-color:#fcd79c;stop-opacity:1"/><stop offset=".652" style="stop-color:#fcd79d;stop-opacity:1"/><stop offset=".656" style="stop-color:#fcd89e;stop-opacity:1"/><stop offset=".66" style="stop-color:#fcd89f;stop-opacity:1"/><stop offset=".664" style="stop-color:#fcd9a0;stop-opacity:1"/><stop offset=".668" style="stop-color:#fcd9a1;stop-opacity:1"/><stop offset=".672" style="stop-color:#fcd9a2;stop-opacity:1"/><stop offset=".676" style="stop-color:#fcdaa3;stop-opacity:1"/><stop offset=".68" style="stop-color:#fcdaa4;stop-opacity:1"/><stop offset=".684" style="stop-color:#fddba5;stop-opacity:1"/><stop offset=".688" style="stop-color:#fddba6;stop-opacity:1"/><stop offset=".691" style="stop-color:#fddca7;stop-opacity:1"/><stop offset=".695" style="stop-color:#fddca8;stop-opacity:1"/><stop offset=".699" style="stop-color:#fddca9;stop-opacity:1"/><stop offset=".703" style="stop-color:#fdddab;stop-opacity:1"/><stop offset=".707" style="stop-color:#fdddac;stop-opacity:1"/><stop offset=".711" style="stop-color:#fddead;stop-opacity:1"/><stop offset=".715" style="stop-color:#fddeae;stop-opacity:1"/><stop offset=".719" style="stop-color:#fddfaf;stop-opacity:1"/><stop offset=".723" style="stop-color:#fddfb0;stop-opacity:1"/><stop offset=".727" style="stop-color:#fddfb1;stop-opacity:1"/><stop offset=".73" style="stop-color:#fde0b2;stop-opacity:1"/><stop offset=".734" style="stop-color:#fde0b3;stop-opacity:1"/><stop offset=".738" style="stop-color:#fde1b4;stop-opacity:1"/><stop offset=".742" style="stop-color:#fde1b5;stop-opacity:1"/><stop offset=".746" style="stop-color:#fde2b6;stop-opacity:1"/><stop offset=".75" style="stop-color:#fde2b7;stop-opacity:1"/><stop offset=".754" style="stop-color:#fde2b8;stop-opacity:1"/><stop offset=".758" style="stop-color:#fde3b9;stop-opacity:1"/><stop offset=".762" style="stop-color:#fde3ba;stop-opacity:1"/><stop offset=".766" style="stop-color:#fde4bb;stop-opacity:1"/><stop offset=".77" style="stop-color:#fde4bc;stop-opacity:1"/><stop offset=".773" style="stop-color:#fde5be;stop-opacity:1"/><stop offset=".777" style="stop-color:#fde5bf;stop-opacity:1"/><stop offset=".781" style="stop-color:#fde6c0;stop-opacity:1"/><stop offset=".785" style="stop-color:#fde6c1;stop-opacity:1"/><stop offset=".789" style="stop-color:#fde6c2;stop-opacity:1"/><stop offset=".793" style="stop-color:#fde7c3;stop-opacity:1"/><stop offset=".797" style="stop-color:#fde7c4;stop-opacity:1"/><stop offset=".801" style="stop-color:#fde8c5;stop-opacity:1"/><stop offset=".805" style="stop-color:#fde8c6;stop-opacity:1"/><stop offset=".809" style="stop-color:#fde9c7;stop-opacity:1"/><stop offset=".813" style="stop-color:#fee9c8;stop-opacity:1"/><stop offset=".816" style="stop-color:#feeac9;stop-opacity:1"/><stop offset=".82" style="stop-color:#feeacb;stop-opacity:1"/><stop offset=".824" style="stop-color:#feeacc;stop-opacity:1"/><stop offset=".828" style="stop-color:#feebcd;stop-opacity:1"/><stop offset=".832" style="stop-color:#feebce;stop-opacity:1"/><stop offset=".836" style="stop-color:#feeccf;stop-opacity:1"/><stop offset=".84" style="stop-color:#feecd0;stop-opacity:1"/><stop offset=".844" style="stop-color:#feedd1;stop-opacity:1"/><stop offset=".848" style="stop-color:#feedd2;stop-opacity:1"/><stop offset=".852" style="stop-color:#feeed3;stop-opacity:1"/><stop offset=".855" style="stop-color:#feeed4;stop-opacity:1"/><stop offset=".859" style="stop-color:#feeed6;stop-opacity:1"/><stop offset=".863" style="stop-color:#feefd7;stop-opacity:1"/><stop offset=".867" style="stop-color:#feefd8;stop-opacity:1"/><stop offset=".871" style="stop-color:#fef0d9;stop-opacity:1"/><stop offset=".875" style="stop-color:#fef0da;stop-opacity:1"/><stop offset=".879" style="stop-color:#fef1db;stop-opacity:1"/><stop offset=".883" style="stop-color:#fef1dc;stop-opacity:1"/><stop offset=".887" style="stop-color:#fef2dd;stop-opacity:1"/><stop offset=".891" style="stop-color:#fef2df;stop-opacity:1"/><stop offset=".895" style="stop-color:#fef3e0;stop-opacity:1"/><stop offset=".898" style="stop-color:#fef3e1;stop-opacity:1"/><stop offset=".902" style="stop-color:#fef3e2;stop-opacity:1"/><stop offset=".906" style="stop-color:#fef4e3;stop-opacity:1"/><stop offset=".91" style="stop-color:#fef4e4;stop-opacity:1"/><stop offset=".914" style="stop-color:#fef5e5;stop-opacity:1"/><stop offset=".918" style="stop-color:#fef5e7;stop-opacity:1"/><stop offset=".922" style="stop-color:#fef6e8;stop-opacity:1"/><stop offset=".926" style="stop-color:#fef6e9;stop-opacity:1"/><stop offset=".93" style="stop-color:#fef7ea;stop-opacity:1"/><stop offset=".934" style="stop-color:#fef7eb;stop-opacity:1"/><stop offset=".938" style="stop-color:#fff8ec;stop-opacity:1"/><stop offset=".941" style="stop-color:#fff8ed;stop-opacity:1"/><stop offset=".945" style="stop-color:#fff8ef;stop-opacity:1"/><stop offset=".949" style="stop-color:#fff9f0;stop-opacity:1"/><stop offset=".953" style="stop-color:#fff9f1;stop-opacity:1"/><stop offset=".957" style="stop-color:#fffaf2;stop-opacity:1"/><stop offset=".961" style="stop-color:#fffaf3;stop-opacity:1"/><stop offset=".965" style="stop-color:#fffbf4;stop-opacity:1"/><stop offset=".969" style="stop-color:#fffbf6;stop-opacity:1"/><stop offset=".973" style="stop-color:#fffcf7;stop-opacity:1"/><stop offset=".977" style="stop-color:#fffcf8;stop-opacity:1"/><stop offset=".98" style="stop-color:#fffdf9;stop-opacity:1"/><stop offset=".984" style="stop-color:#fffdfa;stop-opacity:1"/><stop offset=".988" style="stop-color:#fffefb;stop-opacity:1"/><stop offset=".992" style="stop-color:#fffefd;stop-opacity:1"/><stop offset=".996" style="stop-color:#fffffe;stop-opacity:1"/><stop offset="1" style="stop-color:#fff;stop-opacity:1"/></linearGradient><clipPath id="a"><path d="M0 .371h535.8V665.63H0Zm0 0"/></clipPath></defs><g clip-path="url(#a)"><path style="stroke:none;fill-rule:nonzero;fill:url(#b)" d="M0 665.629V.37h535.8V665.63Zm0 0"/></g><g style="fill:#fff;fill-opacity:1"><use xlink:href="#c" x="173.274" y="68.612"/><use xlink:href="#d" x="202.795" y="68.612"/><use xlink:href="#e" x="215.899" y="68.612"/><use xlink:href="#f" x="233.457" y="68.612"/><use xlink:href="#d" x="252.818" y="68.612"/><use xlink:href="#g" x="265.922" y="68.612"/><use xlink:href="#h" x="290.437" y="68.612"/><use xlink:href="#d" x="303.873" y="68.612"/><use xlink:href="#i" x="316.977" y="68.612"/><use xlink:href="#j" x="341.676" y="68.612"/></g><g style="fill:#231f20;fill-opacity:1"><use xlink:href="#c" x="174.568" y="69.258"/><use xlink:href="#d" x="204.089" y="69.258"/><use xlink:href="#e" x="217.193" y="69.258"/><use xlink:href="#f" x="234.751" y="69.258"/><use xlink:href="#d" x="254.112" y="69.258"/><use xlink:href="#g" x="267.216" y="69.258"/><use xlink:href="#h" x="291.731" y="69.258"/><use xlink:href="#d" x="305.167" y="69.258"/><use xlink:href="#i" x="318.271" y="69.258"/><use xlink:href="#j" x="342.97" y="69.258"/></g><g style="fill:#f68512;fill-opacity:1"><use xlink:href="#c" x="173.921" y="68.935"/><use xlink:href="#d" x="203.442" y="68.935"/><use xlink:href="#e" x="216.546" y="68.935"/><use xlink:href="#f" x="234.104" y="68.935"/><use xlink:href="#d" x="253.466" y="68.935"/><use xlink:href="#g" x="266.57" y="68.935"/><use xlink:href="#h" x="291.085" y="68.935"/><use xlink:href="#d" x="304.52" y="68.935"/><use xlink:href="#i" x="317.624" y="68.935"/><use xlink:href="#j" x="342.323" y="68.935"/></g><g style="fill:#fff;fill-opacity:1"><use xlink:href="#k" x="255.88" y="102.927"/><use xlink:href="#l" x="269.517" y="102.927"/></g><g style="fill:#231f20;fill-opacity:1"><use xlink:href="#k" x="256.676" y="103.325"/><use xlink:href="#l" x="270.313" y="103.325"/></g><g style="fill:#f68512;fill-opacity:1"><use xlink:href="#k" x="256.279" y="103.126"/><use xlink:href="#l" x="269.915" y="103.126"/></g><g style="fill:#fff;fill-opacity:1"><use xlink:href="#m" x="134.699" y="141.954"/><use xlink:href="#n" x="165.279" y="141.954"/><use xlink:href="#o" x="190.848" y="141.954"/></g><g style="fill:#fff;fill-opacity:1"><use xlink:href="#p" x="231.706" y="141.954"/><use xlink:href="#q" x="259.992" y="141.954"/></g><g style="fill:#fff;fill-opacity:1"><use xlink:href="#r" x="282.205" y="141.954"/><use xlink:href="#s" x="301.87" y="141.954"/><use xlink:href="#r" x="316.99" y="141.954"/><use xlink:href="#s" x="336.654" y="141.954"/><use xlink:href="#t" x="351.775" y="141.954"/></g><use xlink:href="#q" x="377.046" y="141.954" style="fill:#fff;fill-opacity:1"/><g style="fill:#231f20;fill-opacity:1"><use xlink:href="#m" x="136.192" y="142.701"/><use xlink:href="#n" x="166.772" y="142.701"/><use xlink:href="#o" x="192.341" y="142.701"/></g><g style="fill:#231f20;fill-opacity:1"><use xlink:href="#p" x="233.199" y="142.701"/><use xlink:href="#q" x="261.485" y="142.701"/></g><g style="fill:#231f20;fill-opacity:1"><use xlink:href="#r" x="283.698" y="142.701"/><use xlink:href="#s" x="303.363" y="142.701"/><use xlink:href="#r" x="318.483" y="142.701"/><use xlink:href="#s" x="338.148" y="142.701"/><use xlink:href="#t" x="353.268" y="142.701"/></g><use xlink:href="#q" x="378.539" y="142.701" style="fill:#231f20;fill-opacity:1"/><g style="fill:#f68512;fill-opacity:1"><use xlink:href="#m" x="135.446" y="142.328"/><use xlink:href="#n" x="166.026" y="142.328"/><use xlink:href="#o" x="191.594" y="142.328"/></g><g style="fill:#f68512;fill-opacity:1"><use xlink:href="#p" x="232.453" y="142.328"/><use xlink:href="#q" x="260.739" y="142.328"/></g><g style="fill:#f68512;fill-opacity:1"><use xlink:href="#r" x="282.952" y="142.328"/><use xlink:href="#s" x="302.617" y="142.328"/><use xlink:href="#r" x="317.737" y="142.328"/><use xlink:href="#s" x="337.401" y="142.328"/><use xlink:href="#t" x="352.521" y="142.328"/></g><use xlink:href="#q" x="377.792" y="142.328" style="fill:#f68512;fill-opacity:1"/><g style="fill:#fff;fill-opacity:1"><use xlink:href="#u" x="94.571" y="186.55"/><use xlink:href="#v" x="129.432" y="186.55"/></g><g style="fill:#fff;fill-opacity:1"><use xlink:href="#w" x="156.088" y="186.55"/><use xlink:href="#x" x="186.77" y="186.55"/></g><use xlink:href="#v" x="216.381" y="186.55" style="fill:#fff;fill-opacity:1"/><g style="fill:#fff;fill-opacity:1"><use xlink:href="#y" x="243.19" y="186.55"/><use xlink:href="#z" x="272.088" y="186.55"/><use xlink:href="#z" x="321.22" y="186.55"/><use xlink:href="#A" x="370.351" y="186.55"/><use xlink:href="#B" x="388.496" y="186.55"/><use xlink:href="#x" x="422.694" y="186.55"/></g><g style="fill:#231f20;fill-opacity:1"><use xlink:href="#u" x="96.362" y="187.446"/><use xlink:href="#v" x="131.223" y="187.446"/></g><g style="fill:#231f20;fill-opacity:1"><use xlink:href="#w" x="157.879" y="187.446"/><use xlink:href="#x" x="188.561" y="187.446"/></g><use xlink:href="#v" x="218.172" y="187.446" style="fill:#231f20;fill-opacity:1"/><g style="fill:#231f20;fill-opacity:1"><use xlink:href="#y" x="244.981" y="187.446"/><use xlink:href="#z" x="273.879" y="187.446"/><use xlink:href="#z" x="323.01" y="187.446"/><use xlink:href="#A" x="372.142" y="187.446"/><use xlink:href="#B" x="390.286" y="187.446"/><use xlink:href="#x" x="424.485" y="187.446"/></g><g style="fill:#f68512;fill-opacity:1"><use xlink:href="#u" x="95.467" y="186.998"/><use xlink:href="#v" x="130.328" y="186.998"/></g><g style="fill:#f68512;fill-opacity:1"><use xlink:href="#w" x="156.983" y="186.998"/><use xlink:href="#x" x="187.665" y="186.998"/></g><use xlink:href="#v" x="217.277" y="186.998" style="fill:#f68512;fill-opacity:1"/><g style="fill:#f68512;fill-opacity:1"><use xlink:href="#y" x="244.085" y="186.998"/><use xlink:href="#z" x="272.983" y="186.998"/><use xlink:href="#z" x="322.115" y="186.998"/><use xlink:href="#A" x="371.247" y="186.998"/><use xlink:href="#B" x="389.391" y="186.998"/><use xlink:href="#x" x="423.59" y="186.998"/></g><use xlink:href="#C" x="133" y="269.958" style="fill:#fff;fill-opacity:1"/><g style="fill:#fff;fill-opacity:1"><use xlink:href="#D" x="178.707" y="269.958"/><use xlink:href="#E" x="211.122" y="269.958"/><use xlink:href="#F" x="223.069" y="269.958"/><use xlink:href="#G" x="230.815" y="269.958"/><use xlink:href="#H" x="243.659" y="269.958"/><use xlink:href="#I" x="251.61" y="269.958"/><use xlink:href="#J" x="260.335" y="269.958"/><use xlink:href="#K" x="263.516" y="269.958"/></g><g style="fill:#fff;fill-opacity:1"><use xlink:href="#L" x="283.821" y="269.958"/><use xlink:href="#H" x="315.053" y="269.958"/><use xlink:href="#I" x="323.004" y="269.958"/><use xlink:href="#K" x="331.729" y="269.958"/><use xlink:href="#M" x="338.457" y="269.958"/><use xlink:href="#H" x="351.994" y="269.958"/><use xlink:href="#F" x="359.945" y="269.958"/><use xlink:href="#N" x="367.692" y="269.958"/><use xlink:href="#O" x="375.275" y="269.958"/><use xlink:href="#P" x="381.391" y="269.958"/><use xlink:href="#H" x="393.827" y="269.958"/></g><use xlink:href="#C" x="133.996" y="270.455" style="fill:#231f20;fill-opacity:1"/><g style="fill:#231f20;fill-opacity:1"><use xlink:href="#D" x="179.703" y="270.455"/><use xlink:href="#E" x="212.117" y="270.455"/><use xlink:href="#F" x="224.064" y="270.455"/><use xlink:href="#G" x="231.811" y="270.455"/><use xlink:href="#H" x="244.654" y="270.455"/><use xlink:href="#I" x="252.605" y="270.455"/><use xlink:href="#J" x="261.331" y="270.455"/><use xlink:href="#K" x="264.511" y="270.455"/></g><g style="fill:#231f20;fill-opacity:1"><use xlink:href="#L" x="284.816" y="270.455"/><use xlink:href="#H" x="316.049" y="270.455"/><use xlink:href="#I" x="323.999" y="270.455"/><use xlink:href="#K" x="332.725" y="270.455"/><use xlink:href="#M" x="339.452" y="270.455"/><use xlink:href="#H" x="352.989" y="270.455"/><use xlink:href="#F" x="360.94" y="270.455"/><use xlink:href="#N" x="368.687" y="270.455"/><use xlink:href="#O" x="376.271" y="270.455"/><use xlink:href="#P" x="382.387" y="270.455"/><use xlink:href="#H" x="394.823" y="270.455"/></g><use xlink:href="#C" x="133.498" y="270.207" style="fill:#ed1c24;fill-opacity:1"/><g style="fill:#ed1c24;fill-opacity:1"><use xlink:href="#D" x="179.205" y="270.207"/><use xlink:href="#E" x="211.62" y="270.207"/><use xlink:href="#F" x="223.566" y="270.207"/><use xlink:href="#G" x="231.313" y="270.207"/><use xlink:href="#H" x="244.157" y="270.207"/><use xlink:href="#I" x="252.108" y="270.207"/><use xlink:href="#J" x="260.833" y="270.207"/><use xlink:href="#K" x="264.014" y="270.207"/></g><g style="fill:#ed1c24;fill-opacity:1"><use xlink:href="#L" x="284.319" y="270.207"/><use xlink:href="#H" x="315.551" y="270.207"/><use xlink:href="#I" x="323.502" y="270.207"/><use xlink:href="#K" x="332.227" y="270.207"/><use xlink:href="#M" x="338.955" y="270.207"/><use xlink:href="#H" x="352.492" y="270.207"/><use xlink:href="#F" x="360.443" y="270.207"/><use xlink:href="#N" x="368.19" y="270.207"/><use xlink:href="#O" x="375.773" y="270.207"/><use xlink:href="#P" x="381.889" y="270.207"/><use xlink:href="#H" x="394.325" y="270.207"/></g><g style="fill:#fff;fill-opacity:1"><use xlink:href="#Q" x="122.641" y="570.505"/><use xlink:href="#R" x="138.951" y="570.505"/><use xlink:href="#S" x="154.331" y="570.505"/><use xlink:href="#T" x="167.175" y="570.505"/><use xlink:href="#U" x="182.374" y="570.505"/><use xlink:href="#V" x="197.098" y="570.505"/></g><use xlink:href="#S" x="209.013" y="570.505" style="fill:#fff;fill-opacity:1"/><g style="fill:#fff;fill-opacity:1"><use xlink:href="#W" x="227.497" y="570.505"/><use xlink:href="#R" x="242.107" y="570.505"/><use xlink:href="#X" x="257.488" y="570.505"/><use xlink:href="#Y" x="269.493" y="570.505"/><use xlink:href="#R" x="286.119" y="570.505"/><use xlink:href="#S" x="301.5" y="570.505"/><use xlink:href="#V" x="314.344" y="570.505"/></g><use xlink:href="#Z" x="332.125" y="570.505" style="fill:#fff;fill-opacity:1"/><g style="fill:#fff;fill-opacity:1"><use xlink:href="#aa" x="350.269" y="570.505"/><use xlink:href="#ab" x="365.627" y="570.505"/><use xlink:href="#S" x="387.464" y="570.505"/><use xlink:href="#V" x="400.307" y="570.505"/></g><g style="fill:#231f20;fill-opacity:1"><use xlink:href="#Q" x="123.438" y="570.903"/><use xlink:href="#R" x="139.747" y="570.903"/><use xlink:href="#S" x="155.127" y="570.903"/><use xlink:href="#T" x="167.971" y="570.903"/><use xlink:href="#U" x="183.17" y="570.903"/><use xlink:href="#V" x="197.894" y="570.903"/></g><use xlink:href="#S" x="209.809" y="570.903" style="fill:#231f20;fill-opacity:1"/><g style="fill:#231f20;fill-opacity:1"><use xlink:href="#W" x="228.293" y="570.903"/><use xlink:href="#R" x="242.903" y="570.903"/><use xlink:href="#X" x="258.284" y="570.903"/><use xlink:href="#Y" x="270.289" y="570.903"/><use xlink:href="#R" x="286.916" y="570.903"/><use xlink:href="#S" x="302.296" y="570.903"/><use xlink:href="#V" x="315.14" y="570.903"/></g><use xlink:href="#Z" x="332.922" y="570.903" style="fill:#231f20;fill-opacity:1"/><g style="fill:#231f20;fill-opacity:1"><use xlink:href="#aa" x="351.066" y="570.903"/><use xlink:href="#ab" x="366.424" y="570.903"/><use xlink:href="#S" x="388.26" y="570.903"/><use xlink:href="#V" x="401.104" y="570.903"/></g><g style="fill:#f46e2b;fill-opacity:1"><use xlink:href="#Q" x="123.04" y="570.704"/><use xlink:href="#R" x="139.349" y="570.704"/><use xlink:href="#S" x="154.729" y="570.704"/><use xlink:href="#T" x="167.573" y="570.704"/><use xlink:href="#U" x="182.772" y="570.704"/><use xlink:href="#V" x="197.496" y="570.704"/></g><use xlink:href="#S" x="209.411" y="570.704" style="fill:#f46e2b;fill-opacity:1"/><g style="fill:#f46e2b;fill-opacity:1"><use xlink:href="#W" x="227.895" y="570.704"/><use xlink:href="#R" x="242.505" y="570.704"/><use xlink:href="#X" x="257.886" y="570.704"/><use xlink:href="#Y" x="269.891" y="570.704"/><use xlink:href="#R" x="286.518" y="570.704"/><use xlink:href="#S" x="301.898" y="570.704"/><use xlink:href="#V" x="314.742" y="570.704"/></g><use xlink:href="#Z" x="332.524" y="570.704" style="fill:#f46e2b;fill-opacity:1"/><g style="fill:#f46e2b;fill-opacity:1"><use xlink:href="#aa" x="350.668" y="570.704"/><use xlink:href="#ab" x="366.026" y="570.704"/><use xlink:href="#S" x="387.862" y="570.704"/><use xlink:href="#V" x="400.706" y="570.704"/></g><g style="fill:#5f1609;fill-opacity:1"><use xlink:href="#ac" x="142.654" y="631.523"/><use xlink:href="#ad" x="168.39" y="631.523"/><use xlink:href="#ae" x="180.165" y="631.523"/><use xlink:href="#af" x="186.363" y="631.523"/><use xlink:href="#ag" x="191.255" y="631.523"/><use xlink:href="#ad" x="197.616" y="631.523"/><use xlink:href="#ah" x="209.391" y="631.523"/></g><g style="fill:#5f1609;fill-opacity:1"><use xlink:href="#ai" x="226.288" y="631.523"/><use xlink:href="#ae" x="249.251" y="631.523"/><use xlink:href="#af" x="255.449" y="631.523"/><use xlink:href="#ag" x="260.342" y="631.523"/><use xlink:href="#ad" x="266.702" y="631.523"/><use xlink:href="#ae" x="278.478" y="631.523"/><use xlink:href="#ag" x="284.675" y="631.523"/></g><g style="fill:#5f1609;fill-opacity:1"><use xlink:href="#aj" x="301.898" y="631.523"/><use xlink:href="#ak" x="326.884" y="631.523"/><use xlink:href="#al" x="336.996" y="631.523"/><use xlink:href="#am" x="346.488" y="631.523"/><use xlink:href="#af" x="352.653" y="631.523"/><use xlink:href="#an" x="357.545" y="631.523"/><use xlink:href="#ao" x="362.928" y="631.523"/><use xlink:href="#ag" x="374.409" y="631.523"/><use xlink:href="#ap" x="380.77" y="631.523"/><use xlink:href="#an" x="387.75" y="631.523"/></g></svg>