<svg xmlns="http://www.w3.org/2000/svg" xmlns:xlink="http://www.w3.org/1999/xlink" width="1003.2" height="1146.24" viewBox="0 0 752.4 859.68" version="1.2"><defs><symbol overflow="visible" id="c"><path style="stroke:none" d="M8.875-49.078h18.484c3.739 0 6.461-.078 8.172-.234a26.246 26.246 0 0 0 5.032-.954c.5-.144.894-.218 1.187-.218 1.238 0 2.336.672 3.297 2.015 1.582 2.18 2.375 4.813 2.375 7.907 0 1.562-.328 2.792-.984 3.687-.657.898-1.563 1.344-2.72 1.344-.792 0-1.413-.16-1.859-.485-.437-.32-1.027-1.047-1.765-2.172-1.055-1.601-2.39-2.675-4.016-3.218-1.617-.54-4.266-.813-7.953-.813-2.762 0-4.445.496-5.047 1.485-.312.523-.5 1.23-.562 2.125-.055.886-.078 3.148-.078 6.78 0 1.438.238 2.337.718 2.688.477.344 1.739.516 3.782.516 1 0 1.726-.207 2.187-.625.457-.414.742-1.164.86-2.25.163-1.383.335-2.332.515-2.844.188-.52.52-.972 1-1.36a2.59 2.59 0 0 1 1.766-.655c.976 0 1.816.468 2.515 1.406.5.7.922 1.93 1.266 3.687.351 1.762.531 3.602.531 5.516 0 3.793-.59 6.898-1.766 9.313-.648 1.324-1.632 1.984-2.953 1.984-.812 0-1.375-.207-1.687-.625-.313-.426-.555-1.297-.719-2.61-.355-2.707-1.937-4.062-4.75-4.062-1.074 0-1.808.344-2.203 1.031-.398.68-.594 1.938-.594 3.782 0 1.125.078 2.585.235 4.375.156 1.78.316 2.96.484 3.53.188.72.773 1.22 1.766 1.5 1 .274 2.664.407 5 .407 3.593 0 6.3-.457 8.125-1.375 1.82-.926 3.304-2.598 4.453-5.016.664-1.394 1.27-2.332 1.812-2.812.54-.477 1.242-.719 2.11-.719 1.007 0 1.843.438 2.5 1.313.656.875.984 1.976.984 3.296 0 1.438-.375 3.235-1.125 5.391-.742 2.156-1.648 4.074-2.719 5.75-.554.813-1.011 1.352-1.375 1.625-.355.281-.808.422-1.36.422-.46 0-1.12-.07-1.983-.203C40.28.254 38.233.07 35.672 0h-30.5C3.953 0 3.004-.27 2.328-.813c-.668-.539-1-1.3-1-2.28 0-.696.14-1.196.422-1.5.29-.313.953-.712 1.984-1.204.72-.3 1.25-.68 1.594-1.14.352-.458.629-1.13.828-2.016.782-3.625 1.172-8.504 1.172-14.64 0-9.25-.574-15.083-1.719-17.5-.242-.477-.507-.813-.796-1-.282-.196-.883-.43-1.797-.704-1.368-.406-2.047-1.312-2.047-2.719 0-.77.226-1.453.687-2.047a3.254 3.254 0 0 1 1.797-1.203c.938-.207 2.742-.312 5.422-.312Zm0 0"/></symbol><symbol overflow="visible" id="d"><path style="stroke:none" d="M21.89-28.516v11.547c0 5.106.079 8.078.235 8.922.156.836.75 1.48 1.781 1.938.883.386 1.477.746 1.782 1.078.3.336.453.812.453 1.437 0 .793-.282 1.512-.844 2.156-.563.649-1.313 1.102-2.25 1.36-1.73.531-4.64.797-8.735.797-4.624 0-7.874-.352-9.75-1.047-.867-.313-1.574-.797-2.125-1.453-.542-.657-.812-1.344-.812-2.063 0-.57.145-1.015.438-1.328.3-.312.957-.687 1.968-1.125.926-.406 1.5-1.52 1.719-3.344.383-3.113.578-7.546.578-13.296 0-5.852-.168-9.618-.5-11.297-.336-1.676-1.172-2.922-2.516-3.735-1.011-.57-1.703-1.113-2.078-1.625-.367-.52-.546-1.156-.546-1.906 0-1.164.562-2.188 1.687-3.063C3.5-45.437 5.297-46.25 7.765-47c1.657-.5 3.801-.977 6.438-1.438 2.633-.457 4.55-.687 5.75-.687 1.895 0 2.844 1.18 2.844 3.531 0 .774-.121 2.532-.36 5.282-.312 4.292-.496 8.226-.546 11.796Zm0 0"/></symbol><symbol overflow="visible" id="e"><path style="stroke:none" d="M34.594-16.11H17.687c-.742 0-1.109.325-1.109.97 0 1.562.844 3.03 2.531 4.406 1.688 1.375 3.504 2.062 5.453 2.062 1.145 0 2.415-.219 3.813-.656 1.406-.445 2.566-.992 3.484-1.64.813-.571 1.457-.86 1.938-.86.625 0 1.234.387 1.828 1.156.602.762.906 1.547.906 2.36 0 1.73-1.078 3.398-3.234 5C29.484-.458 25.082.968 20.094.968c-5.032 0-9.25-1.46-12.657-4.39C5.79-4.859 4.426-6.594 3.345-8.625c-1.418-2.707-2.125-5.563-2.125-8.563 0-4.03 1.222-7.648 3.672-10.859 2.101-2.781 4.785-4.851 8.046-6.219 2.446-1.03 5.098-1.547 7.954-1.547 4.55 0 8.422 1.293 11.609 3.876a15.627 15.627 0 0 1 3.89 4.609c1.126 2.012 1.688 3.976 1.688 5.89 0 1.563-.324 2.844-.969 3.844-.648.992-1.484 1.485-2.515 1.485Zm-15.969-6.718h3.625c1.54 0 2.313-.707 2.313-2.125 0-1.29-.375-2.344-1.125-3.156-.743-.82-1.711-1.235-2.907-1.235-1.343 0-2.398.528-3.156 1.578-.73.993-1.094 1.985-1.094 2.985 0 .718.172 1.226.516 1.515.351.293.96.438 1.828.438Zm0 0"/></symbol><symbol overflow="visible" id="f"><path style="stroke:none" d="M18.813-35.563c1.363 0 2.046.97 2.046 2.907v.625c-.03.375-.047.683-.047.922 0 1.304.383 1.953 1.157 1.953.406 0 1.039-.516 1.906-1.547 1.29-1.488 2.922-2.672 4.89-3.547 1.97-.875 3.985-1.313 6.047-1.313 4 0 6.782 1.465 8.344 4.391.594 1.074 1.082 1.61 1.469 1.61.258 0 .883-.477 1.875-1.438 3.113-3.04 6.645-4.563 10.594-4.563 3.093 0 5.625.852 7.593 2.547 2.063 1.782 3.094 4.446 3.094 7.985 0 .773-.027 2.07-.078 3.89-.043.625-.062 2.508-.062 5.641 0 2.012-.016 3.43-.047 4.25-.024.5-.031.86-.031 1.078 0 1.531.476 2.871 1.437 4.016.57.699.926 1.164 1.063 1.39.132.23.203.54.203.922C70.266-.78 66.656.75 59.437.75 56.25.75 53.676.367 51.72-.39c-1.95-.77-2.922-1.782-2.922-3.032 0-.476.062-.844.187-1.094.133-.25.598-.914 1.391-2 .738-.976 1.11-4.25 1.11-9.812 0-3.227-.227-5.477-.672-6.75-.532-1.508-1.59-2.266-3.172-2.266-.793 0-1.496.246-2.11.735a3.47 3.47 0 0 0-1.203 1.843c-.21.868-.328 3.168-.36 6.907.071 4.03.196 6.48.376 7.343.187.856.797 2.055 1.828 3.594.238.356.36.809.36 1.36 0 2.855-3.731 4.28-11.188 4.28-4.48 0-7.5-.335-9.063-1-1.242-.53-1.86-1.468-1.86-2.812 0-.594.071-1.008.22-1.25.156-.238.691-.789 1.609-1.656.531-.508.867-.984 1.016-1.422.156-.445.27-1.258.343-2.437.164-2.633.25-5.29.25-7.97 0-4.694-1.199-7.046-3.593-7.046-1.793 0-2.856 1.008-3.188 3.016-.293 1.898-.437 4.605-.437 8.125 0 2.636.05 4.367.156 5.187.113.813.41 1.664.89 2.547.57 1.031.86 1.871.86 2.516 0 1.554-1.094 2.632-3.281 3.234-2.368.645-4.977.969-7.828.969-3.7 0-6.415-.293-8.141-.875C1.578-.75.719-1.68.719-2.953c0-.477.113-.883.344-1.219.226-.332.75-.86 1.562-1.578C3.707-6.738 4.332-8.094 4.5-9.813c.258-2.976.39-6.062.39-9.25 0-2.269-.117-3.851-.343-4.75A3.839 3.839 0 0 0 3.094-26c-.719-.55-1.184-.969-1.39-1.25-.2-.29-.298-.688-.298-1.188 0-1.601 1.254-2.875 3.766-3.812 6.07-2.188 10.617-3.29 13.64-3.313Zm0 0"/></symbol><symbol overflow="visible" id="g"><path style="stroke:none" d="m44.984-22.547.5 12.656c.051.961.203 1.668.453 2.125.25.461.985 1.336 2.204 2.625.363.387.547.922.547 1.61 0 1.586-.95 2.687-2.844 3.312-1.899.625-5.278.938-10.14.938-3.306 0-5.642-.29-7.017-.86-1.406-.601-2.109-1.578-2.109-2.921 0-.477.067-.829.203-1.047.145-.227.625-.79 1.438-1.688.968-1 1.453-4.351 1.453-10.062 0-3.301-.387-5.743-1.156-7.329-.625-1.269-1.778-1.906-3.453-1.906-1.606 0-2.711.516-3.313 1.547-.594 1.031-.89 2.902-.89 5.61v7.109c0 1.418.085 2.39.265 2.922.176.523.77 1.539 1.781 3.047.258.437.39.933.39 1.484 0 1.406-.983 2.45-2.952 3.125-1.961.664-5.028 1-9.203 1-6.657 0-9.985-1.375-9.985-4.125 0-.582.098-1.02.297-1.313.207-.3.692-.726 1.453-1.28.625-.458 1.02-.977 1.188-1.563.164-.582.32-2.024.468-4.328.165-2.739.25-5.602.25-8.594 0-1.656-.125-2.738-.375-3.25-.25-.52-.976-1.156-2.171-1.906-1.032-.645-1.547-1.43-1.547-2.36 0-.957.414-1.742 1.25-2.36.843-.612 2.57-1.39 5.187-2.327 2.301-.813 4.52-1.5 6.657-2.063 2.132-.562 3.593-.843 4.374-.843.72 0 1.32.265 1.813.796.5.524.75 1.141.75 1.86 0 .074-.012.375-.031.906a3.092 3.092 0 0 0-.047.5c0 1.156.476 1.734 1.437 1.734.582 0 1.196-.457 1.844-1.375 2.063-2.968 5.055-4.453 8.985-4.453 3.019 0 5.609.793 7.765 2.375 1.508 1.125 2.563 2.45 3.156 3.969.602 1.523.977 3.758 1.125 6.703Zm0 0"/></symbol><symbol overflow="visible" id="h"><path style="stroke:none" d="M22.719-26.39v12.156c0 1.437.351 2.617 1.062 3.53.707.907 1.614 1.36 2.719 1.36.938 0 2.172-.43 3.703-1.297.363-.218.723-.328 1.078-.328.57 0 1.098.352 1.578 1.047.477.7.72 1.453.72 2.266 0 1.492-.813 2.918-2.438 4.281C27.734-.477 23.609.969 18.766.969c-3.836 0-6.914-1.082-9.235-3.25-2.324-2.164-3.484-5.024-3.484-8.578v-16.61c0-.55-.07-.89-.203-1.015-.137-.133-.48-.203-1.032-.203H1.11c-.687 0-1.125-.114-1.312-.344-.195-.227-.297-.766-.297-1.61v-1.578c.023-.718.297-1.242.828-1.578l16.469-10.36c.406-.218.906-.327 1.5-.327h2.922c.593 0 .988.14 1.187.422.207.273.313.82.313 1.64v4.844c0 .719.113 1.187.343 1.406.227.219.711.328 1.454.328h6.656c.883 0 1.457.164 1.719.485.27.324.406 1.011.406 2.062v2.125c0 1.149-.168 1.945-.5 2.39-.336.438-.95.657-1.844.657h-6.5c-.68 0-1.137.121-1.375.36-.242.242-.36.699-.36 1.374Zm0 0"/></symbol><symbol overflow="visible" id="i"><path style="stroke:none" d="M15.75-35.813c1.195 0 3.148.266 5.86.797a8.46 8.46 0 0 0 1.374.141c.407 0 1.192-.219 2.36-.656.55-.207 1.02-.313 1.406-.313 1.102 0 2.219.703 3.344 2.11a15.84 15.84 0 0 1 2.234 3.718c.57 1.336.86 2.496.86 3.485 0 .96-.34 1.758-1.016 2.39-.668.637-1.5.953-2.5.953-.844 0-1.602-.203-2.266-.609-.656-.414-1.715-1.316-3.172-2.703-1.53-1.488-2.804-2.234-3.812-2.234-.668 0-1.25.25-1.75.75-.492.492-.735 1.07-.735 1.734 0 1.18 1.13 2.281 3.391 3.313 4.05 1.824 7.156 3.812 9.313 5.968 1.82 1.824 2.734 4.055 2.734 6.688 0 3.336-1.465 6.117-4.39 8.344C26.46 0 23.378.969 19.734.969c-.93 0-2.626-.156-5.094-.469C12.305.238 11 .11 10.719.11c-.313 0-.672.035-1.078.109-.7.093-1.204.14-1.516.14C7 .36 6.113.07 5.469-.5c-.992-.883-1.907-2.281-2.75-4.188-.836-1.906-1.25-3.539-1.25-4.906 0-2.207.863-3.312 2.593-3.312.665 0 1.282.226 1.844.672.57.437 1.754 1.617 3.547 3.53.988 1.056 1.805 1.778 2.453 2.173a3.875 3.875 0 0 0 2.078.593c.79 0 1.426-.207 1.907-.625.476-.414.718-.972.718-1.671 0-1.082-.922-2.067-2.765-2.954-3.867-1.882-6.656-3.832-8.375-5.843-1.711-2.02-2.563-4.348-2.563-6.985 0-2.851.875-5.312 2.625-7.375 2.5-2.945 5.907-4.422 10.219-4.422Zm0 0"/></symbol><symbol overflow="visible" id="j"><path style="stroke:none" d="M16.36-24.813c3.03 0 5.69.79 7.984 2.36 1.644 1.125 2.968 2.594 3.968 4.406 1.02 1.899 1.532 3.871 1.532 5.922 0 3.605-1.653 6.668-4.953 9.188C21.742-.531 18.133.671 14.063.671c-3.97 0-7.18-1.129-9.626-3.39C2.04-4.907.845-7.759.845-11.282c0-3.914 1.46-7.117 4.39-9.61 3.051-2.613 6.758-3.922 11.125-3.922Zm-2 5.75c-.731 0-1.313.274-1.75.813-.438.531-.657 1.246-.657 2.14 0 1 .18 2.36.547 4.079.375 1.719.82 3.242 1.344 4.562.508 1.367 1.347 2.047 2.515 2.047 1.477 0 2.22-.937 2.22-2.812 0-1.395-.188-2.977-.563-4.75-.375-1.782-.828-3.227-1.36-4.344-.554-1.125-1.32-1.703-2.297-1.735Zm0 0"/></symbol><symbol overflow="visible" id="k"><path style="stroke:none" d="M15.61-20.172h3.093c.508 0 .875.086 1.094.25.226.156.328.418.297.781l-.203 2.953c-.032.606-.125.985-.282 1.141-.148.156-.476.235-.984.235-.117 0-.39-.016-.828-.047a11.7 11.7 0 0 0-.75-.032c-.7 0-1.172.23-1.422.688-.242.46-.36 1.328-.36 2.61 0 1.741.188 3.21.563 4.405.156.512.375.887.656 1.125.282.243.743.454 1.391.641 1.457.43 2.188 1.23 2.188 2.406 0 1.25-.852 2.153-2.547 2.704C15.816.227 13.023.5 9.14.5 3.379.5.5-.645.5-2.938c0-.562.117-.972.36-1.234.238-.27.765-.582 1.578-.937.882-.395 1.414-1.13 1.593-2.204.282-1.632.422-3.378.422-5.234 0-.832-.148-1.41-.437-1.734-.293-.32-.82-.473-1.579-.453-.898 0-1.468-.047-1.718-.141-.25-.094-.367-.313-.344-.656l.203-3.14c.031-.509.113-.829.25-.954.145-.125.54-.203 1.188-.234.613-.04.921-.344.921-.907 0-.226-.226-.757-.671-1.593-.762-1.375-1.141-2.75-1.141-4.125 0-2.032.695-3.68 2.094-4.953C5.258-33.313 8.188-34.25 12-34.25c3.133 0 5.64.734 7.516 2.203 1.445 1.149 2.172 2.469 2.172 3.969 0 1.074-.36 1.98-1.079 2.719-.71.742-1.593 1.109-2.656 1.109-1.2 0-2.344-.414-3.437-1.25-.274-.207-.903-.86-1.891-1.953-.719-.77-1.434-1.156-2.14-1.156-.47 0-.872.168-1.204.5-.336.336-.5.742-.5 1.218 0 1.313 1.242 2.72 3.735 4.22.77.46 1.289.823 1.562 1.093.27.262.516.633.735 1.11.113.198.378.296.796.296Zm0 0"/></symbol><symbol overflow="visible" id="l"><path style="stroke:none" d="M33.281-57.797c4.032 0 7.926.887 11.688 2.656 1.77.836 3.004 1.25 3.703 1.25.488 0 1.289-.125 2.406-.375a5.32 5.32 0 0 1 1.203-.125c1.438 0 2.692.664 3.766 1.985 2.656 3.21 3.984 7.195 3.984 11.953 0 3.344-1.148 5.793-3.437 7.344-1.25.836-2.649 1.25-4.188 1.25-1.418 0-2.57-.301-3.453-.907-.887-.613-1.742-1.695-2.562-3.25-1.2-2.187-2.172-3.754-2.922-4.703-.742-.957-1.653-1.82-2.735-2.593-2.68-1.883-5.484-2.829-8.422-2.829-2.843 0-5.105 1.032-6.78 3.094-1.669 2.063-2.5 4.824-2.5 8.281 0 4.762 1.202 9.118 3.609 13.063 3.257 5.281 7.93 7.922 14.015 7.922a20.69 20.69 0 0 0 6.657-1.11c2.195-.75 3.906-1.718 5.124-2.906 1.051-1 1.91-1.5 2.579-1.5.968 0 1.797.453 2.484 1.36.695.898 1.047 1.98 1.047 3.25 0 1.605-.484 3.402-1.453 5.39-.969 1.992-2.133 3.555-3.485 4.688-.586.468-1.789.886-3.609 1.25-1.055.199-2.453.71-4.203 1.53-4.094 1.97-8.352 2.954-12.766 2.954-4.625 0-9.234-1.04-13.828-3.11-5.336-2.406-9.547-6.097-12.64-11.078-3.055-4.843-4.579-9.906-4.579-15.187 0-6.145 1.91-11.75 5.735-16.813 3.32-4.394 7.648-7.753 12.984-10.078 4.063-1.77 8.254-2.656 12.578-2.656Zm0 0"/></symbol><symbol overflow="visible" id="m"><path style="stroke:none" d="M18.219-19.453h-2.032c-3.324 0-6.078.086-8.265.25-.336.023-.637.031-.906.031-.532 0-.985-.156-1.36-.469-.367-.32-.547-.703-.547-1.14 0-.469.297-1.551.891-3.25.594-1.707 1.098-2.938 1.516-3.688.718-1.27 1.629-1.906 2.734-1.906.332 0 .75.027 1.25.078 2.926.281 4.816.406 5.672.375h1.125c1.488 0 2.223-.742 2.203-2.234v-2.703c-.031-1.707-.2-3.614-.5-5.72a4.558 4.558 0 0 1-.078-.874c0-.988.851-1.875 2.562-2.656 1.051-.438 2.27-.852 3.657-1.25 1.382-.407 2.363-.61 2.937-.61 1.133 0 1.703.54 1.703 1.61 0 .148-.043.496-.125 1.047-.054.417-.078 1.73-.078 3.937v7.219c.031 1.468.79 2.215 2.281 2.234h6.438c2.176 0 3.473-.023 3.89-.078.583-.082.942-.125 1.079-.125 1.082 0 1.625.555 1.625 1.656 0 .617-.243 1.688-.72 3.219-.468 1.531-.948 2.758-1.437 3.672-.668 1.305-1.46 1.953-2.375 1.953l-6.593-.578h-1.907c-1.636-.113-2.398.648-2.28 2.281v.656c0 1.856.132 4.125.405 6.813.063.492.094.902.094 1.234 0 1.219-.844 2.23-2.531 3.031-.918.418-2.156.875-3.719 1.375-1.562.5-2.539.75-2.922.75-.5 0-.914-.187-1.234-.562-.313-.375-.469-.836-.469-1.39 0-.25.016-.54.047-.876.164-2.187.25-4.937.25-8.25v-2.78c.082-1.602-.68-2.364-2.281-2.282Zm0 0"/></symbol><symbol overflow="visible" id="n"><path style="stroke:none" d="M32.734 0H4.484C1.992 0 .75-.703.75-2.11c0-.718.258-1.39.781-2.015.532-.625 2.235-2.29 5.11-5 5.332-5.031 9.285-9.719 11.859-14.063 1.332-2.218 2-4.128 2-5.734 0-1.375-.402-2.469-1.203-3.281-.805-.82-1.883-1.234-3.235-1.234-1.28 0-2.257.171-2.921.515-.657.344-2.121 1.469-4.391 3.375-.605.5-1.406.75-2.406.75-1.305 0-2.5-.504-3.594-1.515-1.086-1.008-1.625-2.11-1.625-3.297 0-1.07.492-2.29 1.484-3.657 1-1.375 2.317-2.672 3.954-3.89 5.968-4.29 12.585-6.438 19.859-6.438 5.531 0 10.11 1.07 13.734 3.203 1.633.97 2.946 2.325 3.938 4.063 1 1.742 1.5 3.57 1.5 5.484 0 4.836-3.344 10.09-10.032 15.766-2.386 1.992-3.578 3.48-3.578 4.469 0 .78.36 1.445 1.078 1.984.72.531 1.594.797 2.626.797 2.425 0 4.593-.938 6.5-2.813.968-.945 1.609-1.515 1.921-1.703.32-.195.766-.297 1.328-.297 2.426 0 3.641 2.078 3.641 6.235 0 2.074-.398 4.18-1.187 6.312-.782 2.125-1.852 3.961-3.203 5.5-1.438 1.664-3.016 2.5-4.735 2.5-.687 0-1.242-.148-1.656-.437-.418-.293-.887-.84-1.406-1.64-.5-.782-.996-1.282-1.485-1.5-.48-.22-1.37-.329-2.672-.329Zm0 0"/></symbol><symbol overflow="visible" id="o"><path style="stroke:none" d="M24.61-47.875c3.78 0 7.43.93 10.953 2.781 4.75 2.492 8.3 6.196 10.656 11.11 1.738 3.605 2.61 7.437 2.61 11.5 0 7.406-2.837 13.48-8.5 18.218-4.345 3.594-9.298 5.391-14.86 5.391-6.137 0-11.36-2.004-15.672-6.016-5.125-4.726-7.688-11.05-7.688-18.968 0-7.72 2.336-13.774 7.016-18.172 4.125-3.895 9.285-5.844 15.484-5.844Zm-.954 12.36c-2.574 0-3.86 2.187-3.86 6.562 0 5.719 1.087 10.86 3.267 15.422.863 1.773 2.015 2.656 3.453 2.656 2.507 0 3.765-2.223 3.765-6.672 0-2.488-.273-5.148-.812-7.984-.532-2.832-1.215-5.133-2.047-6.907-.906-1.968-2.164-2.992-3.766-3.078Zm0 0"/></symbol><symbol overflow="visible" id="p"><path style="stroke:none" d="M13.313-23.11c1.613 0 3.171.356 4.671 1.063.707.324 1.203.485 1.485.485.195 0 .515-.047.953-.141a2.29 2.29 0 0 1 .484-.047c.57 0 1.078.266 1.516.797 1.062 1.281 1.594 2.875 1.594 4.781 0 1.336-.461 2.313-1.375 2.938-.5.324-1.063.484-1.688.484-.562 0-1.023-.117-1.375-.36-.355-.238-.7-.671-1.031-1.296-.469-.875-.856-1.5-1.156-1.875a5.703 5.703 0 0 0-1.094-1.047c-1.074-.75-2.2-1.125-3.375-1.125-1.137 0-2.043.414-2.719 1.234-.668.824-1 1.93-1 3.313 0 1.906.485 3.652 1.453 5.234 1.301 2.106 3.172 3.156 5.61 3.156a8.32 8.32 0 0 0 2.656-.437c.883-.3 1.566-.692 2.047-1.172.426-.395.77-.594 1.031-.594.383 0 .71.184.984.547.282.356.422.79.422 1.297 0 .648-.195 1.371-.578 2.172-.387.793-.851 1.414-1.39 1.86-.231.187-.711.355-1.438.5-.43.073-.992.277-1.688.609-1.636.789-3.34 1.187-5.109 1.187-1.844 0-3.683-.418-5.515-1.25-2.137-.957-3.825-2.437-5.063-4.437C1.406-7.16.797-9.18.797-11.297c0-2.457.765-4.695 2.297-6.719 1.32-1.757 3.05-3.101 5.187-4.03a12.486 12.486 0 0 1 5.031-1.063Zm0 0"/></symbol><symbol overflow="visible" id="q"><path style="stroke:none" d="m9.86-21.844-.22 6.953c-.023.836.235 1.25.766 1.25.258 0 .52-.18.781-.546 1.07-1.563 2.504-2.344 4.297-2.344 1.758 0 3.16.539 4.204 1.61.457.48.78 1.046.968 1.702.196.649.305 1.578.328 2.797l.157 5.985c.007.523.078.906.203 1.156.125.242.422.543.89.906.32.262.485.57.485.922 0 1.187-1.805 1.781-5.407 1.781-3.21 0-4.812-.555-4.812-1.672 0-.187.023-.328.078-.422.05-.101.242-.375.578-.812.469-.602.703-2.125.703-4.563 0-1.468-.14-2.539-.421-3.218-.368-.914-1.016-1.375-1.954-1.375-.68 0-1.18.246-1.5.734-.23.355-.343 1.016-.343 1.984v3.204c.07 1.417.132 2.218.187 2.406.063.187.32.539.781 1.047.207.23.313.5.313.812 0 1.25-1.625 1.875-4.875 1.875C2.234.328.328-.316.328-1.609c0-.301.063-.532.188-.688.125-.156.421-.398.89-.734.426-.301.719-1.11.875-2.422.156-1.313.235-3.484.235-6.516 0-2.375-.063-4.02-.188-4.937-.055-.344-.137-.594-.25-.75-.117-.164-.336-.332-.656-.5C.734-18.508.39-18.914.39-19.375c0-.563.257-1.008.78-1.344.52-.343 1.52-.718 3-1.125 1.99-.55 3.571-.828 4.75-.828.645 0 .958.277.938.828Zm0 0"/></symbol><symbol overflow="visible" id="r"><path style="stroke:none" d="M10.11-16.547c1.925 0 3.554.492 4.89 1.469.707.523 1.203 1.117 1.484 1.781.282.668.422 1.59.422 2.766l-.031 2.469c0 1.71.117 2.82.36 3.328.124.25.238.406.343.468.113.063.348.125.703.188.352.055.532.281.532.687 0 .532-.215 1.09-.641 1.672a5.11 5.11 0 0 1-1.64 1.438c-.837.488-1.704.734-2.61.734-1.156 0-2.074-.402-2.75-1.203-.242-.281-.461-.422-.656-.422-.22 0-.512.137-.875.406C8.535.047 7.28.454 5.875.454c-1.45 0-2.621-.313-3.516-.938A4.364 4.364 0 0 1 .97-2.078a4.413 4.413 0 0 1-.516-2.078c0-1.145.461-2.16 1.39-3.047 1.446-1.395 3.614-2.098 6.5-2.11.645 0 1.052-.062 1.22-.187.164-.125.25-.422.25-.89 0-1.165-.126-2.008-.376-2.532-.242-.531-.636-.797-1.187-.797-.336 0-.633.102-.89.297-.262.2-.587.563-.97 1.094-.992 1.406-2.023 2.11-3.093 2.11-.543 0-.985-.16-1.328-.485-.344-.32-.516-.742-.516-1.266 0-.531.211-1.062.64-1.594.427-.53 1.005-.992 1.735-1.39 2.008-1.063 4.102-1.594 6.281-1.594ZM9-6.937c-.492 0-.918.203-1.281.609a2.06 2.06 0 0 0-.532 1.422c0 .531.125.96.375 1.281.258.324.598.484 1.016.484.883 0 1.328-.742 1.328-2.234 0-.613-.062-1.023-.187-1.234-.125-.207-.367-.317-.719-.329Zm0 0"/></symbol><symbol overflow="visible" id="s"><path style="stroke:none" d="m20.766-10.406.218 5.844c.032.437.102.765.22.984.112.21.452.61 1.015 1.203.164.18.25.43.25.75 0 .73-.438 1.242-1.313 1.531-.875.281-2.433.422-4.672.422-1.53 0-2.617-.133-3.25-.39-.648-.282-.968-.727-.968-1.344 0-.227.03-.395.093-.5.07-.102.297-.36.672-.766.438-.469.656-2.015.656-4.64 0-1.532-.18-2.66-.53-3.391-.282-.582-.813-.875-1.595-.875-.742 0-1.25.242-1.53.719-.274.468-.407 1.328-.407 2.578V-5c0 .656.04 1.11.125 1.36.082.242.36.71.828 1.406.113.199.172.421.172.671 0 .657-.453 1.141-1.36 1.454-.906.3-2.324.453-4.25.453C2.067.344.532-.29.532-1.562c0-.258.047-.458.14-.594.095-.145.317-.344.673-.594.289-.207.472-.445.547-.719.082-.281.156-.945.218-2 .07-1.27.11-2.593.11-3.968 0-.77-.059-1.27-.172-1.5-.117-.239-.45-.532-1-.876-.48-.3-.719-.664-.719-1.093 0-.446.192-.813.578-1.094.395-.281 1.192-.633 2.39-1.063a40.914 40.914 0 0 1 3.063-.953c.989-.257 1.664-.39 2.032-.39.332 0 .613.12.843.36.227.241.344.526.344.858 0 .032-.008.172-.015.422a1.724 1.724 0 0 0-.016.235c0 .531.219.797.656.797.27 0 .55-.211.844-.641.957-1.363 2.344-2.047 4.156-2.047 1.395 0 2.586.367 3.578 1.094.696.523 1.18 1.133 1.453 1.828.282.7.457 1.73.532 3.094Zm0 0"/></symbol><symbol overflow="visible" id="t"><path style="stroke:none" d="M20.031-21.328v15.156c0 .867.035 1.418.11 1.656.07.243.273.48.609.72.395.273.66.515.797.733.133.211.203.461.203.75 0 .887-.89 1.563-2.672 2.032a19.56 19.56 0 0 1-4.812.61c-.356 0-.586-.056-.688-.157-.105-.106-.172-.352-.203-.75-.055-.563-.25-.844-.594-.844-.187 0-.484.168-.89.5C10.766-.004 9.508.453 8.125.453c-1.71 0-3.25-.633-4.625-1.906a9.6 9.6 0 0 1-1.953-2.64c-.668-1.302-1-2.614-1-3.938 0-1.563.43-3.067 1.297-4.516a8.034 8.034 0 0 1 3.25-3.078c1.144-.602 2.281-.906 3.406-.906 1.281 0 2.43.289 3.453.86.164.093.297.14.39.14.352 0 .532-.473.532-1.422 0-.414-.102-.727-.297-.938-.187-.218-.531-.406-1.031-.562-.7-.219-1.047-.602-1.047-1.156 0-.813.8-1.442 2.406-1.891 2.832-.79 4.735-1.188 5.703-1.188.946 0 1.422.454 1.422 1.36Zm-9.015 8.36c-.72 0-1.29.382-1.704 1.14-.562 1.012-.843 2.351-.843 4.015 0 1.5.27 2.637.812 3.407.383.554.91.828 1.578.828.72 0 1.239-.414 1.563-1.25.32-.844.484-2.192.484-4.047 0-1.707-.195-2.844-.578-3.406-.305-.438-.742-.664-1.312-.688Zm0 0"/></symbol><symbol overflow="visible" id="u"><path style="stroke:none" d="M8.375-16.422c.594 0 .953.086 1.078.25.125.156.238.684.344 1.578.05.492.223.735.515.735.22 0 .426-.16.626-.485.882-1.375 2.039-2.062 3.468-2.062 1 0 1.82.324 2.469.968.313.325.566.743.766 1.25.195.5.297.981.297 1.438 0 .523-.125 1.059-.375 1.61a4.017 4.017 0 0 1-.938 1.343c-.71.68-1.578 1.016-2.61 1.016-.562 0-1.038-.098-1.421-.297-.375-.195-.875-.598-1.5-1.203-.23-.239-.446-.36-.64-.36-.313 0-.517.18-.61.532-.094.343-.14 1.074-.14 2.187 0 1.68.062 2.82.187 3.422.07.336.175.563.312.688.145.124.442.257.89.39 1 .305 1.5.824 1.5 1.563 0 .46-.163.855-.484 1.187-.324.336-.75.559-1.28.672-1.056.219-2.61.328-4.673.328-1.96 0-3.449-.172-4.468-.516-.907-.3-1.36-.835-1.36-1.609 0-.57.332-1.082 1-1.531.32-.219.54-.41.656-.578.125-.176.207-.41.25-.703.176-1.008.266-2.875.266-5.594 0-.5-.059-.852-.172-1.063-.105-.218-.324-.394-.656-.53C.89-12.11.5-12.556.5-13.142c0-.53.27-.984.813-1.359.539-.383 1.445-.766 2.718-1.14 1.707-.508 3.157-.77 4.344-.782Zm0 0"/></symbol><symbol overflow="visible" id="v"><path style="stroke:none" d="M10.688-23.11c1.132 0 2.628.282 4.484.844.219.063.394.094.531.094.102 0 .43-.098.985-.297.175-.062.363-.093.562-.093.75 0 1.535.59 2.36 1.765.82 1.168 1.234 2.281 1.234 3.344 0 .617-.188 1.137-.563 1.562-.367.43-.812.641-1.343.641-.45 0-.813-.086-1.094-.266-.274-.175-.875-.703-1.813-1.578-1.336-1.238-2.64-1.86-3.922-1.86-.617 0-1.109.153-1.484.454a1.451 1.451 0 0 0-.547 1.172c0 .969.844 1.695 2.531 2.172 2.29.68 3.758 1.172 4.407 1.484 2.812 1.375 4.218 3.399 4.218 6.063 0 2.355-.96 4.277-2.875 5.765C16.391-.312 13.816.453 10.641.453c-1.418 0-2.914-.168-4.485-.5C4.582-.39 3.446-.789 2.75-1.25c-.531-.352-1.012-1.125-1.438-2.313C.895-4.75.688-5.905.688-7.03c0-.54.11-.953.329-1.235.27-.351.617-.53 1.046-.53.415 0 .817.218 1.204.655.238.243.785 1.016 1.64 2.329.414.625 1.067 1.14 1.953 1.546a6.62 6.62 0 0 0 2.766.61c.82 0 1.484-.149 1.984-.453.508-.301.766-.692.766-1.172 0-.438-.2-.817-.594-1.14-.398-.321-1.043-.618-1.937-.891-1.586-.5-2.793-.958-3.625-1.375a11.147 11.147 0 0 1-2.313-1.563c-1.75-1.55-2.625-3.313-2.625-5.281a6.4 6.4 0 0 1 .672-2.844 7.161 7.161 0 0 1 1.938-2.406c1.851-1.551 4.117-2.328 6.796-2.328Zm0 0"/></symbol><symbol overflow="visible" id="w"><path style="stroke:none" d="M15.969-7.438H8.172c-.344 0-.516.153-.516.454 0 .718.383 1.398 1.157 2.03.78.638 1.617.954 2.515.954.531 0 1.117-.098 1.766-.297.656-.207 1.191-.46 1.61-.766.374-.257.671-.39.89-.39.289 0 .57.18.844.531.28.356.421.719.421 1.094 0 .793-.5 1.558-1.5 2.297C13.61-.207 11.582.453 9.281.453c-2.324 0-4.273-.676-5.844-2.031a8.399 8.399 0 0 1-1.89-2.406 8.384 8.384 0 0 1-.984-3.954c0-1.851.562-3.519 1.687-5a8.869 8.869 0 0 1 3.719-2.874 9.383 9.383 0 0 1 3.672-.72c2.101 0 3.89.602 5.359 1.798a7.277 7.277 0 0 1 1.797 2.125c.52.93.781 1.836.781 2.718 0 .72-.152 1.309-.453 1.766-.305.46-.688.688-1.156.688ZM8.594-10.53h1.672c.707 0 1.062-.328 1.062-.985 0-.593-.172-1.078-.515-1.453-.336-.383-.782-.578-1.344-.578-.617 0-1.102.246-1.453.735-.336.46-.5.917-.5 1.374 0 .336.078.57.234.704.164.136.445.203.844.203Zm0 0"/></symbol><symbol overflow="visible" id="x"><path style="stroke:none" d="m10.234-21.844-.14 5.203c-.012.524-.016 1.282-.016 2.282 0 1.125.016 1.789.047 1.984.07.45.3.672.688.672.332 0 .843-.207 1.53-.625.688-.426 1.032-.75 1.032-.969 0-.113-.121-.332-.36-.656-.18-.227-.265-.453-.265-.672 0-1.188 1.469-1.781 4.406-1.781 1.532 0 2.739.152 3.625.453.352.125.645.34.875.64.227.293.344.61.344.954 0 .5-.234.851-.703 1.046-.106.055-.43.126-.969.22-.492.093-1.121.398-1.89.905-.774.512-1.157.887-1.157 1.126 0 .156.461.886 1.39 2.187A56.462 56.462 0 0 0 21.298-5.5c.508.637.91 1.086 1.203 1.344.3.25.71.515 1.234.797.79.437 1.188.933 1.188 1.484 0 .586-.258 1.043-.766 1.375-.5.336-1.183.5-2.047.5h-5.375c-.68-.008-1.203-.258-1.578-.75l-2.765-3.531c-.73-.926-1.18-1.477-1.344-1.657-.156-.175-.29-.265-.39-.265-.137 0-.227.101-.266.297-.043.199-.063.574-.063 1.125 0 .5.05.867.156 1.093.114.22.368.493.766.813.29.242.438.586.438 1.031 0 .774-.415 1.328-1.235 1.672-.824.344-2.172.516-4.047.516-2.21 0-3.648-.094-4.312-.281-.375-.102-.7-.32-.969-.657-.262-.344-.39-.703-.39-1.078 0-.426.226-.789.687-1.094.406-.257.66-.453.766-.578.113-.133.203-.347.265-.64.258-1.551.383-3.942.375-7.172v-3.625c0-1.239-.07-2.031-.203-2.375-.125-.344-.438-.547-.938-.61-.906-.125-1.359-.504-1.359-1.14 0-.414.195-.79.594-1.125.406-.344 1.062-.68 1.969-1.016 2.894-1.07 5.039-1.61 6.437-1.61.625 0 .926.274.906.813Zm0 0"/></symbol><symbol overflow="visible" id="y"><path style="stroke:none" d="m19.844-18.125-1.766 1.719c-.656.617-.984 1.18-.984 1.687 0 .281.07.563.218.844.157.273.438.64.844 1.11l6.203 7.187c.551.648.93 1.058 1.141 1.234.207.168.523.344.953.532.594.25 1.016.53 1.266.843.25.313.375.715.375 1.203 0 1.18-.836 1.766-2.5 1.766h-6.297c-.43 0-.766-.094-1.016-.281-.25-.188-.648-.649-1.187-1.39-.867-1.188-2.008-2.552-3.422-4.095-.617-.656-1.047-1.086-1.297-1.296-.25-.208-.48-.313-.688-.313-.648 0-.968.605-.968 1.813 0 .992.207 1.671.625 2.046.082.055.258.172.531.36.602.386.906.87.906 1.453 0 .73-.492 1.25-1.469 1.562-.968.313-2.605.47-4.906.47-2.054 0-3.547-.122-4.484-.36a1.932 1.932 0 0 1-.969-.61 1.464 1.464 0 0 1-.375-.984c0-.582.332-1.086 1-1.516.3-.195.516-.414.64-.656.126-.238.243-.64.36-1.203.219-1.25.328-3.172.328-5.766 0-3.101-.117-5.3-.344-6.593-.093-.532-.218-.91-.374-1.141-.157-.227-.43-.457-.813-.688-.617-.351-.922-.843-.922-1.468 0-.532.192-.957.578-1.282.383-.32 1.004-.566 1.86-.734C4.016-22.89 5.43-23 7.14-23c1.726 0 3.015.168 3.859.5.75.313 1.125.867 1.125 1.656 0 .336-.059.594-.172.782-.117.18-.418.46-.906.843-.18.157-.34.532-.485 1.125a6.96 6.96 0 0 0-.218 1.719c0 .93.207 1.39.625 1.39.25 0 .492-.109.734-.328.238-.218.719-.769 1.438-1.656.832-1.031 1.25-1.734 1.25-2.11 0-.194-.106-.5-.313-.905a1.582 1.582 0 0 1-.219-.766c0-.813.442-1.383 1.329-1.719.882-.343 2.394-.515 4.53-.515 1.696 0 2.958.109 3.782.328 1 .281 1.5.87 1.5 1.765 0 .356-.105.684-.313.985-.21.304-.468.5-.78.593-.231.075-.766.118-1.61.125-.586.012-1.024.086-1.313.22-.293.124-.672.405-1.14.843Zm0 0"/></symbol><symbol overflow="visible" id="z"><path style="stroke:none" d="M9.719-15.578v8.984c0 1.93.633 2.89 1.906 2.89.32 0 .64-.085.953-.265.313-.187.524-.41.64-.672.25-.53.376-1.718.376-3.562 0-1.813-.063-3.05-.188-3.719-.043-.27-.12-.469-.234-.594-.106-.132-.313-.28-.625-.437-.637-.332-.953-.754-.953-1.266 0-.687.539-1.16 1.625-1.422 2.062-.507 4.094-.765 6.094-.765 1.113 0 1.671.59 1.671 1.765 0 .125-.007.375-.015.75-.024.532-.04 1.18-.047 1.938v7.328c0 .375.32.719.969 1.031.539.262.812.649.812 1.156 0 .993-1.18 1.762-3.531 2.313a18.263 18.263 0 0 1-4.016.469c-.531 0-.898-.063-1.094-.188-.199-.117-.312-.347-.343-.703-.055-.687-.262-1.031-.625-1.031a.763.763 0 0 0-.375.094c-.106.062-.438.289-1 .671C10.602-.05 9.399.329 8.109.329c-2.125 0-3.62-.613-4.484-1.844-.75-1.02-1.125-2.75-1.125-5.187 0-.906.004-1.68.016-2.328v-.766c0-.945-.086-1.644-.25-2.094-.168-.445-.48-.796-.938-1.046-.43-.227-.703-.407-.828-.532-.117-.133-.172-.316-.172-.547 0-.843.633-1.406 1.906-1.687a30.86 30.86 0 0 1 6.516-.703c.645 0 .969.277.969.828Zm0 0"/></symbol><symbol overflow="visible" id="A"><path style="stroke:none" d="M8.672-16.406c.633 0 .953.449.953 1.343v.282c-.012.18-.016.32-.016.422 0 .605.176.906.532.906.187 0 .476-.238.875-.719.601-.687 1.359-1.226 2.265-1.625a6.73 6.73 0 0 1 2.781-.61c1.844 0 3.125.673 3.844 2.016.282.5.508.75.688.75.125 0 .41-.218.86-.656 1.437-1.406 3.066-2.11 4.89-2.11 1.426 0 2.597.391 3.515 1.173.946.824 1.422 2.054 1.422 3.687 0 .356-.011.953-.031 1.797-.023.281-.031 1.148-.031 2.594 0 .93-.008 1.586-.016 1.968-.012.231-.015.391-.015.485 0 .71.218 1.328.656 1.86.258.323.422.538.484.64a.823.823 0 0 1 .094.422c0 1.418-1.664 2.125-4.984 2.125-1.481 0-2.672-.18-3.579-.531-.898-.352-1.343-.817-1.343-1.391 0-.219.03-.383.093-.5.063-.113.274-.422.641-.922.344-.457.516-1.969.516-4.531 0-1.5-.106-2.54-.313-3.125-.25-.696-.742-1.047-1.469-1.047a1.5 1.5 0 0 0-.968.344c-.282.23-.47.515-.563.859-.094.398-.148 1.46-.156 3.188.031 1.855.086 2.984.172 3.39.082.399.363.95.843 1.656.102.157.157.368.157.625 0 1.313-1.719 1.97-5.157 1.97-2.074 0-3.468-.153-4.187-.454-.574-.25-.86-.68-.86-1.297 0-.281.036-.473.11-.578.07-.113.316-.367.734-.766.25-.238.407-.457.47-.656.07-.207.128-.582.171-1.125.07-1.219.11-2.445.11-3.687 0-2.164-.555-3.25-1.657-3.25-.836 0-1.328.464-1.484 1.39-.125.875-.188 2.125-.188 3.75 0 1.219.02 2.016.063 2.39.05.376.187.774.406 1.188.27.47.406.856.406 1.157 0 .718-.508 1.218-1.515 1.5C7.797.18 6.594.328 5.28.328c-1.71 0-2.965-.137-3.765-.406C.723-.348.328-.773.328-1.36a.98.98 0 0 1 .156-.563c.102-.156.348-.398.735-.734.488-.446.773-1.07.86-1.875.112-1.375.171-2.797.171-4.266 0-1.05-.055-1.781-.156-2.187A1.801 1.801 0 0 0 1.422-12c-.336-.25-.547-.441-.64-.578-.095-.133-.141-.317-.141-.547 0-.738.582-1.328 1.75-1.766 2.8-1 4.894-1.504 6.28-1.515Zm0 0"/></symbol><symbol overflow="visible" id="B"><path style="stroke:none" d="M25.86-.484c-.047.078-.047.125-.047.203 0 .125.125.156.25.156L27.765 0c.172 0 .328-.203.375-.25l1.062-1.375c3.672-.297 5.578-1.875 5.578-2.297 0-.078 0-.156-.078-.156-.25 0-.562.328-.687.453-.735.64-2.328 1.172-4.485 1.469.61-1.063 3.297-4.406 8.11-9.875 2.156-2.485 6.328-7.5 14.109-14.156.25-.204.688-.329.688-.735 0-.156-.641-.234-1.094-.234-1.188 0-6.125 1.375-12.282 6.031-4.765 3.625-7.703 6.688-9.453 8.078-1.64-4.656-4.484-7.265-8.406-7.265-2.562 0-5.015 2.859-5.015 7.187 0 2.969 1.593 6.11 4.156 8.313C18.109-2.656 13.78-.329 9.984-.329 6.234-.328 4-2.25 4-4.031c0-.375.203-.703.281-.86.25.86.735 1.344 1.594 1.344.734 0 1.266-.687 1.266-1.547 0-.86-.782-1.437-1.844-1.437-1.14 0-1.828.984-1.828 2.531 0 2.078 2.734 4.25 6.562 4.25 3.422 0 7.75-1.875 10.719-4.688 2.984 2.282 6.047 2.391 6.047 2.61 0 .078-.047.11-.078.203Zm3.421-11.47c.125.61.203 1.345.203 2.048 0 2.531-1.515 6.281-2.406 7.578-1.594-.125-4.203-1.172-5.828-2.438Zm-8.437 6.86c-2.282-1.64-4-5.015-4-8.031 0-3.797 2.656-6.047 4.968-6.047 1.844 0 2.985.297 4.407 1.64 1.343 1.298 2.281 2.938 2.906 4.938Zm9.172-4.281c0-1.719-.282-2.375-.282-2.984 0-.157 3.25-3.422 9.735-8.391 4.61-3.563 8.984-5.438 11.39-5.64-1.062.78-4 2.578-8.453 6.812C34.828-12.36 30.796-6.813 28.672-4.36c1.015-2.735 1.344-4.688 1.344-5.016Zm0 0"/></symbol><symbol overflow="visible" id="C"><path style="stroke:none" d="M2.484-.453c-.078.094-.078.172-.078.297 0 .11.078.156.203.156h1.516c.766 0 6.922-7.344 9.86-7.344.374 0 .734.125.734.5 0 .11-.766.969-2 1.985-1.578 1.39-2.516 2.203-2.516 3.671a1.23 1.23 0 0 0 1.25 1.235c1.922 0 5.922-3.594 5.922-3.969 0-.078-.047-.156-.125-.156a.366.366 0 0 0-.281.125c-2.61 2.406-4.61 3.5-5.547 3.5-.203 0-.453-.125-.453-.328 0-.438 1.187-1.547 3.422-3.578.656-.579 1.03-1.344 1.03-2.204 0-.78-.452-1.265-1.265-1.265-1.719 0-3.265 1.344-5.515 3.14.406-.703.828-1.437.828-2.046 0-.61-.422-1.141-.953-1.141-2.516 0-5.907 3.469-5.907 3.719 0 .078.047.156.125.156.125 0 .204-.031.282-.125 2.53-2.234 4.328-3.25 5.14-3.25.203 0 .485-.047.485.156 0 .532-.204.688-.438.938Zm0 0"/></symbol><symbol overflow="visible" id="D"><path style="stroke:none" d="M8.844-6.766c-.438 0-.938.485-.938.938 0 .484.328.766.86.766.53 0 1.468-.938 1.468-1.75 0-.766-.453-1.141-1.265-1.141-1.016 0-4.485 1.672-6.031 3.547-.782.984-1.063 1.797-1.063 3.015 0 .907.781 1.641 1.672 1.641 2.36 0 6.937-3.64 6.937-4.172 0-.078-.046-.156-.125-.156-.25 0-.53.328-.609.406C7.297-1.344 4.156-.25 3.547-.25c-.36 0-.813-.234-.813-.563 0-1.312 4.938-6.562 6.313-6.562.422 0 .656.031.656.64 0 .126 0 .25-.125.25-.203 0-.406-.28-.734-.28Zm0 0"/></symbol><symbol overflow="visible" id="E"><path style="stroke:none" d="M11.75-12.813c-.047.047-.047.094-.047.172 0 .079 0 .125.047.157l.766.734c.046.047.078.047.125.047.078 0 .125 0 .171-.047l.641-.766c.047-.046.047-.078.047-.171 0-.079 0-.126-.047-.157l-.61-.61c-.03-.046-.077-.093-.155-.093a.252.252 0 0 0-.204.094ZM2.984-3.828c-.53.531-1.312 1.781-1.312 2.61 0 .937.406 1.5 1.219 1.5 1.718 0 5.875-3.907 5.875-4.204 0-.078-.032-.156-.125-.156a.366.366 0 0 0-.282.125C5.672-1.516 3.797-.203 2.938-.203c-.376 0-.532-.156-.532-.531 0-.157.406-.813.781-1.188l5.297-5.422c.079-.078.079-.156.079-.234 0-.094-.126-.172-.204-.172H6.813a.498.498 0 0 0-.407.172l-2.25 1.984c-.89.735-1.593 1.266-1.593 1.438 0 .078.046.156.124.156.329 0 .735-.61 1.438-1.016Zm0 0"/></symbol><symbol overflow="visible" id="F"><path style="stroke:none" d="M4.078-3.39c.25-.282 1.14-.407 2.563-.766C7.906-4.484 10.156-6 10.156-7.094c0-.531-.453-.703-1.015-.703-.86 0-4.172 1.266-6.125 3.36-.938.968-1.344 1.75-1.344 3.218 0 .86.781 1.5 1.75 1.5 2.703 0 7.219-3.703 7.219-4.203 0-.078-.032-.156-.125-.156a.391.391 0 0 0-.282.125c-.656.562-1.625 1.625-3.75 2.64-.984.454-1.921 1.11-3.062 1.11-.485 0-.969-.203-.969-.656 0-.485.235-.97.563-1.297Zm3.016-2.766c.578-.532 1.797-1.188 2.125-1.188.125 0 .281 0 .281.125 0 1.094-2.234 2.563-4.64 3.016Zm0 0"/></symbol><symbol overflow="visible" id="G"><path style="stroke:none" d="M3.828-4.125c-.812.906-1.375 2.078-1.375 2.656 0 1.11.36 1.719 1.172 1.719 2.047 0 6.61-3.844 6.61-4.172 0-.078-.032-.156-.126-.156-.234 0-.53.328-.609.406C7.344-1.75 4.687-.25 3.719-.25c-.297 0-.453-.234-.453-.531 0-.235.406-.766.687-1.094l7.422-7.906h2.688c.124 0 .296-.094.296-.25 0-.172-.171-.25-.296-.25h-2.157l2.735-3.047c.046-.094.046-.125.046-.219 0-.078-.124-.11-.203-.11h-1.312c-.156 0-.36.11-.453.204l-3.016 3.172H7.828c-.125 0-.25.203-.25.297 0 .078.172.203.25.203h1.14c-3.796 3.5-6.405 5.094-6.405 5.625 0 .078.046.156.124.156.25 0 .532-.328.61-.406C4.53-5.5 5.75-6.438 6.89-7.375Zm0 0"/></symbol><symbol overflow="visible" id="H"><path style="stroke:none" d="M28.219-13.172C24.75-7.14 18.719-.282 11.172-.282c-3.625 0-5.5-.984-5.5-2.78 0-.532.203-.86.406-1.094.203.687.484 1.093 1.219 1.093.812 0 1.344-.53 1.344-1.296 0-.657-.688-1.141-1.547-1.141-1.14 0-2.125 1.016-2.125 2.313 0 1.968 2 3.468 5.234 3.468 5.328 0 10.266-1.906 14.188-5.672 1.875-1.75 3.703-4.156 4.734-5.828 1.625-2.734 1.578-2.64 2.406-2.89 8.969-2.735 14.39-7.063 14.39-10.032 0-1.265-1.015-1.468-2.483-1.468-2.5 0-8.61 3.468-12.157 8.28-1.75 2.36-2.375 3.548-3.062 3.579-1.594.094-3.75 1.063-6.282 1.063-5.671 0-8.359-1.907-8.359-4.766 0-4.406 6.078-8.938 14.031-8.938 1.016 0 1.547.25 2.563.25.297 0 .828.078.828-.25 0-.156-1.469-.812-3.766-.812-7.53 0-14.312 4.203-14.312 9.547 0 2.937 2.984 5.468 7.625 5.468 3.844 0 6.25-.703 7.672-.984Zm3.062-1.469c4.328-7.062 9.625-10.484 12.485-10.484.734 0 1.422.531 1.422.984v.328c0 .157 0 .282-.079.485-.703 1.922-6.359 6.656-13.828 8.687Zm0 0"/></symbol><symbol overflow="visible" id="I"><path style="stroke:none" d="M6.406-3.344c.235.078.407.156.657.156 1.046 0 1.671-.312 1.671-1.218 0-.89-.656-1.422-1.671-1.422-.938 0-1.672.656-1.672 1.594C5.39-1.47 8.109.28 13.094.28c2.156 0 5.344-.687 7.75-1.797 3.343-1.5 6.61-4.312 8.89-7.953 2.11-3.375 3.375-5.172 3.547-5.453 1.297-2.328 5.219-5.828 6.516-6.531.203-.078.172.328.172.531 0 .985.281 1.922.281 2.281 0 2.125-3.266 6.047-5.172 6.047-.578 0-.937-.219-.937-.781 0-1.344 2.312-2.938 3.984-3.188 1.266-.203 1.266-.28 1.266-.562 0-.172-.282-.078-.438-.078-2.25.11-5.344 1.75-5.344 4.11 0 .859.891 1.312 2.36 1.312 2.484 0 5.265-2.578 5.265-6.125 0-2.125-.906-3.625-.906-3.907 0-.296.297-.296.531-.406a95.933 95.933 0 0 0 4.328-2.734c.079-.094.032-.172.032-.297 0-.156-.235-.156-.36-.078-1.515.812-2.984 1.75-4.359 2.687-.172.125-.25.297-.453.297-.156 0-.203-.172-.328-.297-2.078-2.64-5.672-4.078-10.313-4.078-10.687 0-18.797 7.875-18.797 12.532 0 3.046 2.438 5.015 7.22 5.015 5.983 0 12.187-5.922 12.187-9.422 0-1.797-1.516-3.218-3.594-3.218-4.563 0-6.719 2.156-9.656 4.312-1.063.906-.813.906-1.672 2.047-.703.687-1.031 1.344-1.594 2.125 0 .11.078.281.25.281.203 0 .89-.812 1.672-1.953.687-1.063 1.219-1.516 2.156-2.375 2.89-2.688 5.906-3.953 8.313-3.953 2 0 3.468 1.187 3.468 2.25 0 .562 0 .89-.156 1.422-.984 2.86-7.219 7.906-13.047 7.906-2.453 0-4.906-1.75-4.906-4.36 0-4.859 8.328-12.109 18.078-12.109 7.125 0 10.188 3.828 10.188 4.235 0 .203-2 1.312-5.016 4.203C26.187-9.828 23.203-.203 12.844-.203c-3.75 0-6.203-1.11-6.438-3.14Zm0 0"/></symbol><symbol overflow="visible" id="J"><path style="stroke:none" d="M9.14-3.75c-.656.89-1.234 1.594-1.234 2.969 0 .656.532 1.062 1.14 1.062 1.923 0 6.25-3.906 6.25-4.203 0-.078 0-.156-.077-.156a.475.475 0 0 0-.328.125c-2.704 2.437-4.532 3.75-5.672 3.75-.328 0-.531-.156-.531-.484 0-.407.484-.907.859-1.266l5.14-5.39c.079-.079.079-.157.079-.235 0-.125-.125-.172-.25-.172H12.89c-.407 0-1.594 1.547-5.344 4.734C5.39-1.187 3.828-.203 3.297-.203c-.563 0-.969 0-.969-.578 0-.203.078-.281.203-.406l6.031-6.157c.047-.031.047-.125.047-.203 0-.078-.093-.203-.171-.203h-1.5a.685.685 0 0 0-.454.203l-3.718 3.14c-.079.079-.11.126-.11.25 0 .079 0 .157.078.157.25 0 .735-.484 1.22-.86L2.53-3.265c-.531.61-.86 1.47-.86 2.25 0 .766.454 1.297 1.313 1.297 1.547 0 3.454-1.672 6.157-4.031Zm0 0"/></symbol><symbol overflow="visible" id="K"><path style="stroke:none" d="M5.14-5.266c-1.015 1.141-1.718 2.5-1.718 3.672 0 1.11.656 1.875 1.64 1.875.766 0 3.016-1.062 5.579-3.172.25.563.703.844 1.265.844 1.11 0 2.61-1.5 2.61-1.875 0-.078-.032-.156-.125-.156a.391.391 0 0 0-.282.125c-.812.89-1.296 1.422-2.234 1.422-.453 0-.656-.203-.656-.656 0-.11.656-.938 1.5-1.704.61-.5 1.469-1.796 1.469-2.53 0-.204-.126-.376-.329-.376-1.171 0-2.484 2.25-2.843 3.516-.375 1.218-5.016 4-5.72 4-.562 0-1.14-.172-1.14-.61 0-.421.453-1.234.985-1.843l5.671-6.563a.543.543 0 0 1 .282-.25c9.14-3.953 13.984-8.765 13.984-11.094 0-.734-.531-1.093-1.39-1.093-.938 0-2.032.609-3.22 1.468-3.14 2.235-6.234 5.016-8.437 7.375L8.891-9.5c-.579.61-1.344.86-2.25 1.625C4-5.547 2.53-4.406 2.53-4.156c0 .078.031.156.125.156C3.016-4 4-5.266 6.937-7.297Zm13.5-12.437c2.235-2.281 4.032-3.547 5.344-3.547.235 0 .438.172.438.406 0 2.078-4.39 6.813-12.39 10.235.937-1.344 2.25-2.641 3.546-3.985Zm0 0"/></symbol><symbol overflow="visible" id="L"><path style="stroke:none" d="M10.563-9.578c9.093-4.047 14.234-8.781 14.234-10.485 0-.734-.656-1.265-1.516-1.265-1.015 0-3.343 1.094-5.703 3.062-4.734 3.907-6.61 6.282-6.734 6.391L7.219-8.109C4.234-6 2.609-4.36 2.609-4.156c0 .078.047.156.125.156.36 0 1.016-.969 2.532-1.953-1.391 1.75-2.532 3.187-2.532 4.484 0 1.11.36 1.75 1.266 1.75 2.031 0 6.406-3.906 6.406-4.203 0-.078-.047-.156-.125-.156-.25 0-.531.328-.61.406C7.064-1.312 4.735-.203 3.954-.203c-.36 0-.484-.25-.484-.578 0-.281.89-1.781 2.484-3.625Zm5.828-6.485c2.578-2.859 5.547-4.78 6.89-4.78.5 0 .86.25.86.734 0 1.343-5.141 6.28-12.797 9.75Zm0 0"/></symbol><symbol overflow="visible" id="M"><path style="stroke:none" d="M9.25-9.578c0-.172-.078-.328-.281-.328-.078 0-.125.078-.156.125L2.734-4.406c-.078.078-.125.125-.125.25 0 .078 0 .156.079.156.25 0 .578-.328.656-.406l4.156-3.5v.437c0 3.516-3.469 7.266-5.219 7.266-.531 0-1.094-.156-1.094-.531 0-.125.204-.047.329-.047.406 0 .843-.438.843-.89 0-.532-.406-.782-.937-.782-.563 0-.938.625-.938 1.39 0 .735.782 1.344 1.766 1.344 1.984 0 6.188-2.156 6.188-5.422 0-.734-.407-1.75-.407-2.656 0-.687 1.11-1.672 1.219-1.781Zm0 0"/></symbol><symbol overflow="visible" id="N"><path style="stroke:none" d="M10.61-3.547c-.86.735-1.391 1.469-1.391 2.453 0 .735.61 1.344 1.265 1.344 2.282 0 6.485-3.875 6.485-4.172 0-.078 0-.156-.078-.156-.25 0-.578.328-.657.406C13.828-1.469 11.547-.25 10.516-.25c-.235 0-.485-.11-.485-.36 0-.53 1.313-1.515 3.188-3.109.765-.64 1.375-1.75 1.375-2.437 0-.907-.531-1.547-1.344-1.547-1.797 0-4 1.828-7.172 4.312l5.703-6.39c1.969-.938 5.188-2.172 9.016-4.703 3.422-2.235 5.14-4.391 5.14-5.454 0-.906-.453-1.265-1.39-1.265-2.735 0-7.375 3.875-14.14 11.047-1.235 1.312-3.595 2.36-6.282 4.61-.828.609-1.563 1.14-1.563 1.39 0 .078.047.156.126.156.406 0 2.406-2.078 5.75-4.078L1.218-.453c-.077.094-.03.172-.03.297 0 .078.125.156.203.156h1.5c.453 0 1.03-.781 2.046-1.719 4.313-3.984 7.344-5.578 8.188-5.578.375 0 .734.328.734.656 0 .36-1.171 1.344-3.25 3.094Zm8.156-13.25c.609-.61 1.5-1.922 3.422-2.984.968-.563 2.03-.938 2.406-.938.36 0 .812.282.812.578 0 .938-1.797 3.297-5.14 5.422-2.688 1.75-5.547 3.219-7.5 3.906Zm0 0"/></symbol><symbol overflow="visible" id="O"><path style="stroke:none" d="M5.39-4.36C4.079-2.983 3.673-2.046 3.673-1.015c0 .766.562 1.297 1.39 1.297 1.829 0 6.313-3.547 6.313-4.281 0-.484-1.5.906-1.703 1.188C9.14-2.079 6-.329 5.422-.329c-.406 0-.813.203-.813-.36 0-.203.61-1.234 1.672-2.171C8.36-4.61 9.625-6.203 9.625-6.484c0-.079-.047-.157-.125-.25l-.86-.844c-.078-.094-.156-.125-.28-.125-.157 0-.688.36-1.922.36-.11 0-.157-.126-.282-.157.578-.172.985-.375.985-.984 0-.407-.454-.813-.938-.813-.531 0-.937.563-.937 1.219 0 .328.03.656.28.734.126.047.204.125.204.25 0 .032-.453.453-.656.61C3.547-5.266 2.562-4.36 2.562-4.156c0 .078.047.156.126.156.25 0 .906-.656 1.671-1.39.532-.438 1.672-1.25 2-1.423 0 0 .907-.125 1.547-.156Zm0 0"/></symbol><symbol overflow="visible" id="P"><path style="stroke:none" d="M37.75 6.828v14.219c0 2.875.055 4.969.172 6.281.125 1.32.367 2.613.734 3.875.114.383.172.688.172.906 0 .957-.516 1.805-1.547 2.547-1.68 1.219-3.703 1.828-6.078 1.828-1.2 0-2.148-.257-2.844-.765-.687-.512-1.03-1.211-1.03-2.094 0-.605.124-1.078.374-1.422.25-.344.805-.797 1.672-1.36 1.227-.812 2.05-1.843 2.469-3.093.414-1.242.625-3.281.625-6.125 0-2.117-.383-3.406-1.14-3.875-.407-.242-.95-.387-1.626-.438-.68-.042-2.422-.062-5.234-.062-1.106 0-1.793.18-2.063.547-.261.375-.39 1.348-.39 2.922 0 .77.16 1.328.484 1.672.32.351.898.578 1.734.672 1.063.132 1.79.269 2.188.406.394.133.742.39 1.047.765.32.383.484.832.484 1.344 0 .758-.36 1.406-1.078 1.938-.531.382-1.477.71-2.828.984-1.356.27-2.774.406-4.25.406-2.906 0-5.293-.453-7.156-1.36-1.012-.5-1.516-1.257-1.516-2.265 0-.625.156-1.058.469-1.297.32-.242.992-.43 2.015-.562 2.082-.274 3.125-1.485 3.125-3.64 0-.837-.265-1.403-.797-1.704-.523-.305-1.492-.453-2.906-.453-.875 0-2 .055-3.375.172-1.367.125-2.273.25-2.719.375-.554.144-.937.598-1.156 1.36-.21.769-.312 2.05-.312 3.843 0 2.758.351 4.836 1.062 6.234.719 1.407 2.008 2.551 3.875 3.438 1.063.52 1.774.984 2.14 1.39.376.415.563.958.563 1.626 0 .769-.34 1.41-1.015 1.921-.668.508-1.512.766-2.531.766-1.106 0-2.485-.29-4.141-.86-1.656-.574-3.133-1.277-4.422-2.109-.625-.418-1.04-.765-1.25-1.047-.219-.273-.328-.62-.328-1.047 0-.355.055-.859.156-1.515.23-1.188.371-2.766.422-4.734V3.983c0-.937.207-1.668.625-2.187.414-.524 1-.781 1.75-.781.54 0 .93.109 1.172.328.238.226.539.738.906 1.531.238.55.531.96.875 1.234.352.27.875.477 1.563.625 2.78.602 6.53.907 11.25.907 7.113 0 11.601-.446 13.468-1.329.375-.187.633-.39.782-.609.144-.219.316-.68.515-1.375C33.22 1.273 33.922.75 35.016.75c.582 0 1.101.172 1.562.516.469.351.774.816.922 1.39.164.719.25 2.11.25 4.172Zm0 0"/></symbol><symbol overflow="visible" id="Q"><path style="stroke:none" d="M21.938 16.844h-8.891c-3.93 0-6.215.054-6.86.172-.636.125-1.132.582-1.484 1.375-.293.687-.57 1.144-.828 1.375-.262.226-.633.343-1.11.343-.605 0-1.156-.218-1.656-.656-.5-.43-.851-1-1.046-1.719-.407-1.336-.61-3.578-.61-6.734 0-3.555.266-6.047.797-7.484a3.774 3.774 0 0 1 1.11-1.641c.507-.418 1.038-.625 1.593-.625.445 0 .79.113 1.031.344.239.226.524.726.86 1.5.312.719 1.164 1.16 2.562 1.328 2.395.3 5.805.453 10.235.453 4.5 0 7.394-.133 8.687-.39 1.29-.262 2.25-.907 2.875-1.938.445-.774.867-1.305 1.266-1.594.394-.281.879-.422 1.453-.422.894 0 1.68.43 2.36 1.297.675.863 1.296 2.242 1.859 4.14.394 1.27.765 2.923 1.109 4.954.352 2.031.531 3.504.531 4.422 0 1.457-.906 2.187-2.718 2.187-.586 0-1.938-.093-4.063-.281a147.689 147.689 0 0 0-9.063-.406Zm0 0"/></symbol><symbol overflow="visible" id="R"><path style="stroke:none" d="M12.39 26.61v-13c0-.575-.25-.86-.75-.86-1.199 0-2.328.648-3.39 1.953-1.055 1.3-1.578 2.695-1.578 4.188 0 .882.164 1.863.5 2.937.344 1.082.766 1.973 1.266 2.672.437.625.656 1.125.656 1.5 0 .477-.297.945-.89 1.406-.587.457-1.188.688-1.813.688-1.336 0-2.618-.828-3.844-2.485C.347 22.68-.75 19.297-.75 15.453c0-3.867 1.125-7.11 3.375-9.734 1.102-1.274 2.441-2.32 4.016-3.14C8.723 1.483 10.914.936 13.219.936c3.094 0 5.879.942 8.36 2.829 2.132 1.613 3.726 3.675 4.78 6.187.79 1.883 1.188 3.922 1.188 6.11 0 3.507-.996 6.488-2.985 8.937a11.903 11.903 0 0 1-3.546 2.984c-1.543.864-3.055 1.297-4.532 1.297-1.199 0-2.183-.25-2.953-.75-.761-.492-1.14-1.133-1.14-1.922Zm5.172-12.282v2.797c0 1.176.54 1.766 1.625 1.766 1 0 1.813-.29 2.438-.86.625-.574.938-1.32.938-2.234 0-1.031-.407-1.844-1.22-2.438-.75-.554-1.511-.828-2.28-.828-.563 0-.954.13-1.172.39-.22.27-.328.74-.328 1.407Zm0 0"/></symbol><symbol overflow="visible" id="S"><path style="stroke:none" d="M27.36 14.469c0 1.05-.75 1.578-2.25 1.578h-.47a9.051 9.051 0 0 0-.718-.031c-1 0-1.5.289-1.5.875 0 .32.398.812 1.203 1.468 1.133 1 2.04 2.254 2.719 3.766.676 1.508 1.015 3.055 1.015 4.64 0 3.083-1.125 5.223-3.375 6.422-.836.458-1.25.836-1.25 1.141 0 .195.368.676 1.11 1.438 2.343 2.394 3.515 5.113 3.515 8.156 0 2.375-.656 4.316-1.968 5.828-1.368 1.582-3.414 2.375-6.141 2.375-.594 0-1.59-.016-2.984-.047-.48-.043-1.93-.062-4.344-.062-1.555 0-2.64-.008-3.266-.016a14.616 14.616 0 0 0-.828-.031c-1.18 0-2.21.367-3.094 1.11-.543.437-.902.706-1.078.812-.168.101-.402.156-.703.156-2.355 0-3.531-2.777-3.531-8.328 0-2.461.293-4.438.875-5.938.594-1.5 1.367-2.25 2.328-2.25.375 0 .656.047.844.14.195.102.707.462 1.531 1.079.758.57 3.281.86 7.563.86 2.488 0 4.218-.18 5.187-.532 1.164-.406 1.75-1.219 1.75-2.437 0-.606-.195-1.141-.578-1.61a2.694 2.694 0 0 0-1.422-.937c-.656-.157-2.422-.246-5.297-.266-3.105.05-4.992.145-5.656.281-.656.145-1.578.614-2.766 1.407-.273.175-.62.265-1.047.265-2.187 0-3.28-2.867-3.28-8.593 0-3.45.257-5.774.765-6.97.406-.96 1.125-1.437 2.156-1.437.457 0 .781.055.969.172.187.125.613.535 1.281 1.235.383.406.742.664 1.078.78.344.126.969.212 1.875.266 2.031.133 4.078.203 6.14.203 3.614 0 5.423-.921 5.423-2.765 0-1.387-.778-2.211-2.328-2.469-1.461-.219-3.543-.328-6.25-.328-2.032 0-3.36.04-3.985.125-.625.082-1.277.305-1.953.672-.805.445-1.45.672-1.938.672-1.199 0-2.03-.84-2.5-2.516-.488-1.836-.734-3.844-.734-6.031 0-2.844.227-4.934.672-6.266C.57 1.207 1.285.547 2.265.547c.376 0 .688.086.938.265.258.176.664.579 1.219 1.204.758.832 1.8 1.312 3.125 1.437 2.289.207 4.66.313 7.11.313 1.75 0 2.968-.09 3.655-.266A2.991 2.991 0 0 0 20 2.375c.414-.555.734-.906.953-1.063.227-.156.535-.234.922-.234 1.238 0 2.219.969 2.938 2.906 1.675 4.664 2.523 8.16 2.546 10.485Zm0 0"/></symbol><symbol overflow="visible" id="T"><path style="stroke:none" d="m17.344 34.594-9.735.39c-.742.04-1.289.157-1.64.344-.344.195-1.016.766-2.016 1.703-.293.282-.71.422-1.25.422-1.21 0-2.055-.73-2.531-2.187-.477-1.461-.719-4.059-.719-7.797 0-2.555.219-4.356.656-5.407.457-1.085 1.204-1.625 2.235-1.625.375 0 .644.051.812.157.176.113.61.484 1.297 1.11.77.737 3.352 1.108 7.75 1.108 2.54 0 4.422-.292 5.64-.875.97-.48 1.454-1.367 1.454-2.656 0-1.242-.399-2.09-1.188-2.547-.793-.46-2.23-.687-4.312-.687H8.328c-1.094 0-1.844.066-2.25.203-.406.133-1.187.594-2.344 1.375a2.226 2.226 0 0 1-1.14.297c-1.086 0-1.887-.758-2.406-2.266-.508-1.511-.766-3.87-.766-7.078C-.578 3.453.477.891 2.594.891c.445 0 .785.078 1.015.234.227.156.555.523.985 1.11.343.476.738.78 1.187.906.457.132 1.57.257 3.344.375 2.102.125 4.305.187 6.61.187 1.269 0 2.1-.101 2.5-.297.394-.187.878-.742 1.453-1.656.5-.805 1.109-1.203 1.828-1.203.738 0 1.343.32 1.812.969.469.644 1.063 1.972 1.781 3.984a68.457 68.457 0 0 1 1.594 5.11c.438 1.644.656 2.773.656 3.39 0 .55-.203 1.016-.609 1.39a2.052 2.052 0 0 1-1.438.563c-.062 0-.296-.008-.703-.015a2.406 2.406 0 0 0-.375-.032c-.886 0-1.328.367-1.328 1.11 0 .437.348.906 1.047 1.406 2.281 1.582 3.422 3.883 3.422 6.906 0 2.32-.61 4.317-1.828 5.985-.867 1.156-1.883 1.96-3.047 2.421-1.168.47-2.887.754-5.156.86Zm0 0"/></symbol><symbol overflow="visible" id="U"><path style="stroke:none" d="M20.297 17.484h-9.344c-1.105 0-2.012.27-2.719.813-.699.539-1.046 1.238-1.046 2.094 0 .718.332 1.664 1 2.843.164.27.25.547.25.828 0 .438-.274.836-.813 1.204a2.946 2.946 0 0 1-1.734.562c-1.149 0-2.246-.625-3.297-1.875C.364 21.328-.75 18.156-.75 14.438c0-2.95.832-5.32 2.5-7.11 1.676-1.793 3.879-2.687 6.61-2.687h12.765c.426 0 .688-.055.781-.157.102-.093.157-.355.157-.78V.858c0-.53.085-.867.265-1.015.176-.157.586-.235 1.235-.235h1.218c.551.024.957.235 1.219.641l7.969 12.672c.164.312.25.695.25 1.156v2.235c0 .468-.11.78-.328.937-.211.156-.625.234-1.25.234h-3.735c-.554 0-.914.082-1.078.25-.168.176-.25.551-.25 1.125v5.125c0 .676-.125 1.114-.375 1.313-.25.207-.781.312-1.594.312h-1.625c-.886 0-1.5-.132-1.843-.39-.344-.262-.516-.73-.516-1.407v-5c0-.523-.094-.875-.281-1.062-.18-.18-.528-.266-1.047-.266Zm0 0"/></symbol><symbol overflow="visible" id="V"><path style="stroke:none" d="M27.547 12.11c0 .925-.203 2.43-.61 4.515-.074.414-.109.766-.109 1.047 0 .312.164.922.5 1.828.164.426.25.785.25 1.078 0 .844-.547 1.703-1.64 2.578a12.047 12.047 0 0 1-2.844 1.703c-1.032.446-1.93.672-2.688.672-.742 0-1.355-.261-1.843-.781-.481-.512-.72-1.156-.72-1.938 0-.648.157-1.226.47-1.734.312-.5 1.003-1.312 2.078-2.437 1.132-1.18 1.703-2.157 1.703-2.938 0-.512-.188-.96-.563-1.344a1.836 1.836 0 0 0-1.343-.562c-.907 0-1.758.867-2.547 2.61-1.399 3.113-2.93 5.5-4.594 7.155-1.399 1.407-3.11 2.11-5.14 2.11-2.563 0-4.7-1.125-6.407-3.375-1.5-1.938-2.25-4.309-2.25-7.11 0-.718.121-2.03.36-3.937.21-1.781.312-2.79.312-3.016 0-.242-.031-.515-.094-.828-.07-.531-.11-.918-.11-1.156 0-.867.227-1.547.673-2.047.675-.762 1.75-1.465 3.218-2.11 1.47-.636 2.727-.952 3.782-.952 1.687 0 2.53.66 2.53 1.984 0 .52-.171.992-.515 1.422-.336.437-1.242 1.348-2.719 2.734-.812.75-1.37 1.375-1.671 1.875a3.032 3.032 0 0 0-.454 1.61c0 .601.16 1.086.485 1.453.32.375.75.562 1.281.562.832 0 1.586-.715 2.266-2.14 1.457-2.97 2.96-5.118 4.515-6.438 1.551-1.312 3.336-1.969 5.36-1.969 2.195 0 4.086.676 5.672 2.032 2.27 1.914 3.406 4.53 3.406 7.843Zm0 0"/></symbol><symbol overflow="visible" id="W"><path style="stroke:none" d="M27.578 18.172c0 3.375-.875 6.332-2.625 8.875-1.262 1.82-2.898 3.289-4.906 4.406-2.106 1.133-4.297 1.703-6.578 1.703-4 0-7.403-1.836-10.203-5.5-2.68-3.5-4.016-7.511-4.016-12.031 0-4.406 1.254-7.977 3.766-10.703C5.453 2.266 8.625.938 12.53.938c4.352 0 7.91 1.625 10.672 4.875 2.914 3.382 4.375 7.503 4.375 12.359Zm-6.39-2.219c0-.812-.305-1.465-.907-1.953-.593-.48-1.39-.719-2.39-.719-1.106 0-2.61.203-4.516.61-1.906.414-3.602.91-5.078 1.484-1.512.57-2.266 1.504-2.266 2.797 0 1.633 1.04 2.453 3.125 2.453 1.551 0 3.313-.21 5.281-.625 1.97-.406 3.57-.906 4.813-1.5 1.25-.605 1.895-1.453 1.938-2.547Zm0 0"/></symbol><symbol overflow="visible" id="X"><path style="stroke:none" d="M22.406 17.344v3.422c0 .57-.09.984-.265 1.234-.18.25-.47.352-.875.313l-3.282-.22c-.668-.03-1.09-.132-1.265-.296-.18-.168-.266-.54-.266-1.11 0-.125.02-.43.063-.906.007-.336.015-.617.015-.843 0-.774-.258-1.297-.765-1.579-.5-.273-1.461-.406-2.875-.406-1.938 0-3.57.211-4.891.64-.574.165-.996.407-1.266.72-.273.312-.507.828-.703 1.546-.48 1.625-1.375 2.438-2.687 2.438-1.387 0-2.383-.95-2.985-2.844-.601-1.887-.906-4.984-.906-9.297 0-6.406 1.27-9.61 3.813-9.61.625 0 1.082.134 1.375.407.3.27.644.852 1.03 1.75.438.977 1.255 1.57 2.454 1.781 1.813.313 3.75.47 5.813.47.925 0 1.566-.165 1.921-.485.364-.324.536-.914.516-1.766 0-.992.047-1.625.14-1.906.102-.274.348-.399.735-.375l3.5.219c.563.03.91.125 1.047.28.144.157.234.595.265 1.313.04.688.375 1.032 1 1.032.258 0 .848-.25 1.766-.75 1.531-.844 3.063-1.266 4.594-1.266 2.25 0 4.086.77 5.515 2.313 2.083 2.269 3.126 5.523 3.126 9.765 0 3.488-.825 6.274-2.47 8.36-1.273 1.601-2.734 2.406-4.39 2.406-1.2 0-2.21-.403-3.031-1.203-.824-.793-1.235-1.778-1.235-2.953 0-1.325.461-2.594 1.391-3.813.238-.293.961-.996 2.172-2.11.852-.792 1.281-1.585 1.281-2.374 0-.512-.187-.954-.562-1.329a1.82 1.82 0 0 0-1.344-.546c-1.46 0-3.023 1.379-4.688 4.14-.511.852-.917 1.43-1.218 1.735-.293.3-.703.57-1.235.812-.218.133-.328.43-.328.89Zm0 0"/></symbol><symbol overflow="visible" id="Y"><path style="stroke:none" d="M38.531 22.188c0 2.687-.593 5.285-1.781 7.796-.555 1.176-.828 1.993-.828 2.453 0 .333.082.868.25 1.61.05.238.078.504.078.797 0 .957-.438 1.797-1.313 2.515-2.148 1.77-4.804 2.657-7.968 2.657-2.23 0-3.867-.766-4.907-2.297-.554-.824-.828-1.75-.828-2.782 0-.949.203-1.718.61-2.312.406-.586 1.125-1.152 2.156-1.703 1.457-.793 2.504-1.438 3.14-1.938.633-.5 1.212-1.109 1.735-1.828 1.25-1.793 1.875-3.664 1.875-5.61 0-1.898-.688-3.405-2.063-4.53-1.367-1.118-3.203-1.672-5.515-1.672-3.168 0-6.07.8-8.703 2.406-3.524 2.176-5.281 5.297-5.281 9.36 0 1.488.242 2.96.734 4.421.5 1.469 1.144 2.61 1.937 3.422.664.707 1 1.281 1 1.719 0 .644-.304 1.195-.906 1.656-.594.457-1.312.688-2.156.688-1.074 0-2.277-.325-3.61-.97-1.324-.636-2.367-1.405-3.125-2.312-.312-.386-.59-1.187-.828-2.406-.125-.7-.464-1.633-1.015-2.797-1.313-2.73-1.969-5.57-1.969-8.515 0-3.086.695-6.153 2.078-9.203C2.93 9.25 5.395 6.436 8.718 4.374c3.22-2.031 6.587-3.047 10.11-3.047 4.094 0 7.828 1.27 11.203 3.813 2.938 2.218 5.176 5.101 6.719 8.656 1.188 2.707 1.781 5.504 1.781 8.39Zm0 0"/></symbol><symbol overflow="visible" id="Z"><path style="stroke:none" d="M12.969 12.14v-1.359c0-2.21-.055-4.043-.156-5.5a5.686 5.686 0 0 1-.032-.61c0-.343.102-.64.313-.89.207-.25.46-.375.765-.375.313 0 1.036.196 2.172.594 1.133.395 1.946.727 2.438 1 .851.477 1.281 1.086 1.281 1.828 0 .219-.023.492-.063.828-.18 1.957-.261 3.223-.25 3.797v.75c0 .988.5 1.473 1.5 1.453h1.797c1.145-.011 2.414-.12 3.813-.328a3.5 3.5 0 0 1 .578-.047c.664 0 1.258.567 1.781 1.703.29.707.567 1.52.828 2.438.27.926.407 1.582.407 1.969 0 .75-.36 1.125-1.078 1.125-.094 0-.325-.028-.688-.078-.281-.032-1.156-.047-2.625-.047h-4.813c-.98.007-1.48.515-1.5 1.515v4.282c0 1.457.02 2.328.063 2.609.05.383.078.625.078.719 0 .718-.371 1.078-1.11 1.078-.405 0-1.12-.164-2.14-.485-1.023-.312-1.836-.632-2.437-.953-.875-.449-1.313-.976-1.313-1.578l.39-4.406v-1.266c.071-1.093-.433-1.601-1.515-1.515H11c-1.23 0-2.742.086-4.531.265-.336.04-.61.063-.828.063-.813 0-1.485-.563-2.016-1.688-.281-.617-.59-1.445-.922-2.484-.324-1.043-.484-1.688-.484-1.938 0-.336.117-.609.36-.828.25-.21.562-.312.937-.312.164 0 .359.008.578.031 1.457.102 3.289.156 5.5.156h1.86c1.062.063 1.566-.445 1.515-1.515Zm0 0"/></symbol><symbol overflow="visible" id="aa"><path style="stroke:none" d="M0 21.828V2.984C0 1.328.469.5 1.406.5c.477 0 .926.172 1.344.516.414.351 1.523 1.488 3.328 3.406 3.363 3.562 6.488 6.195 9.375 7.906 1.477.883 2.754 1.328 3.828 1.328.914 0 1.645-.265 2.188-.797.55-.53.828-1.25.828-2.156 0-.844-.121-1.492-.36-1.937-.23-.438-.98-1.418-2.25-2.938-.335-.398-.5-.93-.5-1.594 0-.867.336-1.664 1.016-2.39.676-.73 1.41-1.094 2.203-1.094.719 0 1.532.328 2.438.984.914.664 1.781 1.547 2.593 2.641 2.852 3.977 4.282 8.395 4.282 13.25 0 3.688-.711 6.734-2.125 9.14-.649 1.094-1.555 1.97-2.719 2.626-1.156.664-2.371 1-3.64 1-3.231 0-6.735-2.23-10.516-6.688-1.324-1.586-2.32-2.375-2.985-2.375-.523 0-.964.238-1.328.719-.355.476-.531 1.055-.531 1.734 0 1.625.629 3.07 1.89 4.344.626.645 1 1.07 1.126 1.281.132.219.203.508.203.875 0 1.625-1.387 2.438-4.156 2.438-1.375 0-2.778-.266-4.204-.797-1.418-.524-2.64-1.235-3.671-2.14-1.102-.962-1.657-2.009-1.657-3.141 0-.47.102-.844.297-1.125.188-.274.547-.578 1.078-.922.524-.336.856-.664 1-.985.149-.324.219-.918.219-1.78Zm0 0"/></symbol><symbol overflow="visible" id="ab"><path style="stroke:none" d="M31.922 16.406c0 2.52-.621 4.953-1.86 7.297-1.656 3.164-4.125 5.535-7.406 7.11-2.398 1.156-4.953 1.734-7.672 1.734-4.937 0-8.984-1.89-12.14-5.672C.445 23.988-.75 20.691-.75 16.985-.75 12.89.586 9.405 3.266 6.53c3.156-3.418 7.367-5.125 12.64-5.125 5.145 0 9.18 1.555 12.11 4.672 2.601 2.75 3.906 6.192 3.906 10.328Zm-8.25-.64c0-1.72-1.461-2.579-4.375-2.579-3.813 0-7.242.727-10.281 2.188-1.18.57-1.766 1.336-1.766 2.297 0 1.676 1.484 2.515 4.453 2.515 1.656 0 3.426-.183 5.313-.546 1.894-.356 3.43-.809 4.609-1.36 1.313-.605 1.992-1.445 2.047-2.515Zm0 0"/></symbol><linearGradient id="b" gradientUnits="userSpaceOnUse" x1="0" y1="25.129" x2="0" y2="74.872" gradientTransform="matrix(28.78095 0 0 -17.26856 -1063.142 1293.113)"><stop offset="0" style="stop-color:#01ffff;stop-opacity:1"/><stop offset=".004" style="stop-color:#02ffff;stop-opacity:1"/><stop offset=".008" style="stop-color:#03ffff;stop-opacity:1"/><stop offset=".012" style="stop-color:#04ffff;stop-opacity:1"/><stop offset=".016" style="stop-color:#05ffff;stop-opacity:1"/><stop offset=".02" style="stop-color:#06ffff;stop-opacity:1"/><stop offset=".023" style="stop-color:#07ffff;stop-opacity:1"/><stop offset=".027" style="stop-color:#08ffff;stop-opacity:1"/><stop offset=".031" style="stop-color:#09ffff;stop-opacity:1"/><stop offset=".035" style="stop-color:#0affff;stop-opacity:1"/><stop offset=".039" style="stop-color:#0bffff;stop-opacity:1"/><stop offset=".043" style="stop-color:#0cffff;stop-opacity:1"/><stop offset=".047" style="stop-color:#0dffff;stop-opacity:1"/><stop offset=".051" style="stop-color:#0effff;stop-opacity:1"/><stop offset=".055" style="stop-color:#0fffff;stop-opacity:1"/><stop offset=".059" style="stop-color:#10ffff;stop-opacity:1"/><stop offset=".063" style="stop-color:#1ff;stop-opacity:1"/><stop offset=".066" style="stop-color:#1ff;stop-opacity:1"/><stop offset=".07" style="stop-color:#12ffff;stop-opacity:1"/><stop offset=".074" style="stop-color:#13ffff;stop-opacity:1"/><stop offset=".078" style="stop-color:#14ffff;stop-opacity:1"/><stop offset=".082" style="stop-color:#15ffff;stop-opacity:1"/><stop offset=".086" style="stop-color:#16ffff;stop-opacity:1"/><stop offset=".09" style="stop-color:#17ffff;stop-opacity:1"/><stop offset=".094" style="stop-color:#18ffff;stop-opacity:1"/><stop offset=".098" style="stop-color:#19ffff;stop-opacity:1"/><stop offset=".102" style="stop-color:#1affff;stop-opacity:1"/><stop offset=".105" style="stop-color:#1bffff;stop-opacity:1"/><stop offset=".109" style="stop-color:#1cffff;stop-opacity:1"/><stop offset=".113" style="stop-color:#1dffff;stop-opacity:1"/><stop offset=".117" style="stop-color:#1effff;stop-opacity:1"/><stop offset=".121" style="stop-color:#1fffff;stop-opacity:1"/><stop offset=".125" style="stop-color:#20ffff;stop-opacity:1"/><stop offset=".129" style="stop-color:#21ffff;stop-opacity:1"/><stop offset=".133" style="stop-color:#2ff;stop-opacity:1"/><stop offset=".137" style="stop-color:#23ffff;stop-opacity:1"/><stop offset=".141" style="stop-color:#24ffff;stop-opacity:1"/><stop offset=".145" style="stop-color:#25ffff;stop-opacity:1"/><stop offset=".148" style="stop-color:#26ffff;stop-opacity:1"/><stop offset=".152" style="stop-color:#27ffff;stop-opacity:1"/><stop offset=".156" style="stop-color:#28ffff;stop-opacity:1"/><stop offset=".16" style="stop-color:#29ffff;stop-opacity:1"/><stop offset=".164" style="stop-color:#2affff;stop-opacity:1"/><stop offset=".168" style="stop-color:#2bffff;stop-opacity:1"/><stop offset=".172" style="stop-color:#2cffff;stop-opacity:1"/><stop offset=".176" style="stop-color:#2dffff;stop-opacity:1"/><stop offset=".18" style="stop-color:#2effff;stop-opacity:1"/><stop offset=".184" style="stop-color:#2fffff;stop-opacity:1"/><stop offset=".188" style="stop-color:#30ffff;stop-opacity:1"/><stop offset=".191" style="stop-color:#31ffff;stop-opacity:1"/><stop offset=".195" style="stop-color:#32ffff;stop-opacity:1"/><stop offset=".199" style="stop-color:#3ff;stop-opacity:1"/><stop offset=".203" style="stop-color:#34ffff;stop-opacity:1"/><stop offset=".207" style="stop-color:#35ffff;stop-opacity:1"/><stop offset=".211" style="stop-color:#36ffff;stop-opacity:1"/><stop offset=".215" style="stop-color:#37ffff;stop-opacity:1"/><stop offset=".219" style="stop-color:#38ffff;stop-opacity:1"/><stop offset=".223" style="stop-color:#39ffff;stop-opacity:1"/><stop offset=".227" style="stop-color:#3affff;stop-opacity:1"/><stop offset=".23" style="stop-color:#3bffff;stop-opacity:1"/><stop offset=".234" style="stop-color:#3cffff;stop-opacity:1"/><stop offset=".238" style="stop-color:#3dffff;stop-opacity:1"/><stop offset=".242" style="stop-color:#3effff;stop-opacity:1"/><stop offset=".246" style="stop-color:#3fffff;stop-opacity:1"/><stop offset=".25" style="stop-color:#40ffff;stop-opacity:1"/><stop offset=".254" style="stop-color:#41ffff;stop-opacity:1"/><stop offset=".258" style="stop-color:#42ffff;stop-opacity:1"/><stop offset=".262" style="stop-color:#43ffff;stop-opacity:1"/><stop offset=".266" style="stop-color:#4ff;stop-opacity:1"/><stop offset=".27" style="stop-color:#45ffff;stop-opacity:1"/><stop offset=".273" style="stop-color:#46ffff;stop-opacity:1"/><stop offset=".277" style="stop-color:#47ffff;stop-opacity:1"/><stop offset=".281" style="stop-color:#48ffff;stop-opacity:1"/><stop offset=".285" style="stop-color:#49ffff;stop-opacity:1"/><stop offset=".289" style="stop-color:#4affff;stop-opacity:1"/><stop offset=".293" style="stop-color:#4bffff;stop-opacity:1"/><stop offset=".297" style="stop-color:#4cffff;stop-opacity:1"/><stop offset=".301" style="stop-color:#4dffff;stop-opacity:1"/><stop offset=".305" style="stop-color:#4effff;stop-opacity:1"/><stop offset=".309" style="stop-color:#4fffff;stop-opacity:1"/><stop offset=".313" style="stop-color:#50ffff;stop-opacity:1"/><stop offset=".316" style="stop-color:#51ffff;stop-opacity:1"/><stop offset=".32" style="stop-color:#52ffff;stop-opacity:1"/><stop offset=".324" style="stop-color:#53ffff;stop-opacity:1"/><stop offset=".328" style="stop-color:#54ffff;stop-opacity:1"/><stop offset=".332" style="stop-color:#5ff;stop-opacity:1"/><stop offset=".336" style="stop-color:#56ffff;stop-opacity:1"/><stop offset=".34" style="stop-color:#57ffff;stop-opacity:1"/><stop offset=".344" style="stop-color:#58ffff;stop-opacity:1"/><stop offset=".348" style="stop-color:#59ffff;stop-opacity:1"/><stop offset=".352" style="stop-color:#5affff;stop-opacity:1"/><stop offset=".355" style="stop-color:#5bffff;stop-opacity:1"/><stop offset=".359" style="stop-color:#5cffff;stop-opacity:1"/><stop offset=".363" style="stop-color:#5dffff;stop-opacity:1"/><stop offset=".367" style="stop-color:#5effff;stop-opacity:1"/><stop offset=".371" style="stop-color:#5fffff;stop-opacity:1"/><stop offset=".375" style="stop-color:#60ffff;stop-opacity:1"/><stop offset=".379" style="stop-color:#61ffff;stop-opacity:1"/><stop offset=".383" style="stop-color:#62ffff;stop-opacity:1"/><stop offset=".387" style="stop-color:#63ffff;stop-opacity:1"/><stop offset=".391" style="stop-color:#64ffff;stop-opacity:1"/><stop offset=".395" style="stop-color:#65ffff;stop-opacity:1"/><stop offset=".398" style="stop-color:#6ff;stop-opacity:1"/><stop offset=".402" style="stop-color:#67ffff;stop-opacity:1"/><stop offset=".406" style="stop-color:#68ffff;stop-opacity:1"/><stop offset=".41" style="stop-color:#69ffff;stop-opacity:1"/><stop offset=".414" style="stop-color:#6affff;stop-opacity:1"/><stop offset=".418" style="stop-color:#6bffff;stop-opacity:1"/><stop offset=".422" style="stop-color:#6cffff;stop-opacity:1"/><stop offset=".426" style="stop-color:#6dffff;stop-opacity:1"/><stop offset=".43" style="stop-color:#6effff;stop-opacity:1"/><stop offset=".434" style="stop-color:#6fffff;stop-opacity:1"/><stop offset=".438" style="stop-color:#70ffff;stop-opacity:1"/><stop offset=".441" style="stop-color:#71ffff;stop-opacity:1"/><stop offset=".445" style="stop-color:#72ffff;stop-opacity:1"/><stop offset=".449" style="stop-color:#73ffff;stop-opacity:1"/><stop offset=".453" style="stop-color:#74ffff;stop-opacity:1"/><stop offset=".457" style="stop-color:#75ffff;stop-opacity:1"/><stop offset=".461" style="stop-color:#76ffff;stop-opacity:1"/><stop offset=".465" style="stop-color:#7ff;stop-opacity:1"/><stop offset=".469" style="stop-color:#78ffff;stop-opacity:1"/><stop offset=".473" style="stop-color:#79ffff;stop-opacity:1"/><stop offset=".477" style="stop-color:#7affff;stop-opacity:1"/><stop offset=".48" style="stop-color:#7bffff;stop-opacity:1"/><stop offset=".484" style="stop-color:#7cffff;stop-opacity:1"/><stop offset=".488" style="stop-color:#7dffff;stop-opacity:1"/><stop offset=".492" style="stop-color:#7effff;stop-opacity:1"/><stop offset=".496" style="stop-color:#7fffff;stop-opacity:1"/><stop offset=".5" style="stop-color:#7fffff;stop-opacity:1"/><stop offset=".504" style="stop-color:#80ffff;stop-opacity:1"/><stop offset=".508" style="stop-color:#81ffff;stop-opacity:1"/><stop offset=".512" style="stop-color:#82ffff;stop-opacity:1"/><stop offset=".516" style="stop-color:#83ffff;stop-opacity:1"/><stop offset=".52" style="stop-color:#84ffff;stop-opacity:1"/><stop offset=".523" style="stop-color:#85ffff;stop-opacity:1"/><stop offset=".527" style="stop-color:#86ffff;stop-opacity:1"/><stop offset=".531" style="stop-color:#87ffff;stop-opacity:1"/><stop offset=".535" style="stop-color:#8ff;stop-opacity:1"/><stop offset=".539" style="stop-color:#89ffff;stop-opacity:1"/><stop offset=".543" style="stop-color:#8affff;stop-opacity:1"/><stop offset=".547" style="stop-color:#8bffff;stop-opacity:1"/><stop offset=".551" style="stop-color:#8cffff;stop-opacity:1"/><stop offset=".555" style="stop-color:#8dffff;stop-opacity:1"/><stop offset=".559" style="stop-color:#8effff;stop-opacity:1"/><stop offset=".563" style="stop-color:#8fffff;stop-opacity:1"/><stop offset=".566" style="stop-color:#90ffff;stop-opacity:1"/><stop offset=".57" style="stop-color:#91ffff;stop-opacity:1"/><stop offset=".574" style="stop-color:#92ffff;stop-opacity:1"/><stop offset=".578" style="stop-color:#93ffff;stop-opacity:1"/><stop offset=".582" style="stop-color:#94ffff;stop-opacity:1"/><stop offset=".586" style="stop-color:#95ffff;stop-opacity:1"/><stop offset=".59" style="stop-color:#96ffff;stop-opacity:1"/><stop offset=".594" style="stop-color:#97ffff;stop-opacity:1"/><stop offset=".598" style="stop-color:#98ffff;stop-opacity:1"/><stop offset=".602" style="stop-color:#9ff;stop-opacity:1"/><stop offset=".605" style="stop-color:#9affff;stop-opacity:1"/><stop offset=".609" style="stop-color:#9bffff;stop-opacity:1"/><stop offset=".613" style="stop-color:#9cffff;stop-opacity:1"/><stop offset=".617" style="stop-color:#9dffff;stop-opacity:1"/><stop offset=".621" style="stop-color:#9effff;stop-opacity:1"/><stop offset=".625" style="stop-color:#9fffff;stop-opacity:1"/><stop offset=".629" style="stop-color:#a0ffff;stop-opacity:1"/><stop offset=".633" style="stop-color:#a1ffff;stop-opacity:1"/><stop offset=".637" style="stop-color:#a2ffff;stop-opacity:1"/><stop offset=".641" style="stop-color:#a3ffff;stop-opacity:1"/><stop offset=".645" style="stop-color:#a4ffff;stop-opacity:1"/><stop offset=".648" style="stop-color:#a5ffff;stop-opacity:1"/><stop offset=".652" style="stop-color:#a6ffff;stop-opacity:1"/><stop offset=".656" style="stop-color:#a7ffff;stop-opacity:1"/><stop offset=".66" style="stop-color:#a8ffff;stop-opacity:1"/><stop offset=".664" style="stop-color:#a9ffff;stop-opacity:1"/><stop offset=".668" style="stop-color:#aff;stop-opacity:1"/><stop offset=".672" style="stop-color:#abffff;stop-opacity:1"/><stop offset=".676" style="stop-color:#acffff;stop-opacity:1"/><stop offset=".68" style="stop-color:#adffff;stop-opacity:1"/><stop offset=".684" style="stop-color:#aeffff;stop-opacity:1"/><stop offset=".688" style="stop-color:#afffff;stop-opacity:1"/><stop offset=".691" style="stop-color:#b0ffff;stop-opacity:1"/><stop offset=".695" style="stop-color:#b1ffff;stop-opacity:1"/><stop offset=".699" style="stop-color:#b2ffff;stop-opacity:1"/><stop offset=".703" style="stop-color:#b3ffff;stop-opacity:1"/><stop offset=".707" style="stop-color:#b4ffff;stop-opacity:1"/><stop offset=".711" style="stop-color:#b5ffff;stop-opacity:1"/><stop offset=".715" style="stop-color:#b6ffff;stop-opacity:1"/><stop offset=".719" style="stop-color:#b7ffff;stop-opacity:1"/><stop offset=".723" style="stop-color:#b8ffff;stop-opacity:1"/><stop offset=".727" style="stop-color:#b9ffff;stop-opacity:1"/><stop offset=".73" style="stop-color:#baffff;stop-opacity:1"/><stop offset=".734" style="stop-color:#bff;stop-opacity:1"/><stop offset=".738" style="stop-color:#bcffff;stop-opacity:1"/><stop offset=".742" style="stop-color:#bdffff;stop-opacity:1"/><stop offset=".746" style="stop-color:#beffff;stop-opacity:1"/><stop offset=".75" style="stop-color:#bfffff;stop-opacity:1"/><stop offset=".754" style="stop-color:#c0ffff;stop-opacity:1"/><stop offset=".758" style="stop-color:#c1ffff;stop-opacity:1"/><stop offset=".762" style="stop-color:#c2ffff;stop-opacity:1"/><stop offset=".766" style="stop-color:#c3ffff;stop-opacity:1"/><stop offset=".77" style="stop-color:#c4ffff;stop-opacity:1"/><stop offset=".773" style="stop-color:#c5ffff;stop-opacity:1"/><stop offset=".777" style="stop-color:#c6ffff;stop-opacity:1"/><stop offset=".781" style="stop-color:#c7ffff;stop-opacity:1"/><stop offset=".785" style="stop-color:#c8ffff;stop-opacity:1"/><stop offset=".789" style="stop-color:#c9ffff;stop-opacity:1"/><stop offset=".793" style="stop-color:#caffff;stop-opacity:1"/><stop offset=".797" style="stop-color:#cbffff;stop-opacity:1"/><stop offset=".801" style="stop-color:#cff;stop-opacity:1"/><stop offset=".805" style="stop-color:#cdffff;stop-opacity:1"/><stop offset=".809" style="stop-color:#ceffff;stop-opacity:1"/><stop offset=".813" style="stop-color:#cfffff;stop-opacity:1"/><stop offset=".816" style="stop-color:#d0ffff;stop-opacity:1"/><stop offset=".82" style="stop-color:#d1ffff;stop-opacity:1"/><stop offset=".824" style="stop-color:#d2ffff;stop-opacity:1"/><stop offset=".828" style="stop-color:#d3ffff;stop-opacity:1"/><stop offset=".832" style="stop-color:#d4ffff;stop-opacity:1"/><stop offset=".836" style="stop-color:#d5ffff;stop-opacity:1"/><stop offset=".84" style="stop-color:#d6ffff;stop-opacity:1"/><stop offset=".844" style="stop-color:#d7ffff;stop-opacity:1"/><stop offset=".848" style="stop-color:#d8ffff;stop-opacity:1"/><stop offset=".852" style="stop-color:#d9ffff;stop-opacity:1"/><stop offset=".855" style="stop-color:#daffff;stop-opacity:1"/><stop offset=".859" style="stop-color:#dbffff;stop-opacity:1"/><stop offset=".863" style="stop-color:#dcffff;stop-opacity:1"/><stop offset=".867" style="stop-color:#dff;stop-opacity:1"/><stop offset=".871" style="stop-color:#deffff;stop-opacity:1"/><stop offset=".875" style="stop-color:#dfffff;stop-opacity:1"/><stop offset=".879" style="stop-color:#e0ffff;stop-opacity:1"/><stop offset=".883" style="stop-color:#e1ffff;stop-opacity:1"/><stop offset=".887" style="stop-color:#e2ffff;stop-opacity:1"/><stop offset=".891" style="stop-color:#e3ffff;stop-opacity:1"/><stop offset=".895" style="stop-color:#e4ffff;stop-opacity:1"/><stop offset=".898" style="stop-color:#e5ffff;stop-opacity:1"/><stop offset=".902" style="stop-color:#e6ffff;stop-opacity:1"/><stop offset=".906" style="stop-color:#e7ffff;stop-opacity:1"/><stop offset=".91" style="stop-color:#e8ffff;stop-opacity:1"/><stop offset=".914" style="stop-color:#e9ffff;stop-opacity:1"/><stop offset=".918" style="stop-color:#eaffff;stop-opacity:1"/><stop offset=".922" style="stop-color:#ebffff;stop-opacity:1"/><stop offset=".926" style="stop-color:#ecffff;stop-opacity:1"/><stop offset=".93" style="stop-color:#edffff;stop-opacity:1"/><stop offset=".934" style="stop-color:#edffff;stop-opacity:1"/><stop offset=".938" style="stop-color:#eff;stop-opacity:1"/><stop offset=".941" style="stop-color:#efffff;stop-opacity:1"/><stop offset=".945" style="stop-color:azure;stop-opacity:1"/><stop offset=".949" style="stop-color:#f1ffff;stop-opacity:1"/><stop offset=".953" style="stop-color:#f2ffff;stop-opacity:1"/><stop offset=".957" style="stop-color:#f3ffff;stop-opacity:1"/><stop offset=".961" style="stop-color:#f4ffff;stop-opacity:1"/><stop offset=".965" style="stop-color:#f5ffff;stop-opacity:1"/><stop offset=".969" style="stop-color:#f6ffff;stop-opacity:1"/><stop offset=".973" style="stop-color:#f7ffff;stop-opacity:1"/><stop offset=".977" style="stop-color:#f8ffff;stop-opacity:1"/><stop offset=".98" style="stop-color:#f9ffff;stop-opacity:1"/><stop offset=".984" style="stop-color:#faffff;stop-opacity:1"/><stop offset=".988" style="stop-color:#fbffff;stop-opacity:1"/><stop offset=".992" style="stop-color:#fcffff;stop-opacity:1"/><stop offset=".996" style="stop-color:#fdffff;stop-opacity:1"/><stop offset="1" style="stop-color:#feffff;stop-opacity:1"/></linearGradient><clipPath id="a"><path d="M0 .184h751.8V859H0Zm0 0"/></clipPath></defs><g clip-path="url(#a)"><path style="stroke:none;fill-rule:nonzero;fill:url(#b)" d="M0 859.176V.184h751.8v858.992Zm0 0"/></g><g style="fill:#fff;fill-opacity:1"><use xlink:href="#c" x="201.865" y="178.469"/><use xlink:href="#d" x="252.751" y="178.469"/><use xlink:href="#e" x="279.631" y="178.469"/><use xlink:href="#f" x="318.661" y="178.469"/><use xlink:href="#e" x="389.652" y="178.469"/><use xlink:href="#g" x="428.682" y="178.469"/><use xlink:href="#h" x="478.096" y="178.469"/><use xlink:href="#i" x="512.192" y="178.469"/></g><g style="fill:#000;fill-opacity:1"><use xlink:href="#c" x="204.454" y="183.646"/><use xlink:href="#d" x="255.34" y="183.646"/><use xlink:href="#e" x="282.22" y="183.646"/><use xlink:href="#f" x="321.25" y="183.646"/><use xlink:href="#e" x="392.241" y="183.646"/><use xlink:href="#g" x="431.271" y="183.646"/><use xlink:href="#h" x="480.685" y="183.646"/><use xlink:href="#i" x="514.781" y="183.646"/></g><g style="fill:#0ff;fill-opacity:1"><use xlink:href="#c" x="203.16" y="181.057"/><use xlink:href="#d" x="254.047" y="181.057"/><use xlink:href="#e" x="280.926" y="181.057"/><use xlink:href="#f" x="319.956" y="181.057"/><use xlink:href="#e" x="390.947" y="181.057"/><use xlink:href="#g" x="429.977" y="181.057"/><use xlink:href="#h" x="479.391" y="181.057"/><use xlink:href="#i" x="513.487" y="181.057"/></g><g style="fill:#fff;fill-opacity:1"><use xlink:href="#j" x="348.844" y="236.048"/><use xlink:href="#k" x="379.536" y="236.048"/></g><g style="fill:#000;fill-opacity:1"><use xlink:href="#j" x="350.636" y="239.632"/><use xlink:href="#k" x="381.328" y="239.632"/></g><g style="fill:#0ff;fill-opacity:1"><use xlink:href="#j" x="349.741" y="237.84"/><use xlink:href="#k" x="380.433" y="237.84"/></g><g style="fill:#fff;fill-opacity:1"><use xlink:href="#l" x="241.848" y="309.761"/><use xlink:href="#m" x="303.028" y="309.761"/><use xlink:href="#m" x="354.011" y="309.761"/><use xlink:href="#n" x="404.994" y="309.761"/><use xlink:href="#o" x="455.977" y="309.761"/></g><g style="fill:#000;fill-opacity:1"><use xlink:href="#l" x="244.835" y="315.734"/><use xlink:href="#m" x="306.015" y="315.734"/><use xlink:href="#m" x="356.998" y="315.734"/><use xlink:href="#n" x="407.981" y="315.734"/><use xlink:href="#o" x="458.964" y="315.734"/></g><g style="fill:#0ff;fill-opacity:1"><use xlink:href="#l" x="243.342" y="312.747"/><use xlink:href="#m" x="304.522" y="312.747"/><use xlink:href="#m" x="355.505" y="312.747"/><use xlink:href="#n" x="406.488" y="312.747"/><use xlink:href="#o" x="457.471" y="312.747"/></g><g style="fill:#fff;fill-opacity:1"><use xlink:href="#p" x="157.936" y="684.434"/><use xlink:href="#q" x="182.407" y="684.434"/><use xlink:href="#r" x="205.486" y="684.434"/><use xlink:href="#s" x="224.757" y="684.434"/><use xlink:href="#t" x="247.564" y="684.434"/><use xlink:href="#u" x="269.656" y="684.434"/></g><use xlink:href="#r" x="287.534" y="684.434" style="fill:#fff;fill-opacity:1"/><g style="fill:#fff;fill-opacity:1"><use xlink:href="#v" x="315.269" y="684.434"/><use xlink:href="#q" x="337.192" y="684.434"/><use xlink:href="#w" x="360.27" y="684.434"/><use xlink:href="#x" x="378.284" y="684.434"/><use xlink:href="#q" x="403.232" y="684.434"/><use xlink:href="#r" x="426.31" y="684.434"/><use xlink:href="#u" x="445.581" y="684.434"/></g><use xlink:href="#y" x="472.263" y="684.434" style="fill:#fff;fill-opacity:1"/><g style="fill:#fff;fill-opacity:1"><use xlink:href="#z" x="499.487" y="684.434"/><use xlink:href="#A" x="522.532" y="684.434"/><use xlink:href="#r" x="555.297" y="684.434"/><use xlink:href="#u" x="574.568" y="684.434"/></g><g style="fill:#000;fill-opacity:1"><use xlink:href="#p" x="159.131" y="686.823"/><use xlink:href="#q" x="183.602" y="686.823"/><use xlink:href="#r" x="206.681" y="686.823"/><use xlink:href="#s" x="225.952" y="686.823"/><use xlink:href="#t" x="248.759" y="686.823"/><use xlink:href="#u" x="270.851" y="686.823"/></g><use xlink:href="#r" x="288.729" y="686.823" style="fill:#000;fill-opacity:1"/><g style="fill:#000;fill-opacity:1"><use xlink:href="#v" x="316.464" y="686.823"/><use xlink:href="#q" x="338.387" y="686.823"/><use xlink:href="#w" x="361.465" y="686.823"/><use xlink:href="#x" x="379.479" y="686.823"/><use xlink:href="#q" x="404.426" y="686.823"/><use xlink:href="#r" x="427.505" y="686.823"/><use xlink:href="#u" x="446.776" y="686.823"/></g><use xlink:href="#y" x="473.457" y="686.823" style="fill:#000;fill-opacity:1"/><g style="fill:#000;fill-opacity:1"><use xlink:href="#z" x="500.682" y="686.823"/><use xlink:href="#A" x="523.727" y="686.823"/><use xlink:href="#r" x="556.492" y="686.823"/><use xlink:href="#u" x="575.763" y="686.823"/></g><g style="fill:#32cd32;fill-opacity:1"><use xlink:href="#p" x="158.533" y="685.628"/><use xlink:href="#q" x="183.005" y="685.628"/><use xlink:href="#r" x="206.083" y="685.628"/><use xlink:href="#s" x="225.355" y="685.628"/><use xlink:href="#t" x="248.161" y="685.628"/><use xlink:href="#u" x="270.254" y="685.628"/></g><use xlink:href="#r" x="288.132" y="685.628" style="fill:#32cd32;fill-opacity:1"/><g style="fill:#32cd32;fill-opacity:1"><use xlink:href="#v" x="315.867" y="685.628"/><use xlink:href="#q" x="337.789" y="685.628"/><use xlink:href="#w" x="360.868" y="685.628"/><use xlink:href="#x" x="378.882" y="685.628"/><use xlink:href="#q" x="403.829" y="685.628"/><use xlink:href="#r" x="426.908" y="685.628"/><use xlink:href="#u" x="446.179" y="685.628"/></g><use xlink:href="#y" x="472.86" y="685.628" style="fill:#32cd32;fill-opacity:1"/><g style="fill:#32cd32;fill-opacity:1"><use xlink:href="#z" x="500.085" y="685.628"/><use xlink:href="#A" x="523.129" y="685.628"/><use xlink:href="#r" x="555.895" y="685.628"/><use xlink:href="#u" x="575.166" y="685.628"/></g><g style="fill:#5f1609;fill-opacity:1"><use xlink:href="#B" x="219.29" y="731.01"/><use xlink:href="#C" x="251.47" y="731.01"/><use xlink:href="#D" x="266.194" y="731.01"/><use xlink:href="#E" x="273.943" y="731.01"/><use xlink:href="#F" x="280.061" y="731.01"/><use xlink:href="#C" x="288.015" y="731.01"/><use xlink:href="#G" x="302.739" y="731.01"/></g><g style="fill:#5f1609;fill-opacity:1"><use xlink:href="#H" x="323.866" y="731.01"/><use xlink:href="#D" x="352.58" y="731.01"/><use xlink:href="#E" x="360.329" y="731.01"/><use xlink:href="#F" x="366.447" y="731.01"/><use xlink:href="#C" x="374.4" y="731.01"/><use xlink:href="#D" x="389.124" y="731.01"/><use xlink:href="#F" x="396.874" y="731.01"/></g><g style="fill:#5f1609;fill-opacity:1"><use xlink:href="#I" x="418.409" y="731.01"/><use xlink:href="#J" x="449.651" y="731.01"/><use xlink:href="#K" x="462.295" y="731.01"/><use xlink:href="#L" x="474.164" y="731.01"/><use xlink:href="#E" x="481.873" y="731.01"/><use xlink:href="#M" x="487.991" y="731.01"/><use xlink:href="#N" x="494.72" y="731.01"/><use xlink:href="#F" x="509.077" y="731.01"/><use xlink:href="#O" x="517.031" y="731.01"/><use xlink:href="#M" x="525.759" y="731.01"/></g><g style="fill:#fff;fill-opacity:1"><use xlink:href="#P" x="36.032" y="164.201"/><use xlink:href="#Q" x="36.032" y="203.344"/><use xlink:href="#R" x="36.032" y="224.021"/><use xlink:href="#S" x="36.032" y="254.044"/><use xlink:href="#R" x="36.032" y="308.653"/><use xlink:href="#T" x="36.032" y="338.676"/><use xlink:href="#U" x="36.032" y="376.686"/><use xlink:href="#V" x="36.032" y="402.914"/></g><g style="fill:#fff;fill-opacity:1"><use xlink:href="#W" x="36.032" y="444.097"/><use xlink:href="#X" x="36.032" y="478.199"/></g><g style="fill:#fff;fill-opacity:1"><use xlink:href="#Y" x="36.032" y="516.38"/><use xlink:href="#Z" x="36.032" y="557.166"/><use xlink:href="#Z" x="36.032" y="591.155"/><use xlink:href="#aa" x="36.032" y="625.143"/><use xlink:href="#ab" x="36.032" y="659.132"/></g><g style="fill:#000;fill-opacity:1"><use xlink:href="#P" x="32.05" y="166.192"/><use xlink:href="#Q" x="32.05" y="205.336"/><use xlink:href="#R" x="32.05" y="226.012"/><use xlink:href="#S" x="32.05" y="256.036"/><use xlink:href="#R" x="32.05" y="310.644"/><use xlink:href="#T" x="32.05" y="340.667"/><use xlink:href="#U" x="32.05" y="378.678"/><use xlink:href="#V" x="32.05" y="404.906"/></g><g style="fill:#000;fill-opacity:1"><use xlink:href="#W" x="32.05" y="446.089"/><use xlink:href="#X" x="32.05" y="480.191"/></g><g style="fill:#000;fill-opacity:1"><use xlink:href="#Y" x="32.05" y="518.371"/><use xlink:href="#Z" x="32.05" y="559.158"/><use xlink:href="#Z" x="32.05" y="593.146"/><use xlink:href="#aa" x="32.05" y="627.135"/><use xlink:href="#ab" x="32.05" y="661.123"/></g><g style="fill:#0ff;fill-opacity:1"><use xlink:href="#P" x="34.042" y="165.197"/><use xlink:href="#Q" x="34.042" y="204.341"/><use xlink:href="#R" x="34.042" y="225.017"/><use xlink:href="#S" x="34.042" y="255.04"/><use xlink:href="#R" x="34.042" y="309.649"/><use xlink:href="#T" x="34.042" y="339.672"/><use xlink:href="#U" x="34.042" y="377.683"/><use xlink:href="#V" x="34.042" y="403.911"/></g><g style="fill:#0ff;fill-opacity:1"><use xlink:href="#W" x="34.042" y="445.037"/><use xlink:href="#X" x="34.042" y="479.139"/></g><g style="fill:#0ff;fill-opacity:1"><use xlink:href="#Y" x="34.042" y="517.319"/><use xlink:href="#Z" x="34.042" y="558.106"/><use xlink:href="#Z" x="34.042" y="592.094"/><use xlink:href="#aa" x="34.042" y="626.083"/><use xlink:href="#ab" x="34.042" y="660.072"/></g></svg>