<?xml version="1.0" encoding="UTF-8"?>
<svg xmlns="http://www.w3.org/2000/svg" xmlns:xlink="http://www.w3.org/1999/xlink" width="340.186pt" height="217.368pt" viewBox="0 0 340.186 217.368" version="1.2">
<defs>
<clipPath id="clip1">
  <path d="M 0 190 L 339.777344 190 L 339.777344 193 L 0 193 Z M 0 190 "/>
</clipPath>
<clipPath id="clip2">
  <path d="M 0 191 L 339.777344 191 L 339.777344 217.050781 L 0 217.050781 Z M 0 191 "/>
</clipPath>
</defs>
<g id="surface1">
<path style="fill:none;stroke-width:0.79701;stroke-linecap:butt;stroke-linejoin:miter;stroke:rgb(92.549133%,0%,54.899597%);stroke-opacity:1;stroke-miterlimit:10;" d="M -0.00078125 -0.00034375 C -0.00078125 -0.00034375 2.065625 3.698875 2.858594 5.101219 C 3.651563 6.499656 4.925 8.722313 5.717969 10.0895 C 6.510938 11.460594 7.784375 13.628563 8.577344 14.972313 C 9.370313 16.312156 10.64375 18.444969 11.436719 19.761375 C 12.229688 21.073875 13.503125 23.155906 14.296094 24.441063 C 15.089063 25.722313 16.3625 27.753563 17.155469 29.007469 C 17.948438 30.265281 19.221875 32.257469 20.014844 33.487938 C 20.807813 34.7145 22.077344 36.655906 22.874219 37.855125 C 23.667188 39.050438 24.936719 40.944969 25.729688 42.112938 C 26.526563 43.280906 27.796094 45.136375 28.589063 46.277 C 29.382031 47.417625 30.655469 49.222313 31.448438 50.335594 C 32.241406 51.444969 33.514844 53.198875 34.307813 54.280906 C 35.100781 55.362938 36.374219 57.081688 37.167188 58.136375 C 37.960156 59.191063 39.233594 60.855125 40.026563 61.878563 C 40.819531 62.905906 42.092969 64.519188 42.885938 65.515281 C 43.678906 66.511375 44.952344 68.0895 45.745313 69.05825 C 46.538281 70.027 47.811719 71.554344 48.604688 72.491844 C 49.397656 73.429344 50.671094 74.905906 51.464063 75.816063 C 52.257031 76.726219 53.530469 78.167625 54.323438 79.046531 C 55.116406 79.929344 56.389844 81.319969 57.182813 82.171531 C 57.975781 83.019188 59.249219 84.359031 60.042188 85.18325 C 60.835156 86.007469 62.104688 87.30825 62.897656 88.101219 C 63.694531 88.898094 64.964063 90.148094 65.757031 90.913719 C 66.553906 91.679344 67.823438 92.878563 68.616406 93.612938 C 69.409375 94.351219 70.682813 95.515281 71.475781 96.222313 C 72.26875 96.93325 73.542188 98.042625 74.335156 98.722313 C 75.128125 99.402 76.401563 100.460594 77.194531 101.112938 C 77.9875 101.761375 79.260938 102.788719 80.053906 103.409813 C 80.846875 104.030906 82.120313 105.003563 82.913281 105.597313 C 83.70625 106.187156 84.979688 107.112938 85.772656 107.675438 C 86.565625 108.237938 87.839063 109.124656 88.632031 109.659813 C 89.425 110.194969 90.698438 111.030906 91.491406 111.538719 C 92.284375 112.042625 93.557813 112.827781 94.350781 113.304344 C 95.14375 113.780906 96.413281 114.530906 97.210156 114.980125 C 98.003125 115.429344 99.272656 116.124656 100.069531 116.542625 C 100.8625 116.9645 102.132031 117.609031 102.925 117.999656 C 103.717969 118.390281 104.991406 118.999656 105.784375 119.362938 C 106.577344 119.726219 107.850781 120.284813 108.64375 120.616844 C 109.436719 120.948875 110.710156 121.456688 111.503125 121.761375 C 112.296094 122.062156 113.569531 122.527 114.3625 122.804344 C 115.155469 123.077781 116.428906 123.499656 117.221875 123.74575 C 118.014844 123.991844 119.288281 124.366844 120.08125 124.585594 C 120.874219 124.804344 122.147656 125.128563 122.940625 125.319969 C 123.733594 125.507469 125.007031 125.788719 125.8 125.948875 C 126.592969 126.109031 127.866406 126.347313 128.659375 126.480125 C 129.452344 126.609031 130.725781 126.796531 131.51875 126.898094 C 132.311719 126.999656 133.585156 127.144188 134.378125 127.218406 C 135.171094 127.292625 136.440625 127.390281 137.2375 127.437156 C 138.030469 127.480125 139.3 127.527 140.092969 127.546531 C 140.889844 127.562156 142.159375 127.566063 142.952344 127.554344 C 143.745313 127.542625 145.01875 127.499656 145.811719 127.460594 C 146.604688 127.417625 147.878125 127.327781 148.671094 127.257469 C 149.464063 127.187156 150.7375 127.050438 151.530469 126.952781 C 152.323438 126.855125 153.596875 126.675438 154.389844 126.546531 C 155.182813 126.421531 156.45625 126.191063 157.249219 126.034813 C 158.042188 125.878563 159.315625 125.605125 160.108594 125.417625 C 160.901563 125.234031 162.175 124.917625 162.967969 124.702781 C 163.760938 124.487938 165.034375 124.12075 165.827344 123.878563 C 166.620313 123.636375 167.89375 123.222313 168.686719 122.952781 C 169.479688 122.679344 170.749219 122.222313 171.546094 121.925438 C 172.339063 121.624656 173.608594 121.116844 174.405469 120.788719 C 175.198438 120.456688 176.467969 119.905906 177.260938 119.550438 C 178.057813 119.191063 179.327344 118.597313 180.120313 118.210594 C 180.913281 117.823875 182.186719 117.175438 182.979688 116.761375 C 183.772656 116.347313 185.046094 115.655906 185.839063 115.210594 C 186.632031 114.769188 187.905469 114.034813 188.698438 113.562156 C 189.491406 113.0895 190.764844 112.304344 191.557813 111.800438 C 192.350781 111.300438 193.624219 110.472313 194.417188 109.941063 C 195.210156 109.409813 196.483594 108.530906 197.276563 107.972313 C 198.069531 107.413719 199.342969 106.49575 200.135938 105.909813 C 200.928906 105.319969 202.202344 104.355125 202.995313 103.737938 C 203.788281 103.116844 205.061719 102.101219 205.854688 101.456688 C 206.647656 100.80825 207.917188 99.753563 208.714063 99.081688 C 209.507031 98.405906 210.776563 97.300438 211.573438 96.597313 C 212.366406 95.894188 213.635938 94.737938 214.428906 94.003563 C 215.225781 93.273094 216.495313 92.077781 217.288281 91.319969 C 218.08125 90.55825 219.354688 89.312156 220.147656 88.523094 C 220.940625 87.734031 222.214063 86.437156 223.007031 85.62075 C 223.8 84.800438 225.073438 83.460594 225.866406 82.612938 C 226.659375 81.765281 227.932813 80.382469 228.725781 79.507469 C 229.51875 78.632469 230.792188 77.202781 231.585156 76.300438 C 232.378125 75.394188 233.651563 73.917625 234.444531 72.984031 C 235.2375 72.050438 236.510938 70.527 237.303906 69.566063 C 238.096875 68.601219 239.370313 67.038719 240.163281 66.046531 C 240.95625 65.054344 242.229688 63.437156 243.022656 62.417625 C 243.815625 61.398094 245.089063 59.737938 245.882031 58.687156 C 246.675 57.640281 247.944531 55.937156 248.741406 54.859031 C 249.534375 53.780906 250.803906 52.027 251.596875 50.917625 C 252.39375 49.812156 253.663281 48.011375 254.45625 46.878563 C 255.249219 45.741844 256.522656 43.898094 257.315625 42.734031 C 258.108594 41.569969 259.382031 39.679344 260.175 38.484031 C 260.967969 37.292625 262.241406 35.355125 263.034375 34.132469 C 263.827344 32.909813 265.100781 30.929344 265.89375 29.679344 C 266.686719 28.429344 267.960156 26.398094 268.753125 25.116844 C 269.546094 23.835594 270.819531 21.761375 271.6125 20.452781 C 272.405469 19.144188 273.678906 17.019188 274.471875 15.679344 C 275.264844 14.343406 276.538281 12.179344 277.33125 10.812156 C 278.124219 9.448875 279.397656 7.234031 280.190625 5.8395 C 280.983594 4.444969 283.05 0.753563 283.05 0.753563 " transform="matrix(1,0,0,-1,27.95,191.527)"/>
<path style="fill:none;stroke-width:0.79701;stroke-linecap:butt;stroke-linejoin:miter;stroke:rgb(92.549133%,0%,54.899597%);stroke-opacity:1;stroke-miterlimit:10;" d="M -0.00078125 -0.00034375 C -0.00078125 -0.00034375 1.55 2.784813 2.14375 3.8395 C 2.741406 4.894188 3.694531 6.566063 4.292188 7.605125 C 4.885938 8.644188 5.839063 10.304344 6.436719 11.327781 C 7.030469 12.351219 7.9875 13.972313 8.58125 14.980125 C 9.175 15.987938 10.132031 17.593406 10.725781 18.585594 C 11.323438 19.573875 12.276563 21.144188 12.874219 22.12075 C 13.467969 23.093406 14.421094 24.648094 15.01875 25.609031 C 15.6125 26.566063 16.569531 28.085594 17.163281 29.023094 C 17.757031 29.9645 18.714063 31.4645 19.307813 32.386375 C 19.905469 33.312156 20.858594 34.788719 21.452344 35.698875 C 22.05 36.605125 23.003125 38.050438 23.600781 38.944969 C 24.194531 39.835594 25.147656 41.257469 25.745313 42.136375 C 26.339063 43.011375 27.296094 44.405906 27.889844 45.265281 C 28.483594 46.128563 29.440625 47.49575 30.034375 48.3395 C 30.632031 49.187156 31.585156 50.527 32.178906 51.355125 C 32.776563 52.18325 33.729688 53.491844 34.327344 54.304344 C 34.921094 55.116844 35.878125 56.413719 36.471875 57.210594 C 37.065625 58.003563 38.022656 59.265281 38.616406 60.042625 C 39.214063 60.819969 40.167188 62.05825 40.760938 62.823875 C 41.358594 63.585594 42.311719 64.800438 42.909375 65.546531 C 43.503125 66.296531 44.45625 67.480125 45.053906 68.210594 C 45.647656 68.941063 46.604688 70.105125 47.198438 70.819969 C 47.792188 71.534813 48.749219 72.667625 49.342969 73.362938 C 49.940625 74.062156 50.89375 75.167625 51.4875 75.847313 C 52.085156 76.530906 53.038281 77.609031 53.635938 78.277 C 54.229688 78.944969 55.182813 79.999656 55.780469 80.652 C 56.374219 81.300438 57.33125 82.331688 57.925 82.9645 C 58.522656 83.597313 59.475781 84.597313 60.069531 85.2145 C 60.667188 85.831688 61.620313 86.80825 62.217969 87.409813 C 62.811719 88.011375 63.764844 88.9645 64.3625 89.550438 C 64.95625 90.136375 65.913281 91.062156 66.507031 91.628563 C 67.100781 92.198875 68.057813 93.093406 68.651563 93.644188 C 69.249219 94.198875 70.202344 95.069969 70.796094 95.609031 C 71.39375 96.144188 72.346875 96.99575 72.944531 97.515281 C 73.538281 98.034813 74.491406 98.859031 75.089063 99.359031 C 75.682813 99.862938 76.639844 100.655906 77.233594 101.144188 C 77.827344 101.632469 78.784375 102.402 79.378125 102.87075 C 79.975781 103.343406 80.928906 104.0895 81.526563 104.546531 C 82.120313 105.003563 83.073438 105.718406 83.671094 106.155906 C 84.264844 106.597313 85.221875 107.284813 85.815625 107.706688 C 86.409375 108.128563 87.366406 108.796531 87.960156 109.202781 C 88.557813 109.609031 89.510938 110.249656 90.104688 110.640281 C 90.702344 111.034813 91.655469 111.648094 92.253125 112.019188 C 92.846875 112.394188 93.8 112.980125 94.397656 113.335594 C 94.991406 113.694969 95.948438 114.257469 96.542188 114.597313 C 97.135938 114.937156 98.092969 115.472313 98.686719 115.796531 C 99.284375 116.12075 100.2375 116.632469 100.83125 116.941063 C 101.428906 117.249656 102.382031 117.730125 102.979688 118.023094 C 103.573438 118.316063 104.530469 118.773094 105.124219 119.050438 C 105.717969 119.327781 106.675 119.761375 107.26875 120.023094 C 107.866406 120.284813 108.819531 120.691063 109.413281 120.93325 C 110.010938 121.179344 110.964063 121.554344 111.561719 121.784813 C 112.155469 122.011375 113.108594 122.366844 113.70625 122.577781 C 114.3 122.788719 115.257031 123.112938 115.850781 123.30825 C 116.444531 123.503563 117.401563 123.80825 117.995313 123.987938 C 118.592969 124.167625 119.546094 124.437156 120.139844 124.601219 C 120.7375 124.765281 121.690625 125.015281 122.288281 125.163719 C 122.882031 125.30825 123.839063 125.530906 124.432813 125.659813 C 125.026563 125.792625 125.983594 125.991844 126.577344 126.105125 C 127.175 126.218406 128.128125 126.386375 128.721875 126.487938 C 129.319531 126.585594 130.272656 126.730125 130.870313 126.812156 C 131.464063 126.894188 132.417188 127.011375 133.014844 127.077781 C 133.608594 127.144188 134.565625 127.237938 135.159375 127.288719 C 135.753125 127.335594 136.710156 127.402 137.303906 127.437156 C 137.901563 127.468406 138.854688 127.511375 139.448438 127.530906 C 140.046094 127.546531 140.999219 127.55825 141.596875 127.562156 C 142.190625 127.562156 143.14375 127.550438 143.741406 127.538719 C 144.335156 127.523094 145.292188 127.484031 145.885938 127.452781 C 146.483594 127.421531 147.436719 127.359031 148.030469 127.312156 C 148.628125 127.265281 149.58125 127.171531 150.178906 127.109031 C 150.772656 127.046531 151.725781 126.93325 152.323438 126.851219 C 152.917188 126.773094 153.874219 126.628563 154.467969 126.530906 C 155.061719 126.437156 156.01875 126.273094 156.6125 126.159813 C 157.210156 126.046531 158.163281 125.851219 158.757031 125.722313 C 159.354688 125.593406 160.307813 125.378563 160.905469 125.234031 C 161.499219 125.0895 162.452344 124.8395 163.05 124.679344 C 163.64375 124.519188 164.600781 124.249656 165.194531 124.073875 C 165.788281 123.894188 166.745313 123.597313 167.339063 123.402 C 167.936719 123.206688 168.889844 122.882469 169.4875 122.671531 C 170.08125 122.460594 171.034375 122.109031 171.632031 121.886375 C 172.225781 121.659813 173.182813 121.284813 173.776563 121.042625 C 174.370313 120.800438 175.327344 120.398094 175.921094 120.140281 C 176.51875 119.882469 177.471875 119.456688 178.065625 119.18325 C 178.663281 118.909813 179.616406 118.452781 180.214063 118.163719 C 180.807813 117.874656 181.760938 117.394188 182.358594 117.0895 C 182.952344 116.780906 183.909375 116.277 184.503125 115.952781 C 185.096875 115.628563 186.053906 115.093406 186.647656 114.753563 C 187.245313 114.413719 188.198438 113.855125 188.792188 113.499656 C 189.389844 113.144188 190.342969 112.562156 190.940625 112.191063 C 191.534375 111.819969 192.491406 111.210594 193.085156 110.819969 C 193.678906 110.43325 194.635938 109.792625 195.229688 109.390281 C 195.827344 108.984031 196.780469 108.319969 197.374219 107.902 C 197.971875 107.480125 198.925 106.796531 199.522656 106.359031 C 200.116406 105.925438 201.069531 105.210594 201.667188 104.757469 C 202.260938 104.304344 203.217969 103.55825 203.811719 103.0895 C 204.405469 102.62075 205.3625 101.855125 205.95625 101.37075 C 206.553906 100.886375 207.507031 100.093406 208.100781 99.593406 C 208.698438 99.093406 209.651563 98.277 210.249219 97.757469 C 210.842969 97.237938 212.39375 95.859031 205.671094 101.847313 " transform="matrix(1,0,0,-1,27.95,191.527)"/>
<path style="fill-rule:nonzero;fill:rgb(92.549133%,0%,54.899597%);fill-opacity:1;stroke-width:0.79701;stroke-linecap:butt;stroke-linejoin:miter;stroke:rgb(92.549133%,0%,54.899597%);stroke-opacity:1;stroke-miterlimit:10;" d="M 8.162802 0.000633908 L 0.399164 3.31743 L 0.398532 -3.317553 Z M 8.162802 0.000633908 " transform="matrix(0.74658,0.6652,0.6652,-0.74658,233.4718,89.54714)"/>
<path style="fill:none;stroke-width:0.3985;stroke-linecap:butt;stroke-linejoin:miter;stroke:rgb(92.549133%,0%,54.899597%);stroke-opacity:1;stroke-miterlimit:10;" d="M -0.00078125 -0.00034375 C -0.00078125 -0.00034375 0.413281 0.741844 0.569531 1.027 C 0.729688 1.312156 0.983594 1.769188 1.14375 2.054344 C 1.3 2.3395 1.553906 2.796531 1.714063 3.081688 C 1.870313 3.366844 2.124219 3.823875 2.284375 4.109031 C 2.440625 4.394188 2.694531 4.855125 2.854688 5.136375 C 3.014844 5.421531 3.26875 5.882469 3.425 6.167625 C 3.585156 6.452781 3.839063 6.909813 3.995313 7.194969 C 4.155469 7.480125 4.409375 7.937156 4.569531 8.222313 C 4.725781 8.507469 4.979688 8.9645 5.139844 9.249656 C 5.296094 9.534813 5.55 9.991844 5.710156 10.277 C 5.866406 10.562156 6.120313 11.019188 6.280469 11.304344 C 6.440625 11.5895 6.694531 12.046531 6.850781 12.331688 C 7.010938 12.616844 7.264844 13.073875 7.421094 13.359031 C 7.58125 13.644188 7.835156 14.101219 7.991406 14.386375 C 8.151563 14.671531 8.405469 15.128563 8.565625 15.413719 C 8.721875 15.698875 8.975781 16.159813 9.135938 16.444969 C 9.292188 16.730125 9.546094 17.187156 9.70625 17.472313 C 9.8625 17.757469 10.120313 18.2145 10.276563 18.499656 C 10.436719 18.784813 10.690625 19.241844 10.846875 19.527 C 11.007031 19.812156 11.260938 20.269188 11.417188 20.554344 C 11.577344 20.8395 11.83125 21.296531 11.991406 21.581688 C 12.147656 21.866844 12.401563 22.323875 12.561719 22.609031 C 12.717969 22.894188 12.971875 23.351219 13.132031 23.636375 C 13.288281 23.921531 13.546094 24.378563 13.702344 24.663719 C 13.8625 24.948875 14.116406 25.405906 14.272656 25.691063 C 14.432813 25.976219 14.686719 26.43325 14.842969 26.718406 C 15.003125 27.003563 15.257031 27.4645 15.417188 27.749656 C 15.573438 28.034813 15.827344 28.491844 15.9875 28.777 C 16.14375 29.062156 16.397656 29.519188 16.557813 29.804344 C 16.714063 30.0895 16.971875 30.546531 17.128125 30.831688 C 17.288281 31.116844 17.542188 31.573875 17.698438 31.859031 C 17.858594 32.144188 18.1125 32.601219 18.26875 32.886375 C 18.428906 33.171531 18.682813 33.628563 18.842969 33.913719 C 18.999219 34.198875 19.253125 34.655906 19.413281 34.941063 C 19.569531 35.226219 19.823438 35.68325 19.983594 35.968406 C 20.139844 36.253563 20.397656 36.710594 20.553906 36.99575 C 20.714063 37.280906 20.967969 37.741844 21.124219 38.027 C 21.284375 38.312156 21.538281 38.769188 21.694531 39.054344 C 21.854688 39.3395 22.108594 39.796531 22.26875 40.081688 C 22.425 40.366844 22.678906 40.823875 22.839063 41.109031 C 22.995313 41.394188 23.249219 41.851219 23.409375 42.136375 C 23.565625 42.421531 23.823438 42.878563 23.979688 43.163719 C 24.139844 43.448875 24.39375 43.905906 24.55 44.191063 C 24.710156 44.476219 24.964063 44.93325 25.120313 45.218406 C 25.280469 45.503563 25.534375 45.960594 25.694531 46.24575 C 25.850781 46.530906 26.104688 46.987938 26.264844 47.273094 C 26.421094 47.55825 26.675 48.015281 26.835156 48.300438 C 26.991406 48.585594 27.245313 49.046531 27.405469 49.331688 C 27.565625 49.616844 27.819531 50.073875 27.975781 50.359031 C 28.135938 50.644188 28.389844 51.101219 28.546094 51.386375 C 28.70625 51.671531 28.960156 52.128563 29.116406 52.413719 C 29.276563 52.698875 29.530469 53.155906 29.690625 53.441063 C 29.846875 53.726219 30.100781 54.18325 30.260938 54.468406 C 30.417188 54.753563 30.671094 55.210594 30.83125 55.49575 C 30.991406 55.780906 31.245313 56.237938 31.401563 56.523094 C 31.561719 56.80825 31.815625 57.265281 31.971875 57.550438 C 32.132031 57.835594 32.385938 58.292625 32.542188 58.577781 C 32.702344 58.862938 32.95625 59.323875 33.116406 59.609031 C 33.272656 59.894188 33.526563 60.351219 33.686719 60.636375 C 33.842969 60.921531 34.096875 61.378563 34.257031 61.663719 C 34.417188 61.948875 34.671094 62.405906 34.827344 62.691063 C 34.9875 62.976219 35.241406 63.43325 35.397656 63.718406 C 35.557813 64.003563 35.811719 64.460594 35.967969 64.74575 C 36.128125 65.030906 36.382031 65.487938 36.542188 65.773094 C 36.698438 66.05825 36.952344 66.515281 37.1125 66.800438 C 37.26875 67.085594 37.522656 67.542625 37.682813 67.827781 C 37.842969 68.112938 38.096875 68.569969 38.253125 68.855125 C 38.413281 69.140281 38.667188 69.597313 38.823438 69.882469 C 38.983594 70.167625 39.2375 70.628563 39.39375 70.913719 C 39.553906 71.198875 39.807813 71.655906 39.967969 71.941063 C 40.124219 72.226219 40.378125 72.68325 40.538281 72.968406 C 40.694531 73.253563 40.948438 73.710594 41.108594 73.99575 C 41.264844 74.280906 41.522656 74.737938 41.678906 75.023094 C 41.839063 75.30825 42.092969 75.765281 42.249219 76.050438 C 42.409375 76.335594 42.663281 76.792625 42.819531 77.077781 C 42.979688 77.362938 43.233594 77.819969 43.39375 78.105125 C 43.55 78.390281 43.803906 78.847313 43.964063 79.132469 C 44.120313 79.417625 44.374219 79.874656 44.534375 80.159813 C 44.690625 80.444969 44.948438 80.902 45.104688 81.187156 C 45.264844 81.472313 45.51875 81.93325 45.675 82.218406 C 45.835156 82.503563 46.089063 82.960594 46.245313 83.24575 C 46.405469 83.530906 46.659375 83.987938 46.819531 84.273094 C 46.975781 84.55825 47.229688 85.015281 47.389844 85.300438 C 47.546094 85.585594 47.8 86.042625 47.960156 86.327781 C 48.116406 86.612938 48.370313 87.069969 48.530469 87.355125 C 48.690625 87.640281 48.944531 88.097313 49.100781 88.382469 C 49.260938 88.667625 49.514844 89.124656 49.671094 89.409813 C 49.83125 89.694969 50.085156 90.152 50.245313 90.437156 C 50.401563 90.722313 50.655469 91.179344 50.815625 91.4645 C 50.971875 91.749656 51.225781 92.206688 51.385938 92.491844 C 51.542188 92.777 51.796094 93.237938 51.95625 93.523094 C 52.116406 93.80825 52.370313 94.265281 52.526563 94.550438 C 52.686719 94.835594 52.940625 95.292625 53.096875 95.577781 C 53.257031 95.862938 53.510938 96.319969 53.671094 96.605125 C 53.827344 96.890281 54.08125 97.347313 54.241406 97.632469 C 54.397656 97.917625 54.651563 98.374656 54.811719 98.659813 C 54.967969 98.944969 55.221875 99.402 55.382031 99.687156 C 55.542188 99.972313 55.796094 100.429344 55.952344 100.7145 C 56.1125 100.999656 56.522656 101.741844 54.780469 98.609031 " transform="matrix(1,0,0,-1,27.95,191.527)"/>
<path style=" stroke:none;fill-rule:nonzero;fill:rgb(92.549133%,0%,54.899597%);fill-opacity:1;" d="M 84.472656 89.785156 C 83.785156 90.617188 82.421875 91.835938 81.230469 92.542969 L 83.84375 93.992188 C 83.816406 92.609375 84.132812 90.808594 84.472656 89.785156 "/>
<path style="fill:none;stroke-width:0.79701;stroke-linecap:butt;stroke-linejoin:miter;stroke:rgb(96.398926%,52.101135%,7.200623%);stroke-opacity:1;stroke-miterlimit:10;" d="M -0.00078125 -0.00034375 C -0.00078125 -0.00034375 1.55 4.171531 2.14375 5.74575 C 2.741406 7.319969 3.694531 9.80825 4.292188 11.351219 C 4.885938 12.894188 5.839063 15.355125 6.436719 16.862938 C 7.030469 18.374656 7.9875 20.757469 8.58125 22.234031 C 9.175 23.7145 10.132031 26.069969 10.725781 27.515281 C 11.323438 28.960594 12.276563 31.241844 12.874219 32.652 C 13.467969 34.066063 14.421094 36.316063 15.01875 37.698875 C 15.6125 39.077781 16.569531 41.257469 17.163281 42.601219 C 17.757031 43.948875 18.714063 46.081688 19.307813 47.398094 C 19.905469 48.7145 20.858594 50.804344 21.452344 52.085594 C 22.05 53.37075 23.003125 55.398094 23.600781 56.648094 C 24.194531 57.898094 25.147656 59.882469 25.745313 61.101219 C 26.339063 62.319969 27.296094 64.24575 27.889844 65.429344 C 28.483594 66.616844 29.440625 68.49575 30.034375 69.652 C 30.632031 70.804344 31.585156 72.628563 32.178906 73.74575 C 32.776563 74.862938 33.729688 76.628563 34.327344 77.718406 C 34.921094 78.804344 35.878125 80.538719 36.471875 81.593406 C 37.065625 82.648094 38.022656 84.30825 38.616406 85.331688 C 39.214063 86.351219 40.167188 87.968406 40.760938 88.960594 C 41.358594 89.948875 42.311719 91.519188 42.909375 92.476219 C 43.503125 93.437156 44.45625 94.944969 45.053906 95.874656 C 45.647656 96.800438 46.604688 98.265281 47.198438 99.159813 C 47.792188 100.054344 48.749219 101.460594 49.342969 102.319969 C 49.940625 103.179344 50.89375 104.527 51.4875 105.355125 C 52.085156 106.18325 53.038281 107.484031 53.635938 108.284813 C 54.229688 109.081688 55.182813 110.335594 55.780469 111.101219 C 56.374219 111.866844 57.33125 113.066063 57.925 113.796531 C 58.522656 114.527 59.475781 115.667625 60.069531 116.362938 C 60.667188 117.062156 61.620313 118.155906 62.217969 118.823875 C 62.811719 119.491844 63.764844 120.542625 64.3625 121.175438 C 64.95625 121.812156 65.913281 122.804344 66.507031 123.402 C 67.100781 124.003563 68.057813 124.937156 68.651563 125.503563 C 69.249219 126.073875 70.202344 126.960594 70.796094 127.499656 C 71.39375 128.034813 72.346875 128.878563 72.944531 129.382469 C 73.538281 129.886375 74.491406 130.671531 75.089063 131.140281 C 75.682813 131.612938 76.639844 132.3395 77.233594 132.777 C 77.827344 133.2145 78.784375 133.894188 79.378125 134.304344 C 79.975781 134.710594 80.928906 135.343406 81.526563 135.718406 C 82.120313 136.097313 83.073438 136.671531 83.671094 137.011375 C 84.264844 137.355125 85.221875 137.87075 85.815625 138.179344 C 86.409375 138.487938 87.366406 138.960594 87.960156 139.237938 C 88.557813 139.519188 89.510938 139.941063 90.104688 140.187156 C 90.702344 140.437156 91.655469 140.804344 92.253125 141.015281 C 92.846875 141.226219 93.8 141.534813 94.397656 141.7145 C 94.991406 141.894188 95.948438 142.159813 96.542188 142.30825 C 97.135938 142.452781 98.092969 142.659813 98.686719 142.773094 C 99.284375 142.886375 100.2375 143.050438 100.83125 143.132469 C 101.428906 143.2145 102.382031 143.316063 102.979688 143.366844 C 103.573438 143.413719 104.530469 143.472313 105.124219 143.491844 C 105.717969 143.511375 106.675 143.519188 107.26875 143.503563 C 107.866406 143.491844 108.819531 143.444969 109.413281 143.398094 C 110.010938 143.347313 110.964063 143.241844 111.561719 143.163719 C 112.155469 143.081688 113.108594 142.93325 113.70625 142.819969 C 114.3 142.706688 115.257031 142.499656 115.850781 142.355125 C 116.444531 142.206688 117.401563 141.952781 117.995313 141.777 C 118.592969 141.601219 119.546094 141.284813 120.139844 141.077781 C 120.7375 140.866844 121.690625 140.507469 122.288281 140.265281 C 122.882031 140.023094 123.839063 139.605125 124.432813 139.331688 C 125.026563 139.05825 125.983594 138.597313 126.577344 138.288719 C 127.175 137.984031 128.128125 137.460594 128.721875 137.12075 C 129.319531 136.780906 130.272656 136.2145 130.870313 135.843406 C 131.464063 135.472313 132.417188 134.847313 133.014844 134.441063 C 133.608594 134.038719 134.565625 133.37075 135.159375 132.93325 C 135.753125 132.49575 136.710156 131.765281 137.303906 131.296531 C 137.901563 130.827781 138.854688 130.054344 139.448438 129.554344 C 140.046094 129.054344 140.999219 128.218406 141.596875 127.68325 C 142.190625 127.152 143.14375 126.273094 143.741406 125.706688 C 144.335156 125.140281 145.292188 124.202781 145.885938 123.605125 C 146.483594 123.007469 147.436719 122.027 148.030469 121.394188 C 148.628125 120.765281 149.58125 119.722313 150.178906 119.05825 C 150.772656 118.394188 151.725781 117.30825 152.323438 116.612938 C 152.917188 115.917625 153.874219 114.773094 154.467969 114.042625 C 155.061719 113.316063 156.01875 112.128563 156.6125 111.366844 C 157.210156 110.605125 158.163281 109.355125 158.757031 108.562156 C 159.354688 107.769188 160.307813 106.476219 160.905469 105.652 C 161.499219 104.827781 162.452344 103.472313 163.05 102.616844 C 163.64375 101.757469 164.600781 100.359031 165.194531 99.468406 C 165.788281 98.581688 166.745313 97.124656 167.339063 96.198875 C 167.936719 95.277 168.889844 93.761375 169.4875 92.804344 C 170.08125 91.847313 171.034375 90.288719 171.632031 89.300438 C 172.225781 88.316063 173.182813 86.706688 173.776563 85.687156 C 174.370313 84.667625 175.327344 83.003563 175.921094 81.952781 C 176.51875 80.898094 177.471875 79.191063 178.065625 78.105125 C 178.663281 77.023094 179.616406 75.253563 180.214063 74.136375 C 180.807813 73.019188 181.760938 71.202781 182.358594 70.054344 C 182.952344 68.905906 183.909375 67.034813 184.503125 65.851219 C 185.096875 64.667625 186.053906 62.737938 186.647656 61.523094 C 187.245313 60.304344 188.198438 58.331688 188.792188 57.085594 C 189.389844 55.8395 190.342969 53.816063 190.940625 52.538719 C 191.534375 51.257469 192.491406 49.179344 193.085156 47.866844 C 193.678906 46.554344 194.635938 44.417625 195.229688 43.069969 C 195.827344 41.726219 196.780469 39.542625 197.374219 38.163719 C 197.971875 36.788719 198.925 34.55825 199.522656 33.152 C 200.116406 31.741844 201.069531 29.456688 201.667188 28.011375 C 202.260938 26.569969 203.217969 24.226219 203.811719 22.749656 C 204.405469 21.273094 205.3625 18.882469 205.95625 17.378563 C 206.553906 15.87075 207.507031 13.43325 208.100781 11.898094 C 208.698438 10.359031 209.651563 7.862938 210.249219 6.288719 C 210.842969 4.718406 212.39375 0.562156 212.39375 0.562156 " transform="matrix(1,0,0,-1,27.95,191.527)"/>
<path style="fill:none;stroke-width:0.79701;stroke-linecap:butt;stroke-linejoin:miter;stroke:rgb(96.398926%,52.101135%,7.200623%);stroke-opacity:1;stroke-miterlimit:10;" d="M -0.00078125 -0.00034375 C -0.00078125 -0.00034375 0.823438 2.222313 1.14375 3.066063 C 1.460156 3.913719 1.967969 5.265281 2.284375 6.105125 C 2.600781 6.941063 3.108594 8.280906 3.425 9.109031 C 3.741406 9.937156 4.249219 11.249656 4.569531 12.066063 C 4.885938 12.886375 5.39375 14.198875 5.710156 15.011375 C 6.026563 15.819969 6.534375 17.109031 6.850781 17.905906 C 7.167188 18.706688 7.675 19.980125 7.991406 20.773094 C 8.311719 21.562156 8.819531 22.823875 9.135938 23.605125 C 9.452344 24.386375 9.960156 25.636375 10.276563 26.409813 C 10.592969 27.18325 11.100781 28.417625 11.417188 29.179344 C 11.7375 29.944969 12.245313 31.167625 12.561719 31.921531 C 12.878125 32.675438 13.385938 33.87075 13.702344 34.616844 C 14.01875 35.359031 14.526563 36.55825 14.842969 37.292625 C 15.163281 38.030906 15.671094 39.198875 15.9875 39.925438 C 16.303906 40.652 16.811719 41.80825 17.128125 42.527 C 17.444531 43.241844 17.952344 44.386375 18.26875 45.093406 C 18.589063 45.804344 19.096875 46.93325 19.413281 47.632469 C 19.729688 48.331688 20.2375 49.448875 20.553906 50.140281 C 20.870313 50.831688 21.378125 51.93325 21.694531 52.616844 C 22.010938 53.296531 22.522656 54.374656 22.839063 55.042625 C 23.155469 55.7145 23.663281 56.796531 23.979688 57.456688 C 24.296094 58.12075 24.803906 59.171531 25.120313 59.823875 C 25.436719 60.476219 25.948438 61.515281 26.264844 62.159813 C 26.58125 62.804344 27.089063 63.831688 27.405469 64.4645 C 27.721875 65.101219 28.229688 66.112938 28.546094 66.737938 C 28.8625 67.366844 29.374219 68.366844 29.690625 68.980125 C 30.007031 69.597313 30.514844 70.569969 30.83125 71.175438 C 31.147656 71.784813 31.655469 72.757469 31.971875 73.355125 C 32.288281 73.956688 32.8 74.902 33.116406 75.487938 C 33.432813 76.077781 33.940625 77.011375 34.257031 77.593406 C 34.573438 78.171531 35.08125 79.093406 35.397656 79.663719 C 35.714063 80.234031 36.225781 81.140281 36.542188 81.702781 C 36.858594 82.265281 37.366406 83.159813 37.682813 83.710594 C 37.999219 84.265281 38.507031 85.144188 38.823438 85.687156 C 39.139844 86.234031 39.651563 87.101219 39.967969 87.636375 C 40.284375 88.167625 40.792188 89.011375 41.108594 89.534813 C 41.425 90.05825 41.932813 90.902 42.249219 91.417625 C 42.565625 91.937156 43.073438 92.749656 43.39375 93.257469 C 43.710156 93.761375 44.217969 94.566063 44.534375 95.062156 C 44.850781 95.55825 45.358594 96.351219 45.675 96.8395 C 45.991406 97.327781 46.499219 98.101219 46.819531 98.581688 C 47.135938 99.062156 47.64375 99.827781 47.960156 100.296531 C 48.276563 100.765281 48.784375 101.499656 49.100781 101.960594 C 49.417188 102.421531 49.925 103.159813 50.245313 103.612938 C 50.561719 104.062156 51.069531 104.777 51.385938 105.2145 C 51.702344 105.655906 52.210156 106.355125 52.526563 106.788719 C 52.842969 107.218406 53.350781 107.905906 53.671094 108.331688 C 53.9875 108.753563 54.495313 109.425438 54.811719 109.8395 C 55.128125 110.253563 55.635938 110.913719 55.952344 111.319969 C 56.26875 111.726219 56.776563 112.37075 57.096875 112.769188 C 57.413281 113.163719 57.921094 113.780906 58.2375 114.167625 C 58.553906 114.554344 59.061719 115.175438 59.378125 115.554344 C 59.694531 115.93325 60.202344 116.527 60.51875 116.894188 C 60.839063 117.261375 61.346875 117.843406 61.663281 118.202781 C 61.979688 118.562156 62.4875 119.128563 62.803906 119.480125 C 63.120313 119.827781 63.628125 120.382469 63.944531 120.726219 C 64.264844 121.066063 64.772656 121.605125 65.089063 121.941063 C 65.405469 122.273094 65.913281 122.800438 66.229688 123.12075 C 66.546094 123.444969 67.053906 123.960594 67.370313 124.273094 C 67.690625 124.5895 68.198438 125.077781 68.514844 125.378563 C 68.83125 125.68325 69.339063 126.159813 69.655469 126.456688 C 69.971875 126.749656 70.479688 127.210594 70.796094 127.499656 C 71.116406 127.784813 71.624219 128.249656 71.940625 128.527 C 72.257031 128.800438 72.764844 129.226219 73.08125 129.491844 C 73.397656 129.757469 73.905469 130.18325 74.221875 130.441063 C 74.542188 130.698875 75.05 131.109031 75.366406 131.359031 C 75.682813 131.609031 76.190625 132.007469 76.507031 132.24575 C 76.823438 132.487938 77.33125 132.859031 77.647656 133.0895 C 77.964063 133.316063 78.475781 133.679344 78.792188 133.898094 C 79.108594 134.116844 79.616406 134.4645 79.932813 134.675438 C 80.249219 134.890281 80.757031 135.237938 81.073438 135.441063 C 81.389844 135.644188 81.901563 135.948875 82.217969 136.140281 C 82.534375 136.331688 83.042188 136.640281 83.358594 136.823875 C 83.675 137.011375 84.182813 137.304344 84.499219 137.480125 C 84.815625 137.655906 85.327344 137.921531 85.64375 138.085594 C 85.960156 138.253563 86.467969 138.519188 86.784375 138.679344 C 87.100781 138.835594 87.608594 139.077781 87.925 139.222313 C 88.241406 139.37075 88.753125 139.597313 89.069531 139.737938 C 89.385938 139.874656 89.89375 140.0895 90.210156 140.218406 C 90.526563 140.351219 91.034375 140.550438 91.350781 140.671531 C 91.667188 140.792625 92.178906 140.980125 92.495313 141.093406 C 92.811719 141.202781 93.319531 141.378563 93.635938 141.480125 C 93.952344 141.581688 94.460156 141.730125 94.776563 141.823875 C 95.092969 141.917625 95.604688 142.066063 95.921094 142.152 C 96.2375 142.234031 96.745313 142.359031 97.061719 142.429344 C 97.378125 142.503563 97.885938 142.616844 98.202344 142.679344 C 98.51875 142.74575 99.026563 142.843406 99.346875 142.898094 C 99.663281 142.952781 100.171094 143.038719 100.4875 143.085594 C 100.803906 143.132469 101.311719 143.202781 101.628125 143.241844 C 101.944531 143.277 102.452344 143.319969 102.772656 143.351219 C 103.089063 143.378563 103.596875 143.425438 103.913281 143.444969 C 104.229688 143.4645 104.7375 143.480125 105.053906 143.491844 C 105.370313 143.499656 105.878125 143.503563 106.198438 143.503563 C 106.514844 143.507469 107.022656 143.511375 107.339063 143.503563 C 107.655469 143.499656 108.163281 143.480125 108.479688 143.460594 C 108.796094 143.441063 109.303906 143.394188 109.624219 143.366844 C 109.940625 143.335594 110.448438 143.292625 110.764844 143.257469 C 111.08125 143.222313 111.589063 143.159813 111.905469 143.116844 C 112.221875 143.069969 113.046094 142.929344 104.175 144.452781 " transform="matrix(1,0,0,-1,27.95,191.527)"/>
<path style="fill-rule:nonzero;fill:rgb(96.398926%,52.101135%,7.200623%);fill-opacity:1;stroke-width:0.79701;stroke-linecap:butt;stroke-linejoin:miter;stroke:rgb(96.398926%,52.101135%,7.200623%);stroke-opacity:1;stroke-miterlimit:10;" d="M 8.163709 -0.000425266 L 0.400106 3.315239 L 0.398621 0.00137778 L 0.397798 -3.316333 Z M 8.163709 -0.000425266 " transform="matrix(0.98552,0.1693,0.1693,-0.98552,131.92723,47.03934)"/>
<path style="fill:none;stroke-width:0.3985;stroke-linecap:butt;stroke-linejoin:miter;stroke:rgb(96.398926%,52.101135%,7.200623%);stroke-opacity:1;stroke-miterlimit:10;" d="M -0.00078125 -0.00034375 C -0.00078125 -0.00034375 0.296094 0.796531 0.409375 1.105125 C 0.526563 1.413719 0.70625 1.909813 0.823438 2.218406 C 0.936719 2.527 1.120313 3.015281 1.233594 3.323875 C 1.346875 3.632469 1.530469 4.128563 1.64375 4.437156 C 1.757031 4.74575 1.940625 5.234031 2.053906 5.542625 C 2.167188 5.851219 2.350781 6.347313 2.464063 6.655906 C 2.58125 6.9645 2.760938 7.452781 2.878125 7.761375 C 2.991406 8.069969 3.175 8.566063 3.288281 8.874656 C 3.401563 9.18325 3.585156 9.671531 3.698438 9.980125 C 3.811719 10.288719 3.995313 10.784813 4.108594 11.093406 C 4.221875 11.402 4.405469 11.890281 4.51875 12.198875 C 4.635938 12.507469 4.815625 13.007469 4.932813 13.312156 C 5.046094 13.62075 5.229688 14.112938 5.342969 14.417625 C 5.45625 14.726219 5.639844 15.226219 5.753125 15.530906 C 5.866406 15.8395 6.05 16.331688 6.163281 16.636375 C 6.276563 16.944969 6.460156 17.444969 6.573438 17.749656 C 6.686719 18.05825 6.870313 18.550438 6.983594 18.855125 C 7.100781 19.163719 7.280469 19.663719 7.397656 19.968406 C 7.510938 20.277 7.694531 20.769188 7.807813 21.073875 C 7.921094 21.382469 8.104688 21.882469 8.217969 22.187156 C 8.33125 22.49575 8.514844 22.987938 8.628125 23.296531 C 8.741406 23.601219 8.925 24.101219 9.038281 24.409813 C 9.155469 24.7145 9.335156 25.206688 9.452344 25.515281 C 9.565625 25.819969 9.749219 26.319969 9.8625 26.628563 C 9.975781 26.93325 10.159375 27.425438 10.272656 27.734031 C 10.385938 28.038719 10.569531 28.538719 10.682813 28.847313 C 10.796094 29.152 10.979688 29.644188 11.092969 29.952781 C 11.210156 30.257469 11.389844 30.757469 11.507031 31.066063 C 11.620313 31.37075 11.803906 31.862938 11.917188 32.171531 C 12.030469 32.476219 12.214063 32.976219 12.327344 33.284813 C 12.440625 33.593406 12.624219 34.081688 12.7375 34.390281 C 12.850781 34.698875 13.034375 35.194969 13.147656 35.503563 C 13.264844 35.812156 13.444531 36.300438 13.561719 36.609031 C 13.675 36.917625 13.858594 37.413719 13.971875 37.722313 C 14.085156 38.030906 14.26875 38.519188 14.382031 38.827781 C 14.495313 39.136375 14.678906 39.632469 14.792188 39.941063 C 14.905469 40.249656 15.089063 40.737938 15.202344 41.046531 C 15.319531 41.355125 15.499219 41.851219 15.616406 42.159813 C 15.729688 42.468406 15.913281 42.956688 16.026563 43.265281 C 16.139844 43.573875 16.323438 44.069969 16.436719 44.378563 C 16.55 44.687156 16.733594 45.175438 16.846875 45.484031 C 16.960156 45.792625 17.14375 46.288719 17.257031 46.597313 C 17.370313 46.905906 17.553906 47.394188 17.667188 47.702781 C 17.784375 48.011375 17.964063 48.507469 18.08125 48.816063 C 18.194531 49.124656 18.378125 49.612938 18.491406 49.921531 C 18.604688 50.230125 18.788281 50.726219 18.901563 51.034813 C 19.014844 51.343406 19.198438 51.831688 19.311719 52.140281 C 19.425 52.448875 19.608594 52.944969 19.721875 53.253563 C 19.839063 53.562156 20.01875 54.050438 20.135938 54.359031 C 20.249219 54.667625 20.432813 55.163719 20.546094 55.472313 C 20.659375 55.780906 20.842969 56.269188 20.95625 56.577781 C 21.069531 56.886375 21.253125 57.382469 21.366406 57.691063 C 21.479688 57.999656 21.663281 58.487938 21.776563 58.796531 C 21.89375 59.105125 22.073438 59.601219 22.190625 59.909813 C 22.303906 60.218406 22.4875 60.706688 22.600781 61.015281 C 22.714063 61.323875 22.897656 61.819969 23.010938 62.128563 C 23.124219 62.437156 23.307813 62.929344 23.421094 63.234031 C 23.534375 63.542625 23.717969 64.038719 23.83125 64.347313 C 23.948438 64.655906 24.128125 65.148094 24.245313 65.452781 C 24.358594 65.761375 24.542188 66.261375 24.655469 66.566063 C 24.76875 66.874656 24.952344 67.366844 25.065625 67.671531 C 25.178906 67.980125 25.3625 68.480125 25.475781 68.784813 C 25.589063 69.093406 25.772656 69.585594 25.885938 69.890281 C 26.003125 70.198875 26.182813 70.698875 26.3 71.003563 C 26.413281 71.312156 26.596875 71.804344 26.710156 72.109031 C 26.823438 72.417625 27.007031 72.917625 27.120313 73.226219 C 27.233594 73.530906 27.417188 74.023094 27.530469 74.331688 C 27.64375 74.636375 27.827344 75.136375 27.940625 75.444969 C 28.053906 75.749656 28.2375 76.241844 28.354688 76.550438 C 28.467969 76.855125 28.651563 77.355125 28.764844 77.663719 C 28.878125 77.968406 29.061719 78.460594 29.175 78.769188 C 29.288281 79.073875 29.471875 79.573875 29.585156 79.882469 C 29.698438 80.187156 29.882031 80.679344 29.995313 80.987938 C 30.108594 81.292625 30.292188 81.792625 30.405469 82.101219 C 30.522656 82.405906 30.702344 82.898094 30.819531 83.206688 C 30.932813 83.511375 31.116406 84.011375 31.229688 84.319969 C 31.342969 84.628563 31.526563 85.116844 31.639844 85.425438 C 31.753125 85.734031 31.936719 86.230125 32.05 86.538719 C 32.163281 86.847313 32.346875 87.335594 32.460156 87.644188 C 32.577344 87.952781 32.757031 88.448875 32.874219 88.757469 C 32.9875 89.066063 33.171094 89.554344 33.284375 89.862938 C 33.397656 90.171531 33.58125 90.667625 33.694531 90.976219 C 33.807813 91.284813 33.991406 91.773094 34.104688 92.081688 C 34.217969 92.390281 34.401563 92.886375 34.514844 93.194969 C 34.632031 93.503563 34.811719 93.991844 34.928906 94.300438 C 35.042188 94.609031 35.225781 95.105125 35.339063 95.413719 C 35.452344 95.722313 35.635938 96.210594 35.749219 96.519188 C 35.8625 96.827781 36.046094 97.323875 36.159375 97.632469 C 36.272656 97.941063 36.45625 98.429344 36.569531 98.737938 C 36.686719 99.046531 36.866406 99.542625 36.983594 99.851219 C 37.096875 100.159813 37.280469 100.648094 37.39375 100.956688 C 37.507031 101.265281 37.690625 101.761375 37.803906 102.069969 C 37.917188 102.378563 38.100781 102.866844 38.214063 103.175438 C 38.327344 103.484031 38.510938 103.980125 38.624219 104.288719 C 38.741406 104.597313 38.921094 105.085594 39.038281 105.394188 C 39.151563 105.702781 39.335156 106.198875 39.448438 106.507469 C 39.561719 106.816063 39.745313 107.304344 39.858594 107.612938 C 39.971875 107.921531 40.155469 108.417625 40.26875 108.726219 C 40.382031 109.034813 40.565625 109.523094 40.678906 109.831688 C 40.796094 110.140281 41.092969 110.944969 39.850781 107.581688 " transform="matrix(1,0,0,-1,27.95,191.527)"/>
<path style=" stroke:none;fill-rule:nonzero;fill:rgb(96.398926%,52.101135%,7.200623%);fill-opacity:1;" d="M 69.042969 80.582031 C 68.488281 81.507812 67.328125 82.921875 66.261719 83.804688 L 69.066406 84.835938 C 68.824219 83.472656 68.859375 81.648438 69.042969 80.582031 "/>
<path style="fill:none;stroke-width:0.79701;stroke-linecap:butt;stroke-linejoin:miter;stroke:rgb(37.29248%,8.787537%,3.515625%);stroke-opacity:1;stroke-miterlimit:10;" d="M -0.00078125 -0.00034375 C -0.00078125 -0.00034375 0.514844 5.593406 0.714063 7.706688 C 0.913281 9.819969 1.229688 13.167625 1.428906 15.230125 C 1.624219 17.288719 1.944531 20.554344 2.139844 22.562156 C 2.339063 24.573875 2.655469 27.753563 2.854688 29.710594 C 3.053906 31.667625 3.370313 34.737938 3.569531 36.671531 C 3.764844 38.601219 4.085156 41.749656 4.280469 43.632469 C 4.479688 45.511375 4.796094 48.390281 4.995313 50.218406 C 5.194531 52.046531 5.510938 55.003563 5.710156 56.804344 C 5.905469 58.605125 6.225781 61.452781 6.425 63.202781 C 6.620313 64.952781 6.940625 67.718406 7.135938 69.417625 C 7.335156 71.112938 7.651563 73.769188 7.850781 75.444969 C 8.05 77.116844 8.366406 79.847313 8.565625 81.468406 C 8.760938 83.0895 9.08125 85.554344 9.276563 87.12075 C 9.475781 88.691063 9.792188 91.230125 9.991406 92.773094 C 10.190625 94.316063 10.507031 96.749656 10.70625 98.237938 C 10.901563 99.730125 11.221875 102.077781 11.417188 103.519188 C 11.616406 104.956688 11.932813 107.198875 12.132031 108.609031 C 12.33125 110.023094 12.647656 112.316063 12.846875 113.702781 C 13.046094 115.0895 13.3625 117.296531 13.561719 118.605125 C 13.757031 119.917625 14.077344 121.882469 14.272656 123.136375 C 14.471875 124.394188 14.788281 126.437156 14.9875 127.671531 C 15.186719 128.902 15.503125 130.80825 15.702344 132.015281 C 15.897656 133.218406 16.217969 135.202781 16.413281 136.359031 C 16.6125 137.511375 16.928906 139.226219 17.128125 140.327781 C 17.327344 141.429344 17.64375 143.222313 17.842969 144.300438 C 18.038281 145.374656 18.358594 147.05825 18.553906 148.085594 C 18.753125 149.109031 19.073438 150.706688 19.26875 151.679344 C 19.467969 152.652 19.784375 154.171531 19.983594 155.0895 C 20.182813 156.011375 20.499219 157.421531 20.698438 158.312156 C 20.89375 159.206688 21.214063 160.694969 21.409375 161.538719 C 21.608594 162.378563 21.925 163.597313 22.124219 164.386375 C 22.323438 165.179344 22.639844 166.472313 22.839063 167.237938 C 23.034375 167.999656 23.354688 169.187156 23.55 169.898094 C 23.749219 170.612938 24.065625 171.687156 24.264844 172.374656 C 24.464063 173.062156 24.780469 174.2145 24.979688 174.851219 C 25.175 175.484031 25.495313 176.37075 25.694531 176.952781 C 25.889844 177.534813 26.210156 178.49575 26.405469 179.054344 C 26.604688 179.612938 26.921094 180.4645 27.120313 180.968406 C 27.319531 181.476219 27.635938 182.24575 27.835156 182.698875 C 28.030469 183.152 28.350781 183.8395 28.546094 184.241844 C 28.745313 184.640281 29.061719 185.218406 29.260938 185.593406 C 29.460156 185.972313 29.776563 186.624656 29.975781 186.948875 C 30.171094 187.273094 30.491406 187.659813 30.686719 187.929344 C 30.885938 188.202781 31.202344 188.663719 31.401563 188.909813 C 31.600781 189.159813 31.917188 189.511375 32.116406 189.706688 C 32.315625 189.902 32.632031 190.144188 32.83125 190.312156 C 33.026563 190.480125 33.346875 190.804344 33.542188 190.921531 C 33.741406 191.038719 34.057813 191.0895 34.257031 191.152 C 34.45625 191.218406 34.772656 191.347313 34.971875 191.386375 C 35.167188 191.425438 35.4875 191.448875 35.682813 191.43325 C 35.882031 191.421531 36.198438 191.359031 36.397656 191.292625 C 36.596875 191.230125 36.913281 191.05825 37.1125 190.968406 C 37.307813 190.874656 37.628125 190.780906 37.827344 190.640281 C 38.022656 190.499656 38.342969 190.132469 38.538281 189.941063 C 38.7375 189.74575 39.053906 189.460594 39.253125 189.237938 C 39.452344 189.019188 39.76875 188.624656 39.967969 188.351219 C 40.163281 188.077781 40.483594 187.601219 40.678906 187.277 C 40.878125 186.952781 41.194531 186.390281 41.39375 186.015281 C 41.592969 185.640281 41.909375 184.968406 42.108594 184.566063 C 42.303906 184.163719 42.624219 183.546531 42.819531 183.12075 C 43.01875 182.691063 43.335156 181.9645 43.534375 181.484031 C 43.733594 181.003563 44.05 180.194969 44.249219 179.663719 C 44.444531 179.132469 44.764844 178.237938 44.964063 177.652 C 45.159375 177.069969 45.479688 176.093406 45.675 175.456688 C 45.874219 174.823875 46.190625 173.737938 46.389844 173.073875 C 46.589063 172.413719 46.905469 171.378563 47.104688 170.694969 C 47.3 170.007469 47.620313 168.862938 47.815625 168.124656 C 48.014844 167.386375 48.33125 166.159813 48.530469 165.366844 C 48.729688 164.577781 49.046094 163.269188 49.245313 162.425438 C 49.440625 161.581688 49.760938 160.191063 49.95625 159.296531 C 50.155469 158.402 50.471875 156.898094 50.671094 155.980125 C 50.870313 155.05825 51.186719 153.609031 51.385938 152.659813 C 51.585156 151.7145 51.901563 150.155906 52.100781 149.159813 C 52.296094 148.159813 52.616406 146.519188 52.811719 145.468406 C 53.010938 144.417625 53.327344 142.691063 53.526563 141.5895 C 53.725781 140.487938 54.042188 138.679344 54.241406 137.527 C 54.436719 136.37075 54.757031 134.456688 54.952344 133.277 C 55.151563 132.097313 55.467969 130.230125 55.667188 129.023094 C 55.866406 127.819969 56.182813 125.843406 56.382031 124.585594 C 56.577344 123.327781 56.897656 121.269188 57.096875 119.960594 C 57.292188 118.652 57.6125 116.511375 57.807813 115.152 C 58.007031 113.788719 58.323438 111.538719 58.522656 110.152 C 58.721875 108.765281 59.038281 106.593406 59.2375 105.152 C 59.432813 103.7145 59.753125 101.273094 59.948438 99.780906 C 60.147656 98.292625 60.464063 95.925438 60.663281 94.409813 C 60.8625 92.894188 61.178906 90.417625 61.378125 88.851219 C 61.573438 87.280906 61.89375 84.726219 62.089063 83.105125 C 62.288281 81.484031 62.604688 78.816063 62.803906 77.171531 C 63.003125 75.527 63.319531 72.909813 63.51875 71.237938 C 63.717969 69.566063 64.034375 66.87075 64.233594 65.12075 C 64.428906 63.37075 64.749219 60.429344 64.944531 58.624656 C 65.14375 56.823875 65.460156 53.93325 65.659375 52.132469 C 65.858594 50.331688 66.175 47.491844 66.374219 45.640281 C 66.569531 43.784813 66.889844 40.702781 67.085156 38.773094 C 67.284375 36.8395 67.600781 33.675438 67.8 31.718406 C 67.999219 29.761375 68.315625 26.648094 68.514844 24.663719 C 68.710156 22.68325 69.030469 19.460594 69.225781 17.425438 C 69.425 15.390281 69.741406 12.085594 69.940625 9.99575 C 70.139844 7.909813 70.655469 2.382469 70.655469 2.382469 " transform="matrix(1,0,0,-1,27.95,191.527)"/>
<path style="fill:none;stroke-width:0.79701;stroke-linecap:butt;stroke-linejoin:miter;stroke:rgb(37.29248%,8.787537%,3.515625%);stroke-opacity:1;stroke-miterlimit:10;" d="M -0.00078125 -0.00034375 C -0.00078125 -0.00034375 0.389844 4.218406 0.542188 5.8395 C 0.690625 7.460594 0.932813 10.109031 1.08125 11.679344 C 1.229688 13.24575 1.471875 15.601219 1.620313 17.144188 C 1.772656 18.687156 2.010938 21.253563 2.163281 22.796531 C 2.311719 24.3395 2.553906 26.773094 2.702344 28.261375 C 2.854688 29.753563 3.092969 32.077781 3.245313 33.538719 C 3.39375 35.003563 3.635938 37.382469 3.784375 38.819969 C 3.932813 40.257469 4.175 42.499656 4.323438 43.909813 C 4.475781 45.323875 4.717969 47.5895 4.866406 49.003563 C 5.014844 50.417625 5.257031 52.706688 5.405469 54.093406 C 5.557813 55.480125 5.796094 57.663719 5.948438 58.999656 C 6.096875 60.335594 6.339063 62.409813 6.4875 63.718406 C 6.639844 65.027 6.878125 67.128563 7.030469 68.437156 C 7.178906 69.74575 7.421094 71.87075 7.569531 73.155906 C 7.717969 74.437156 7.960156 76.452781 8.108594 77.687156 C 8.260938 78.917625 8.499219 80.800438 8.651563 82.030906 C 8.8 83.261375 9.042188 85.355125 9.190625 86.562156 C 9.342969 87.765281 9.58125 89.566063 9.733594 90.718406 C 9.882031 91.87075 10.124219 93.722313 10.272656 94.874656 C 10.421094 96.030906 10.663281 97.905906 10.811719 99.034813 C 10.964063 100.159813 11.202344 101.902 11.354688 103.003563 C 11.503125 104.105125 11.745313 105.898094 11.89375 106.976219 C 12.046094 108.050438 12.284375 109.710594 12.436719 110.757469 C 12.585156 111.80825 12.827344 113.519188 12.975781 114.542625 C 13.124219 115.566063 13.366406 117.140281 13.514844 118.140281 C 13.667188 119.136375 13.905469 120.737938 14.057813 121.737938 C 14.20625 122.734031 14.448438 124.362938 14.596875 125.335594 C 14.749219 126.304344 14.9875 127.823875 15.139844 128.74575 C 15.288281 129.663719 15.530469 131.073875 15.678906 131.968406 C 15.83125 132.862938 16.069531 134.323875 16.221875 135.191063 C 16.370313 136.05825 16.6125 137.386375 16.760938 138.226219 C 16.909375 139.069969 17.151563 140.421531 17.3 141.261375 C 17.452344 142.105125 17.690625 143.484031 17.842969 144.300438 C 17.991406 145.116844 18.233594 146.386375 18.382031 147.148094 C 18.534375 147.913719 18.772656 149.046531 18.925 149.812156 C 19.073438 150.577781 19.315625 151.921531 19.464063 152.659813 C 19.6125 153.402 19.854688 154.448875 20.003125 155.136375 C 20.155469 155.823875 20.39375 156.925438 20.546094 157.612938 C 20.694531 158.300438 20.936719 159.429344 21.085156 160.0895 C 21.2375 160.749656 21.475781 161.741844 21.628125 162.378563 C 21.776563 163.011375 22.01875 164.05825 22.167188 164.667625 C 22.315625 165.277 22.557813 166.187156 22.70625 166.769188 C 22.858594 167.351219 23.096875 168.312156 23.249219 168.87075 C 23.397656 169.429344 23.639844 170.253563 23.788281 170.784813 C 23.940625 171.319969 24.178906 172.194969 24.33125 172.702781 C 24.479688 173.206688 24.721875 173.952781 24.870313 174.429344 C 25.022656 174.909813 25.260938 175.706688 25.413281 176.159813 C 25.561719 176.612938 25.803906 177.273094 25.952344 177.698875 C 26.100781 178.128563 26.342969 178.8395 26.491406 179.241844 C 26.64375 179.644188 26.882031 180.222313 27.034375 180.597313 C 27.182813 180.972313 27.425 181.573875 27.573438 181.952781 C 27.725781 182.327781 27.964063 182.956688 28.116406 183.304344 C 28.264844 183.655906 28.507031 184.175438 28.655469 184.472313 C 28.803906 184.773094 29.046094 185.18325 29.194531 185.456688 C 29.346875 185.726219 29.585156 186.163719 29.7375 186.437156 C 29.885938 186.706688 30.128125 187.171531 30.276563 187.417625 C 30.428906 187.663719 30.667188 188.015281 30.819531 188.210594 C 30.967969 188.405906 31.210156 188.624656 31.358594 188.819969 C 31.507031 189.011375 31.749219 189.444969 31.897656 189.612938 C 32.05 189.780906 32.288281 189.917625 32.440625 190.030906 C 32.589063 190.148094 32.83125 190.335594 32.979688 190.452781 C 33.132031 190.569969 33.370313 190.784813 33.522656 190.874656 C 33.671094 190.9645 33.913281 191.042625 34.061719 191.109031 C 34.214063 191.171531 34.452344 191.300438 34.604688 191.3395 C 34.753125 191.378563 34.995313 191.374656 35.14375 191.386375 C 35.292188 191.402 35.534375 191.448875 35.682813 191.43325 C 35.835156 191.421531 36.073438 191.331688 36.225781 191.292625 C 36.374219 191.253563 36.616406 191.218406 36.764844 191.152 C 36.917188 191.0895 37.155469 190.917625 37.307813 190.827781 C 37.45625 190.737938 37.698438 190.5895 37.846875 190.499656 C 37.995313 190.409813 38.2375 190.288719 38.385938 190.171531 C 38.538281 190.05825 38.776563 189.827781 38.928906 189.659813 C 39.077344 189.491844 39.319531 189.152 39.467969 188.956688 C 39.620313 188.765281 39.858594 188.476219 40.010938 188.257469 C 40.159375 188.038719 40.401563 187.616844 40.55 187.37075 C 40.702344 187.124656 40.940625 186.730125 41.092969 186.484031 C 41.241406 186.237938 41.483594 185.866844 41.632031 185.593406 C 41.780469 185.323875 42.022656 184.819969 42.171094 184.519188 C 42.323438 184.222313 42.561719 183.769188 42.714063 183.444969 C 42.8625 183.12075 43.104688 182.562156 43.253125 182.18325 C 43.405469 181.80825 43.64375 181.136375 43.796094 180.737938 C 43.944531 180.335594 44.186719 179.691063 44.335156 179.288719 C 44.483594 178.886375 44.725781 178.269188 44.874219 177.8395 C 45.026563 177.413719 45.264844 176.659813 45.417188 176.206688 C 45.565625 175.753563 45.807813 175.050438 45.95625 174.569969 C 46.108594 174.0895 46.346875 173.253563 46.499219 172.749656 C 46.647656 172.241844 46.889844 171.456688 47.038281 170.925438 C 47.186719 170.394188 47.428906 169.476219 47.577344 168.917625 C 47.729688 168.359031 47.967969 167.491844 48.120313 166.909813 C 48.26875 166.327781 48.510938 165.323875 48.659375 164.7145 C 48.811719 164.105125 49.05 163.128563 49.202344 162.519188 C 49.350781 161.909813 49.592969 160.984031 49.741406 160.323875 C 49.89375 159.659813 50.132031 158.441063 50.284375 157.753563 C 50.432813 157.066063 50.675 156.05825 50.823438 155.37075 C 50.971875 154.68325 51.214063 153.538719 51.3625 152.800438 C 51.514844 152.062156 51.753125 150.80825 51.905469 150.046531 C 52.053906 149.280906 52.296094 148.054344 52.444531 147.288719 C 52.596875 146.523094 52.835156 145.323875 52.9875 144.534813 C 53.135938 143.741844 53.526563 141.5895 51.917188 150.448875 " transform="matrix(1,0,0,-1,27.95,191.527)"/>
<path style="fill-rule:nonzero;fill:rgb(37.29248%,8.787537%,3.515625%);fill-opacity:1;stroke-width:0.79701;stroke-linecap:butt;stroke-linejoin:miter;stroke:rgb(37.29248%,8.787537%,3.515625%);stroke-opacity:1;stroke-miterlimit:10;" d="M 8.164279 -0.00179007 L 0.397461 3.317432 L 0.398536 -0.00185879 L 0.400308 -3.317306 Z M 8.164279 -0.00179007 " transform="matrix(0.17856,0.98389,0.98389,-0.17856,79.83301,40.88099)"/>
<path style="fill:none;stroke-width:0.3985;stroke-linecap:butt;stroke-linejoin:miter;stroke:rgb(37.29248%,8.787537%,3.515625%);stroke-opacity:1;stroke-miterlimit:10;" d="M -0.00078125 -0.00034375 C -0.00078125 -0.00034375 0.0773438 0.843406 0.108594 1.167625 C 0.139844 1.491844 0.186719 2.011375 0.217969 2.335594 C 0.245313 2.659813 0.296094 3.179344 0.323438 3.503563 C 0.354688 3.827781 0.401563 4.347313 0.432813 4.671531 C 0.464063 4.99575 0.510938 5.515281 0.542188 5.8395 C 0.569531 6.163719 0.620313 6.68325 0.647656 7.007469 C 0.678906 7.331688 0.725781 7.851219 0.757031 8.175438 C 0.788281 8.499656 0.835156 9.019188 0.866406 9.343406 C 0.89375 9.667625 0.944531 10.187156 0.971875 10.511375 C 1.003125 10.835594 1.05 11.355125 1.08125 11.679344 C 1.1125 12.003563 1.159375 12.523094 1.190625 12.847313 C 1.217969 13.171531 1.26875 13.691063 1.296094 14.015281 C 1.327344 14.3395 1.374219 14.859031 1.405469 15.18325 C 1.436719 15.507469 1.483594 16.027 1.514844 16.351219 C 1.542188 16.675438 1.592969 17.194969 1.620313 17.519188 C 1.651563 17.843406 1.698438 18.362938 1.729688 18.687156 C 1.760938 19.011375 1.807813 19.530906 1.839063 19.855125 C 1.866406 20.175438 1.917188 20.698875 1.944531 21.023094 C 1.975781 21.343406 2.022656 21.866844 2.053906 22.187156 C 2.085156 22.511375 2.132031 23.034813 2.163281 23.355125 C 2.194531 23.679344 2.241406 24.202781 2.26875 24.523094 C 2.3 24.847313 2.350781 25.366844 2.378125 25.691063 C 2.409375 26.015281 2.45625 26.534813 2.4875 26.859031 C 2.51875 27.18325 2.565625 27.702781 2.596875 28.027 C 2.624219 28.351219 2.675 28.87075 2.702344 29.194969 C 2.733594 29.519188 2.780469 30.038719 2.811719 30.362938 C 2.842969 30.687156 2.889844 31.206688 2.921094 31.530906 C 2.948438 31.855125 2.999219 32.374656 3.026563 32.698875 C 3.057813 33.023094 3.104688 33.542625 3.135938 33.866844 C 3.167188 34.191063 3.214063 34.710594 3.245313 35.034813 C 3.272656 35.359031 3.323438 35.878563 3.350781 36.202781 C 3.382031 36.527 3.428906 37.046531 3.460156 37.37075 C 3.491406 37.694969 3.538281 38.2145 3.569531 38.538719 C 3.596875 38.862938 3.647656 39.382469 3.675 39.706688 C 3.70625 40.030906 3.753125 40.550438 3.784375 40.874656 C 3.815625 41.198875 3.8625 41.718406 3.89375 42.042625 C 3.921094 42.366844 3.971875 42.886375 3.999219 43.210594 C 4.030469 43.534813 4.077344 44.054344 4.108594 44.378563 C 4.139844 44.702781 4.186719 45.222313 4.217969 45.546531 C 4.245313 45.87075 4.296094 46.390281 4.323438 46.7145 C 4.354688 47.038719 4.405469 47.55825 4.432813 47.882469 C 4.464063 48.206688 4.510938 48.726219 4.542188 49.050438 C 4.573438 49.374656 4.620313 49.894188 4.651563 50.218406 C 4.678906 50.542625 4.729688 51.062156 4.757031 51.386375 C 4.788281 51.710594 4.835156 52.230125 4.866406 52.554344 C 4.897656 52.878563 4.944531 53.398094 4.975781 53.722313 C 5.003125 54.046531 5.053906 54.566063 5.08125 54.890281 C 5.1125 55.2145 5.159375 55.734031 5.190625 56.05825 C 5.221875 56.382469 5.26875 56.902 5.3 57.226219 C 5.327344 57.550438 5.378125 58.069969 5.405469 58.394188 C 5.436719 58.7145 5.483594 59.237938 5.514844 59.562156 C 5.546094 59.882469 5.592969 60.405906 5.624219 60.730125 C 5.651563 61.050438 5.702344 61.573875 5.729688 61.894188 C 5.760938 62.218406 5.807813 62.741844 5.839063 63.062156 C 5.870313 63.386375 5.917188 63.909813 5.948438 64.230125 C 5.975781 64.554344 6.026563 65.073875 6.053906 65.398094 C 6.085156 65.722313 6.132031 66.241844 6.163281 66.566063 C 6.194531 66.890281 6.241406 67.409813 6.272656 67.734031 C 6.3 68.05825 6.350781 68.577781 6.378125 68.902 C 6.409375 69.226219 6.45625 69.74575 6.4875 70.069969 C 6.51875 70.394188 6.565625 70.913719 6.596875 71.237938 C 6.624219 71.562156 6.675 72.081688 6.702344 72.405906 C 6.733594 72.730125 6.784375 73.249656 6.811719 73.573875 C 6.842969 73.898094 6.889844 74.417625 6.921094 74.741844 C 6.952344 75.066063 6.999219 75.585594 7.030469 75.909813 C 7.057813 76.234031 7.108594 76.753563 7.135938 77.077781 C 7.167188 77.402 7.214063 77.921531 7.245313 78.24575 C 7.276563 78.569969 7.323438 79.0895 7.354688 79.413719 C 7.382031 79.737938 7.432813 80.257469 7.460156 80.581688 C 7.491406 80.905906 7.538281 81.425438 7.569531 81.749656 C 7.600781 82.073875 7.647656 82.593406 7.678906 82.917625 C 7.70625 83.241844 7.757031 83.761375 7.784375 84.085594 C 7.815625 84.409813 7.8625 84.929344 7.89375 85.253563 C 7.925 85.577781 7.971875 86.097313 8.003125 86.421531 C 8.030469 86.74575 8.08125 87.265281 8.108594 87.5895 C 8.139844 87.913719 8.186719 88.43325 8.217969 88.757469 C 8.249219 89.081688 8.296094 89.601219 8.327344 89.925438 C 8.354688 90.249656 8.405469 90.769188 8.432813 91.093406 C 8.464063 91.417625 8.510938 91.937156 8.542188 92.261375 C 8.573438 92.585594 8.620313 93.105125 8.651563 93.429344 C 8.678906 93.753563 8.729688 94.273094 8.757031 94.597313 C 8.788281 94.921531 8.835156 95.441063 8.866406 95.765281 C 8.897656 96.0895 8.944531 96.609031 8.975781 96.93325 C 9.003125 97.257469 9.053906 97.777 9.08125 98.101219 C 9.1125 98.421531 9.163281 98.944969 9.190625 99.269188 C 9.221875 99.5895 9.26875 100.112938 9.3 100.437156 C 9.33125 100.757469 9.378125 101.280906 9.409375 101.601219 C 9.436719 101.925438 9.4875 102.448875 9.514844 102.769188 C 9.546094 103.093406 9.592969 103.612938 9.624219 103.937156 C 9.655469 104.261375 9.702344 104.780906 9.733594 105.105125 C 9.760938 105.429344 9.811719 105.948875 9.839063 106.273094 C 9.870313 106.597313 9.917188 107.116844 9.948438 107.441063 C 9.979688 107.765281 10.026563 108.284813 10.057813 108.609031 C 10.085156 108.93325 10.135938 109.452781 10.163281 109.777 C 10.194531 110.101219 10.241406 110.62075 10.272656 110.944969 C 10.303906 111.269188 10.350781 111.788719 10.382031 112.112938 C 10.409375 112.437156 10.460156 112.956688 10.4875 113.280906 C 10.51875 113.605125 10.565625 114.124656 10.596875 114.448875 C 10.628125 114.773094 10.675 115.292625 10.70625 115.616844 C 10.733594 115.941063 10.784375 116.460594 10.811719 116.784813 C 10.842969 117.109031 10.889844 117.628563 10.921094 117.952781 C 10.952344 118.277 11.030469 119.12075 10.698438 115.550438 " transform="matrix(1,0,0,-1,27.95,191.527)"/>
<path style=" stroke:none;fill-rule:nonzero;fill:rgb(37.29248%,8.787537%,3.515625%);fill-opacity:1;" d="M 38.980469 72.40625 C 38.683594 73.445312 37.929688 75.109375 37.125 76.238281 L 40.101562 76.511719 C 39.515625 75.257812 39.078125 73.484375 38.980469 72.40625 "/>
<g clip-path="url(#clip1)" clip-rule="nonzero">
<path style="fill:none;stroke-width:1.59404;stroke-linecap:butt;stroke-linejoin:miter;stroke:rgb(92.939758%,10.978699%,14.118958%);stroke-opacity:1;stroke-miterlimit:10;" d="M -28.348437 -0.00034375 L 311.815625 -0.00034375 " transform="matrix(1,0,0,-1,27.95,191.527)"/>
</g>
<g clip-path="url(#clip2)" clip-rule="nonzero">
<path style=" stroke:none;fill-rule:nonzero;fill:rgb(0%,67.83905%,93.728638%);fill-opacity:1;" d="M -0.398438 191.527344 L -0.398438 217.039062 L 339.765625 217.039062 L 339.765625 191.527344 Z M -0.398438 191.527344 "/>
</g>
</g>
</svg>
