<svg xmlns="http://www.w3.org/2000/svg" xmlns:xlink="http://www.w3.org/1999/xlink" width="715.2" height="888" viewBox="0 0 536.4 666" version="1.2"><defs><symbol overflow="visible" id="c"><path style="stroke:none" d="M10.688-23.11c1.132 0 2.628.282 4.484.844.219.063.394.094.531.094.102 0 .43-.098.985-.297.175-.062.363-.093.562-.093.75 0 1.535.59 2.36 1.765.82 1.168 1.234 2.281 1.234 3.344 0 .617-.188 1.137-.563 1.562-.367.43-.812.641-1.343.641-.45 0-.813-.086-1.094-.266-.274-.175-.875-.703-1.813-1.578-1.336-1.238-2.64-1.86-3.922-1.86-.617 0-1.109.153-1.484.454a1.451 1.451 0 0 0-.547 1.172c0 .969.844 1.695 2.531 2.172 2.29.68 3.758 1.172 4.407 1.484 2.812 1.375 4.218 3.399 4.218 6.063 0 2.355-.96 4.277-2.875 5.765C16.391-.312 13.816.453 10.641.453c-1.418 0-2.914-.168-4.485-.5C4.582-.39 3.446-.789 2.75-1.25c-.531-.352-1.012-1.125-1.438-2.313C.895-4.75.688-5.905.688-7.03c0-.54.11-.953.329-1.235.27-.351.617-.53 1.046-.53.415 0 .817.218 1.204.655.238.243.785 1.016 1.64 2.329.414.625 1.067 1.14 1.953 1.546a6.62 6.62 0 0 0 2.766.61c.82 0 1.484-.149 1.984-.453.508-.301.766-.692.766-1.172 0-.438-.2-.817-.594-1.14-.398-.321-1.043-.618-1.937-.891-1.586-.5-2.793-.958-3.625-1.375a11.147 11.147 0 0 1-2.313-1.563c-1.75-1.55-2.625-3.313-2.625-5.281a6.4 6.4 0 0 1 .672-2.844 7.161 7.161 0 0 1 1.938-2.406c1.851-1.551 4.117-2.328 6.796-2.328Zm0 0"/></symbol><symbol overflow="visible" id="d"><path style="stroke:none" d="M10.094-16.531c1.969 0 3.703.496 5.203 1.484 1.426.938 2.14 2.106 2.14 3.5 0 .961-.335 1.742-1 2.344-.617.562-1.359.844-2.234.844-.918 0-1.61-.332-2.078-1-.137-.207-.344-.743-.625-1.61-.305-.926-.871-1.39-1.703-1.39-.617 0-1.133.265-1.547.796-.406.532-.61 1.184-.61 1.954 0 1.336.473 2.511 1.423 3.53.769.837 1.742 1.25 2.921 1.25.551 0 1.016-.046 1.391-.14.375-.093.867-.285 1.484-.578.145-.07.313-.11.5-.11.383 0 .72.18 1 .532a1.9 1.9 0 0 1 .438 1.234c0 .5-.211 1.028-.625 1.579-.406.542-.945 1.023-1.61 1.437C13.126.008 11.427.453 9.47.453c-2.274 0-4.211-.664-5.813-2C1.594-3.223.562-5.363.562-7.969c0-2.5.958-4.566 2.875-6.203 1.82-1.57 4.04-2.36 6.657-2.36Zm0 0"/></symbol><symbol overflow="visible" id="e"><path style="stroke:none" d="M9.86-15.375v9.64c0 .762.066 1.32.203 1.673.132.355.414.68.843.968.344.25.57.465.688.64.113.169.172.384.172.642 0 1.43-1.809 2.14-5.422 2.14-1.95 0-3.496-.152-4.64-.453a1.926 1.926 0 0 1-.938-.578 1.46 1.46 0 0 1-.344-.953c0-.301.055-.535.172-.703.125-.164.437-.43.937-.797.344-.25.582-.66.719-1.235.145-.582.219-1.441.219-2.578 0-.363-.028-1.047-.078-2.047-.043-1-.075-1.582-.094-1.75-.074-.457-.387-.804-.938-1.046-.687-.301-1.03-.743-1.03-1.329 0-.695.444-1.218 1.343-1.562a29.217 29.217 0 0 1 3.984-1.203c1.414-.332 2.508-.5 3.282-.5.613 0 .921.343.921 1.031Zm-3.282-7.281c.957 0 1.719.183 2.281.547.563.355.844.84.844 1.453 0 .855-.422 1.527-1.265 2.015-1.356.793-2.993 1.188-4.907 1.188-.804 0-1.445-.156-1.922-.469-.648-.394-.968-.945-.968-1.656 0-.957.68-1.707 2.046-2.25 1.383-.55 2.68-.828 3.891-.828Zm0 0"/></symbol><symbol overflow="visible" id="f"><path style="stroke:none" d="M15.969-7.438H8.172c-.344 0-.516.153-.516.454 0 .718.383 1.398 1.157 2.03.78.638 1.617.954 2.515.954.531 0 1.117-.098 1.766-.297.656-.207 1.191-.46 1.61-.766.374-.257.671-.39.89-.39.289 0 .57.18.844.531.28.356.421.719.421 1.094 0 .793-.5 1.558-1.5 2.297C13.61-.207 11.582.453 9.281.453c-2.324 0-4.273-.676-5.844-2.031a8.399 8.399 0 0 1-1.89-2.406 8.384 8.384 0 0 1-.984-3.954c0-1.851.562-3.519 1.687-5a8.869 8.869 0 0 1 3.719-2.874 9.383 9.383 0 0 1 3.672-.72c2.101 0 3.89.602 5.359 1.798a7.277 7.277 0 0 1 1.797 2.125c.52.93.781 1.836.781 2.718 0 .72-.152 1.309-.453 1.766-.305.46-.688.688-1.156.688ZM8.594-10.53h1.672c.707 0 1.062-.328 1.062-.985 0-.593-.172-1.078-.515-1.453-.336-.383-.782-.578-1.344-.578-.617 0-1.102.246-1.453.735-.336.46-.5.917-.5 1.374 0 .336.078.57.234.704.164.136.445.203.844.203Zm0 0"/></symbol><symbol overflow="visible" id="g"><path style="stroke:none" d="m20.766-10.406.218 5.844c.032.437.102.765.22.984.112.21.452.61 1.015 1.203.164.18.25.43.25.75 0 .73-.438 1.242-1.313 1.531-.875.281-2.433.422-4.672.422-1.53 0-2.617-.133-3.25-.39-.648-.282-.968-.727-.968-1.344 0-.227.03-.395.093-.5.07-.102.297-.36.672-.766.438-.469.656-2.015.656-4.64 0-1.532-.18-2.66-.53-3.391-.282-.582-.813-.875-1.595-.875-.742 0-1.25.242-1.53.719-.274.468-.407 1.328-.407 2.578V-5c0 .656.04 1.11.125 1.36.082.242.36.71.828 1.406.113.199.172.421.172.671 0 .657-.453 1.141-1.36 1.454-.906.3-2.324.453-4.25.453C2.067.344.532-.29.532-1.562c0-.258.047-.458.14-.594.095-.145.317-.344.673-.594.289-.207.472-.445.547-.719.082-.281.156-.945.218-2 .07-1.27.11-2.593.11-3.968 0-.77-.059-1.27-.172-1.5-.117-.239-.45-.532-1-.876-.48-.3-.719-.664-.719-1.093 0-.446.192-.813.578-1.094.395-.281 1.192-.633 2.39-1.063a40.914 40.914 0 0 1 3.063-.953c.989-.257 1.664-.39 2.032-.39.332 0 .613.12.843.36.227.241.344.526.344.858 0 .032-.008.172-.015.422a1.724 1.724 0 0 0-.016.235c0 .531.219.797.656.797.27 0 .55-.211.844-.641.957-1.363 2.344-2.047 4.156-2.047 1.395 0 2.586.367 3.578 1.094.696.523 1.18 1.133 1.453 1.828.282.7.457 1.73.532 3.094Zm0 0"/></symbol><symbol overflow="visible" id="h"><path style="stroke:none" d="M10.906-16.547c2.02 0 3.797.527 5.328 1.578 1.094.75 1.973 1.73 2.641 2.938.676 1.261 1.016 2.578 1.016 3.953 0 2.398-1.102 4.437-3.297 6.125C14.488-.348 12.082.453 9.375.453c-2.648 0-4.79-.754-6.422-2.265C1.36-3.27.563-5.172.563-7.516c0-2.613.972-4.75 2.921-6.406 2.032-1.75 4.504-2.625 7.422-2.625Zm-1.328 3.828c-.492 0-.883.184-1.172.547-.293.367-.437.844-.437 1.438 0 .668.125 1.574.375 2.718.25 1.137.539 2.149.875 3.032.344.906.906 1.359 1.687 1.359.977 0 1.469-.625 1.469-1.875 0-.926-.125-1.977-.375-3.156-.25-1.188-.555-2.149-.906-2.89-.367-.75-.871-1.142-1.516-1.173Zm0 0"/></symbol><symbol overflow="visible" id="i"><path style="stroke:none" d="M10.406-13.438h2.063c.332 0 .57.055.719.157.156.105.222.277.203.515l-.125 1.985c-.032.398-.102.648-.204.75-.093.105-.312.156-.656.156-.074 0-.258-.008-.547-.031-.199-.008-.367-.016-.5-.016-.46 0-.773.152-.937.453-.168.305-.25.883-.25 1.735 0 1.168.125 2.148.375 2.937.101.344.25.602.437.766.188.156.5.293.938.406.969.293 1.453.828 1.453 1.61 0 .835-.57 1.433-1.703 1.796-1.137.364-2.996.547-5.578.547C2.25.328.328-.43.328-1.953c0-.375.078-.649.234-.828.165-.176.52-.383 1.063-.625.582-.258.938-.75 1.063-1.469.187-1.082.28-2.242.28-3.484 0-.551-.1-.938-.296-1.157-.188-.218-.54-.32-1.047-.312-.594 0-.977-.024-1.14-.078-.169-.063-.247-.211-.235-.453l.125-2.094c.031-.332.094-.54.188-.625.093-.082.351-.133.78-.156.407-.032.61-.235.61-.61 0-.156-.148-.508-.437-1.062-.512-.914-.766-1.832-.766-2.75 0-1.352.46-2.453 1.39-3.297 1.364-1.25 3.317-1.875 5.86-1.875 2.094 0 3.766.492 5.016 1.469.957.761 1.437 1.64 1.437 2.64 0 .719-.242 1.328-.719 1.828-.468.493-1.058.735-1.765.735-.805 0-1.57-.282-2.297-.844-.18-.133-.602-.566-1.266-1.297-.469-.508-.945-.765-1.422-.765-.312 0-.578.109-.796.328a1.108 1.108 0 0 0-.329.812c0 .875.829 1.813 2.485 2.813.508.304.851.543 1.031.718.188.18.352.43.5.75.07.137.25.204.531.204Zm0 0"/></symbol><symbol overflow="visible" id="j"><path style="stroke:none" d="M7.61 0H6.421c-.7 0-1.48.031-2.344.094a14.7 14.7 0 0 1-1.125.078C2.211.172 1.61 0 1.141-.344.68-.688.453-1.133.453-1.688c0-.382.098-.687.297-.906.207-.219.547-.394 1.016-.531.437-.102.734-.281.89-.531.156-.25.274-.735.36-1.453.093-.832.175-2.446.25-4.844.07-2.406.109-4.79.109-7.156 0-.926-.074-1.547-.219-1.86-.148-.312-.484-.562-1.015-.75C1.379-20 1-20.489 1-21.187c0-.54.258-.961.781-1.266.532-.313 1.266-.469 2.203-.469.313 0 .676.008 1.094.016.926.043 1.602.062 2.031.062 1.57 0 3.36-.05 5.36-.156.414-.02.937-.031 1.562-.031 2.54 0 4.547.289 6.016.86 2.187.866 3.832 2.312 4.937 4.343.989 1.793 1.485 3.93 1.485 6.406 0 1.25-.184 2.508-.547 3.766-.367 1.25-.86 2.34-1.485 3.265-1.28 1.856-3.054 3.157-5.312 3.907-1.324.449-2.734.671-4.234.671L12.875.11 11.156.063A112.086 112.086 0 0 0 7.61 0Zm3.484-17.984v12.843c0 .7.148 1.196.453 1.485.3.293.8.437 1.5.437 3.226 0 4.844-2.457 4.844-7.375 0-2.707-.375-4.804-1.125-6.297-.836-1.644-2.243-2.468-4.22-2.468-.53 0-.905.105-1.124.312-.219.211-.328.563-.328 1.063Zm0 0"/></symbol><symbol overflow="visible" id="k"><path style="stroke:none" d="M8.375-16.422c.594 0 .953.086 1.078.25.125.156.238.684.344 1.578.05.492.223.735.515.735.22 0 .426-.16.626-.485.882-1.375 2.039-2.062 3.468-2.062 1 0 1.82.324 2.469.968.313.325.566.743.766 1.25.195.5.297.981.297 1.438 0 .523-.125 1.059-.375 1.61a4.017 4.017 0 0 1-.938 1.343c-.71.68-1.578 1.016-2.61 1.016-.562 0-1.038-.098-1.421-.297-.375-.195-.875-.598-1.5-1.203-.23-.239-.446-.36-.64-.36-.313 0-.517.18-.61.532-.094.343-.14 1.074-.14 2.187 0 1.68.062 2.82.187 3.422.07.336.175.563.312.688.145.124.442.257.89.39 1 .305 1.5.824 1.5 1.563 0 .46-.163.855-.484 1.187-.324.336-.75.559-1.28.672-1.056.219-2.61.328-4.673.328-1.96 0-3.449-.172-4.468-.516-.907-.3-1.36-.835-1.36-1.609 0-.57.332-1.082 1-1.531.32-.219.54-.41.656-.578.125-.176.207-.41.25-.703.176-1.008.266-2.875.266-5.594 0-.5-.059-.852-.172-1.063-.105-.218-.324-.394-.656-.53C.89-12.11.5-12.556.5-13.142c0-.53.27-.984.813-1.359.539-.383 1.445-.766 2.718-1.14 1.707-.508 3.157-.77 4.344-.782Zm0 0"/></symbol><symbol overflow="visible" id="l"><path style="stroke:none" d="m17.984-11.328-4.297 8.36c-.667 1.292-1.234 2.195-1.703 2.702-.46.5-.953.75-1.484.75-.523 0-.938-.187-1.25-.562a13.01 13.01 0 0 1-1.781-2.563L2.75-11.578c-.25-.488-.496-.836-.734-1.047-.243-.219-.57-.383-.985-.5-.843-.238-1.265-.691-1.265-1.36 0-.675.52-1.163 1.562-1.468 1.04-.313 2.68-.469 4.922-.469 1.883 0 3.27.137 4.156.406.895.274 1.344.688 1.344 1.25 0 .399-.21.778-.625 1.141-.273.242-.45.422-.531.547a.905.905 0 0 0-.11.469c0 .375.243 1 .735 1.875.488.855.941 1.28 1.36 1.28a.856.856 0 0 0 .687-.312c.175-.218.492-.765.953-1.64.344-.633.515-1.117.515-1.453 0-.27-.18-.586-.53-.954-.376-.394-.563-.765-.563-1.109 0-.531.347-.91 1.046-1.14.708-.227 1.864-.344 3.47-.344 2.25 0 3.374.484 3.374 1.453 0 .562-.402.976-1.203 1.234-.637.2-1.07.414-1.297.64-.218.231-.57.813-1.047 1.75Zm0 0"/></symbol><symbol overflow="visible" id="m"><path style="stroke:none" d="M18.266-17.422c.28 0 .523.156.734.469.207.312.313.683.313 1.11 0 .448-.141.964-.422 1.546-.282.574-.621 1.031-1.016 1.375-.262.219-.39.399-.39.531 0 .032.007.164.03.391.04.23.063.445.063.64 0 1.313-.445 2.419-1.328 3.313-.805.793-1.836 1.414-3.094 1.86-1.25.437-2.625.656-4.125.656-.367 0-.726-.02-1.078-.063a6.82 6.82 0 0 0-.672-.047c-.586 0-.875.293-.875.875 0 .375.188.672.563.891.383.219.906.328 1.562.328.438 0 1.086-.062 1.953-.187 1.813-.25 3.149-.375 4.016-.375 1.313 0 2.328.214 3.047.64.57.336 1.023.805 1.36 1.406.343.594.515 1.231.515 1.907 0 1.125-.414 2.21-1.235 3.265-.968 1.239-2.402 2.157-4.296 2.75-1.48.457-3.196.688-5.141.688-2.46 0-4.453-.375-5.984-1.125-.711-.356-1.274-.82-1.688-1.39C.66 3.456.453 2.858.453 2.233c0-.43.113-.824.344-1.187a2 2 0 0 1 .906-.781c.332-.137.5-.282.5-.438 0-.113-.137-.289-.406-.531C.91-1.441.469-2.207.469-3c0-.531.21-1.078.64-1.64a4.297 4.297 0 0 1 1.579-1.313c.269-.133.406-.27.406-.406 0-.157-.168-.383-.5-.688C1.445-8.097.875-9.328.875-10.734c0-.739.203-1.446.61-2.125.406-.676.968-1.254 1.687-1.735 1.781-1.156 3.754-1.734 5.922-1.734.863 0 1.828.11 2.89.328 1 .2 1.692.297 2.079.297 1.195 0 2.394-.473 3.593-1.422.258-.195.461-.297.61-.297Zm-9 3.438c-.555 0-1 .21-1.344.625-.336.418-.5.976-.5 1.671 0 1.2.18 2.157.547 2.876.363.718.843 1.078 1.437 1.078.582 0 1.047-.223 1.39-.672.345-.446.517-1.047.517-1.797 0-1.188-.184-2.11-.547-2.766-.356-.656-.856-.992-1.5-1.015ZM5.64 1.109c-.274 0-.407.16-.407.485 0 .656.348 1.18 1.047 1.578.707.406 1.63.61 2.766.61 1.082 0 1.93-.15 2.547-.438.613-.281.922-.684.922-1.203 0-.282-.121-.524-.36-.72-.23-.187-.515-.28-.86-.28-.179 0-.433.023-.765.078-.617.093-1.304.14-2.062.14a16.36 16.36 0 0 1-1.625-.078 5.628 5.628 0 0 1-.953-.14 1.353 1.353 0 0 0-.25-.032Zm0 0"/></symbol><symbol overflow="visible" id="n"><path style="stroke:none" d="M11.266-.016 8.672 0C6.848.02 5.52.055 4.687.11c-.75.07-1.289.109-1.609.109-.793 0-1.418-.203-1.875-.61-.46-.394-.687-.867-.687-1.421 0-.364.082-.649.25-.86.175-.207.586-.531 1.234-.969.375-.257.629-.66.766-1.203.144-.55.3-1.726.468-3.531.239-2.813.36-6.281.36-10.406 0-1.508-.102-2.508-.297-3-.2-.5-.668-.91-1.406-1.235-.844-.363-1.266-.89-1.266-1.578 0-.57.254-1.035.766-1.39.507-.364 1.16-.547 1.953-.547.437 0 1 .015 1.687.047 1.133.054 2.36.078 3.672.078.969 0 2.875-.035 5.719-.11a68.973 68.973 0 0 1 2.422-.047c1.707 0 3.086.141 4.14.422 1.051.282 1.97.75 2.75 1.407 1.258 1.074 1.891 2.507 1.891 4.297a6.42 6.42 0 0 1-.563 2.609c-.375.844-.875 1.515-1.5 2.015-.46.368-.687.696-.687.985 0 .324.27.594.813.812 1.062.43 2.023 1.149 2.89 2.157.883 1.043 1.328 2.351 1.328 3.921 0 1.856-.68 3.555-2.031 5.094C24.082-.82 21.43.187 17.922.187c-.48 0-1.652-.03-3.516-.093-1.71-.063-2.758-.098-3.14-.11Zm1.328-21v3.985c0 .636.078 1.086.234 1.343.164.25.453.376.86.376.945 0 1.644-.29 2.093-.876.457-.593.688-1.515.688-2.765 0-1.207-.235-2.145-.703-2.813-.461-.664-1.118-1-1.97-1-.448 0-.76.133-.937.391-.18.25-.265.703-.265 1.36Zm0 11.141v1.844c0 1.687.125 2.812.375 3.375.25.554.742.828 1.484.828 1.969 0 2.953-1.149 2.953-3.453 0-2.864-1.101-4.297-3.297-4.297-.562 0-.96.125-1.187.375-.219.242-.328.683-.328 1.328Zm0 0"/></symbol><symbol overflow="visible" id="o"><path style="stroke:none" d="M18.625-8.672h-9.11c-.398 0-.593.172-.593.516 0 .844.453 1.636 1.36 2.375.913.742 1.894 1.11 2.937 1.11.625 0 1.312-.114 2.062-.345.75-.238 1.375-.535 1.875-.89.438-.313.782-.469 1.032-.469.343 0 .675.21 1 .625.32.418.484.844.484 1.281 0 .93-.586 1.824-1.75 2.688C15.867-.25 13.5.516 10.812.516 8.102.516 5.832-.27 4-1.844A9.684 9.684 0 0 1 1.797-4.64 9.807 9.807 0 0 1 .657-9.25c0-2.164.655-4.113 1.968-5.844 1.133-1.5 2.582-2.617 4.344-3.36 1.312-.55 2.738-.827 4.281-.827 2.445 0 4.531.699 6.25 2.093a8.456 8.456 0 0 1 2.094 2.485c.601 1.086.906 2.14.906 3.172 0 .836-.18 1.523-.531 2.062-.344.531-.793.797-1.344.797Zm-8.594-3.625h1.953c.82 0 1.235-.379 1.235-1.14 0-.696-.203-1.266-.61-1.704-.398-.437-.918-.656-1.562-.656-.719 0-1.29.29-1.703.86-.387.523-.578 1.054-.578 1.593 0 .399.093.672.28.828.188.149.517.22.985.22Zm0 0"/></symbol><symbol overflow="visible" id="p"><path style="stroke:none" d="M11.781-19.297c2.25 0 4.156.57 5.719 1.703.82.606 1.395 1.297 1.719 2.078.332.782.5 1.856.5 3.22l-.032 2.89c0 2 .141 3.297.422 3.89.145.282.282.465.407.547.125.074.394.14.812.203.414.063.625.336.625.813 0 .625-.25 1.277-.75 1.953a6.198 6.198 0 0 1-1.922 1.672c-.968.562-1.984.844-3.047.844-1.355 0-2.422-.465-3.203-1.391-.273-.332-.527-.5-.765-.5-.25 0-.59.164-1.016.484C9.957.047 8.492.516 6.86.516c-1.7 0-3.07-.36-4.11-1.079a5.204 5.204 0 0 1-2.234-4.28c0-1.345.546-2.532 1.64-3.563 1.688-1.625 4.211-2.442 7.578-2.453.75 0 1.22-.07 1.407-.22.195-.144.296-.487.296-1.03 0-1.375-.14-2.364-.421-2.97-.282-.612-.746-.921-1.391-.921-.387 0-.734.117-1.047.344-.305.23-.68.656-1.125 1.281-1.148 1.637-2.344 2.453-3.594 2.453-.636 0-1.156-.187-1.562-.562-.399-.375-.594-.864-.594-1.47 0-.624.242-1.241.734-1.858.5-.626 1.176-1.165 2.032-1.626 2.332-1.238 4.77-1.859 7.312-1.859ZM10.484-8.094c-.562 0-1.058.235-1.484.703-.418.461-.625 1.012-.625 1.657 0 .625.145 1.132.438 1.515.3.375.695.563 1.187.563 1.04 0 1.563-.867 1.563-2.61 0-.707-.079-1.187-.235-1.437-.148-.25-.43-.379-.844-.39Zm0 0"/></symbol><symbol overflow="visible" id="q"><path style="stroke:none" d="M11.344-18.172v10.485c0 2.25.738 3.375 2.219 3.375.374 0 .742-.102 1.109-.313.363-.219.613-.484.75-.797.289-.613.437-1.992.437-4.14 0-2.114-.074-3.555-.218-4.329-.055-.32-.149-.554-.282-.703-.125-.156-.367-.328-.718-.515-.743-.395-1.11-.891-1.11-1.485 0-.789.63-1.343 1.89-1.656 2.407-.594 4.774-.89 7.11-.89 1.301 0 1.953.687 1.953 2.062 0 .148-.007.437-.015.875a55.671 55.671 0 0 0-.063 2.265v8.532c0 .449.375.851 1.125 1.203.633.312.953.766.953 1.36 0 1.155-1.375 2.054-4.125 2.687-1.617.375-3.18.562-4.687.562-.617 0-1.04-.074-1.266-.219-.23-.136-.367-.41-.406-.828-.063-.8-.309-1.203-.734-1.203-.149 0-.29.04-.422.11-.125.074-.516.336-1.172.78-1.313.9-2.715 1.345-4.203 1.345-2.48 0-4.23-.72-5.25-2.157-.867-1.195-1.297-3.21-1.297-6.046 0-1.063.004-1.97.015-2.72v-.89c0-1.101-.101-1.914-.296-2.437-.2-.532-.563-.942-1.094-1.235-.5-.258-.82-.469-.953-.625-.137-.156-.203-.367-.203-.64 0-.977.738-1.63 2.218-1.953a35.625 35.625 0 0 1 7.594-.829c.758 0 1.14.325 1.14.97Zm0 0"/></symbol><symbol overflow="visible" id="r"><path style="stroke:none" d="M12.234-14.203v6.531c0 .781.188 1.418.563 1.906.383.493.875.735 1.469.735.5 0 1.164-.235 2-.703.187-.114.379-.172.578-.172.3 0 .582.187.843.562.258.375.391.782.391 1.219 0 .805-.437 1.574-1.312 2.313C14.93-.258 12.71.515 10.109.515c-2.074 0-3.734-.582-4.984-1.75-1.25-1.164-1.875-2.704-1.875-4.61v-8.937c0-.301-.04-.489-.11-.563-.074-.07-.257-.11-.546-.11h-2c-.375 0-.61-.054-.703-.171-.102-.125-.157-.41-.157-.86v-.859c.012-.383.157-.664.438-.843l8.875-5.579c.219-.113.488-.172.812-.172h1.563c.32 0 .535.075.64.22.114.148.172.437.172.874v2.61c0 .398.055.652.172.765.125.117.39.172.797.172h3.578c.477 0 .785.09.922.266.145.168.219.539.219 1.11v1.14c0 .617-.094 1.043-.281 1.281-.18.242-.5.36-.97.36h-3.515c-.355 0-.601.07-.734.203-.125.124-.188.37-.188.734Zm0 0"/></symbol><symbol overflow="visible" id="s"><path style="stroke:none" d="M11.5-17.938v11.235c0 .898.078 1.555.234 1.969.164.406.493.789.985 1.14.394.281.66.524.797.719.132.2.203.453.203.766 0 1.668-2.11 2.5-6.328 2.5C5.117.39 3.32.207 2-.156 1.54-.281 1.172-.504.89-.828a1.657 1.657 0 0 1-.406-1.11c0-.343.067-.609.204-.796.144-.196.507-.508 1.093-.938.395-.3.676-.785.844-1.453.176-.676.266-1.676.266-3 0-.426-.032-1.223-.094-2.39a77.057 77.057 0 0 0-.125-2.047c-.074-.532-.434-.938-1.078-1.22C.789-14.124.39-14.64.39-15.327c0-.813.52-1.422 1.562-1.828a36.32 36.32 0 0 1 4.64-1.407c1.657-.382 2.938-.578 3.845-.578.707 0 1.062.403 1.062 1.203Zm-3.828-8.484c1.113 0 2 .215 2.656.64.664.419 1 .981 1 1.688 0 .992-.5 1.778-1.5 2.36-1.574.918-3.476 1.375-5.703 1.375-.95 0-1.7-.18-2.25-.547-.75-.457-1.125-1.102-1.125-1.938 0-1.101.797-1.972 2.39-2.61 1.614-.644 3.126-.968 4.532-.968Zm0 0"/></symbol><symbol overflow="visible" id="t"><path style="stroke:none" d="M12.14-15.672h2.391c.406 0 .692.063.86.188.175.117.254.312.234.593l-.156 2.313c-.031.46-.106.75-.219.875-.117.125-.371.187-.766.187-.093 0-.308-.015-.64-.046-.242-.008-.434-.016-.578-.016-.543 0-.914.18-1.11.531-.199.356-.297 1.031-.297 2.031 0 1.356.149 2.496.454 3.422.113.399.28.688.5.875.218.188.578.356 1.078.5 1.132.336 1.703.961 1.703 1.875 0 .969-.664 1.668-1.985 2.094-1.312.426-3.48.64-6.5.64C2.63.39.391-.5.391-2.28c0-.438.093-.758.28-.969.188-.207.595-.445 1.22-.719.687-.312 1.101-.883 1.25-1.719.218-1.269.328-2.625.328-4.062 0-.645-.117-1.094-.344-1.344-.23-.258-.64-.379-1.234-.36-.688 0-1.133-.034-1.329-.108-.199-.07-.289-.243-.265-.516l.14-2.438c.032-.394.098-.64.204-.734.113-.102.421-.172.921-.203.477-.02.72-.25.72-.688 0-.175-.173-.586-.516-1.234-.594-1.07-.891-2.145-.891-3.219 0-1.57.54-2.86 1.625-3.86 1.582-1.456 3.86-2.187 6.828-2.187 2.438 0 4.383.578 5.844 1.735 1.125.886 1.687 1.914 1.687 3.078 0 .836-.28 1.539-.843 2.11-.555.573-1.243.859-2.063.859-.93 0-1.82-.32-2.672-.97-.21-.163-.699-.671-1.469-1.515-.554-.593-1.105-.89-1.656-.89-.367 0-.68.132-.937.39-.262.25-.39.563-.39.938 0 1.023.968 2.11 2.905 3.265.594.368.993.653 1.204.86.218.21.41.5.578.875.093.156.3.234.625.234Zm0 0"/></symbol><symbol overflow="visible" id="u"><path style="stroke:none" d="M11.781-15.344v6.203c0 2.75.04 4.356.125 4.813.094.45.414.793.969 1.031.477.211.797.406.953.594.164.18.25.433.25.765 0 .43-.156.82-.469 1.172-.304.344-.703.59-1.203.735C11.476.25 9.91.39 7.703.39c-2.492 0-4.242-.188-5.25-.563a2.61 2.61 0 0 1-1.14-.781C1.02-1.305.875-1.68.875-2.078c0-.3.078-.535.234-.703.164-.164.52-.367 1.063-.61.5-.218.805-.816.922-1.796.207-1.676.312-4.063.312-7.157 0-3.156-.094-5.18-.281-6.078-.18-.906-.625-1.578-1.344-2.015-.543-.313-.914-.602-1.11-.875-.198-.282-.296-.625-.296-1.032 0-.625.3-1.172.906-1.64.602-.477 1.57-.914 2.907-1.313.882-.27 2.035-.523 3.453-.765 1.425-.25 2.46-.375 3.109-.375 1.008 0 1.516.632 1.516 1.89 0 .418-.063 1.367-.188 2.844a113.751 113.751 0 0 0-.297 6.36Zm0 0"/></symbol><symbol overflow="visible" id="v"><path style="stroke:none" d="M4-9.11v-10.187c0-1.312-.09-2.144-.266-2.5-.18-.363-.668-.656-1.468-.875-1.168-.332-1.75-.91-1.75-1.734 0-.582.242-1.024.734-1.328.5-.313 1.21-.47 2.14-.47.313 0 1.079.017 2.297.048H6.86c2.133-.008 3.383-.024 3.75-.047.375-.02 1.692-.129 3.954-.328a18.676 18.676 0 0 1 2.046-.125c2.114 0 4 .433 5.657 1.297 2.875 1.5 4.312 3.875 4.312 7.125 0 2.636-1.008 4.746-3.015 6.328-1.907 1.492-4.204 2.234-6.891 2.234-.688 0-1.527-.047-2.516-.14-.531-.04-.867-.063-1-.063-.375 0-.562.215-.562.64v.126l.14 3.171c.032.618.145 1.075.344 1.375.195.305.602.618 1.219.938.844.46 1.265.95 1.265 1.469 0 .824-.62 1.453-1.859 1.89-1.242.438-2.996.657-5.265.657C3.663.39 1.28-.43 1.28-2.08c0-.382.098-.675.297-.874.207-.207.692-.508 1.453-.906.469-.239.739-.579.813-1.016.082-.438.133-1.848.156-4.234Zm8.734-12.64v6.578c0 .5.11.805.329.906.374.18.847.266 1.421.266.844 0 1.555-.234 2.141-.703.844-.688 1.266-1.836 1.266-3.453 0-1.676-.496-2.89-1.485-3.64-.617-.477-1.36-.72-2.234-.72-.961 0-1.438.258-1.438.766Zm0 0"/></symbol><symbol overflow="visible" id="w"><path style="stroke:none" d="M9.781-19.156c.676 0 1.086.101 1.235.297.156.187.289.804.406 1.843.062.575.258.86.594.86.257 0 .504-.188.734-.563 1.031-1.613 2.379-2.422 4.047-2.422 1.176 0 2.14.383 2.89 1.141.364.375.66.86.891 1.453.227.586.344 1.149.344 1.688 0 .605-.14 1.226-.422 1.859-.281.637-.652 1.164-1.11 1.578-.824.793-1.835 1.188-3.03 1.188-.657 0-1.212-.114-1.657-.344-.45-.238-1.031-.711-1.75-1.422-.273-.27-.527-.406-.765-.406-.356 0-.59.203-.704.61-.105.405-.156 1.26-.156 2.562 0 1.949.067 3.277.203 3.984.094.387.219.656.375.813.164.148.516.296 1.047.453 1.156.343 1.735.949 1.735 1.812 0 .531-.188.996-.563 1.39-.375.4-.871.657-1.484.782-1.243.258-3.059.39-5.454.39-2.292 0-4.03-.203-5.218-.609C.914-.57.39-1.195.39-2.094c0-.664.382-1.265 1.156-1.797.375-.25.629-.472.766-.671.144-.196.242-.47.296-.813.207-1.176.313-3.352.313-6.531 0-.582-.07-1-.203-1.25-.125-.25-.383-.453-.766-.61-.918-.351-1.375-.875-1.375-1.562 0-.625.317-1.156.953-1.594.633-.445 1.692-.89 3.172-1.328 1.988-.594 3.68-.895 5.078-.906Zm0 0"/></symbol><symbol overflow="visible" id="x"><path style="stroke:none" d="M12.719-19.297c2.363 0 4.437.617 6.219 1.844 1.269.875 2.289 2.015 3.062 3.422.8 1.469 1.203 3.008 1.203 4.61 0 2.804-1.281 5.183-3.844 7.14C16.9-.414 14.094.516 10.937.516 7.853.516 5.36-.36 3.454-2.11 1.586-3.816.656-6.035.656-8.766c0-3.05 1.133-5.539 3.406-7.468 2.375-2.04 5.258-3.063 8.657-3.063Zm-1.547 4.469c-.574 0-1.031.215-1.375.64-.336.418-.5.977-.5 1.672 0 .774.14 1.825.422 3.157.289 1.336.64 2.515 1.047 3.546.394 1.063 1.046 1.594 1.953 1.594 1.144 0 1.719-.726 1.719-2.187 0-1.082-.149-2.313-.438-3.688-.293-1.383-.64-2.508-1.047-3.375-.43-.875-1.023-1.328-1.781-1.36Zm0 0"/></symbol><symbol overflow="visible" id="y"><path style="stroke:none" d="M21.313-20.328c.32 0 .601.187.843.562.25.368.375.793.375 1.282 0 .53-.168 1.136-.5 1.812-.324.668-.718 1.2-1.187 1.594-.293.262-.438.469-.438.625 0 .031.008.183.032.453.039.273.062.516.062.734 0 1.543-.516 2.836-1.547 3.875-.93.93-2.125 1.653-3.594 2.172-1.468.512-3.078.766-4.828.766-.43 0-.851-.02-1.265-.063a7.407 7.407 0 0 0-.766-.062c-.688 0-1.031.34-1.031 1.016 0 .449.222.796.672 1.046.445.25 1.05.375 1.812.375.508 0 1.27-.07 2.281-.218 2.114-.29 3.676-.438 4.688-.438 1.52 0 2.695.25 3.531.75.676.387 1.207.93 1.594 1.625.394.7.594 1.45.594 2.25 0 1.3-.477 2.567-1.422 3.797-1.137 1.438-2.809 2.504-5.016 3.203-1.73.54-3.73.813-6 .813-2.867 0-5.187-.438-6.969-1.313-.824-.418-1.484-.96-1.984-1.625C.758 4.035.516 3.336.516 2.61c0-.5.14-.964.421-1.39C1.22.789 1.57.489 2 .312c.383-.156.578-.32.578-.5 0-.144-.164-.351-.484-.625C1.063-1.675.547-2.57.547-3.5c0-.625.242-1.266.734-1.922a5.2 5.2 0 0 1 1.86-1.531c.3-.156.453-.305.453-.453 0-.188-.196-.457-.578-.813-1.325-1.226-1.985-2.66-1.985-4.297 0-.863.235-1.691.703-2.484.47-.79 1.125-1.46 1.97-2.016 2.07-1.351 4.374-2.03 6.905-2.03 1 0 2.118.132 3.36.39 1.176.23 1.984.343 2.422.343 1.406 0 2.804-.55 4.203-1.656.312-.238.55-.36.718-.36Zm-10.516 4.015c-.649 0-1.168.247-1.563.735-.386.492-.578 1.14-.578 1.953 0 1.398.207 2.516.625 3.36.426.835.989 1.25 1.688 1.25.687 0 1.226-.258 1.625-.782.406-.531.61-1.234.61-2.11 0-1.374-.216-2.445-.642-3.218-.417-.77-1.007-1.164-1.765-1.188ZM6.578 1.297c-.324 0-.484.187-.484.562 0 .758.41 1.375 1.234 1.844.832.469 1.906.703 3.219.703 1.27 0 2.258-.168 2.969-.5.718-.336 1.078-.804 1.078-1.406 0-.324-.137-.602-.406-.828-.274-.23-.606-.344-1-.344-.211 0-.508.024-.891.078-.73.125-1.54.188-2.422.188-.656 0-1.293-.04-1.906-.11a6.453 6.453 0 0 1-1.094-.156 1.845 1.845 0 0 0-.297-.031Zm0 0"/></symbol><symbol overflow="visible" id="z"><path style="stroke:none" d="M10.125-19.14c.727 0 1.094.523 1.094 1.562v.328c-.012.21-.016.375-.016.5 0 .7.207 1.047.625 1.047.219 0 .563-.274 1.031-.828.688-.801 1.563-1.438 2.625-1.907a7.974 7.974 0 0 1 3.25-.703c2.157 0 3.657.79 4.5 2.36.313.586.57.875.782.875.144 0 .484-.258 1.015-.781 1.676-1.633 3.578-2.454 5.703-2.454 1.664 0 3.032.461 4.094 1.375 1.102.95 1.656 2.383 1.656 4.297 0 .406-.011 1.106-.03 2.094-.032.336-.048 1.344-.048 3.031 0 1.086-.008 1.844-.015 2.281a14.44 14.44 0 0 0-.016.579c0 .836.254 1.558.766 2.171.312.376.504.626.578.75.07.126.11.29.11.485C37.828-.422 35.882.406 32 .406c-1.719 0-3.105-.203-4.156-.61-1.055-.413-1.578-.96-1.578-1.64 0-.25.035-.441.109-.578.07-.133.32-.492.75-1.078.395-.531.594-2.29.594-5.281 0-1.75-.125-2.961-.375-3.64-.282-.813-.852-1.22-1.703-1.22a1.82 1.82 0 0 0-1.781 1.39c-.118.462-.18 1.7-.188 3.72.039 2.168.11 3.484.203 3.953.094.46.422 1.101.984 1.922.125.199.188.445.188.734 0 1.543-2.008 2.313-6.016 2.313-2.418 0-4.043-.184-4.875-.547-.68-.281-1.015-.785-1.015-1.516 0-.32.039-.547.125-.672.082-.125.367-.422.859-.89.29-.27.477-.524.563-.766.082-.238.14-.672.171-1.297.094-1.426.141-2.86.141-4.297 0-2.531-.648-3.797-1.938-3.797-.968 0-1.542.543-1.718 1.625-.156 1.024-.235 2.48-.235 4.375 0 1.418.024 2.344.079 2.782.062.437.222.898.484 1.375.312.554.469 1.007.469 1.359 0 .836-.59 1.414-1.766 1.734-1.281.352-2.688.532-4.219.532-1.992 0-3.449-.157-4.375-.47-.93-.32-1.39-.827-1.39-1.515 0-.25.054-.46.171-.64.125-.188.407-.473.844-.86.582-.531.922-1.258 1.016-2.187.133-1.602.203-3.266.203-4.985 0-1.218-.063-2.066-.188-2.546A2.063 2.063 0 0 0 1.672-14c-.399-.29-.652-.516-.766-.672-.105-.156-.156-.367-.156-.64 0-.864.676-1.547 2.031-2.047 3.27-1.176 5.719-1.77 7.344-1.782Zm0 0"/></symbol><symbol overflow="visible" id="A"><path style="stroke:none" d="M8.484-19.281c.645 0 1.696.14 3.157.422.289.054.535.078.734.078.219 0 .64-.114 1.266-.344.3-.113.554-.172.765-.172.594 0 1.192.383 1.797 1.14a8.25 8.25 0 0 1 1.188 2c.312.72.468 1.345.468 1.876 0 .511-.183.937-.547 1.281-.355.344-.804.516-1.343.516-.45 0-.856-.11-1.219-.329-.355-.218-.922-.703-1.703-1.453-.824-.8-1.508-1.203-2.047-1.203-.367 0-.684.137-.953.406-.262.262-.39.575-.39.938 0 .625.609 1.219 1.827 1.781 2.176.98 3.844 2.047 5 3.203.989.98 1.485 2.184 1.485 3.61 0 1.793-.793 3.289-2.375 4.484C14.238-.004 12.582.516 10.625.516c-.5 0-1.418-.086-2.75-.25C6.625.129 5.922.062 5.765.062c-.167 0-.359.016-.577.047-.375.051-.649.079-.813.079-.605 0-1.086-.153-1.438-.454-.523-.476-1.011-1.226-1.468-2.25-.45-1.03-.672-1.914-.672-2.656 0-1.187.46-1.781 1.39-1.781.364 0 .696.121 1 .36.301.241.938.874 1.907 1.905.531.575.968.97 1.312 1.188.344.21.719.313 1.125.313.426 0 .766-.114 1.016-.344.258-.227.39-.531.39-.906 0-.57-.496-1.098-1.484-1.579-2.086-1.02-3.59-2.07-4.516-3.156a5.623 5.623 0 0 1-1.374-3.75c0-1.539.472-2.863 1.421-3.969 1.344-1.593 3.176-2.39 5.5-2.39Zm0 0"/></symbol><symbol overflow="visible" id="B"><path style="stroke:none" d="M8.875-15.406c1.07 0 2.11.234 3.11.703.476.219.804.328.984.328.133 0 .351-.031.656-.094a1.51 1.51 0 0 1 .313-.031c.382 0 .722.18 1.015.531.695.856 1.047 1.918 1.047 3.188 0 .886-.305 1.539-.906 1.953-.336.219-.711.328-1.125.328-.375 0-.684-.078-.922-.234-.23-.164-.453-.457-.672-.875-.324-.57-.586-.985-.781-1.235a3.605 3.605 0 0 0-.735-.703c-.71-.5-1.453-.75-2.234-.75-.762 0-1.367.277-1.813.828-.449.543-.671 1.278-.671 2.203 0 1.262.32 2.422.968 3.485.864 1.406 2.11 2.11 3.735 2.11a5.44 5.44 0 0 0 1.765-.298c.594-.195 1.051-.457 1.375-.781.282-.258.508-.39.688-.39.258 0 .476.12.656.359.188.242.281.527.281.86 0 .429-.132.905-.39 1.437-.262.53-.57.949-.922 1.25-.156.125-.48.242-.969.343-.281.055-.652.188-1.11.407a7.856 7.856 0 0 1-3.405.78C7.57.297 6.342.02 5.124-.53A7.515 7.515 0 0 1 1.75-3.484C.937-4.774.531-6.125.531-7.531c0-1.633.508-3.13 1.531-4.485.883-1.164 2.036-2.062 3.454-2.687a8.372 8.372 0 0 1 3.359-.703Zm0 0"/></symbol><symbol overflow="visible" id="C"><path style="stroke:none" d="m6.578-14.563-.156 4.641c-.012.555.16.828.516.828.175 0 .347-.117.515-.36.719-1.038 1.676-1.562 2.875-1.562 1.164 0 2.098.36 2.797 1.079.3.312.516.687.64 1.124.133.43.212 1.047.235 1.86l.094 4c.008.344.054.601.14.765.082.157.282.36.594.61.207.168.313.371.313.61 0 .792-1.204 1.187-3.61 1.187-2.136 0-3.203-.367-3.203-1.11 0-.125.016-.218.047-.28.04-.071.172-.255.39-.548.313-.406.47-1.414.47-3.031 0-.988-.094-1.707-.282-2.156-.242-.614-.672-.922-1.297-.922-.449 0-.781.168-1 .5-.156.23-.234.672-.234 1.328v2.125c.05.95.094 1.484.125 1.61.039.124.21.355.516.687.144.156.218.34.218.547 0 .836-1.086 1.25-3.25 1.25C1.488.219.22-.211.22-1.078c0-.195.039-.348.125-.453.082-.102.281-.27.594-.5.28-.196.472-.727.578-1.594.113-.875.171-2.32.171-4.344 0-1.593-.046-2.691-.14-3.297-.031-.226-.09-.394-.172-.5-.074-.113-.215-.226-.422-.343-.46-.227-.687-.5-.687-.813 0-.363.171-.66.515-.89.352-.227 1.02-.477 2-.75 1.32-.364 2.38-.547 3.172-.547.426 0 .633.183.625.546Zm0 0"/></symbol><symbol overflow="visible" id="D"><path style="stroke:none" d="M6.734-11.031c1.282 0 2.368.324 3.266.969.469.355.797.757.984 1.203.188.437.282 1.046.282 1.828l-.016 1.656c0 1.148.082 1.887.25 2.219.07.168.145.273.219.312.082.043.238.086.469.125.238.031.359.188.359.469 0 .355-.149.727-.438 1.11a3.612 3.612 0 0 1-1.093.952A3.425 3.425 0 0 1 9.28.297C8.508.297 7.895.03 7.437-.5c-.148-.188-.289-.281-.421-.281-.149 0-.344.09-.594.265-.73.54-1.563.813-2.5.813-.969 0-1.75-.211-2.344-.625a2.833 2.833 0 0 1-.937-1.063 2.905 2.905 0 0 1-.344-1.375c0-.77.312-1.445.937-2.03.957-.927 2.399-1.395 4.329-1.407.425 0 .69-.04.796-.125.114-.082.172-.281.172-.594 0-.781-.086-1.348-.25-1.703-.156-.352-.418-.531-.781-.531a.967.967 0 0 0-.594.203c-.18.137-.39.383-.64.734-.657.938-1.344 1.406-2.063 1.406-.367 0-.664-.101-.89-.312-.231-.219-.344-.5-.344-.844 0-.351.14-.707.422-1.062.289-.352.68-.664 1.171-.938 1.333-.707 2.723-1.062 4.172-1.062ZM6-4.625c-.324 0-.605.137-.844.406a1.33 1.33 0 0 0-.36.938c0 .355.083.64.25.86.165.218.391.327.673.327.593 0 .89-.492.89-1.484 0-.406-.046-.676-.14-.813-.086-.144-.242-.222-.469-.234Zm0 0"/></symbol><symbol overflow="visible" id="E"><path style="stroke:none" d="M13.844-6.938 14-3.046c.008.305.05.527.125.672.082.137.313.402.688.797.113.117.171.281.171.5 0 .48-.293.82-.875 1.016-.586.187-1.625.28-3.125.28-1.023 0-1.742-.09-2.156-.265-.437-.187-.656-.484-.656-.89a.67.67 0 0 1 .062-.329c.051-.07.204-.242.454-.515.289-.313.437-1.344.437-3.094 0-1.02-.121-1.773-.36-2.266-.187-.382-.542-.578-1.062-.578-.492 0-.828.164-1.016.485-.18.312-.265.886-.265 1.718v2.188c0 .437.023.742.078.906.05.156.234.465.547.922a.87.87 0 0 1 .125.453c0 .438-.305.762-.906.969C5.66.129 4.71.234 3.422.234 1.379.234.359-.19.359-1.046c0-.177.032-.306.094-.391.063-.094.207-.227.438-.407.195-.133.32-.289.375-.468.05-.188.097-.633.14-1.344.051-.832.078-1.711.078-2.64 0-.509-.043-.845-.125-1-.074-.157-.293-.349-.656-.579C.38-8.07.22-8.316.22-8.609c0-.29.129-.532.39-.72.258-.187.79-.425 1.594-.718.707-.25 1.39-.457 2.047-.625.656-.176 1.102-.265 1.344-.265.218 0 .406.085.562.25a.767.767 0 0 1 .235.562c0 .023-.008.117-.016.281a.87.87 0 0 0-.016.156c0 .356.145.532.438.532.176 0 .367-.14.578-.422.625-.914 1.547-1.375 2.766-1.375.925 0 1.718.246 2.375.734.468.344.789.75.968 1.219.188.469.305 1.156.36 2.063Zm0 0"/></symbol><symbol overflow="visible" id="F"><path style="stroke:none" d="M13.36-14.219v10.11c0 .574.019.945.062 1.109.05.156.187.313.406.469.258.187.438.351.531.484.094.137.141.309.141.516 0 .586-.594 1.031-1.781 1.343-1.063.27-2.133.407-3.203.407-.243 0-.399-.04-.47-.11-.062-.062-.105-.226-.124-.5-.043-.375-.18-.562-.406-.562-.125 0-.32.11-.579.328-.761.617-1.601.922-2.515.922-1.149 0-2.18-.422-3.094-1.266a6.312 6.312 0 0 1-1.297-1.765C.582-3.598.36-4.473.36-5.36c0-1.04.29-2.04.875-3a5.42 5.42 0 0 1 2.157-2.063c.77-.394 1.53-.594 2.28-.594.852 0 1.618.196 2.298.579a.572.572 0 0 0 .265.078c.227 0 .344-.317.344-.954 0-.269-.062-.472-.187-.609-.125-.144-.356-.27-.688-.375-.469-.144-.703-.406-.703-.781 0-.54.535-.961 1.61-1.266 1.882-.52 3.148-.781 3.796-.781.633 0 .953.305.953.906ZM7.343-8.656c-.48 0-.86.258-1.14.765-.376.68-.563 1.575-.563 2.688 0 1 .18 1.758.546 2.266.258.367.61.546 1.047.546.477 0 .829-.273 1.047-.828.219-.562.328-1.46.328-2.703 0-1.133-.132-1.89-.39-2.266-.2-.289-.492-.445-.875-.468Zm0 0"/></symbol><symbol overflow="visible" id="G"><path style="stroke:none" d="M5.594-10.953c.383 0 .617.058.703.172.082.105.16.46.234 1.062.032.324.145.485.344.485.145 0 .285-.11.422-.329.582-.914 1.351-1.374 2.312-1.374.664 0 1.211.218 1.641.656.207.21.375.484.5.828a2.6 2.6 0 0 1 .203.953c0 .355-.086.715-.25 1.078a2.435 2.435 0 0 1-.625.89c-.469.45-1.047.673-1.734.673-.375 0-.696-.063-.953-.188-.25-.133-.579-.406-.985-.812-.156-.157-.304-.235-.437-.235-.211 0-.344.121-.407.36-.062.23-.093.714-.093 1.453 0 1.117.039 1.875.125 2.281.05.219.125.375.218.469.094.086.29.168.594.25.657.199.985.547.985 1.047 0 .304-.11.57-.329.796-.21.22-.492.368-.843.438-.711.145-1.746.219-3.11.219-1.312 0-2.308-.117-2.984-.344C.52-.332.219-.688.219-1.188c0-.382.222-.726.672-1.03.207-.145.351-.274.437-.391.082-.114.14-.27.172-.47.113-.663.172-1.905.172-3.718 0-.332-.04-.57-.11-.719-.074-.144-.218-.257-.437-.343-.531-.207-.797-.508-.797-.907 0-.351.18-.656.547-.906.363-.258.969-.515 1.813-.765 1.132-.333 2.101-.504 2.906-.516Zm0 0"/></symbol><symbol overflow="visible" id="H"><path style="stroke:none" d="M7.125-15.406c.758 0 1.754.187 2.984.562.145.043.266.063.36.063.07 0 .289-.067.656-.203.125-.04.25-.063.375-.063.5 0 1.02.39 1.563 1.172.55.781.828 1.527.828 2.234 0 .418-.125.766-.375 1.047-.243.281-.54.422-.891.422-.293 0-.531-.055-.719-.172-.187-.113-.594-.46-1.219-1.047-.886-.832-1.757-1.25-2.609-1.25-.418 0-.75.106-1 .313-.242.2-.36.46-.36.781 0 .637.563 1.121 1.688 1.453 1.531.45 2.508.778 2.938.985 1.875.906 2.812 2.25 2.812 4.03 0 1.575-.64 2.856-1.922 3.845C10.922-.211 9.207.296 7.094.296c-.95 0-1.95-.108-3-.327C3.05-.258 2.3-.523 1.844-.828c-.356-.238-.68-.754-.969-1.547a6.875 6.875 0 0 1-.422-2.313c0-.363.07-.64.219-.828a.88.88 0 0 1 .703-.343c.281 0 .547.14.797.421.156.168.523.688 1.11 1.563.269.418.702.762 1.296 1.031a4.352 4.352 0 0 0 1.844.406c.539 0 .976-.097 1.312-.296.344-.207.516-.47.516-.782 0-.289-.137-.546-.406-.765-.262-.219-.688-.414-1.282-.594-1.054-.332-1.859-.633-2.421-.906a7.078 7.078 0 0 1-1.547-1.063C1.438-7.875.859-9.047.859-10.359c0-.645.149-1.274.454-1.891.3-.613.726-1.145 1.28-1.594 1.239-1.039 2.75-1.562 4.532-1.562Zm0 0"/></symbol><symbol overflow="visible" id="I"><path style="stroke:none" d="M10.64-4.953H5.438c-.23 0-.343.101-.343.297 0 .48.258.933.781 1.36.52.417 1.082.624 1.688.624.351 0 .742-.066 1.171-.203.426-.133.782-.3 1.063-.5.25-.176.453-.266.61-.266.187 0 .366.121.546.36.188.23.281.469.281.719 0 .53-.328 1.046-.984 1.546C9.07-.14 7.719.297 6.187.297c-1.554 0-2.851-.445-3.89-1.344a5.584 5.584 0 0 1-1.266-1.61A5.564 5.564 0 0 1 .375-5.28C.375-6.52.75-7.633 1.5-8.625a6.147 6.147 0 0 1 2.484-1.922 6.274 6.274 0 0 1 2.438-.469c1.406 0 2.598.399 3.578 1.188.488.406.89.883 1.203 1.422.344.617.516 1.219.516 1.812 0 .48-.102.875-.297 1.188-.2.304-.461.453-.781.453ZM5.735-7.031h1.11c.476 0 .718-.211.718-.64 0-.407-.117-.735-.343-.985-.23-.25-.532-.375-.907-.375-.406 0-.73.164-.968.484-.219.305-.328.61-.328.922 0 .219.05.375.156.469.101.086.289.125.562.125Zm0 0"/></symbol><symbol overflow="visible" id="J"><path style="stroke:none" d="m6.828-14.563-.11 3.47v1.53c0 .743.009 1.18.032 1.313.05.305.207.453.469.453.218 0 .554-.14 1.015-.422.457-.289.688-.504.688-.64 0-.082-.086-.227-.25-.438A.75.75 0 0 1 8.5-9.75c0-.79.977-1.188 2.938-1.188 1.019 0 1.82.106 2.406.313.238.074.437.215.594.422.156.2.234.414.234.64 0 .325-.164.555-.485.688-.062.031-.277.078-.64.14-.324.063-.746.266-1.266.61-.511.344-.765.594-.765.75 0 .105.312.59.937 1.453a44.402 44.402 0 0 0 1.735 2.266c.351.418.624.715.812.89.195.168.469.344.813.532.53.293.796.62.796.984 0 .398-.168.703-.5.922-.336.219-.793.328-1.375.328h-3.578c-.46-.008-.812-.176-1.062-.5L8.266-2.86c-.493-.613-.79-.976-.891-1.093-.105-.125-.195-.188-.266-.188-.093 0-.156.07-.187.204-.031.136-.047.386-.047.75 0 .335.035.578.11.734.081.148.253.328.515.547.188.148.281.37.281.672 0 .523-.273.898-.812 1.125-.543.226-1.446.343-2.703.343-1.47 0-2.43-.062-2.875-.187A1.25 1.25 0 0 1 .75-.391a1.157 1.157 0 0 1-.266-.734c0-.27.157-.508.47-.719.257-.176.425-.304.5-.39a.965.965 0 0 0 .187-.422c.164-1.031.242-2.625.234-4.781V-9.86c0-.82-.043-1.348-.125-1.579-.086-.226-.293-.363-.625-.406-.605-.082-.906-.332-.906-.75 0-.281.129-.535.39-.765.27-.227.707-.454 1.313-.672 1.937-.707 3.367-1.063 4.297-1.063.414 0 .617.18.61.531Zm0 0"/></symbol><symbol overflow="visible" id="K"><path style="stroke:none" d="m13.234-12.078-1.187 1.14c-.438.407-.656.782-.656 1.126 0 .187.046.374.14.562.102.18.297.43.578.75l4.125 4.781c.375.43.63.7.766.813.145.117.36.234.64.36.395.167.676.355.844.562.164.21.25.48.25.812C18.734-.39 18.176 0 17.062 0H12.86c-.28 0-.507-.063-.671-.188-.168-.124-.434-.437-.797-.937-.575-.781-1.336-1.688-2.282-2.719-.406-.437-.695-.722-.859-.86-.168-.132-.324-.202-.469-.202-.43 0-.64.402-.64 1.203 0 .656.14 1.11.421 1.36.051.03.172.109.36.234.394.261.594.586.594.968 0 .493-.325.84-.97 1.047-.648.207-1.741.313-3.28.313-1.368 0-2.36-.078-2.985-.235a1.22 1.22 0 0 1-.64-.406.979.979 0 0 1-.25-.656c0-.395.218-.734.656-1.016.195-.133.336-.281.422-.437.093-.156.176-.422.25-.797.144-.832.218-2.113.218-3.844 0-2.07-.078-3.539-.234-4.406-.062-.352-.148-.602-.25-.75-.094-.156-.273-.305-.531-.453-.418-.239-.625-.567-.625-.985 0-.351.129-.64.39-.859.258-.219.672-.379 1.235-.484.75-.145 1.691-.22 2.828-.22 1.164 0 2.023.11 2.578.329.508.21.766.578.766 1.11 0 .218-.043.39-.125.515-.074.117-.274.305-.594.563-.125.105-.242.355-.344.75-.093.386-.14.765-.14 1.14 0 .625.14.938.421.938.165 0 .329-.07.485-.22.164-.155.488-.523.969-1.108.55-.688.828-1.157.828-1.407 0-.133-.074-.332-.219-.594a1.167 1.167 0 0 1-.14-.515c0-.54.288-.926.874-1.156.594-.227 1.602-.344 3.032-.344 1.132 0 1.976.078 2.53.234.665.18 1 .57 1 1.172 0 .23-.073.45-.218.656a.949.949 0 0 1-.515.391c-.157.055-.512.086-1.063.094-.398 0-.695.047-.89.14-.188.086-.438.274-.75.563Zm0 0"/></symbol><symbol overflow="visible" id="L"><path style="stroke:none" d="M6.484-10.39v6c0 1.28.422 1.921 1.266 1.921.219 0 .426-.054.625-.172.207-.125.352-.273.438-.453.164-.351.25-1.144.25-2.375 0-1.207-.043-2.031-.126-2.468-.03-.188-.085-.32-.156-.407-.074-.082-.215-.18-.422-.297-.418-.218-.625-.5-.625-.843 0-.457.36-.774 1.079-.954 1.374-.332 2.726-.5 4.062-.5.75 0 1.125.399 1.125 1.188 0 .074-.008.234-.016.484-.011.356-.023.79-.03 1.297v4.875c0 .262.21.492.64.688.363.18.547.437.547.781 0 .668-.79 1.18-2.36 1.531-.93.219-1.824.328-2.687.328-.356 0-.594-.043-.719-.125-.125-.086-.2-.238-.219-.468-.043-.457-.183-.688-.422-.688a.515.515 0 0 0-.25.063c-.074.043-.296.187-.671.437-.75.512-1.555.766-2.407.766-1.418 0-2.418-.406-3-1.219-.492-.688-.734-1.844-.734-3.469 0-.601.004-1.117.016-1.547v-.515c0-.633-.06-1.098-.172-1.39a1.35 1.35 0 0 0-.625-.704C.598-8.77.41-8.883.328-8.969a.587.587 0 0 1-.11-.375c0-.562.427-.937 1.282-1.125a20.31 20.31 0 0 1 4.328-.469c.438 0 .656.184.656.547Zm0 0"/></symbol><symbol overflow="visible" id="M"><path style="stroke:none" d="M5.781-10.938c.426 0 .64.297.64.891v.188a2.967 2.967 0 0 0-.015.296c0 .399.117.594.36.594.125 0 .316-.16.578-.484a4.088 4.088 0 0 1 1.5-1.078 4.509 4.509 0 0 1 1.86-.406c1.237 0 2.097.449 2.577 1.343.176.336.328.5.453.5.07 0 .258-.144.563-.437.957-.938 2.047-1.406 3.265-1.406.958 0 1.739.261 2.344.78.633.544.953 1.36.953 2.454 0 .242-.011.64-.03 1.203-.013.188-.017.766-.017 1.734 0 .618-.007 1.047-.015 1.297a4.88 4.88 0 0 0-.016.344c0 .469.149.883.453 1.234.176.211.282.352.313.422.039.074.062.168.062.282 0 .949-1.109 1.421-3.328 1.421-.98 0-1.773-.117-2.375-.343-.594-.239-.89-.551-.89-.938a.67.67 0 0 1 .062-.328c.04-.082.18-.29.422-.625.227-.3.344-1.305.344-3.016 0-1-.074-1.695-.219-2.093-.156-.457-.48-.688-.969-.688a.968.968 0 0 0-.64.234A1.062 1.062 0 0 0 13.64-7c-.063.262-.102.969-.11 2.125.02 1.242.055 1.996.11 2.266.062.261.25.625.562 1.093.07.118.11.258.11.422 0 .875-1.149 1.313-3.438 1.313C9.5.219 8.57.113 8.094-.094c-.387-.156-.578-.441-.578-.86 0-.187.02-.316.062-.39.05-.07.219-.238.5-.5.156-.156.258-.3.313-.437.05-.133.086-.383.109-.75.05-.813.078-1.63.078-2.453 0-1.446-.371-2.172-1.11-2.172-.554 0-.882.312-.984.937-.093.574-.14 1.407-.14 2.5 0 .805.015 1.336.047 1.594.039.25.132.512.28.781.177.313.266.57.266.766 0 .48-.34.812-1.015 1a9.29 9.29 0 0 1-2.406.297c-1.137 0-1.97-.09-2.5-.266C.484-.234.219-.52.219-.907c0-.144.035-.269.11-.374.07-.102.233-.266.483-.485.333-.3.524-.718.579-1.25.07-.914.109-1.863.109-2.843 0-.707-.04-1.196-.11-1.47A1.112 1.112 0 0 0 .954-8c-.219-.164-.36-.29-.422-.375a.666.666 0 0 1-.094-.375c0-.488.383-.879 1.157-1.172 1.863-.676 3.258-1.015 4.187-1.015Zm0 0"/></symbol><symbol overflow="visible" id="N"><path style="stroke:none" d="M20.688-.39c-.032.062-.032.093-.032.156 0 .109.094.14.188.14L22.219 0c.125 0 .265-.156.297-.203l.843-1.11c2.938-.218 4.47-1.5 4.47-1.812 0-.078 0-.14-.063-.14-.203 0-.453.265-.563.359-.578.531-1.86.953-3.578 1.172.484-.844 2.64-3.516 6.484-7.891 1.735-1.984 5.063-6 11.297-11.313.188-.171.547-.265.547-.593 0-.125-.516-.203-.875-.203-.953 0-4.89 1.109-9.828 4.828-3.813 2.906-6.156 5.36-7.563 6.468-1.312-3.718-3.593-5.812-6.718-5.812-2.063 0-4.016 2.281-4.016 5.75 0 2.375 1.266 4.89 3.328 6.656C14.484-2.125 11.031-.266 8-.266c-3.016 0-4.797-1.53-4.797-2.968 0-.297.156-.547.219-.688.203.688.594 1.078 1.281 1.078.578 0 1-.547 1-1.234 0-.688-.61-1.14-1.469-1.14-.906 0-1.468.78-1.468 2.015C2.766-1.531 4.953.203 8.03.203c2.735 0 6.188-1.516 8.578-3.765 2.375 1.828 4.828 1.937 4.828 2.093 0 .063-.03.094-.062.157Zm2.734-9.172c.094.5.172 1.078.172 1.64 0 2.016-1.219 5.016-1.938 6.063-1.265-.094-3.36-.954-4.656-1.954Zm-6.75 5.484c-1.828-1.313-3.203-4.016-3.203-6.422 0-3.047 2.125-4.828 3.984-4.828 1.469 0 2.39.219 3.531 1.297 1.063 1.047 1.828 2.344 2.313 3.953ZM24.016-7.5c0-1.375-.235-1.89-.235-2.39 0-.126 2.61-2.735 7.797-6.72 3.688-2.828 7.188-4.328 9.11-4.5-.86.626-3.204 2.063-6.75 5.454-6.079 5.765-9.313 10.203-11 12.172.812-2.188 1.078-3.766 1.078-4.016Zm0 0"/></symbol><symbol overflow="visible" id="O"><path style="stroke:none" d="M1.984-.36c-.062.063-.062.126-.062.235 0 .094.062.125.172.125h1.203c.625 0 5.547-5.875 7.89-5.875.297 0 .594.094.594.39 0 .094-.625.782-1.61 1.61-1.265 1.11-2.015 1.75-2.015 2.922 0 .562.453.984 1.016.984 1.531 0 4.719-2.875 4.719-3.156 0-.078-.032-.14-.094-.14a.284.284 0 0 0-.219.093C11.484-1.234 9.891-.359 9.141-.359c-.172 0-.36-.094-.36-.266 0-.36.938-1.234 2.735-2.86.515-.468.812-1.078.812-1.765 0-.625-.36-1.016-1-1.016-1.375 0-2.625 1.079-4.406 2.516.328-.563.64-1.14.64-1.64 0-.485-.312-.907-.75-.907-2.015 0-4.718 2.766-4.718 2.969 0 .062.031.125.094.125.093 0 .156-.031.234-.094 2.015-1.797 3.453-2.61 4.11-2.61.155 0 .39-.03.39.126 0 .437-.172.562-.36.75Zm0 0"/></symbol><symbol overflow="visible" id="P"><path style="stroke:none" d="M7.078-5.422c-.36 0-.75.39-.75.75 0 .39.266.625.688.625.421 0 1.171-.75 1.171-1.406 0-.61-.359-.906-1.015-.906-.813 0-3.578 1.328-4.828 2.828-.61.797-.844 1.437-.844 2.422 0 .718.625 1.312 1.344 1.312 1.89 0 5.547-2.906 5.547-3.328 0-.078-.032-.14-.11-.14-.187 0-.422.265-.484.328C5.844-1.079 3.328-.204 2.844-.204c-.297 0-.656-.188-.656-.453 0-1.047 3.953-5.25 5.062-5.25.313 0 .516.031.516.515 0 .11 0 .204-.094.204-.172 0-.328-.235-.594-.235Zm0 0"/></symbol><symbol overflow="visible" id="Q"><path style="stroke:none" d="M9.39-10.25c-.03.031-.03.078-.03.14 0 .063 0 .094.03.126l.626.593c.03.032.062.032.093.032.063 0 .11 0 .141-.032l.516-.625c.03-.03.03-.062.03-.125 0-.078 0-.109-.03-.14l-.485-.485c-.031-.03-.062-.062-.14-.062a.239.239 0 0 0-.157.062ZM2.376-3.062c-.422.421-1.031 1.437-1.031 2.078 0 .75.312 1.218.968 1.218 1.376 0 4.704-3.14 4.704-3.359 0-.078-.032-.14-.094-.14a.295.295 0 0 0-.234.093C4.53-1.203 3.03-.156 2.343-.156c-.281 0-.422-.14-.422-.438 0-.125.328-.64.625-.937L6.78-5.875c.063-.063.063-.125.063-.188 0-.078-.094-.14-.157-.14H5.454c-.172 0-.266.062-.328.14L3.328-4.468c-.719.594-1.265 1.016-1.265 1.14 0 .063.03.126.093.126.266 0 .578-.485 1.14-.813Zm0 0"/></symbol><symbol overflow="visible" id="R"><path style="stroke:none" d="M3.266-2.703c.187-.235.906-.328 2.046-.625 1.016-.266 2.813-1.469 2.813-2.344 0-.422-.36-.562-.813-.562-.687 0-3.328 1.015-4.89 2.671-.766.797-1.078 1.407-1.078 2.579 0 .687.61 1.218 1.39 1.218 2.157 0 5.782-2.968 5.782-3.359 0-.078-.032-.14-.094-.14a.295.295 0 0 0-.235.093c-.515.469-1.296 1.313-3 2.125-.78.36-1.53.89-2.453.89-.39 0-.78-.171-.78-.53 0-.391.202-.782.468-1.047Zm2.406-2.219c.469-.422 1.437-.953 1.703-.953.094 0 .234 0 .234.094 0 .89-1.796 2.062-3.734 2.422Zm0 0"/></symbol><symbol overflow="visible" id="S"><path style="stroke:none" d="M3.063-3.297c-.641.719-1.11 1.672-1.11 2.125 0 .875.297 1.375.953 1.375 1.625 0 5.281-3.078 5.281-3.328 0-.078-.03-.14-.093-.14-.203 0-.422.265-.485.328C5.875-1.407 3.75-.204 2.97-.204c-.235 0-.36-.188-.36-.422 0-.188.329-.61.563-.875l5.937-6.328h2.141c.11 0 .234-.063.234-.203 0-.125-.125-.188-.234-.188H9.531l2.188-2.453c.031-.062.031-.094.031-.156 0-.063-.11-.094-.172-.094h-1.047c-.125 0-.281.094-.36.156L7.767-8.219h-1.5c-.094 0-.204.156-.204.219 0 .078.141.172.204.172h.906c-3.031 2.797-5.11 4.078-5.11 4.5 0 .062.032.125.094.125.188 0 .422-.25.485-.328.984-.875 1.953-1.625 2.875-2.375Zm0 0"/></symbol><symbol overflow="visible" id="T"><path style="stroke:none" d="M22.578-10.531C19.797-5.703 14.968-.234 8.938-.234c-2.907 0-4.407-.782-4.407-2.22 0-.421.172-.671.328-.874.172.562.391.875.985.875.656 0 1.078-.422 1.078-1.031 0-.532-.563-.922-1.25-.922-.906 0-1.688.812-1.688 1.86 0 1.562 1.594 2.78 4.172 2.78 4.281 0 8.219-1.546 11.36-4.546 1.5-1.391 2.968-3.329 3.78-4.657 1.298-2.187 1.267-2.125 1.923-2.312 7.172-2.188 11.515-5.656 11.515-8.031 0-1.016-.812-1.172-1.984-1.172-2 0-6.89 2.765-9.734 6.625-1.391 1.89-1.891 2.828-2.438 2.859-1.281.078-3 .86-5.031.86-4.531 0-6.688-1.547-6.688-3.829 0-3.515 4.86-7.14 11.235-7.14.812 0 1.234.203 2.047.203.234 0 .656.062.656-.203 0-.125-1.172-.657-3-.657-6.031 0-11.453 3.36-11.453 7.641 0 2.344 2.375 4.375 6.094 4.375 3.078 0 5-.563 6.14-.781Zm2.438-1.188c3.468-5.64 7.703-8.375 9.984-8.375.594 0 1.156.422 1.156.782v.265c0 .125 0 .219-.078.39-.547 1.532-5.078 5.313-11.062 6.938Zm0 0"/></symbol><symbol overflow="visible" id="U"><path style="stroke:none" d="M5.125-2.672c.188.063.328.125.516.125.859 0 1.343-.265 1.343-.984 0-.703-.53-1.14-1.343-1.14-.75 0-1.329.53-1.329 1.28C4.313-1.17 6.5.234 10.47.234c1.734 0 4.281-.562 6.203-1.437 2.672-1.219 5.281-3.469 7.11-6.36 1.702-2.718 2.702-4.156 2.843-4.375 1.047-1.859 4.172-4.671 5.219-5.218.156-.063.125.25.125.422 0 .78.234 1.53.234 1.828 0 1.687-2.61 4.828-4.14 4.828-.47 0-.75-.172-.75-.625 0-1.078 1.859-2.344 3.187-2.547 1.016-.156 1.016-.219 1.016-.453 0-.125-.235-.063-.36-.063-1.797.094-4.265 1.407-4.265 3.297 0 .688.703 1.047 1.89 1.047 1.985 0 4.203-2.062 4.203-4.906 0-1.688-.718-2.89-.718-3.125 0-.235.234-.235.422-.328a80.631 80.631 0 0 0 3.468-2.188c.063-.062.032-.125.032-.218 0-.141-.204-.141-.297-.079a43.693 43.693 0 0 0-3.5 2.157c-.125.093-.188.234-.36.234-.125 0-.156-.14-.25-.234-1.672-2.125-4.547-3.266-8.265-3.266-8.547 0-15.032 6.297-15.032 10.016 0 2.453 1.954 4.015 5.766 4.015 4.797 0 9.766-4.734 9.766-7.531 0-1.438-1.203-2.578-2.875-2.578-3.657 0-5.375 1.734-7.735 3.453-.844.719-.656.719-1.328 1.64-.562.547-.828 1.079-1.281 1.688 0 .094.062.235.203.235.156 0 .719-.657 1.328-1.563.563-.86.985-1.219 1.735-1.89 2.312-2.157 4.734-3.172 6.656-3.172 1.593 0 2.765.953 2.765 1.796 0 .454 0 .72-.125 1.141-.78 2.281-5.78 6.328-10.437 6.328C10.969-7.797 9-9.203 9-11.28c0-3.89 6.656-9.703 14.453-9.703 5.719 0 8.156 3.078 8.156 3.406 0 .156-1.593 1.031-4.015 3.36C20.937-7.86 18.562-.157 10.28-.157c-3 0-4.969-.89-5.156-2.516Zm0 0"/></symbol><symbol overflow="visible" id="V"><path style="stroke:none" d="M7.313-3c-.532.719-.985 1.266-.985 2.375 0 .531.422.86.922.86 1.531 0 4.984-3.141 4.984-3.36 0-.078 0-.14-.062-.14a.394.394 0 0 0-.266.093C9.75-1.203 8.281-.156 7.375-.156c-.266 0-.422-.14-.422-.39 0-.329.39-.72.688-1.016l4.109-4.313c.063-.063.063-.125.063-.188 0-.109-.094-.14-.204-.14h-1.296c-.329 0-1.282 1.25-4.282 3.781C4.313-.953 3.063-.156 2.641-.156c-.454 0-.782 0-.782-.469 0-.156.063-.219.157-.328l4.828-4.922c.047-.031.047-.094.047-.156 0-.063-.079-.172-.141-.172H5.547c-.156 0-.297.11-.36.172l-2.968 2.5c-.063.078-.094.11-.094.203 0 .062 0 .125.063.125.187 0 .578-.39.984-.672L2.016-2.609a2.844 2.844 0 0 0-.672 1.796c0 .61.36 1.047 1.031 1.047C3.625.234 5.156-1.109 7.313-3Zm0 0"/></symbol><symbol overflow="visible" id="W"><path style="stroke:none" d="M4.11-4.203c-.813.906-1.376 1.984-1.376 2.937 0 .875.532 1.5 1.313 1.5.625 0 2.406-.859 4.469-2.546.187.453.546.687 1.015.687.875 0 2.078-1.219 2.078-1.5 0-.078-.03-.14-.093-.14-.094 0-.157.03-.235.093-.64.719-1.031 1.156-1.781 1.156-.36 0-.531-.171-.531-.53 0-.095.531-.75 1.203-1.376.5-.39 1.187-1.422 1.187-2.015 0-.157-.109-.297-.265-.297-.953 0-1.985 1.796-2.281 2.812-.297.969-4.016 3.188-4.579 3.188-.453 0-.906-.125-.906-.485 0-.328.36-.984.781-1.469l4.532-5.25a.486.486 0 0 1 .234-.203c7.313-3.156 11.188-7.015 11.188-8.875 0-.578-.422-.875-1.11-.875-.75 0-1.625.485-2.578 1.172-2.516 1.797-4.984 4.016-6.75 5.907L7.109-7.61c-.453.5-1.078.687-1.796 1.312-2.11 1.86-3.297 2.766-3.297 2.969 0 .062.046.125.109.125.297 0 1.078-1 3.422-2.64Zm10.796-9.953C16.703-15.984 18.141-17 19.187-17c.188 0 .36.14.36.328 0 1.672-3.531 5.453-9.922 8.188.75-1.079 1.797-2.125 2.844-3.204Zm0 0"/></symbol><symbol overflow="visible" id="X"><path style="stroke:none" d="M8.453-7.672c7.266-3.219 11.39-7.016 11.39-8.375 0-.594-.53-1.015-1.218-1.015-.813 0-2.672.875-4.563 2.453-3.78 3.125-5.28 5.015-5.39 5.109l-2.89 3C3.39-4.797 2.093-3.484 2.093-3.328c0 .062.031.125.094.125.296 0 .812-.781 2.015-1.563-1.11 1.407-2.016 2.547-2.016 3.594 0 .875.297 1.406 1.016 1.406 1.625 0 5.11-3.14 5.11-3.359 0-.078-.032-.14-.094-.14-.188 0-.422.265-.485.328-2.093 1.89-3.953 2.78-4.562 2.78-.297 0-.406-.202-.406-.468 0-.219.718-1.438 2-2.906Zm4.656-5.187c2.063-2.282 4.438-3.813 5.516-3.813.39 0 .688.203.688.594 0 1.078-4.11 5.015-10.25 7.797Zm0 0"/></symbol><symbol overflow="visible" id="Y"><path style="stroke:none" d="M7.406-7.672c0-.125-.062-.25-.234-.25-.063 0-.094.063-.125.094l-4.86 4.297c-.062.078-.093.11-.093.203 0 .062 0 .125.062.125.188 0 .453-.25.516-.328L6-6.328v.36C6-3.173 3.234-.157 1.828-.157c-.422 0-.875-.14-.875-.438 0-.094.156-.031.25-.031.328 0 .688-.36.688-.719 0-.422-.329-.61-.75-.61-.454 0-.75.485-.75 1.11 0 .578.625 1.078 1.406 1.078C3.39.234 6.75-1.5 6.75-4.109c0-.594-.328-1.407-.328-2.125 0-.547.89-1.329.984-1.438Zm0 0"/></symbol><symbol overflow="visible" id="Z"><path style="stroke:none" d="M8.484-2.844c-.687.594-1.109 1.188-1.109 1.969 0 .578.484 1.078 1.016 1.078 1.828 0 5.187-3.11 5.187-3.328 0-.078 0-.14-.078-.14-.188 0-.453.265-.516.328-1.921 1.765-3.75 2.734-4.562 2.734-.203 0-.39-.094-.39-.281 0-.422 1.03-1.22 2.546-2.485.61-.515 1.11-1.406 1.11-1.953 0-.719-.438-1.25-1.079-1.25-1.437 0-3.203 1.469-5.75 3.469l4.563-5.125c1.578-.75 4.156-1.734 7.219-3.75 2.734-1.797 4.109-3.531 4.109-4.375 0-.719-.36-1.016-1.11-1.016-2.187 0-5.906 3.11-11.328 8.844-.968 1.047-2.859 1.89-5.015 3.688-.656.484-1.235.906-1.235 1.109 0 .062.032.125.094.125.328 0 1.922-1.656 4.594-3.25L.984-.36c-.078.062-.03.125-.03.234 0 .063.093.125.155.125h1.204c.359 0 .812-.625 1.64-1.375 3.453-3.188 5.86-4.469 6.547-4.469.297 0 .594.266.594.532 0 .28-.953 1.078-2.61 2.468ZM15-13.438c.5-.5 1.219-1.53 2.75-2.39.781-.453 1.625-.75 1.922-.75.297 0 .656.234.656.469 0 .75-1.437 2.64-4.11 4.328-2.155 1.406-4.437 2.578-6 3.14Zm0 0"/></symbol><symbol overflow="visible" id="aa"><path style="stroke:none" d="M4.313-3.484C3.266-2.375 2.938-1.625 2.938-.813c0 .61.453 1.047 1.109 1.047 1.469 0 5.062-2.843 5.062-3.437 0-.39-1.218.719-1.375.953-.421.594-2.937 1.984-3.39 1.984-.328 0-.657.172-.657-.28 0-.173.485-.985 1.344-1.735 1.657-1.406 2.672-2.672 2.672-2.906 0-.063-.031-.125-.094-.204l-.687-.671c-.078-.079-.14-.11-.234-.11-.125 0-.547.297-1.532.297-.093 0-.125-.094-.234-.125.469-.14.781-.297.781-.781 0-.328-.36-.657-.75-.657-.422 0-.75.454-.75.985 0 .25.031.516.234.578.094.031.157.094.157.203 0 .031-.36.36-.516.484-1.234.985-2.016 1.704-2.016 1.86 0 .062.032.125.094.125.188 0 .719-.516 1.328-1.11.438-.359 1.344-1 1.61-1.14 0 0 .718-.094 1.234-.125Zm0 0"/></symbol><linearGradient id="b" gradientUnits="userSpaceOnUse" x1="0" y1="25.004" x2="0" y2="74.997" gradientTransform="matrix(21.57878 0 0 -13.30692 -811.035 998.35)"><stop offset="0" style="stop-color:#ed1c24;stop-opacity:1"/><stop offset=".004" style="stop-color:#ed1d24;stop-opacity:1"/><stop offset=".008" style="stop-color:#ed1d25;stop-opacity:1"/><stop offset=".012" style="stop-color:#ed1e25;stop-opacity:1"/><stop offset=".016" style="stop-color:#ed1f25;stop-opacity:1"/><stop offset=".02" style="stop-color:#ed2025;stop-opacity:1"/><stop offset=".023" style="stop-color:#ed2026;stop-opacity:1"/><stop offset=".027" style="stop-color:#ed2126;stop-opacity:1"/><stop offset=".031" style="stop-color:#ee2226;stop-opacity:1"/><stop offset=".035" style="stop-color:#ee2327;stop-opacity:1"/><stop offset=".039" style="stop-color:#ee2327;stop-opacity:1"/><stop offset=".043" style="stop-color:#ee2427;stop-opacity:1"/><stop offset=".047" style="stop-color:#ee2528;stop-opacity:1"/><stop offset=".051" style="stop-color:#ee2628;stop-opacity:1"/><stop offset=".055" style="stop-color:#ee2628;stop-opacity:1"/><stop offset=".059" style="stop-color:#ee2729;stop-opacity:1"/><stop offset=".063" style="stop-color:#ee2829;stop-opacity:1"/><stop offset=".066" style="stop-color:#ee2929;stop-opacity:1"/><stop offset=".07" style="stop-color:#ee292a;stop-opacity:1"/><stop offset=".074" style="stop-color:#ee2a2a;stop-opacity:1"/><stop offset=".078" style="stop-color:#ee2b2a;stop-opacity:1"/><stop offset=".082" style="stop-color:#ee2c2b;stop-opacity:1"/><stop offset=".086" style="stop-color:#ee2c2b;stop-opacity:1"/><stop offset=".09" style="stop-color:#ef2d2b;stop-opacity:1"/><stop offset=".094" style="stop-color:#ef2e2c;stop-opacity:1"/><stop offset=".098" style="stop-color:#ef2f2c;stop-opacity:1"/><stop offset=".102" style="stop-color:#ef2f2c;stop-opacity:1"/><stop offset=".105" style="stop-color:#ef302d;stop-opacity:1"/><stop offset=".109" style="stop-color:#ef312d;stop-opacity:1"/><stop offset=".113" style="stop-color:#ef322e;stop-opacity:1"/><stop offset=".117" style="stop-color:#ef322e;stop-opacity:1"/><stop offset=".121" style="stop-color:#ef332e;stop-opacity:1"/><stop offset=".125" style="stop-color:#ef342f;stop-opacity:1"/><stop offset=".129" style="stop-color:#ef352f;stop-opacity:1"/><stop offset=".133" style="stop-color:#ef3530;stop-opacity:1"/><stop offset=".137" style="stop-color:#ef3630;stop-opacity:1"/><stop offset=".141" style="stop-color:#ef3731;stop-opacity:1"/><stop offset=".145" style="stop-color:#ef3831;stop-opacity:1"/><stop offset=".148" style="stop-color:#f03931;stop-opacity:1"/><stop offset=".152" style="stop-color:#f03932;stop-opacity:1"/><stop offset=".156" style="stop-color:#f03a32;stop-opacity:1"/><stop offset=".16" style="stop-color:#f03b33;stop-opacity:1"/><stop offset=".164" style="stop-color:#f03c33;stop-opacity:1"/><stop offset=".168" style="stop-color:#f03c34;stop-opacity:1"/><stop offset=".172" style="stop-color:#f03d34;stop-opacity:1"/><stop offset=".176" style="stop-color:#f03e35;stop-opacity:1"/><stop offset=".18" style="stop-color:#f03f35;stop-opacity:1"/><stop offset=".184" style="stop-color:#f04036;stop-opacity:1"/><stop offset=".188" style="stop-color:#f04036;stop-opacity:1"/><stop offset=".191" style="stop-color:#f04137;stop-opacity:1"/><stop offset=".195" style="stop-color:#f04237;stop-opacity:1"/><stop offset=".199" style="stop-color:#f04338;stop-opacity:1"/><stop offset=".203" style="stop-color:#f04338;stop-opacity:1"/><stop offset=".207" style="stop-color:#f14439;stop-opacity:1"/><stop offset=".211" style="stop-color:#f14539;stop-opacity:1"/><stop offset=".215" style="stop-color:#f1463a;stop-opacity:1"/><stop offset=".219" style="stop-color:#f1473a;stop-opacity:1"/><stop offset=".223" style="stop-color:#f1473b;stop-opacity:1"/><stop offset=".227" style="stop-color:#f1483b;stop-opacity:1"/><stop offset=".23" style="stop-color:#f1493c;stop-opacity:1"/><stop offset=".234" style="stop-color:#f14a3c;stop-opacity:1"/><stop offset=".238" style="stop-color:#f14b3d;stop-opacity:1"/><stop offset=".242" style="stop-color:#f14b3d;stop-opacity:1"/><stop offset=".246" style="stop-color:#f14c3e;stop-opacity:1"/><stop offset=".25" style="stop-color:#f14d3e;stop-opacity:1"/><stop offset=".254" style="stop-color:#f14e3f;stop-opacity:1"/><stop offset=".258" style="stop-color:#f14f40;stop-opacity:1"/><stop offset=".262" style="stop-color:#f24f40;stop-opacity:1"/><stop offset=".266" style="stop-color:#f25041;stop-opacity:1"/><stop offset=".27" style="stop-color:#f25141;stop-opacity:1"/><stop offset=".273" style="stop-color:#f25242;stop-opacity:1"/><stop offset=".277" style="stop-color:#f25342;stop-opacity:1"/><stop offset=".281" style="stop-color:#f25443;stop-opacity:1"/><stop offset=".285" style="stop-color:#f25444;stop-opacity:1"/><stop offset=".289" style="stop-color:#f25544;stop-opacity:1"/><stop offset=".293" style="stop-color:#f25645;stop-opacity:1"/><stop offset=".297" style="stop-color:#f25746;stop-opacity:1"/><stop offset=".301" style="stop-color:#f25846;stop-opacity:1"/><stop offset=".305" style="stop-color:#f25847;stop-opacity:1"/><stop offset=".309" style="stop-color:#f25947;stop-opacity:1"/><stop offset=".313" style="stop-color:#f25a48;stop-opacity:1"/><stop offset=".316" style="stop-color:#f25b49;stop-opacity:1"/><stop offset=".32" style="stop-color:#f35c49;stop-opacity:1"/><stop offset=".324" style="stop-color:#f35d4a;stop-opacity:1"/><stop offset=".328" style="stop-color:#f35d4b;stop-opacity:1"/><stop offset=".332" style="stop-color:#f35e4b;stop-opacity:1"/><stop offset=".336" style="stop-color:#f35f4c;stop-opacity:1"/><stop offset=".34" style="stop-color:#f3604d;stop-opacity:1"/><stop offset=".344" style="stop-color:#f3614d;stop-opacity:1"/><stop offset=".348" style="stop-color:#f3624e;stop-opacity:1"/><stop offset=".352" style="stop-color:#f3624f;stop-opacity:1"/><stop offset=".355" style="stop-color:#f3634f;stop-opacity:1"/><stop offset=".359" style="stop-color:#f36450;stop-opacity:1"/><stop offset=".363" style="stop-color:#f36551;stop-opacity:1"/><stop offset=".367" style="stop-color:#f36651;stop-opacity:1"/><stop offset=".371" style="stop-color:#f36752;stop-opacity:1"/><stop offset=".375" style="stop-color:#f46853;stop-opacity:1"/><stop offset=".379" style="stop-color:#f46853;stop-opacity:1"/><stop offset=".383" style="stop-color:#f46954;stop-opacity:1"/><stop offset=".387" style="stop-color:#f46a55;stop-opacity:1"/><stop offset=".391" style="stop-color:#f46b56;stop-opacity:1"/><stop offset=".395" style="stop-color:#f46c56;stop-opacity:1"/><stop offset=".398" style="stop-color:#f46d57;stop-opacity:1"/><stop offset=".402" style="stop-color:#f46d58;stop-opacity:1"/><stop offset=".406" style="stop-color:#f46e59;stop-opacity:1"/><stop offset=".41" style="stop-color:#f46f59;stop-opacity:1"/><stop offset=".414" style="stop-color:#f4705a;stop-opacity:1"/><stop offset=".418" style="stop-color:#f4715b;stop-opacity:1"/><stop offset=".422" style="stop-color:#f4725c;stop-opacity:1"/><stop offset=".426" style="stop-color:#f4735c;stop-opacity:1"/><stop offset=".43" style="stop-color:#f4735d;stop-opacity:1"/><stop offset=".434" style="stop-color:#f5745e;stop-opacity:1"/><stop offset=".438" style="stop-color:#f5755f;stop-opacity:1"/><stop offset=".441" style="stop-color:#f5765f;stop-opacity:1"/><stop offset=".445" style="stop-color:#f57760;stop-opacity:1"/><stop offset=".449" style="stop-color:#f57861;stop-opacity:1"/><stop offset=".453" style="stop-color:#f57962;stop-opacity:1"/><stop offset=".457" style="stop-color:#f57a63;stop-opacity:1"/><stop offset=".461" style="stop-color:#f57a63;stop-opacity:1"/><stop offset=".465" style="stop-color:#f57b64;stop-opacity:1"/><stop offset=".469" style="stop-color:#f57c65;stop-opacity:1"/><stop offset=".473" style="stop-color:#f57d66;stop-opacity:1"/><stop offset=".477" style="stop-color:#f57e67;stop-opacity:1"/><stop offset=".48" style="stop-color:#f57f68;stop-opacity:1"/><stop offset=".484" style="stop-color:#f58068;stop-opacity:1"/><stop offset=".488" style="stop-color:#f68169;stop-opacity:1"/><stop offset=".492" style="stop-color:#f6816a;stop-opacity:1"/><stop offset=".496" style="stop-color:#f6826b;stop-opacity:1"/><stop offset=".5" style="stop-color:#f6836c;stop-opacity:1"/><stop offset=".504" style="stop-color:#f6846d;stop-opacity:1"/><stop offset=".508" style="stop-color:#f6856d;stop-opacity:1"/><stop offset=".512" style="stop-color:#f6866e;stop-opacity:1"/><stop offset=".516" style="stop-color:#f6876f;stop-opacity:1"/><stop offset=".52" style="stop-color:#f68870;stop-opacity:1"/><stop offset=".523" style="stop-color:#f68971;stop-opacity:1"/><stop offset=".527" style="stop-color:#f68972;stop-opacity:1"/><stop offset=".531" style="stop-color:#f68a73;stop-opacity:1"/><stop offset=".535" style="stop-color:#f68b74;stop-opacity:1"/><stop offset=".539" style="stop-color:#f68c75;stop-opacity:1"/><stop offset=".543" style="stop-color:#f78d75;stop-opacity:1"/><stop offset=".547" style="stop-color:#f78e76;stop-opacity:1"/><stop offset=".551" style="stop-color:#f78f77;stop-opacity:1"/><stop offset=".555" style="stop-color:#f79078;stop-opacity:1"/><stop offset=".559" style="stop-color:#f79179;stop-opacity:1"/><stop offset=".563" style="stop-color:#f7927a;stop-opacity:1"/><stop offset=".566" style="stop-color:#f7927b;stop-opacity:1"/><stop offset=".57" style="stop-color:#f7937c;stop-opacity:1"/><stop offset=".574" style="stop-color:#f7947d;stop-opacity:1"/><stop offset=".578" style="stop-color:#f7957e;stop-opacity:1"/><stop offset=".582" style="stop-color:#f7967f;stop-opacity:1"/><stop offset=".586" style="stop-color:#f79780;stop-opacity:1"/><stop offset=".59" style="stop-color:#f79881;stop-opacity:1"/><stop offset=".594" style="stop-color:#f79982;stop-opacity:1"/><stop offset=".598" style="stop-color:#f89a83;stop-opacity:1"/><stop offset=".602" style="stop-color:#f89b84;stop-opacity:1"/><stop offset=".605" style="stop-color:#f89c85;stop-opacity:1"/><stop offset=".609" style="stop-color:#f89d86;stop-opacity:1"/><stop offset=".613" style="stop-color:#f89d86;stop-opacity:1"/><stop offset=".617" style="stop-color:#f89e87;stop-opacity:1"/><stop offset=".621" style="stop-color:#f89f88;stop-opacity:1"/><stop offset=".625" style="stop-color:#f8a089;stop-opacity:1"/><stop offset=".629" style="stop-color:#f8a18a;stop-opacity:1"/><stop offset=".633" style="stop-color:#f8a28b;stop-opacity:1"/><stop offset=".637" style="stop-color:#f8a38d;stop-opacity:1"/><stop offset=".641" style="stop-color:#f8a48e;stop-opacity:1"/><stop offset=".645" style="stop-color:#f8a58f;stop-opacity:1"/><stop offset=".648" style="stop-color:#f8a690;stop-opacity:1"/><stop offset=".652" style="stop-color:#f9a791;stop-opacity:1"/><stop offset=".656" style="stop-color:#f9a892;stop-opacity:1"/><stop offset=".66" style="stop-color:#f9a993;stop-opacity:1"/><stop offset=".664" style="stop-color:#f9aa94;stop-opacity:1"/><stop offset=".668" style="stop-color:#f9ab95;stop-opacity:1"/><stop offset=".672" style="stop-color:#f9ab96;stop-opacity:1"/><stop offset=".676" style="stop-color:#f9ac97;stop-opacity:1"/><stop offset=".68" style="stop-color:#f9ad98;stop-opacity:1"/><stop offset=".684" style="stop-color:#f9ae99;stop-opacity:1"/><stop offset=".688" style="stop-color:#f9af9a;stop-opacity:1"/><stop offset=".691" style="stop-color:#f9b09b;stop-opacity:1"/><stop offset=".695" style="stop-color:#f9b19c;stop-opacity:1"/><stop offset=".699" style="stop-color:#f9b29d;stop-opacity:1"/><stop offset=".703" style="stop-color:#f9b39e;stop-opacity:1"/><stop offset=".707" style="stop-color:#fab4a0;stop-opacity:1"/><stop offset=".711" style="stop-color:#fab5a1;stop-opacity:1"/><stop offset=".715" style="stop-color:#fab6a2;stop-opacity:1"/><stop offset=".719" style="stop-color:#fab7a3;stop-opacity:1"/><stop offset=".723" style="stop-color:#fab8a4;stop-opacity:1"/><stop offset=".727" style="stop-color:#fab9a5;stop-opacity:1"/><stop offset=".73" style="stop-color:#fabaa6;stop-opacity:1"/><stop offset=".734" style="stop-color:#fabba7;stop-opacity:1"/><stop offset=".738" style="stop-color:#fabca8;stop-opacity:1"/><stop offset=".742" style="stop-color:#fabdaa;stop-opacity:1"/><stop offset=".746" style="stop-color:#fabeab;stop-opacity:1"/><stop offset=".75" style="stop-color:#fabfac;stop-opacity:1"/><stop offset=".754" style="stop-color:#fac0ad;stop-opacity:1"/><stop offset=".758" style="stop-color:#fac0ae;stop-opacity:1"/><stop offset=".762" style="stop-color:#fbc1af;stop-opacity:1"/><stop offset=".766" style="stop-color:#fbc2b1;stop-opacity:1"/><stop offset=".77" style="stop-color:#fbc3b2;stop-opacity:1"/><stop offset=".773" style="stop-color:#fbc4b3;stop-opacity:1"/><stop offset=".777" style="stop-color:#fbc5b4;stop-opacity:1"/><stop offset=".781" style="stop-color:#fbc6b5;stop-opacity:1"/><stop offset=".785" style="stop-color:#fbc7b6;stop-opacity:1"/><stop offset=".789" style="stop-color:#fbc8b8;stop-opacity:1"/><stop offset=".793" style="stop-color:#fbc9b9;stop-opacity:1"/><stop offset=".797" style="stop-color:#fbcaba;stop-opacity:1"/><stop offset=".801" style="stop-color:#fbcbbb;stop-opacity:1"/><stop offset=".805" style="stop-color:#fbccbc;stop-opacity:1"/><stop offset=".809" style="stop-color:#fbcdbe;stop-opacity:1"/><stop offset=".813" style="stop-color:#fbcebf;stop-opacity:1"/><stop offset=".816" style="stop-color:#fccfc0;stop-opacity:1"/><stop offset=".82" style="stop-color:#fcd0c1;stop-opacity:1"/><stop offset=".824" style="stop-color:#fcd1c3;stop-opacity:1"/><stop offset=".828" style="stop-color:#fcd2c4;stop-opacity:1"/><stop offset=".832" style="stop-color:#fcd3c5;stop-opacity:1"/><stop offset=".836" style="stop-color:#fcd4c6;stop-opacity:1"/><stop offset=".84" style="stop-color:#fcd5c8;stop-opacity:1"/><stop offset=".844" style="stop-color:#fcd6c9;stop-opacity:1"/><stop offset=".848" style="stop-color:#fcd7ca;stop-opacity:1"/><stop offset=".852" style="stop-color:#fcd8cb;stop-opacity:1"/><stop offset=".855" style="stop-color:#fcd9cd;stop-opacity:1"/><stop offset=".859" style="stop-color:#fcdace;stop-opacity:1"/><stop offset=".863" style="stop-color:#fcdbcf;stop-opacity:1"/><stop offset=".867" style="stop-color:#fcdcd0;stop-opacity:1"/><stop offset=".871" style="stop-color:#fdddd2;stop-opacity:1"/><stop offset=".875" style="stop-color:#fdded3;stop-opacity:1"/><stop offset=".879" style="stop-color:#fddfd4;stop-opacity:1"/><stop offset=".883" style="stop-color:#fde0d6;stop-opacity:1"/><stop offset=".887" style="stop-color:#fde1d7;stop-opacity:1"/><stop offset=".891" style="stop-color:#fde2d8;stop-opacity:1"/><stop offset=".895" style="stop-color:#fde3da;stop-opacity:1"/><stop offset=".898" style="stop-color:#fde4db;stop-opacity:1"/><stop offset=".902" style="stop-color:#fde5dc;stop-opacity:1"/><stop offset=".906" style="stop-color:#fde6de;stop-opacity:1"/><stop offset=".91" style="stop-color:#fde7df;stop-opacity:1"/><stop offset=".914" style="stop-color:#fde8e0;stop-opacity:1"/><stop offset=".918" style="stop-color:#fde9e2;stop-opacity:1"/><stop offset=".922" style="stop-color:#feeae3;stop-opacity:1"/><stop offset=".926" style="stop-color:#feebe4;stop-opacity:1"/><stop offset=".93" style="stop-color:#feece6;stop-opacity:1"/><stop offset=".934" style="stop-color:#feede7;stop-opacity:1"/><stop offset=".938" style="stop-color:#feeee8;stop-opacity:1"/><stop offset=".941" style="stop-color:#feefea;stop-opacity:1"/><stop offset=".945" style="stop-color:#fef0eb;stop-opacity:1"/><stop offset=".949" style="stop-color:#fef1ed;stop-opacity:1"/><stop offset=".953" style="stop-color:#fef3ee;stop-opacity:1"/><stop offset=".957" style="stop-color:#fef4ef;stop-opacity:1"/><stop offset=".961" style="stop-color:#fef5f1;stop-opacity:1"/><stop offset=".965" style="stop-color:#fef6f2;stop-opacity:1"/><stop offset=".969" style="stop-color:#fef7f4;stop-opacity:1"/><stop offset=".973" style="stop-color:#fef8f5;stop-opacity:1"/><stop offset=".977" style="stop-color:#fff9f6;stop-opacity:1"/><stop offset=".98" style="stop-color:#fffaf8;stop-opacity:1"/><stop offset=".984" style="stop-color:#fffbf9;stop-opacity:1"/><stop offset=".988" style="stop-color:#fffcfb;stop-opacity:1"/><stop offset=".992" style="stop-color:#fffdfc;stop-opacity:1"/><stop offset=".996" style="stop-color:#fffefe;stop-opacity:1"/><stop offset="1" style="stop-color:#fff;stop-opacity:1"/></linearGradient><clipPath id="a"><path d="M0 .371h535.8V665.63H0Zm0 0"/></clipPath></defs><g clip-path="url(#a)"><path style="stroke:none;fill-rule:nonzero;fill:url(#b)" d="M0 665.629V.37h535.8V665.63Zm0 0"/></g><g style="fill:#fff;fill-opacity:1"><use xlink:href="#c" x="101.229" y="96.454"/><use xlink:href="#d" x="123.145" y="96.454"/><use xlink:href="#e" x="141.017" y="96.454"/><use xlink:href="#f" x="153.113" y="96.454"/><use xlink:href="#g" x="171.122" y="96.454"/><use xlink:href="#d" x="193.921" y="96.454"/><use xlink:href="#f" x="211.793" y="96.454"/></g><g style="fill:#fff;fill-opacity:1"><use xlink:href="#h" x="238.296" y="96.454"/><use xlink:href="#i" x="258.75" y="96.454"/></g><g style="fill:#fff;fill-opacity:1"><use xlink:href="#j" x="281.651" y="96.454"/><use xlink:href="#f" x="308.901" y="96.454"/><use xlink:href="#k" x="326.909" y="96.454"/></g><g style="fill:#fff;fill-opacity:1"><use xlink:href="#e" x="345.291" y="96.454"/><use xlink:href="#l" x="357.388" y="96.454"/><use xlink:href="#e" x="378.692" y="96.454"/><use xlink:href="#g" x="390.788" y="96.454"/><use xlink:href="#m" x="413.587" y="96.454"/></g><g style="fill:#231f20;fill-opacity:1"><use xlink:href="#c" x="102.424" y="97.051"/><use xlink:href="#d" x="124.339" y="97.051"/><use xlink:href="#e" x="142.212" y="97.051"/><use xlink:href="#f" x="154.308" y="97.051"/><use xlink:href="#g" x="172.316" y="97.051"/><use xlink:href="#d" x="195.115" y="97.051"/><use xlink:href="#f" x="212.987" y="97.051"/></g><g style="fill:#231f20;fill-opacity:1"><use xlink:href="#h" x="239.49" y="97.051"/><use xlink:href="#i" x="259.945" y="97.051"/></g><g style="fill:#231f20;fill-opacity:1"><use xlink:href="#j" x="282.846" y="97.051"/><use xlink:href="#f" x="310.096" y="97.051"/><use xlink:href="#k" x="328.104" y="97.051"/></g><g style="fill:#231f20;fill-opacity:1"><use xlink:href="#e" x="346.486" y="97.051"/><use xlink:href="#l" x="358.582" y="97.051"/><use xlink:href="#e" x="379.886" y="97.051"/><use xlink:href="#g" x="391.982" y="97.051"/><use xlink:href="#m" x="414.781" y="97.051"/></g><g style="fill:#ed1c24;fill-opacity:1"><use xlink:href="#c" x="101.827" y="96.752"/><use xlink:href="#d" x="123.743" y="96.752"/><use xlink:href="#e" x="141.615" y="96.752"/><use xlink:href="#f" x="153.711" y="96.752"/><use xlink:href="#g" x="171.719" y="96.752"/><use xlink:href="#d" x="194.518" y="96.752"/><use xlink:href="#f" x="212.39" y="96.752"/></g><g style="fill:#ed1c24;fill-opacity:1"><use xlink:href="#h" x="238.859" y="96.752"/><use xlink:href="#i" x="259.314" y="96.752"/></g><g style="fill:#ed1c24;fill-opacity:1"><use xlink:href="#j" x="282.215" y="96.752"/><use xlink:href="#f" x="309.465" y="96.752"/><use xlink:href="#k" x="327.473" y="96.752"/></g><g style="fill:#ed1c24;fill-opacity:1"><use xlink:href="#e" x="345.889" y="96.752"/><use xlink:href="#l" x="357.985" y="96.752"/><use xlink:href="#e" x="379.289" y="96.752"/><use xlink:href="#g" x="391.385" y="96.752"/><use xlink:href="#m" x="414.184" y="96.752"/></g><g style="fill:#fff;fill-opacity:1"><use xlink:href="#n" x="74.905" y="140.782"/><use xlink:href="#o" x="103.328" y="140.782"/><use xlink:href="#p" x="124.337" y="140.782"/><use xlink:href="#q" x="146.813" y="140.782"/><use xlink:href="#r" x="173.69" y="140.782"/><use xlink:href="#s" x="192.043" y="140.782"/><use xlink:href="#t" x="206.156" y="140.782"/><use xlink:href="#q" x="222.963" y="140.782"/><use xlink:href="#u" x="249.84" y="140.782"/></g><g style="fill:#fff;fill-opacity:1"><use xlink:href="#v" x="274.179" y="140.782"/><use xlink:href="#w" x="301.293" y="140.782"/></g><g style="fill:#fff;fill-opacity:1"><use xlink:href="#x" x="322.065" y="140.782"/><use xlink:href="#y" x="345.929" y="140.782"/></g><use xlink:href="#w" x="368.96" y="140.782" style="fill:#fff;fill-opacity:1"/><g style="fill:#fff;fill-opacity:1"><use xlink:href="#p" x="389.811" y="140.782"/><use xlink:href="#z" x="412.287" y="140.782"/><use xlink:href="#A" x="450.501" y="140.782"/></g><g style="fill:#231f20;fill-opacity:1"><use xlink:href="#n" x="76.298" y="141.478"/><use xlink:href="#o" x="104.72" y="141.478"/><use xlink:href="#p" x="125.73" y="141.478"/><use xlink:href="#q" x="148.206" y="141.478"/><use xlink:href="#r" x="175.083" y="141.478"/><use xlink:href="#s" x="193.436" y="141.478"/><use xlink:href="#t" x="207.548" y="141.478"/><use xlink:href="#q" x="224.356" y="141.478"/><use xlink:href="#u" x="251.232" y="141.478"/></g><g style="fill:#231f20;fill-opacity:1"><use xlink:href="#v" x="275.611" y="141.478"/><use xlink:href="#w" x="302.726" y="141.478"/></g><g style="fill:#231f20;fill-opacity:1"><use xlink:href="#x" x="323.458" y="141.478"/><use xlink:href="#y" x="347.321" y="141.478"/></g><use xlink:href="#w" x="370.353" y="141.478" style="fill:#231f20;fill-opacity:1"/><g style="fill:#231f20;fill-opacity:1"><use xlink:href="#p" x="391.204" y="141.478"/><use xlink:href="#z" x="413.68" y="141.478"/><use xlink:href="#A" x="451.894" y="141.478"/></g><g style="fill:#ed1c24;fill-opacity:1"><use xlink:href="#n" x="75.602" y="141.13"/><use xlink:href="#o" x="104.024" y="141.13"/><use xlink:href="#p" x="125.034" y="141.13"/><use xlink:href="#q" x="147.51" y="141.13"/><use xlink:href="#r" x="174.386" y="141.13"/><use xlink:href="#s" x="192.74" y="141.13"/><use xlink:href="#t" x="206.852" y="141.13"/><use xlink:href="#q" x="223.66" y="141.13"/><use xlink:href="#u" x="250.536" y="141.13"/></g><g style="fill:#ed1c24;fill-opacity:1"><use xlink:href="#v" x="274.915" y="141.13"/><use xlink:href="#w" x="302.029" y="141.13"/></g><g style="fill:#ed1c24;fill-opacity:1"><use xlink:href="#x" x="322.761" y="141.13"/><use xlink:href="#y" x="346.625" y="141.13"/></g><use xlink:href="#w" x="369.656" y="141.13" style="fill:#ed1c24;fill-opacity:1"/><g style="fill:#ed1c24;fill-opacity:1"><use xlink:href="#p" x="390.507" y="141.13"/><use xlink:href="#z" x="412.984" y="141.13"/><use xlink:href="#A" x="451.197" y="141.13"/></g><g style="fill:#fff;fill-opacity:1"><use xlink:href="#B" x="122.641" y="534.544"/><use xlink:href="#C" x="138.951" y="534.544"/><use xlink:href="#D" x="154.331" y="534.544"/><use xlink:href="#E" x="167.175" y="534.544"/><use xlink:href="#F" x="182.374" y="534.544"/><use xlink:href="#G" x="197.098" y="534.544"/></g><use xlink:href="#D" x="209.013" y="534.544" style="fill:#fff;fill-opacity:1"/><g style="fill:#fff;fill-opacity:1"><use xlink:href="#H" x="227.497" y="534.544"/><use xlink:href="#C" x="242.107" y="534.544"/><use xlink:href="#I" x="257.488" y="534.544"/><use xlink:href="#J" x="269.493" y="534.544"/><use xlink:href="#C" x="286.119" y="534.544"/><use xlink:href="#D" x="301.5" y="534.544"/><use xlink:href="#G" x="314.344" y="534.544"/></g><use xlink:href="#K" x="332.125" y="534.544" style="fill:#fff;fill-opacity:1"/><g style="fill:#fff;fill-opacity:1"><use xlink:href="#L" x="350.269" y="534.544"/><use xlink:href="#M" x="365.627" y="534.544"/><use xlink:href="#D" x="387.464" y="534.544"/><use xlink:href="#G" x="400.307" y="534.544"/></g><g style="fill:#231f20;fill-opacity:1"><use xlink:href="#B" x="123.438" y="534.942"/><use xlink:href="#C" x="139.747" y="534.942"/><use xlink:href="#D" x="155.127" y="534.942"/><use xlink:href="#E" x="167.971" y="534.942"/><use xlink:href="#F" x="183.17" y="534.942"/><use xlink:href="#G" x="197.894" y="534.942"/></g><use xlink:href="#D" x="209.809" y="534.942" style="fill:#231f20;fill-opacity:1"/><g style="fill:#231f20;fill-opacity:1"><use xlink:href="#H" x="228.293" y="534.942"/><use xlink:href="#C" x="242.903" y="534.942"/><use xlink:href="#I" x="258.284" y="534.942"/><use xlink:href="#J" x="270.289" y="534.942"/><use xlink:href="#C" x="286.916" y="534.942"/><use xlink:href="#D" x="302.296" y="534.942"/><use xlink:href="#G" x="315.14" y="534.942"/></g><use xlink:href="#K" x="332.922" y="534.942" style="fill:#231f20;fill-opacity:1"/><g style="fill:#231f20;fill-opacity:1"><use xlink:href="#L" x="351.066" y="534.942"/><use xlink:href="#M" x="366.424" y="534.942"/><use xlink:href="#D" x="388.26" y="534.942"/><use xlink:href="#G" x="401.104" y="534.942"/></g><g style="fill:#5f1609;fill-opacity:1"><use xlink:href="#B" x="123.04" y="534.743"/><use xlink:href="#C" x="139.349" y="534.743"/><use xlink:href="#D" x="154.729" y="534.743"/><use xlink:href="#E" x="167.573" y="534.743"/><use xlink:href="#F" x="182.772" y="534.743"/><use xlink:href="#G" x="197.496" y="534.743"/></g><use xlink:href="#D" x="209.411" y="534.743" style="fill:#5f1609;fill-opacity:1"/><g style="fill:#5f1609;fill-opacity:1"><use xlink:href="#H" x="227.895" y="534.743"/><use xlink:href="#C" x="242.505" y="534.743"/><use xlink:href="#I" x="257.886" y="534.743"/><use xlink:href="#J" x="269.891" y="534.743"/><use xlink:href="#C" x="286.518" y="534.743"/><use xlink:href="#D" x="301.898" y="534.743"/><use xlink:href="#G" x="314.742" y="534.743"/></g><use xlink:href="#K" x="332.524" y="534.743" style="fill:#5f1609;fill-opacity:1"/><g style="fill:#5f1609;fill-opacity:1"><use xlink:href="#L" x="350.668" y="534.743"/><use xlink:href="#M" x="366.026" y="534.743"/><use xlink:href="#D" x="387.862" y="534.743"/><use xlink:href="#G" x="400.706" y="534.743"/></g><g style="fill:#5f1609;fill-opacity:1"><use xlink:href="#N" x="142.654" y="581.179"/><use xlink:href="#O" x="168.39" y="581.179"/><use xlink:href="#P" x="180.165" y="581.179"/><use xlink:href="#Q" x="186.363" y="581.179"/><use xlink:href="#R" x="191.255" y="581.179"/><use xlink:href="#O" x="197.616" y="581.179"/><use xlink:href="#S" x="209.391" y="581.179"/></g><g style="fill:#5f1609;fill-opacity:1"><use xlink:href="#T" x="226.288" y="581.179"/><use xlink:href="#P" x="249.251" y="581.179"/><use xlink:href="#Q" x="255.449" y="581.179"/><use xlink:href="#R" x="260.342" y="581.179"/><use xlink:href="#O" x="266.702" y="581.179"/><use xlink:href="#P" x="278.478" y="581.179"/><use xlink:href="#R" x="284.675" y="581.179"/></g><g style="fill:#5f1609;fill-opacity:1"><use xlink:href="#U" x="301.898" y="581.179"/><use xlink:href="#V" x="326.884" y="581.179"/><use xlink:href="#W" x="336.996" y="581.179"/><use xlink:href="#X" x="346.488" y="581.179"/><use xlink:href="#Q" x="352.653" y="581.179"/><use xlink:href="#Y" x="357.545" y="581.179"/><use xlink:href="#Z" x="362.928" y="581.179"/><use xlink:href="#R" x="374.409" y="581.179"/><use xlink:href="#aa" x="380.77" y="581.179"/><use xlink:href="#Y" x="387.75" y="581.179"/></g></svg>