<svg xmlns="http://www.w3.org/2000/svg" xmlns:xlink="http://www.w3.org/1999/xlink" width="264.2" height="279.907" viewBox="0 0 198.15 209.93" version="1.2"><defs><symbol overflow="visible" id="a"><path style="stroke:none" d="M7.281-5.922c0-1.156-1.156-2.203-2.765-2.203H.5v.344h.234c.86 0 .891.11.891.547v6.328c0 .437-.031.562-.89.562H.5V0c.281-.031 1.266-.031 1.61-.031.359 0 1.328 0 1.624.031v-.344h-.25c-.859 0-.89-.125-.89-.562v-2.875h2.015c1.391 0 2.672-.953 2.672-2.14Zm-1.11 0c0 .5 0 1.844-1.937 1.844H2.578v-3.234c0-.391.016-.47.547-.47h1.11c1.937 0 1.937 1.345 1.937 1.86Zm0 0"/></symbol><symbol overflow="visible" id="b"><path style="stroke:none" d="M5.64-1.063v-.656h-.265v.657c0 .687-.281.78-.453.78-.438 0-.438-.64-.438-.812v-2.078c0-.656 0-1.125-.53-1.594a2.213 2.213 0 0 0-1.485-.546C1.5-5.313.75-4.673.75-3.891c0 .344.219.516.5.516s.484-.203.484-.5c0-.484-.421-.484-.609-.484.281-.5.844-.72 1.328-.72.547 0 1.25.454 1.25 1.532v.469C1.313-3.031.406-2.031.406-1.125.406-.172 1.5.125 2.22.125c.797 0 1.328-.484 1.562-1.047.047.547.406.985.922.985.25 0 .938-.172.938-1.125Zm-1.937-.609c0 1.156-.875 1.547-1.375 1.547-.594 0-1.078-.422-1.078-1 0-1.563 2.031-1.703 2.453-1.734Zm0 0"/></symbol><symbol overflow="visible" id="c"><path style="stroke:none" d="M3.875-1.469v-.687h-.25v.656c0 .86-.344 1.36-.813 1.36C2-.14 2-1.25 2-1.454v-3.328h1.672v-.344H2v-2.203h-.266C1.72-6.203 1.297-5.062.22-5.031v.25h1v3.312c0 1.313.89 1.594 1.515 1.594.75 0 1.141-.75 1.141-1.594Zm0 0"/></symbol><symbol overflow="visible" id="d"><path style="stroke:none" d="M4.844-1.422c0-.062-.063-.11-.125-.11-.094 0-.125.063-.14.11-.313 1-1.11 1.281-1.61 1.281S1.266-.469 1.266-2.53v-.235h3.296c.266 0 .282 0 .282-.218 0-1.204-.64-2.329-2.078-2.329-1.36 0-2.407 1.235-2.407 2.704C.36-1.031 1.58.125 2.891.125c1.421 0 1.953-1.297 1.953-1.547Zm-.735-1.562H1.281c.094-1.875 1.14-2.094 1.469-2.094 1.281 0 1.344 1.687 1.36 2.094Zm0 0"/></symbol><symbol overflow="visible" id="e"><path style="stroke:none" d="M4.203-4.563c0-.359-.328-.687-.828-.687-1.016 0-1.36 1.094-1.438 1.328h-.015V-5.25l-1.594.125v.344c.813 0 .906.093.906.672v3.234c0 .531-.125.531-.906.531V0c.344-.031 1-.031 1.344-.031.328 0 1.172 0 1.453.031v-.344h-.25c-.86 0-.89-.125-.89-.562v-1.875c0-1.14.484-2.235 1.39-2.235.11 0 .125 0 .172.016-.094.047-.281.125-.281.438 0 .343.265.484.468.484a.455.455 0 0 0 .47-.484Zm0 0"/></symbol><symbol overflow="visible" id="f"><path style="stroke:none" d="M6.203 0v-.344c-.594 0-.89 0-.906-.36V-2.89c0-1.109 0-1.437-.266-1.828-.36-.453-.906-.531-1.312-.531-1.156 0-1.61.984-1.703 1.219H2V-5.25l-1.625.125v.344c.813 0 .906.093.906.672v3.234c0 .531-.125.531-.906.531V0c.313-.031.953-.031 1.297-.031s.984 0 1.297.031v-.344c-.766 0-.906 0-.906-.531v-2.219c0-1.25.812-1.922 1.562-1.922.734 0 .906.61.906 1.344v2.797c0 .531-.14.531-.906.531V0c.297-.031.953-.031 1.281-.031.344 0 .985 0 1.297.031Zm0 0"/></symbol><symbol overflow="visible" id="h"><path style="stroke:none" d="M6.594-2.313c0-.093 0-.171-.125-.171-.11 0-.11.062-.125.156C6.266-.906 5.204-.094 4.125-.094c-.61 0-2.547-.328-2.547-3.297 0-2.953 1.938-3.296 2.547-3.296 1.078 0 1.953.906 2.156 2.359.016.125.016.156.157.156.156 0 .156-.031.156-.234V-6.75c0-.172 0-.25-.11-.25-.03 0-.078 0-.156.125l-.5.734C5.468-6.5 4.953-7 4.016-7 2.156-7 .562-5.422.562-3.39.563-1.345 2.157.218 4.017.218c1.609 0 2.578-1.375 2.578-2.531Zm0 0"/></symbol><symbol overflow="visible" id="i"><path style="stroke:none" d="M4.672-2.125c0-1.266-.984-2.313-2.188-2.313-1.25 0-2.203 1.079-2.203 2.313C.281-.844 1.312.109 2.47.109a2.208 2.208 0 0 0 2.203-2.234Zm-.828-.078c0 .36 0 .89-.219 1.328a1.267 1.267 0 0 1-1.14.734c-.438 0-.86-.203-1.141-.656-.25-.437-.25-1.047-.25-1.406 0-.39 0-.922.25-1.36a1.342 1.342 0 0 1 1.125-.671c.437 0 .86.218 1.125.656.25.422.25 1 .25 1.375Zm0 0"/></symbol><symbol overflow="visible" id="j"><path style="stroke:none" d="M5.313 0v-.313c-.516 0-.766 0-.782-.296V-2.5c0-.86 0-1.156-.297-1.516-.14-.171-.468-.375-1.046-.375-.735 0-1.188.438-1.47 1.047V-4.39l-1.405.11v.312c.703 0 .78.063.78.563V-.75c0 .438-.109.438-.78.438V0l1.125-.031L2.546 0v-.313c-.656 0-.766 0-.766-.437v-1.828c0-1.031.703-1.594 1.328-1.594.625 0 .735.547.735 1.11V-.75c0 .438-.11.438-.766.438V0l1.125-.031Zm0 0"/></symbol><symbol overflow="visible" id="k"><path style="stroke:none" d="M3.297-1.234v-.563h-.25v.547c0 .734-.297 1.11-.672 1.11-.656 0-.656-.907-.656-1.063V-3.97H3.14v-.312H1.719V-6.11h-.25c-.016.828-.313 1.875-1.282 1.921v.22h.844v2.734c0 1.218.922 1.343 1.282 1.343.703 0 .984-.703.984-1.343Zm0 0"/></symbol><symbol overflow="visible" id="l"><path style="stroke:none" d="M4.125-1.188c0-.093-.094-.109-.14-.109-.079 0-.11.063-.126.14C3.516-.14 2.625-.14 2.516-.14c-.485 0-.891-.296-1.11-.656-.312-.484-.312-1.14-.312-1.5h2.781c.219 0 .25 0 .25-.203 0-.984-.547-1.938-1.781-1.938C1.188-4.438.28-3.421.28-2.188.281-.859 1.312.11 2.453.11c1.219 0 1.672-1.093 1.672-1.296ZM3.469-2.5h-2.36C1.172-3.984 2-4.234 2.344-4.234c1.015 0 1.125 1.343 1.125 1.734Zm0 0"/></symbol><symbol overflow="visible" id="m"><path style="stroke:none" d="M5.125 0v-.313c-.547 0-.719-.015-.953-.296L2.844-2.33c.297-.374.672-.858.922-1.124.296-.36.703-.5 1.171-.516v-.312c-.25.031-.546.031-.812.031-.297 0-.828-.016-.953-.031v.312c.219.016.297.156.297.313 0 .156-.11.281-.156.344l-.61.765-.781-1c-.094-.094-.094-.11-.094-.172 0-.156.156-.234.36-.25v-.312l-1.079.031c-.203 0-.671 0-.937-.031v.312c.687 0 .703.016 1.172.61l.984 1.28c-.469.595-.469.61-.937 1.173a1.584 1.584 0 0 1-1.266.594V0c.25-.016.563-.031.813-.031L1.89 0v-.313c-.22-.03-.297-.156-.297-.296 0-.22.297-.547.89-1.266l.766.984c.078.11.203.282.203.329 0 .093-.094.25-.36.25V0l1.079-.031c.266 0 .656.015.953.031Zm0 0"/></symbol><symbol overflow="visible" id="o"><path style="stroke:none" d="M6.188-4.938c0-.968-.985-1.843-2.344-1.843h-3.5v.312h.234c.766 0 .797.11.797.469v5.219c0 .36-.031.469-.797.469H.344V0c.344-.031 1.078-.031 1.469-.031.375 0 1.109 0 1.468.031v-.313h-.25c-.765 0-.781-.109-.781-.468v-2.36h1.672c1.203 0 2.265-.796 2.265-1.796Zm-1.016 0c0 .47 0 1.547-1.578 1.547H2.219v-2.687c0-.328.031-.39.484-.39h.89c1.579 0 1.579 1.046 1.579 1.53Zm0 0"/></symbol><symbol overflow="visible" id="p"><path style="stroke:none" d="M3.61-3.781c0-.313-.313-.61-.735-.61-.719 0-1.078.672-1.219 1.094V-4.39l-1.375.11v.312c.688 0 .766.063.766.563V-.75c0 .438-.11.438-.766.438V0l1.125-.031c.407 0 .86 0 1.266.031v-.313h-.219c-.734 0-.75-.109-.75-.468v-1.516c0-.984.422-1.875 1.172-1.875.078 0 .094 0 .11.016a.43.43 0 0 0-.22.39.41.41 0 0 0 .422.422.421.421 0 0 0 .422-.437Zm0 0"/></symbol><symbol overflow="visible" id="q"><path style="stroke:none" d="M5.172-2.14c0-1.266-.969-2.25-2.11-2.25-.765 0-1.203.468-1.359.656v-3.157l-1.422.11v.312c.688 0 .766.063.766.563V0h.25l.36-.61c.155.22.562.72 1.296.72a2.234 2.234 0 0 0 2.219-2.25Zm-.828-.016c0 .375-.016.969-.313 1.406-.203.313-.578.64-1.11.64-.452 0-.812-.234-1.046-.609-.14-.203-.14-.234-.14-.406v-2.047c0-.187 0-.203.109-.36.39-.562.937-.64 1.172-.64.453 0 .796.266 1.046.64.25.407.282.97.282 1.376Zm0 0"/></symbol><symbol overflow="visible" id="r"><path style="stroke:none" d="M2.531 0v-.313c-.672 0-.781 0-.781-.437v-6.14l-1.422.109v.312c.688 0 .766.063.766.563V-.75c0 .438-.11.438-.766.438V0l1.094-.031Zm0 0"/></symbol><symbol overflow="visible" id="s"><path style="stroke:none" d="M8.063 0v-.313c-.516 0-.766 0-.766-.296V-2.5c0-.86 0-1.156-.313-1.516-.14-.171-.468-.375-1.046-.375-.829 0-1.266.594-1.438.985-.14-.875-.875-.985-1.313-.985-.734 0-1.187.438-1.468 1.047V-4.39l-1.407.11v.312c.704 0 .782.063.782.563V-.75c0 .438-.11.438-.782.438V0l1.125-.031L2.548 0v-.313c-.656 0-.766 0-.766-.437v-1.828c0-1.031.703-1.594 1.328-1.594.625 0 .735.547.735 1.11V-.75c0 .438-.11.438-.766.438V0l1.125-.031L5.313 0v-.313c-.672 0-.782 0-.782-.437v-1.828c0-1.031.703-1.594 1.344-1.594.625 0 .734.547.734 1.11V-.75c0 .438-.109.438-.78.438V0l1.124-.031Zm0 0"/></symbol><symbol overflow="visible" id="u"><path style="stroke:none" d="M4.953-1.844c0-1-.656-1.812-1.484-2l-1.281-.312a1.31 1.31 0 0 1-1-1.266c0-.687.53-1.297 1.312-1.297 1.656 0 1.875 1.625 1.938 2.078 0 .063 0 .11.109.11.14 0 .14-.047.14-.235V-6.75c0-.172 0-.25-.109-.25-.078 0-.078.016-.156.14l-.344.563C3.781-6.594 3.375-7 2.484-7 1.391-7 .563-6.125.563-5.062c0 .812.515 1.546 1.296 1.812.11.031.61.156 1.313.328.265.063.562.14.844.5.203.266.296.594.296.906 0 .72-.5 1.422-1.328 1.422-.28 0-1.046-.047-1.562-.531-.578-.531-.61-1.172-.625-1.531 0-.094-.078-.094-.11-.094-.125 0-.125.063-.125.25v1.984c0 .172 0 .235.11.235.062 0 .078-.016.14-.125 0 0 .032-.047.36-.563C1.484-.14 2.109.22 3 .22c1.156 0 1.953-.969 1.953-2.063Zm0 0"/></symbol><symbol overflow="visible" id="v"><path style="stroke:none" d="M5.313 0v-.313c-.704 0-.782-.062-.782-.546v-3.532l-1.453.11v.312c.688 0 .766.063.766.563v1.765c0 .86-.469 1.532-1.188 1.532-.844 0-.875-.47-.875-.985V-4.39l-1.468.11v.312c.78 0 .78.031.78.906v1.5c0 .766 0 1.672 1.5 1.672.563 0 1-.28 1.282-.89v.89Zm0 0"/></symbol><symbol overflow="visible" id="w"><path style="stroke:none" d="M2.453 0v-.313c-.656 0-.703-.046-.703-.437v-3.64l-1.39.109v.312c.656 0 .734.063.734.547V-.75c0 .438-.11.438-.766.438V0l1.094-.031c.344 0 .687.015 1.031.031Zm-.547-6a.534.534 0 0 0-.531-.516A.533.533 0 0 0 .844-6c0 .281.234.531.531.531A.536.536 0 0 0 1.906-6Zm0 0"/></symbol><clipPath id="g"><path d="M0 .414h98V95H0Zm0 0"/></clipPath><clipPath id="n"><path d="M0 115h98v94.445H0Zm0 0"/></clipPath><clipPath id="t"><path d="M100 47h97.305v116H100Zm0 0"/></clipPath></defs><path style="stroke:none;fill-rule:nonzero;fill:#d9d9d9;fill-opacity:1" d="M135.344 104.93c0-31.18-25.274-56.453-56.453-56.453-31.176 0-56.45 25.273-56.45 56.453 0 31.175 25.274 56.449 56.45 56.449 31.18 0 56.453-25.274 56.453-56.45Zm0 0"/><use xlink:href="#a" x="59.542" y="108.934" style="fill:#000;fill-opacity:1"/><g style="fill:#000;fill-opacity:1"><use xlink:href="#b" x="67.16" y="108.934"/><use xlink:href="#c" x="72.993" y="108.934"/><use xlink:href="#c" x="77.529" y="108.934"/><use xlink:href="#d" x="82.064" y="108.934"/><use xlink:href="#e" x="87.243" y="108.934"/><use xlink:href="#f" x="91.778" y="108.934"/></g><path style="stroke:none;fill-rule:nonzero;fill:#f99;fill-opacity:.5" d="M74.66 36.484C74.66 17 58.863 1.204 39.38 1.204 19.89 1.203 4.098 17 4.098 36.483c0 19.485 15.793 35.282 35.28 35.282 19.485 0 35.282-15.797 35.282-35.282Zm0 0"/><g clip-path="url(#g)"><path style="fill:none;stroke-width:1.59404;stroke-linecap:butt;stroke-linejoin:miter;stroke:#fff;stroke-opacity:1;stroke-miterlimit:10" d="M-4.25 68.737c0 19.568-15.864 35.433-35.432 35.433-19.572 0-35.433-15.865-35.433-35.433 0-19.568 15.86-35.432 35.433-35.432 19.568 0 35.432 15.864 35.432 35.432Zm0 0" transform="matrix(.99573 0 0 -.99573 78.892 104.928)"/></g><g style="fill:#000;fill-opacity:.8"><use xlink:href="#h" x="22.018" y="39.872"/><use xlink:href="#i" x="29.18" y="39.872"/><use xlink:href="#j" x="34.14" y="39.872"/></g><g style="fill:#000;fill-opacity:.8"><use xlink:href="#k" x="39.388" y="39.872"/><use xlink:href="#l" x="43.246" y="39.872"/><use xlink:href="#m" x="47.651" y="39.872"/><use xlink:href="#k" x="52.889" y="39.872"/></g><path style="stroke:none;fill-rule:nonzero;fill:#99def9;fill-opacity:.5" d="M74.66 173.371c0-19.484-15.797-35.281-35.281-35.281-19.488 0-35.281 15.797-35.281 35.281 0 19.488 15.793 35.285 35.28 35.285 19.485 0 35.282-15.797 35.282-35.285Zm0 0"/><g clip-path="url(#n)"><path style="fill:none;stroke-width:1.59404;stroke-linecap:butt;stroke-linejoin:miter;stroke:#fff;stroke-opacity:1;stroke-miterlimit:10" d="M-4.25-68.737c0 19.568-15.864 35.433-35.432 35.433-19.572 0-35.433-15.865-35.433-35.433 0-19.571 15.86-35.436 35.433-35.436 19.568 0 35.432 15.865 35.432 35.436Zm0 0" transform="matrix(.99573 0 0 -.99573 78.892 104.928)"/></g><g style="fill:#000;fill-opacity:.8"><use xlink:href="#o" x="21.104" y="176.76"/><use xlink:href="#p" x="27.86" y="176.76"/><use xlink:href="#i" x="31.749" y="176.76"/><use xlink:href="#q" x="36.709" y="176.76"/><use xlink:href="#r" x="42.224" y="176.76"/><use xlink:href="#l" x="44.982" y="176.76"/><use xlink:href="#s" x="49.387" y="176.76"/></g><path style="stroke:none;fill-rule:nonzero;fill:#99f;fill-opacity:.5" d="M193.207 104.93c0-19.489-15.797-35.285-35.285-35.285-19.484 0-35.281 15.796-35.281 35.285 0 19.484 15.796 35.28 35.28 35.28 19.49 0 35.286-15.796 35.286-35.28Zm0 0"/><g clip-path="url(#t)"><path style="fill:none;stroke-width:1.59404;stroke-linecap:butt;stroke-linejoin:miter;stroke:#fff;stroke-opacity:1;stroke-miterlimit:10" d="M114.806-.002c0 19.572-15.865 35.437-35.437 35.437-19.568 0-35.432-15.865-35.432-35.437 0-19.567 15.864-35.432 35.432-35.432 19.572 0 35.437 15.865 35.437 35.432Zm0 0" transform="matrix(.99573 0 0 -.99573 78.892 104.928)"/></g><g style="fill:#000;fill-opacity:.8"><use xlink:href="#u" x="138.352" y="108.316"/><use xlink:href="#i" x="143.867" y="108.316"/><use xlink:href="#r" x="148.827" y="108.316"/><use xlink:href="#v" x="151.585" y="108.316"/><use xlink:href="#k" x="157.1" y="108.316"/><use xlink:href="#w" x="160.959" y="108.316"/><use xlink:href="#i" x="163.717" y="108.316"/><use xlink:href="#j" x="168.677" y="108.316"/></g></svg>